<?xml version="1.0" encoding="UTF-8" standalone="no"?>
<!DOCTYPE svg PUBLIC "-//W3C//DTD SVG 1.1//EN"
 "http://www.w3.org/Graphics/SVG/1.1/DTD/svg11.dtd">
<!-- Generated by graphviz version 8.0.5 (20230430.1635)
 -->
<!-- Pages: 1 -->
<svg width="562pt" height="469pt"
 viewBox="0.00 0.00 561.75 469.25" xmlns="http://www.w3.org/2000/svg" xmlns:xlink="http://www.w3.org/1999/xlink">
<g id="graph0" class="graph" transform="scale(1 1) rotate(0) translate(4 465.25)">
<polygon fill="white" stroke="none" points="-4,4 -4,-465.25 557.75,-465.25 557.75,4 -4,4"/>
<text text-anchor="start" x="8" y="-76.95" font-family="Times,serif" font-size="14.00"> &#160;&#160;&#160;&#160;&#160;&#160;&#160;Each node is a smart contract.</text>
<text text-anchor="start" x="8" y="-59.7" font-family="Times,serif" font-size="14.00"> &#160;&#160;&#160;&#160;&#160;&#160;&#160;Arrows denote a message sent from one smart contract to another.</text>
<text text-anchor="start" x="8" y="-42.45" font-family="Times,serif" font-size="14.00"> &#160;&#160;&#160;&#160;&#160;&#160;&#160;The number on each arrow shows the order of messages.</text>
<text text-anchor="start" x="8" y="-25.2" font-family="Times,serif" font-size="14.00"> &#160;&#160;&#160;&#160;&#160;&#160;&#160;Each arrow has an operation identifying the message type being sent.</text>
<text text-anchor="middle" x="276.88" y="-7.95" font-family="Times,serif" font-size="14.00"> &#160;&#160;&#160;&#160;&#160;&#160;&#160;</text>
<!-- staker1 -->
<g id="node1" class="node">
<title>staker1</title>
<ellipse fill="#b3cde3" stroke="#b3cde3" cx="147.65" cy="-443.25" rx="49.1" ry="18"/>
<text text-anchor="middle" x="147.65" y="-438.57" font-family="Times,serif" font-size="14.00">staker1</text>
</g>
<!-- wallet1 -->
<g id="node3" class="node">
<title>wallet1</title>
<ellipse fill="#ccebc5" stroke="#ccebc5" cx="69.65" cy="-285.75" rx="48.05" ry="18"/>
<text text-anchor="middle" x="69.65" y="-281.07" font-family="Times,serif" font-size="14.00">wallet1</text>
</g>
<!-- staker1&#45;&gt;wallet1 -->
<g id="edge1" class="edge">
<title>staker1&#45;&gt;wallet1</title>
<path fill="none" stroke="black" d="M112.49,-430.23C101.75,-424.85 90.98,-417.37 84.15,-407.25 65.68,-379.86 64.39,-340.82 66.17,-314.67"/>
<polygon fill="black" stroke="black" points="69.72,-315.26 67.12,-304.99 62.75,-314.64 69.72,-315.26"/>
<text text-anchor="start" x="84.65" y="-393.95" font-family="Times,serif" font-size="14.00">1</text>
<text text-anchor="start" x="84.65" y="-376.7" font-family="Times,serif" font-size="14.00"> op::send_tokens</text>
<text text-anchor="start" x="84.65" y="-359.45" font-family="Times,serif" font-size="14.00"> 0.10 TON</text>
<text text-anchor="start" x="84.65" y="-342.2" font-family="Times,serif" font-size="14.00"> tokens: 10</text>
</g>
<!-- staker2 -->
<g id="node2" class="node">
<title>staker2</title>
<ellipse fill="#b3cde3" stroke="#b3cde3" cx="362.65" cy="-443.25" rx="49.1" ry="18"/>
<text text-anchor="middle" x="362.65" y="-438.57" font-family="Times,serif" font-size="14.00">staker2</text>
</g>
<!-- wallet2 -->
<g id="node4" class="node">
<title>wallet2</title>
<ellipse fill="#ccebc5" stroke="#ccebc5" cx="216.65" cy="-128.25" rx="48.05" ry="18"/>
<text text-anchor="middle" x="216.65" y="-123.58" font-family="Times,serif" font-size="14.00">wallet2</text>
</g>
<!-- wallet1&#45;&gt;wallet2 -->
<g id="edge2" class="edge">
<title>wallet1&#45;&gt;wallet2</title>
<path fill="none" stroke="black" d="M63,-267.84C54.23,-242.4 42.46,-194.08 66.15,-164.25 77.88,-149.48 122.13,-140.38 159.64,-135.17"/>
<polygon fill="black" stroke="black" points="160.05,-138.51 169.51,-133.74 159.14,-131.57 160.05,-138.51"/>
<text text-anchor="start" x="66.65" y="-219.95" font-family="Times,serif" font-size="14.00">2</text>
<text text-anchor="start" x="66.65" y="-202.7" font-family="Times,serif" font-size="14.00"> op::receive_tokens</text>
<text text-anchor="start" x="66.65" y="-185.45" font-family="Times,serif" font-size="14.00"> 0.09 TON</text>
<text text-anchor="start" x="66.65" y="-168.2" font-family="Times,serif" font-size="14.00"> tokens: 10</text>
</g>
<!-- wallet2&#45;&gt;staker1 -->
<g id="edge4" class="edge">
<title>wallet2&#45;&gt;staker1</title>
<path fill="none" stroke="black" d="M217.79,-146.38C221.04,-199.86 228.54,-362.77 202.65,-407.25 199.02,-413.49 193.77,-418.8 187.95,-423.25"/>
<polygon fill="black" stroke="black" points="186.49,-420.68 180.13,-429.16 190.39,-426.5 186.49,-420.68"/>
<text text-anchor="start" x="221.65" y="-298.32" font-family="Times,serif" font-size="14.00">4</text>
<text text-anchor="start" x="221.65" y="-281.07" font-family="Times,serif" font-size="14.00"> op::gas_excess</text>
<text text-anchor="start" x="221.65" y="-263.82" font-family="Times,serif" font-size="14.00"> 0.07 TON</text>
</g>
<!-- wallet2&#45;&gt;staker2 -->
<g id="edge3" class="edge">
<title>wallet2&#45;&gt;staker2</title>
<path fill="none" stroke="black" d="M238.25,-144.62C265.64,-165.42 312.02,-205.24 334.65,-251.25 360.79,-304.39 364.19,-375.18 363.78,-413.93"/>
<polygon fill="black" stroke="black" points="360.26,-413.8 363.55,-423.87 367.26,-413.95 360.26,-413.8"/>
<text text-anchor="start" x="356.65" y="-306.95" font-family="Times,serif" font-size="14.00">3</text>
<text text-anchor="start" x="356.65" y="-289.7" font-family="Times,serif" font-size="14.00"> op::transfer_notification</text>
<text text-anchor="start" x="356.65" y="-272.45" font-family="Times,serif" font-size="14.00"> 0.01 TON</text>
<text text-anchor="start" x="356.65" y="-255.2" font-family="Times,serif" font-size="14.00"> tokens: 10</text>
</g>
</g>
</svg>
