<?xml version="1.0" encoding="UTF-8" standalone="no"?>
<!DOCTYPE svg PUBLIC "-//W3C//DTD SVG 1.1//EN"
 "http://www.w3.org/Graphics/SVG/1.1/DTD/svg11.dtd">
<!-- Generated by graphviz version 8.0.5 (20230430.1635)
 -->
<!-- Pages: 1 -->
<svg width="566pt" height="504pt"
 viewBox="0.00 0.00 566.25 503.75" xmlns="http://www.w3.org/2000/svg" xmlns:xlink="http://www.w3.org/1999/xlink">
<g id="graph0" class="graph" transform="scale(1 1) rotate(0) translate(4 499.75)">
<polygon fill="white" stroke="none" points="-4,4 -4,-499.75 562.25,-499.75 562.25,4 -4,4"/>
<text text-anchor="start" x="8" y="-145.95" font-family="Times,serif" font-size="14.00"> &#160;&#160;&#160;&#160;&#160;&#160;&#160;The black point denotes an external message starting the flow.</text>
<text text-anchor="start" x="8" y="-128.7" font-family="Times,serif" font-size="14.00"> &#160;&#160;&#160;&#160;&#160;&#160;&#160;&#160;Each node is a smart contract.</text>
<text text-anchor="start" x="8" y="-111.45" font-family="Times,serif" font-size="14.00"> &#160;&#160;&#160;&#160;&#160;&#160;&#160;&#160;Arrows denote a message sent from one smart contract to another.</text>
<text text-anchor="start" x="8" y="-94.2" font-family="Times,serif" font-size="14.00"> &#160;&#160;&#160;&#160;&#160;&#160;&#160;&#160;The number on each arrow shows the order of messages.</text>
<text text-anchor="start" x="8" y="-76.95" font-family="Times,serif" font-size="14.00"> &#160;&#160;&#160;&#160;&#160;&#160;&#160;&#160;Each arrow has an operation identifying the message type being sent.</text>
<text text-anchor="start" x="8" y="-59.7" font-family="Times,serif" font-size="14.00"> &#160;&#160;&#160;&#160;&#160;&#160;&#160;&#160;Blue nodes are simple TON wallets controlled by its owning user.</text>
<text text-anchor="start" x="8" y="-42.45" font-family="Times,serif" font-size="14.00"> &#160;&#160;&#160;&#160;&#160;&#160;&#160;&#160;Green nodes are hTON wallets.</text>
<text text-anchor="start" x="8" y="-25.2" font-family="Times,serif" font-size="14.00"> &#160;&#160;&#160;&#160;&#160;&#160;&#160;&#160;Dotted lines show the owner of each hTON wallet.</text>
<text text-anchor="middle" x="279.12" y="-7.95" font-family="Times,serif" font-size="14.00"> &#160;&#160;&#160;&#160;&#160;&#160;&#160;&#160;</text>
<!-- external -->
<g id="node1" class="node">
<title>external</title>
<ellipse fill="black" stroke="black" cx="112.77" cy="-477.75" rx="1.8" ry="1.8"/>
</g>
<!-- staker -->
<g id="node2" class="node">
<title>staker</title>
<ellipse fill="#b3cde3" stroke="#b3cde3" cx="192.77" cy="-477.75" rx="42.79" ry="18"/>
<text text-anchor="middle" x="192.77" y="-473.07" font-family="Times,serif" font-size="14.00">staker</text>
</g>
<!-- external&#45;&gt;staker -->
<g id="edge2" class="edge">
<title>external&#45;&gt;staker</title>
<path fill="none" stroke="black" d="M114.75,-477.75C118.69,-477.75 128.09,-477.75 139.05,-477.75"/>
<polygon fill="black" stroke="black" points="138.91,-481.25 148.91,-477.75 138.91,-474.25 138.91,-481.25"/>
<text text-anchor="middle" x="132.28" y="-484.7" font-family="Times,serif" font-size="14.00">1</text>
</g>
<!-- wallet -->
<g id="node4" class="node">
<title>wallet</title>
<ellipse fill="#ccebc5" stroke="#ccebc5" cx="337.77" cy="-346.12" rx="41.74" ry="18"/>
<text text-anchor="middle" x="337.77" y="-341.45" font-family="Times,serif" font-size="14.00">wallet</text>
</g>
<!-- staker&#45;&gt;wallet -->
<g id="edge1" class="edge">
<title>staker&#45;&gt;wallet</title>
<path fill="none" stroke="black" stroke-dasharray="1,5" d="M210.27,-461.11C235.85,-438.24 283.6,-395.55 312.85,-369.4"/>
<polygon fill="black" stroke="black" points="322.18,-365.76 312.39,-369.81 317.52,-360.54 322.18,-365.76"/>
</g>
<!-- treasury -->
<g id="node5" class="node">
<title>treasury</title>
<ellipse fill="#decbe4" stroke="#decbe4" cx="167.77" cy="-197.25" rx="53.84" ry="18"/>
<text text-anchor="middle" x="167.77" y="-192.57" font-family="Times,serif" font-size="14.00">treasury</text>
</g>
<!-- staker&#45;&gt;treasury -->
<g id="edge3" class="edge">
<title>staker&#45;&gt;treasury</title>
<path fill="none" stroke="black" d="M185.68,-459.71C177.6,-439.29 164.89,-403.83 160.02,-372 152.25,-321.05 158.29,-260.79 163.18,-226.29"/>
<polygon fill="black" stroke="black" points="166.75,-227.04 164.77,-216.63 159.83,-226.01 166.75,-227.04"/>
<text text-anchor="start" x="160.77" y="-358.7" font-family="Times,serif" font-size="14.00">2</text>
<text text-anchor="start" x="160.77" y="-341.45" font-family="Times,serif" font-size="14.00"> op::deposit_coins</text>
<text text-anchor="start" x="160.77" y="-324.2" font-family="Times,serif" font-size="14.00"> 10.10 TON</text>
</g>
<!-- driver -->
<g id="node3" class="node">
<title>driver</title>
<ellipse fill="#b3cde3" stroke="#b3cde3" cx="337.77" cy="-477.75" rx="41.74" ry="18"/>
<text text-anchor="middle" x="337.77" y="-473.07" font-family="Times,serif" font-size="14.00">driver</text>
</g>
<!-- wallet&#45;&gt;driver -->
<g id="edge5" class="edge">
<title>wallet&#45;&gt;driver</title>
<path fill="none" stroke="black" d="M337.77,-364.33C337.77,-385.77 337.77,-422.71 337.77,-448.37"/>
<polygon fill="black" stroke="black" points="334.28,-448.27 337.77,-458.27 341.28,-448.27 334.28,-448.27"/>
<text text-anchor="start" x="337.77" y="-428.45" font-family="Times,serif" font-size="14.00">4</text>
<text text-anchor="start" x="337.77" y="-411.2" font-family="Times,serif" font-size="14.00"> op::gas_excess</text>
<text text-anchor="start" x="337.77" y="-393.95" font-family="Times,serif" font-size="14.00"> 0.08 TON</text>
</g>
<!-- treasury&#45;&gt;wallet -->
<g id="edge4" class="edge">
<title>treasury&#45;&gt;wallet</title>
<path fill="none" stroke="black" d="M186.44,-214.37C216.83,-240.63 277.08,-292.69 311.69,-322.59"/>
<polygon fill="black" stroke="black" points="309.05,-325.8 318.9,-329.68 313.62,-320.5 309.05,-325.8"/>
<text text-anchor="start" x="287.77" y="-288.95" font-family="Times,serif" font-size="14.00">3</text>
<text text-anchor="start" x="287.77" y="-271.7" font-family="Times,serif" font-size="14.00"> op::save_coins</text>
<text text-anchor="start" x="287.77" y="-254.45" font-family="Times,serif" font-size="14.00"> 0.09 TON</text>
<text text-anchor="start" x="287.77" y="-237.2" font-family="Times,serif" font-size="14.00"> coins: 10</text>
</g>
</g>
</svg>
