<?xml version="1.0" encoding="UTF-8" standalone="no"?>
<!DOCTYPE svg PUBLIC "-//W3C//DTD SVG 1.1//EN"
 "http://www.w3.org/Graphics/SVG/1.1/DTD/svg11.dtd">
<!-- Generated by graphviz version 8.0.5 (20230430.1635)
 -->
<!-- Pages: 1 -->
<svg width="411pt" height="350pt"
 viewBox="0.00 0.00 411.00 349.75" xmlns="http://www.w3.org/2000/svg" xmlns:xlink="http://www.w3.org/1999/xlink">
<g id="graph0" class="graph" transform="scale(1 1) rotate(0) translate(4 345.75)">
<polygon fill="white" stroke="none" points="-4,4 -4,-345.75 407,-345.75 407,4 -4,4"/>
<text text-anchor="middle" x="201.5" y="-7.95" font-family="Times,serif" font-size="14.00">staker deposits 10 TON to receive near 10 hTON later</text>
<!-- external -->
<g id="node1" class="node">
<title>external</title>
<ellipse fill="black" stroke="black" cx="35.15" cy="-323.75" rx="1.8" ry="1.8"/>
</g>
<!-- staker -->
<g id="node2" class="node">
<title>staker</title>
<ellipse fill="#b3cde3" stroke="#b3cde3" cx="115.15" cy="-323.75" rx="42.79" ry="18"/>
<text text-anchor="middle" x="115.15" y="-319.07" font-family="Times,serif" font-size="14.00">staker</text>
</g>
<!-- external&#45;&gt;staker -->
<g id="edge2" class="edge">
<title>external&#45;&gt;staker</title>
<path fill="none" stroke="black" d="M37.13,-323.75C41.07,-323.75 50.46,-323.75 61.42,-323.75"/>
<polygon fill="black" stroke="black" points="61.28,-327.25 71.28,-323.75 61.28,-320.25 61.28,-327.25"/>
<text text-anchor="middle" x="54.65" y="-330.7" font-family="Times,serif" font-size="14.00">1</text>
</g>
<!-- wallet -->
<g id="node4" class="node">
<title>wallet</title>
<ellipse fill="#ccebc5" stroke="#ccebc5" cx="260.15" cy="-192.12" rx="41.74" ry="18"/>
<text text-anchor="middle" x="260.15" y="-187.45" font-family="Times,serif" font-size="14.00">wallet</text>
</g>
<!-- staker&#45;&gt;wallet -->
<g id="edge1" class="edge">
<title>staker&#45;&gt;wallet</title>
<path fill="none" stroke="black" stroke-dasharray="1,5" d="M132.64,-307.11C158.22,-284.24 205.98,-241.55 235.23,-215.4"/>
<polygon fill="black" stroke="black" points="244.56,-211.76 234.77,-215.81 239.89,-206.54 244.56,-211.76"/>
</g>
<!-- treasury -->
<g id="node5" class="node">
<title>treasury</title>
<ellipse fill="#decbe4" stroke="#decbe4" cx="90.15" cy="-43.25" rx="53.84" ry="18"/>
<text text-anchor="middle" x="90.15" y="-38.58" font-family="Times,serif" font-size="14.00">treasury</text>
</g>
<!-- staker&#45;&gt;treasury -->
<g id="edge3" class="edge">
<title>staker&#45;&gt;treasury</title>
<path fill="none" stroke="black" d="M108.06,-305.71C99.98,-285.29 87.26,-249.83 82.4,-218 74.62,-167.05 80.66,-106.79 85.55,-72.29"/>
<polygon fill="black" stroke="black" points="89.13,-73.04 87.14,-62.63 82.2,-72.01 89.13,-73.04"/>
<text text-anchor="start" x="83.15" y="-204.7" font-family="Times,serif" font-size="14.00">2</text>
<text text-anchor="start" x="83.15" y="-187.45" font-family="Times,serif" font-size="14.00"> op::deposit_coins</text>
<text text-anchor="start" x="83.15" y="-170.2" font-family="Times,serif" font-size="14.00"> 10.10 TON</text>
</g>
<!-- driver -->
<g id="node3" class="node">
<title>driver</title>
<ellipse fill="#b3cde3" stroke="#b3cde3" cx="260.15" cy="-323.75" rx="41.74" ry="18"/>
<text text-anchor="middle" x="260.15" y="-319.07" font-family="Times,serif" font-size="14.00">driver</text>
</g>
<!-- wallet&#45;&gt;driver -->
<g id="edge5" class="edge">
<title>wallet&#45;&gt;driver</title>
<path fill="none" stroke="black" d="M260.15,-210.33C260.15,-231.77 260.15,-268.71 260.15,-294.37"/>
<polygon fill="black" stroke="black" points="256.65,-294.27 260.15,-304.27 263.65,-294.27 256.65,-294.27"/>
<text text-anchor="start" x="260.15" y="-274.45" font-family="Times,serif" font-size="14.00">4</text>
<text text-anchor="start" x="260.15" y="-257.2" font-family="Times,serif" font-size="14.00"> op::gas_excess</text>
<text text-anchor="start" x="260.15" y="-239.95" font-family="Times,serif" font-size="14.00"> 0.08 TON</text>
</g>
<!-- treasury&#45;&gt;wallet -->
<g id="edge4" class="edge">
<title>treasury&#45;&gt;wallet</title>
<path fill="none" stroke="black" d="M108.81,-60.37C139.2,-86.63 199.46,-138.69 234.07,-168.59"/>
<polygon fill="black" stroke="black" points="231.42,-171.8 241.28,-175.68 236,-166.5 231.42,-171.8"/>
<text text-anchor="start" x="210.15" y="-134.95" font-family="Times,serif" font-size="14.00">3</text>
<text text-anchor="start" x="210.15" y="-117.7" font-family="Times,serif" font-size="14.00"> op::save_coins</text>
<text text-anchor="start" x="210.15" y="-100.45" font-family="Times,serif" font-size="14.00"> 0.09 TON</text>
<text text-anchor="start" x="210.15" y="-83.2" font-family="Times,serif" font-size="14.00"> coins: 10</text>
</g>
</g>
</svg>
