<?xml version="1.0" encoding="UTF-8" standalone="no"?>
<!DOCTYPE svg PUBLIC "-//W3C//DTD SVG 1.1//EN"
 "http://www.w3.org/Graphics/SVG/1.1/DTD/svg11.dtd">
<!-- Generated by graphviz version 8.0.5 (20230430.1635)
 -->
<!-- Pages: 1 -->
<svg width="519pt" height="384pt"
 viewBox="0.00 0.00 518.55 384.25" xmlns="http://www.w3.org/2000/svg" xmlns:xlink="http://www.w3.org/1999/xlink">
<g id="graph0" class="graph" transform="scale(1 1) rotate(0) translate(4 380.25)">
<polygon fill="white" stroke="none" points="-4,4 -4,-380.25 514.55,-380.25 514.55,4 -4,4"/>
<text text-anchor="middle" x="255.28" y="-7.95" font-family="Times,serif" font-size="14.00">staker1 sends 10 hTON to staker2</text>
<!-- staker1 -->
<g id="node1" class="node">
<title>staker1</title>
<ellipse fill="#b3cde3" stroke="#b3cde3" cx="126.05" cy="-358.25" rx="49.1" ry="18"/>
<text text-anchor="middle" x="126.05" y="-353.57" font-family="Times,serif" font-size="14.00">staker1</text>
</g>
<!-- wallet1 -->
<g id="node3" class="node">
<title>wallet1</title>
<ellipse fill="#ccebc5" stroke="#ccebc5" cx="48.05" cy="-200.75" rx="48.05" ry="18"/>
<text text-anchor="middle" x="48.05" y="-196.07" font-family="Times,serif" font-size="14.00">wallet1</text>
</g>
<!-- staker1&#45;&gt;wallet1 -->
<g id="edge1" class="edge">
<title>staker1&#45;&gt;wallet1</title>
<path fill="none" stroke="black" d="M90.89,-345.23C80.15,-339.85 69.38,-332.37 62.55,-322.25 44.08,-294.86 42.79,-255.82 44.57,-229.67"/>
<polygon fill="black" stroke="black" points="48.12,-230.26 45.52,-219.99 41.15,-229.64 48.12,-230.26"/>
<text text-anchor="start" x="63.05" y="-308.95" font-family="Times,serif" font-size="14.00">1</text>
<text text-anchor="start" x="63.05" y="-291.7" font-family="Times,serif" font-size="14.00"> op::send_tokens</text>
<text text-anchor="start" x="63.05" y="-274.45" font-family="Times,serif" font-size="14.00"> 0.10 TON</text>
<text text-anchor="start" x="63.05" y="-257.2" font-family="Times,serif" font-size="14.00"> tokens: 10</text>
</g>
<!-- staker2 -->
<g id="node2" class="node">
<title>staker2</title>
<ellipse fill="#b3cde3" stroke="#b3cde3" cx="341.05" cy="-358.25" rx="49.1" ry="18"/>
<text text-anchor="middle" x="341.05" y="-353.57" font-family="Times,serif" font-size="14.00">staker2</text>
</g>
<!-- wallet2 -->
<g id="node4" class="node">
<title>wallet2</title>
<ellipse fill="#ccebc5" stroke="#ccebc5" cx="195.05" cy="-43.25" rx="48.05" ry="18"/>
<text text-anchor="middle" x="195.05" y="-38.58" font-family="Times,serif" font-size="14.00">wallet2</text>
</g>
<!-- wallet1&#45;&gt;wallet2 -->
<g id="edge2" class="edge">
<title>wallet1&#45;&gt;wallet2</title>
<path fill="none" stroke="black" d="M41.41,-182.84C32.63,-157.4 20.86,-109.08 44.55,-79.25 56.28,-64.48 100.53,-55.38 138.04,-50.17"/>
<polygon fill="black" stroke="black" points="138.46,-53.51 147.91,-48.74 137.54,-46.57 138.46,-53.51"/>
<text text-anchor="start" x="45.05" y="-134.95" font-family="Times,serif" font-size="14.00">2</text>
<text text-anchor="start" x="45.05" y="-117.7" font-family="Times,serif" font-size="14.00"> op::receive_tokens</text>
<text text-anchor="start" x="45.05" y="-100.45" font-family="Times,serif" font-size="14.00"> 0.09 TON</text>
<text text-anchor="start" x="45.05" y="-83.2" font-family="Times,serif" font-size="14.00"> tokens: 10</text>
</g>
<!-- wallet2&#45;&gt;staker1 -->
<g id="edge4" class="edge">
<title>wallet2&#45;&gt;staker1</title>
<path fill="none" stroke="black" d="M196.19,-61.38C199.44,-114.86 206.94,-277.77 181.05,-322.25 177.42,-328.49 172.18,-333.8 166.35,-338.25"/>
<polygon fill="black" stroke="black" points="164.89,-335.68 158.53,-344.16 168.79,-341.5 164.89,-335.68"/>
<text text-anchor="start" x="200.05" y="-213.32" font-family="Times,serif" font-size="14.00">4</text>
<text text-anchor="start" x="200.05" y="-196.07" font-family="Times,serif" font-size="14.00"> op::gas_excess</text>
<text text-anchor="start" x="200.05" y="-178.82" font-family="Times,serif" font-size="14.00"> 0.07 TON</text>
</g>
<!-- wallet2&#45;&gt;staker2 -->
<g id="edge3" class="edge">
<title>wallet2&#45;&gt;staker2</title>
<path fill="none" stroke="black" d="M216.65,-59.62C244.04,-80.42 290.42,-120.24 313.05,-166.25 339.19,-219.39 342.59,-290.18 342.18,-328.93"/>
<polygon fill="black" stroke="black" points="338.66,-328.8 341.95,-338.87 345.66,-328.95 338.66,-328.8"/>
<text text-anchor="start" x="335.05" y="-221.95" font-family="Times,serif" font-size="14.00">3</text>
<text text-anchor="start" x="335.05" y="-204.7" font-family="Times,serif" font-size="14.00"> op::transfer_notification</text>
<text text-anchor="start" x="335.05" y="-187.45" font-family="Times,serif" font-size="14.00"> 0.01 TON</text>
<text text-anchor="start" x="335.05" y="-170.2" font-family="Times,serif" font-size="14.00"> tokens: 10</text>
</g>
</g>
</svg>
