<?xml version="1.0" encoding="UTF-8" standalone="no"?>
<!DOCTYPE svg PUBLIC "-//W3C//DTD SVG 1.1//EN"
 "http://www.w3.org/Graphics/SVG/1.1/DTD/svg11.dtd">
<!-- Generated by graphviz version 8.0.5 (20230430.1635)
 -->
<!-- Pages: 1 -->
<svg width="597pt" height="510pt"
 viewBox="0.00 0.00 597.00 509.50" xmlns="http://www.w3.org/2000/svg" xmlns:xlink="http://www.w3.org/1999/xlink">
<g id="graph0" class="graph" transform="scale(1 1) rotate(0) translate(4 505.5)">
<polygon fill="white" stroke="none" points="-4,4 -4,-505.5 593,-505.5 593,4 -4,4"/>
<text text-anchor="middle" x="294.5" y="-7.95" font-family="Times,serif" font-size="14.00">staker deposits 10 GRAM to receive ~10 hGRAM, when there is no active round</text>
<!-- staker -->
<g id="node1" class="node">
<title>staker</title>
<ellipse fill="#b3cde3" stroke="#b3cde3" cx="215.67" cy="-483.5" rx="42.79" ry="18"/>
<text text-anchor="middle" x="215.67" y="-478.82" font-family="Times,serif" font-size="14.00">staker</text>
</g>
<!-- treasury -->
<g id="node3" class="node">
<title>treasury</title>
<ellipse fill="#decbe4" stroke="#decbe4" cx="113.67" cy="-359.75" rx="53.84" ry="18"/>
<text text-anchor="middle" x="113.67" y="-355.07" font-family="Times,serif" font-size="14.00">treasury</text>
</g>
<!-- staker&#45;&gt;treasury -->
<g id="edge1" class="edge">
<title>staker&#45;&gt;treasury</title>
<path fill="none" stroke="black" d="M189.4,-468.93C179.97,-463.19 169.74,-455.89 161.92,-447.5 145.71,-430.12 132.96,-406.28 124.65,-388"/>
<polygon fill="black" stroke="black" points="127.48,-386.73 120.27,-378.96 121.06,-389.52 127.48,-386.73"/>
<text text-anchor="start" x="162.67" y="-434.2" font-family="Times,serif" font-size="14.00">1</text>
<text text-anchor="start" x="162.67" y="-416.95" font-family="Times,serif" font-size="14.00"> op::deposit_coins</text>
<text text-anchor="start" x="162.67" y="-399.7" font-family="Times,serif" font-size="14.00"> 10.10 GRAM</text>
</g>
<!-- wallet -->
<g id="node2" class="node">
<title>wallet</title>
<ellipse fill="#ccebc5" stroke="#ccebc5" cx="213.67" cy="-43.25" rx="41.74" ry="18"/>
<text text-anchor="middle" x="213.67" y="-38.58" font-family="Times,serif" font-size="14.00">wallet</text>
</g>
<!-- wallet&#45;&gt;staker -->
<g id="edge4" class="edge">
<title>wallet&#45;&gt;staker</title>
<path fill="none" stroke="black" d="M250.35,-52.27C264.86,-57.43 280.1,-65.8 288.67,-79.25 376.59,-217.3 375.86,-308.99 288.67,-447.5 282.54,-457.23 272.87,-464.32 262.55,-469.46"/>
<polygon fill="black" stroke="black" points="261.32,-466.61 253.55,-473.81 264.11,-473.03 261.32,-466.61"/>
<text text-anchor="start" x="353.67" y="-301.82" font-family="Times,serif" font-size="14.00">4</text>
<text text-anchor="start" x="353.67" y="-284.57" font-family="Times,serif" font-size="14.00"> op::transfer_notification</text>
<text text-anchor="start" x="353.67" y="-267.32" font-family="Times,serif" font-size="14.00"> 0.07 GRAM</text>
<text text-anchor="start" x="353.67" y="-250.07" font-family="Times,serif" font-size="14.00"> tokens: ~10</text>
</g>
<!-- parent -->
<g id="node4" class="node">
<title>parent</title>
<ellipse fill="#fed9a6" stroke="#fed9a6" cx="124.67" cy="-201.5" rx="44.37" ry="18"/>
<text text-anchor="middle" x="124.67" y="-196.82" font-family="Times,serif" font-size="14.00">parent</text>
</g>
<!-- treasury&#45;&gt;parent -->
<g id="edge2" class="edge">
<title>treasury&#45;&gt;parent</title>
<path fill="none" stroke="black" d="M104.6,-341.77C102.08,-336.19 99.69,-329.85 98.42,-323.75 90.6,-286.22 86.3,-273.87 98.42,-237.5 99.55,-234.11 101.15,-230.79 103.01,-227.62"/>
<polygon fill="black" stroke="black" points="106.38,-229.9 109.15,-219.67 100.61,-225.94 106.38,-229.9"/>
<text text-anchor="start" x="98.67" y="-310.45" font-family="Times,serif" font-size="14.00">2</text>
<text text-anchor="start" x="98.67" y="-293.2" font-family="Times,serif" font-size="14.00"> op::proxy_tokens_minted</text>
<text text-anchor="start" x="98.67" y="-275.95" font-family="Times,serif" font-size="14.00"> 0.09 GRAM</text>
<text text-anchor="start" x="98.67" y="-258.7" font-family="Times,serif" font-size="14.00"> tokens: ~10</text>
<text text-anchor="start" x="98.67" y="-241.45" font-family="Times,serif" font-size="14.00"> coins: 10</text>
</g>
<!-- parent&#45;&gt;wallet -->
<g id="edge3" class="edge">
<title>parent&#45;&gt;wallet</title>
<path fill="none" stroke="black" d="M124.68,-183.06C125.54,-157.77 130.44,-110.53 153.67,-79.25 158.99,-72.09 166.24,-66.15 173.86,-61.32"/>
<polygon fill="black" stroke="black" points="175.29,-63.96 182.24,-55.96 171.82,-57.88 175.29,-63.96"/>
<text text-anchor="start" x="153.67" y="-152.2" font-family="Times,serif" font-size="14.00">3</text>
<text text-anchor="start" x="153.67" y="-134.95" font-family="Times,serif" font-size="14.00"> op::tokens_minted</text>
<text text-anchor="start" x="153.67" y="-117.7" font-family="Times,serif" font-size="14.00"> 0.08 GRAM</text>
<text text-anchor="start" x="153.67" y="-100.45" font-family="Times,serif" font-size="14.00"> tokens: ~10</text>
<text text-anchor="start" x="153.67" y="-83.2" font-family="Times,serif" font-size="14.00"> coins: 10</text>
</g>
</g>
</svg>
