<?xml version="1.0" encoding="UTF-8" standalone="no"?>
<!DOCTYPE svg PUBLIC "-//W3C//DTD SVG 1.1//EN"
 "http://www.w3.org/Graphics/SVG/1.1/DTD/svg11.dtd">
<!-- Generated by graphviz version 8.0.5 (20230430.1635)
 -->
<!-- Pages: 1 -->
<svg width="561pt" height="334pt"
 viewBox="0.00 0.00 561.00 334.00" xmlns="http://www.w3.org/2000/svg" xmlns:xlink="http://www.w3.org/1999/xlink">
<g id="graph0" class="graph" transform="scale(1 1) rotate(0) translate(4 330)">
<polygon fill="white" stroke="none" points="-4,4 -4,-330 557,-330 557,4 -4,4"/>
<text text-anchor="middle" x="276.5" y="-7.95" font-family="Times,serif" font-size="14.00">user cannot convert coins to tokens before round&#39;s rewards are distributed</text>
<!-- external -->
<g id="node1" class="node">
<title>external</title>
<ellipse fill="black" stroke="black" cx="120.65" cy="-308" rx="1.8" ry="1.8"/>
</g>
<!-- staker -->
<g id="node2" class="node">
<title>staker</title>
<ellipse fill="#b3cde3" stroke="#b3cde3" cx="200.65" cy="-308" rx="42.79" ry="18"/>
<text text-anchor="middle" x="200.65" y="-303.32" font-family="Times,serif" font-size="14.00">staker</text>
</g>
<!-- external&#45;&gt;staker -->
<g id="edge2" class="edge">
<title>external&#45;&gt;staker</title>
<path fill="none" stroke="black" d="M122.63,-308C126.57,-308 135.96,-308 146.92,-308"/>
<polygon fill="black" stroke="black" points="146.78,-311.5 156.78,-308 146.78,-304.5 146.78,-311.5"/>
<text text-anchor="middle" x="140.15" y="-314.95" font-family="Times,serif" font-size="14.00">1</text>
</g>
<!-- wallet -->
<g id="node3" class="node">
<title>wallet</title>
<ellipse fill="#ccebc5" stroke="#ccebc5" cx="200.65" cy="-184.25" rx="41.74" ry="18"/>
<text text-anchor="middle" x="200.65" y="-179.57" font-family="Times,serif" font-size="14.00">wallet</text>
</g>
<!-- staker&#45;&gt;wallet -->
<g id="edge1" class="edge">
<title>staker&#45;&gt;wallet</title>
<path fill="none" stroke="black" stroke-dasharray="1,5" d="M189.38,-290.26C186.24,-284.69 183.25,-278.3 181.65,-272 175.99,-249.71 175.99,-242.54 181.65,-220.25 182.45,-217.1 183.6,-213.93 184.94,-210.85"/>
<polygon fill="black" stroke="black" points="192.28,-204.01 184.67,-211.38 186.02,-200.87 192.28,-204.01"/>
</g>
<!-- staker&#45;&gt;wallet -->
<g id="edge3" class="edge">
<title>staker&#45;&gt;wallet</title>
<path fill="none" stroke="black" d="M200.65,-289.56C200.65,-269.67 200.65,-236.87 200.65,-213.36"/>
<polygon fill="black" stroke="black" points="204.15,-213.66 200.65,-203.66 197.15,-213.66 204.15,-213.66"/>
<text text-anchor="start" x="200.65" y="-258.7" font-family="Times,serif" font-size="14.00">2</text>
<text text-anchor="start" x="200.65" y="-241.45" font-family="Times,serif" font-size="14.00"> op::stake_coins</text>
<text text-anchor="start" x="200.65" y="-224.2" font-family="Times,serif" font-size="14.00"> 0.07 TON</text>
</g>
<!-- wallet&#45;&gt;staker -->
<g id="edge6" class="edge">
<title>wallet&#45;&gt;staker</title>
<path fill="none" stroke="black" d="M242.41,-186.32C267.7,-189.4 298.16,-197.94 314.65,-220.25 328.32,-238.75 328.32,-253.5 314.65,-272 300.69,-290.89 276.72,-299.91 254.35,-304.1"/>
<polygon fill="black" stroke="black" points="253.88,-300.78 244.55,-305.79 254.97,-307.7 253.88,-300.78"/>
<text text-anchor="start" x="324.65" y="-258.7" font-family="Times,serif" font-size="14.00">5</text>
<text text-anchor="start" x="324.65" y="-241.45" font-family="Times,serif" font-size="14.00"> op::gas_excess</text>
<text text-anchor="start" x="324.65" y="-224.2" font-family="Times,serif" font-size="14.00"> 0.04 TON</text>
</g>
<!-- treasury -->
<g id="node4" class="node">
<title>treasury</title>
<ellipse fill="#decbe4" stroke="#decbe4" cx="200.65" cy="-43.25" rx="53.84" ry="18"/>
<text text-anchor="middle" x="200.65" y="-38.58" font-family="Times,serif" font-size="14.00">treasury</text>
</g>
<!-- wallet&#45;&gt;treasury -->
<g id="edge4" class="edge">
<title>wallet&#45;&gt;treasury</title>
<path fill="none" stroke="black" d="M165.86,-174.05C152.88,-168.74 139.46,-160.58 131.9,-148.25 115.87,-122.11 115.87,-105.39 131.9,-79.25 136.58,-71.62 143.5,-65.59 151.17,-60.84"/>
<polygon fill="black" stroke="black" points="152.65,-63.48 159.81,-55.66 149.34,-57.31 152.65,-63.48"/>
<text text-anchor="start" x="132.65" y="-134.95" font-family="Times,serif" font-size="14.00">3</text>
<text text-anchor="start" x="132.65" y="-117.7" font-family="Times,serif" font-size="14.00"> op::mint_tokens</text>
<text text-anchor="start" x="132.65" y="-100.45" font-family="Times,serif" font-size="14.00"> 0.06 TON</text>
<text text-anchor="start" x="132.65" y="-83.2" font-family="Times,serif" font-size="14.00"> coins: 10</text>
</g>
<!-- treasury&#45;&gt;wallet -->
<g id="edge5" class="edge">
<title>treasury&#45;&gt;wallet</title>
<path fill="none" stroke="black" d="M230.05,-58.58C237.85,-63.92 245.3,-70.79 249.65,-79.25 263.68,-106.52 263.68,-120.98 249.65,-148.25 246.54,-154.29 241.86,-159.52 236.59,-163.96"/>
<polygon fill="black" stroke="black" points="234.97,-161.54 228.99,-170.29 239.12,-167.18 234.97,-161.54"/>
<text text-anchor="start" x="259.65" y="-134.95" font-family="Times,serif" font-size="14.00">4</text>
<text text-anchor="start" x="259.65" y="-117.7" font-family="Times,serif" font-size="14.00"> op::save_coins</text>
<text text-anchor="start" x="259.65" y="-100.45" font-family="Times,serif" font-size="14.00"> 0.05 TON</text>
<text text-anchor="start" x="259.65" y="-83.2" font-family="Times,serif" font-size="14.00"> coins: 10</text>
</g>
</g>
</svg>
