<?xml version="1.0" encoding="UTF-8" standalone="no"?>
<!DOCTYPE svg PUBLIC "-//W3C//DTD SVG 1.1//EN"
 "http://www.w3.org/Graphics/SVG/1.1/DTD/svg11.dtd">
<!-- Generated by graphviz version 8.0.5 (20230430.1635)
 -->
<!-- Pages: 1 -->
<svg width="600pt" height="475pt"
 viewBox="0.00 0.00 600.00 475.00" xmlns="http://www.w3.org/2000/svg" xmlns:xlink="http://www.w3.org/1999/xlink">
<g id="graph0" class="graph" transform="scale(1 1) rotate(0) translate(4 471)">
<polygon fill="white" stroke="none" points="-4,4 -4,-471 596,-471 596,4 -4,4"/>
<text text-anchor="middle" x="296" y="-7.95" font-family="Times,serif" font-size="14.00">staker deposits 10 TON to receive ~10 hTON, after the current round is finilized</text>
<!-- staker -->
<g id="node1" class="node">
<title>staker</title>
<ellipse fill="#b3cde3" stroke="#b3cde3" cx="289.81" cy="-449" rx="42.79" ry="18"/>
<text text-anchor="middle" x="289.81" y="-444.32" font-family="Times,serif" font-size="14.00">staker</text>
</g>
<!-- treasury -->
<g id="node4" class="node">
<title>treasury</title>
<ellipse fill="#decbe4" stroke="#decbe4" cx="218.81" cy="-325.25" rx="53.84" ry="18"/>
<text text-anchor="middle" x="218.81" y="-320.57" font-family="Times,serif" font-size="14.00">treasury</text>
</g>
<!-- staker&#45;&gt;treasury -->
<g id="edge1" class="edge">
<title>staker&#45;&gt;treasury</title>
<path fill="none" stroke="black" d="M254.26,-438.71C241.21,-433.41 227.76,-425.28 220.06,-413 209.18,-395.65 209.5,-372.25 212.2,-354.13"/>
<polygon fill="black" stroke="black" points="215.81,-354.83 214.17,-344.36 208.93,-353.57 215.81,-354.83"/>
<text text-anchor="start" x="220.81" y="-399.7" font-family="Times,serif" font-size="14.00">1</text>
<text text-anchor="start" x="220.81" y="-382.45" font-family="Times,serif" font-size="14.00"> op::deposit_coins</text>
<text text-anchor="start" x="220.81" y="-365.2" font-family="Times,serif" font-size="14.00"> 10.10 TON</text>
</g>
<!-- wallet -->
<g id="node2" class="node">
<title>wallet</title>
<ellipse fill="#ccebc5" stroke="#ccebc5" cx="62.81" cy="-43.25" rx="41.74" ry="18"/>
<text text-anchor="middle" x="62.81" y="-38.58" font-family="Times,serif" font-size="14.00">wallet</text>
</g>
<!-- bill -->
<g id="node3" class="node">
<title>bill</title>
<ellipse fill="#ccebc5" stroke="#ccebc5" cx="299.81" cy="-43.25" rx="27.01" ry="18"/>
<text text-anchor="middle" x="299.81" y="-38.58" font-family="Times,serif" font-size="14.00">bill</text>
</g>
<!-- bill&#45;&gt;staker -->
<g id="edge6" class="edge">
<title>bill&#45;&gt;staker</title>
<path fill="none" stroke="black" d="M321.36,-54.44C331.02,-60.25 341.42,-68.52 346.81,-79.25 413.37,-211.81 419.23,-283.55 346.81,-413 342.87,-420.04 336.88,-425.83 330.23,-430.54"/>
<polygon fill="black" stroke="black" points="328.57,-428.07 321.9,-436.3 332.24,-434.03 328.57,-428.07"/>
<text text-anchor="start" x="398.81" y="-267.32" font-family="Times,serif" font-size="14.00">6</text>
<text text-anchor="start" x="398.81" y="-250.07" font-family="Times,serif" font-size="14.00"> op::ownership_assigned</text>
<text text-anchor="start" x="398.81" y="-232.82" font-family="Times,serif" font-size="14.00"> 0.01 TON</text>
</g>
<!-- parent -->
<g id="node5" class="node">
<title>parent</title>
<ellipse fill="#fed9a6" stroke="#fed9a6" cx="62.81" cy="-184.25" rx="44.37" ry="18"/>
<text text-anchor="middle" x="62.81" y="-179.57" font-family="Times,serif" font-size="14.00">parent</text>
</g>
<!-- treasury&#45;&gt;parent -->
<g id="edge2" class="edge">
<title>treasury&#45;&gt;parent</title>
<path fill="none" stroke="black" d="M167.79,-319.09C128.89,-314 79.88,-304.7 67.06,-289.25 49.71,-268.33 51.28,-236.1 55.52,-213.07"/>
<polygon fill="black" stroke="black" points="59.1,-214.1 57.75,-203.59 52.25,-212.64 59.1,-214.1"/>
<text text-anchor="start" x="67.81" y="-275.95" font-family="Times,serif" font-size="14.00">2</text>
<text text-anchor="start" x="67.81" y="-258.7" font-family="Times,serif" font-size="14.00"> op::proxy_save_coins</text>
<text text-anchor="start" x="67.81" y="-241.45" font-family="Times,serif" font-size="14.00"> 0.02 TON</text>
<text text-anchor="start" x="67.81" y="-224.2" font-family="Times,serif" font-size="14.00"> coins: 10</text>
</g>
<!-- collection -->
<g id="node6" class="node">
<title>collection</title>
<ellipse fill="#fed9a6" stroke="#fed9a6" cx="239.81" cy="-184.25" rx="59.1" ry="18"/>
<text text-anchor="middle" x="239.81" y="-179.57" font-family="Times,serif" font-size="14.00">collection</text>
</g>
<!-- treasury&#45;&gt;collection -->
<g id="edge4" class="edge">
<title>treasury&#45;&gt;collection</title>
<path fill="none" stroke="black" d="M221.43,-306.93C224.98,-283.39 231.38,-241.03 235.61,-213.03"/>
<polygon fill="black" stroke="black" points="239.19,-213.77 237.23,-203.36 232.27,-212.72 239.19,-213.77"/>
<text text-anchor="start" x="234.81" y="-275.95" font-family="Times,serif" font-size="14.00">4</text>
<text text-anchor="start" x="234.81" y="-258.7" font-family="Times,serif" font-size="14.00"> op::mint_bill</text>
<text text-anchor="start" x="234.81" y="-241.45" font-family="Times,serif" font-size="14.00"> 0.07 TON</text>
<text text-anchor="start" x="234.81" y="-224.2" font-family="Times,serif" font-size="14.00"> coins: 10</text>
</g>
<!-- parent&#45;&gt;wallet -->
<g id="edge3" class="edge">
<title>parent&#45;&gt;wallet</title>
<path fill="none" stroke="black" d="M62.81,-165.93C62.81,-142.39 62.81,-100.03 62.81,-72.03"/>
<polygon fill="black" stroke="black" points="66.31,-72.36 62.81,-62.36 59.31,-72.36 66.31,-72.36"/>
<text text-anchor="start" x="62.81" y="-134.95" font-family="Times,serif" font-size="14.00">3</text>
<text text-anchor="start" x="62.81" y="-117.7" font-family="Times,serif" font-size="14.00"> op::save_coins</text>
<text text-anchor="start" x="62.81" y="-100.45" font-family="Times,serif" font-size="14.00"> 0.01 TON</text>
<text text-anchor="start" x="62.81" y="-83.2" font-family="Times,serif" font-size="14.00"> coins: 10</text>
</g>
<!-- collection&#45;&gt;bill -->
<g id="edge5" class="edge">
<title>collection&#45;&gt;bill</title>
<path fill="none" stroke="black" d="M235.2,-166.08C230.38,-144.3 225.46,-106.32 241.06,-79.25 246.71,-69.45 256.28,-62.1 266.09,-56.73"/>
<polygon fill="black" stroke="black" points="267.36,-59.52 274.82,-52 264.3,-53.22 267.36,-59.52"/>
<text text-anchor="start" x="241.81" y="-134.95" font-family="Times,serif" font-size="14.00">5</text>
<text text-anchor="start" x="241.81" y="-117.7" font-family="Times,serif" font-size="14.00"> op::assign_bill</text>
<text text-anchor="start" x="241.81" y="-100.45" font-family="Times,serif" font-size="14.00"> 0.06 TON</text>
<text text-anchor="start" x="241.81" y="-83.2" font-family="Times,serif" font-size="14.00"> coins: 10</text>
</g>
</g>
</svg>
