<?xml version="1.0" encoding="UTF-8" standalone="no"?>
<!DOCTYPE svg PUBLIC "-//W3C//DTD SVG 1.1//EN"
 "http://www.w3.org/Graphics/SVG/1.1/DTD/svg11.dtd">
<!-- Generated by graphviz version 8.0.5 (20230430.1635)
 -->
<!-- Pages: 1 -->
<svg width="644pt" height="351pt"
 viewBox="0.00 0.00 644.25 351.25" xmlns="http://www.w3.org/2000/svg" xmlns:xlink="http://www.w3.org/1999/xlink">
<g id="graph0" class="graph" transform="scale(1 1) rotate(0) translate(4 347.25)">
<polygon fill="white" stroke="none" points="-4,4 -4,-347.25 640.25,-347.25 640.25,4 -4,4"/>
<text text-anchor="middle" x="318.12" y="-7.95" font-family="Times,serif" font-size="14.00">staker&#39;s deposit of 10 TON is converted to near 10 hTON considering the current price</text>
<!-- external -->
<g id="node1" class="node">
<title>external</title>
<ellipse fill="black" stroke="black" cx="83.77" cy="-325.25" rx="1.8" ry="1.8"/>
</g>
<!-- driver -->
<g id="node3" class="node">
<title>driver</title>
<ellipse fill="#b3cde3" stroke="#b3cde3" cx="162.77" cy="-325.25" rx="41.74" ry="18"/>
<text text-anchor="middle" x="162.77" y="-320.57" font-family="Times,serif" font-size="14.00">driver</text>
</g>
<!-- external&#45;&gt;driver -->
<g id="edge2" class="edge">
<title>external&#45;&gt;driver</title>
<path fill="none" stroke="black" d="M86.05,-325.25C90.11,-325.25 99.17,-325.25 109.69,-325.25"/>
<polygon fill="black" stroke="black" points="109.56,-328.75 119.56,-325.25 109.56,-321.75 109.56,-328.75"/>
<text text-anchor="middle" x="103.31" y="-332.2" font-family="Times,serif" font-size="14.00">1</text>
</g>
<!-- staker -->
<g id="node2" class="node">
<title>staker</title>
<ellipse fill="#b3cde3" stroke="#b3cde3" cx="371.77" cy="-325.25" rx="42.79" ry="18"/>
<text text-anchor="middle" x="371.77" y="-320.57" font-family="Times,serif" font-size="14.00">staker</text>
</g>
<!-- wallet -->
<g id="node4" class="node">
<title>wallet</title>
<ellipse fill="#ccebc5" stroke="#ccebc5" cx="292.77" cy="-184.25" rx="41.74" ry="18"/>
<text text-anchor="middle" x="292.77" y="-179.57" font-family="Times,serif" font-size="14.00">wallet</text>
</g>
<!-- staker&#45;&gt;wallet -->
<g id="edge1" class="edge">
<title>staker&#45;&gt;wallet</title>
<path fill="none" stroke="black" stroke-dasharray="1,5" d="M370.28,-306.91C367.65,-284.95 360.55,-246.79 341.77,-220.25 337.62,-214.38 332.17,-209.14 326.41,-204.62"/>
<polygon fill="black" stroke="black" points="320.91,-196.34 326.98,-205.03 316.82,-202.03 320.91,-196.34"/>
</g>
<!-- driver&#45;&gt;wallet -->
<g id="edge3" class="edge">
<title>driver&#45;&gt;wallet</title>
<path fill="none" stroke="black" d="M128.75,-314.63C116.29,-309.28 103.49,-301.2 96.27,-289.25 80.43,-263 76.58,-243.76 96.27,-220.25 114.35,-198.67 188.61,-190.39 240.47,-187.21"/>
<polygon fill="black" stroke="black" points="240.38,-190.67 250.17,-186.61 239.99,-183.68 240.38,-190.67"/>
<text text-anchor="start" x="96.77" y="-267.32" font-family="Times,serif" font-size="14.00">2</text>
<text text-anchor="start" x="96.77" y="-250.07" font-family="Times,serif" font-size="14.00"> op::stake_coins</text>
<text text-anchor="start" x="96.77" y="-232.82" font-family="Times,serif" font-size="14.00"> 0.07 TON</text>
</g>
<!-- wallet&#45;&gt;staker -->
<g id="edge6" class="edge">
<title>wallet&#45;&gt;staker</title>
<path fill="none" stroke="black" d="M328.67,-193.59C342.94,-198.81 358.02,-207.13 366.77,-220.25 381.64,-242.53 380.98,-273.86 377.77,-296.3"/>
<polygon fill="black" stroke="black" points="374.16,-295.68 375.94,-306.13 381.06,-296.85 374.16,-295.68"/>
<text text-anchor="start" x="378.77" y="-275.95" font-family="Times,serif" font-size="14.00">5</text>
<text text-anchor="start" x="378.77" y="-258.7" font-family="Times,serif" font-size="14.00"> op::transfer_notification</text>
<text text-anchor="start" x="378.77" y="-241.45" font-family="Times,serif" font-size="14.00"> 0.01 TON</text>
<text text-anchor="start" x="378.77" y="-224.2" font-family="Times,serif" font-size="14.00"> tokens: 10</text>
</g>
<!-- wallet&#45;&gt;driver -->
<g id="edge7" class="edge">
<title>wallet&#45;&gt;driver</title>
<path fill="none" stroke="black" d="M260.98,-196.35C249.22,-201.89 236.71,-209.7 228.27,-220.25 208.37,-245.14 226.71,-262.91 208.77,-289.25 205.16,-294.56 200.47,-299.41 195.47,-303.69"/>
<polygon fill="black" stroke="black" points="193.66,-301.44 187.91,-310.34 197.95,-306.97 193.66,-301.44"/>
<text text-anchor="start" x="228.77" y="-267.32" font-family="Times,serif" font-size="14.00">6</text>
<text text-anchor="start" x="228.77" y="-250.07" font-family="Times,serif" font-size="14.00"> op::gas_excess</text>
<text text-anchor="start" x="228.77" y="-232.82" font-family="Times,serif" font-size="14.00"> 0.03 TON</text>
</g>
<!-- treasury -->
<g id="node5" class="node">
<title>treasury</title>
<ellipse fill="#decbe4" stroke="#decbe4" cx="292.77" cy="-43.25" rx="53.84" ry="18"/>
<text text-anchor="middle" x="292.77" y="-38.58" font-family="Times,serif" font-size="14.00">treasury</text>
</g>
<!-- wallet&#45;&gt;treasury -->
<g id="edge4" class="edge">
<title>wallet&#45;&gt;treasury</title>
<path fill="none" stroke="black" d="M257.99,-174.05C245,-168.74 231.59,-160.58 224.02,-148.25 208,-122.11 208,-105.39 224.02,-79.25 228.7,-71.62 235.62,-65.59 243.3,-60.84"/>
<polygon fill="black" stroke="black" points="244.78,-63.48 251.93,-55.66 241.47,-57.31 244.78,-63.48"/>
<text text-anchor="start" x="224.77" y="-134.95" font-family="Times,serif" font-size="14.00">3</text>
<text text-anchor="start" x="224.77" y="-117.7" font-family="Times,serif" font-size="14.00"> op::mint_tokens</text>
<text text-anchor="start" x="224.77" y="-100.45" font-family="Times,serif" font-size="14.00"> 0.06 TON</text>
<text text-anchor="start" x="224.77" y="-83.2" font-family="Times,serif" font-size="14.00"> coins: 10</text>
</g>
<!-- treasury&#45;&gt;wallet -->
<g id="edge5" class="edge">
<title>treasury&#45;&gt;wallet</title>
<path fill="none" stroke="black" d="M322.18,-58.58C329.97,-63.92 337.42,-70.79 341.77,-79.25 355.81,-106.52 355.81,-120.98 341.77,-148.25 338.67,-154.29 333.98,-159.52 328.72,-163.96"/>
<polygon fill="black" stroke="black" points="327.09,-161.54 321.12,-170.29 331.24,-167.18 327.09,-161.54"/>
<text text-anchor="start" x="351.77" y="-134.95" font-family="Times,serif" font-size="14.00">4</text>
<text text-anchor="start" x="351.77" y="-117.7" font-family="Times,serif" font-size="14.00"> op::receive_tokens</text>
<text text-anchor="start" x="351.77" y="-100.45" font-family="Times,serif" font-size="14.00"> 0.05 TON</text>
<text text-anchor="start" x="351.77" y="-83.2" font-family="Times,serif" font-size="14.00"> tokens: 10</text>
</g>
</g>
</svg>
