<?xml version="1.0" encoding="UTF-8" standalone="no"?>
<!DOCTYPE svg PUBLIC "-//W3C//DTD SVG 1.1//EN"
 "http://www.w3.org/Graphics/SVG/1.1/DTD/svg11.dtd">
<!-- Generated by graphviz version 8.0.5 (20230430.1635)
 -->
<!-- Pages: 1 -->
<svg width="632pt" height="475pt"
 viewBox="0.00 0.00 631.50 475.00" xmlns="http://www.w3.org/2000/svg" xmlns:xlink="http://www.w3.org/1999/xlink">
<g id="graph0" class="graph" transform="scale(1 1) rotate(0) translate(4 471)">
<polygon fill="white" stroke="none" points="-4,4 -4,-471 627.5,-471 627.5,4 -4,4"/>
<text text-anchor="middle" x="311.75" y="-7.95" font-family="Times,serif" font-size="14.00">staker deposits 10 GRAM to receive ~10 hGRAM, after the current round is finalized</text>
<!-- staker -->
<g id="node1" class="node">
<title>staker</title>
<ellipse fill="#b3cde3" stroke="#b3cde3" cx="305.56" cy="-449" rx="42.79" ry="18"/>
<text text-anchor="middle" x="305.56" y="-444.32" font-family="Times,serif" font-size="14.00">staker</text>
</g>
<!-- treasury -->
<g id="node4" class="node">
<title>treasury</title>
<ellipse fill="#decbe4" stroke="#decbe4" cx="234.56" cy="-325.25" rx="53.84" ry="18"/>
<text text-anchor="middle" x="234.56" y="-320.57" font-family="Times,serif" font-size="14.00">treasury</text>
</g>
<!-- staker&#45;&gt;treasury -->
<g id="edge1" class="edge">
<title>staker&#45;&gt;treasury</title>
<path fill="none" stroke="black" d="M270.01,-438.71C256.96,-433.41 243.51,-425.28 235.81,-413 224.93,-395.65 225.25,-372.25 227.95,-354.13"/>
<polygon fill="black" stroke="black" points="231.56,-354.83 229.92,-344.36 224.68,-353.57 231.56,-354.83"/>
<text text-anchor="start" x="236.56" y="-399.7" font-family="Times,serif" font-size="14.00">1</text>
<text text-anchor="start" x="236.56" y="-382.45" font-family="Times,serif" font-size="14.00"> op::deposit_coins</text>
<text text-anchor="start" x="236.56" y="-365.2" font-family="Times,serif" font-size="14.00"> 10.10 GRAM</text>
</g>
<!-- wallet -->
<g id="node2" class="node">
<title>wallet</title>
<ellipse fill="#ccebc5" stroke="#ccebc5" cx="78.56" cy="-43.25" rx="41.74" ry="18"/>
<text text-anchor="middle" x="78.56" y="-38.58" font-family="Times,serif" font-size="14.00">wallet</text>
</g>
<!-- bill -->
<g id="node3" class="node">
<title>bill</title>
<ellipse fill="#ccebc5" stroke="#ccebc5" cx="315.56" cy="-43.25" rx="27.01" ry="18"/>
<text text-anchor="middle" x="315.56" y="-38.58" font-family="Times,serif" font-size="14.00">bill</text>
</g>
<!-- bill&#45;&gt;staker -->
<g id="edge6" class="edge">
<title>bill&#45;&gt;staker</title>
<path fill="none" stroke="black" d="M337.11,-54.44C346.77,-60.25 357.17,-68.52 362.56,-79.25 429.12,-211.81 434.98,-283.55 362.56,-413 358.62,-420.04 352.63,-425.83 345.98,-430.54"/>
<polygon fill="black" stroke="black" points="344.32,-428.07 337.65,-436.3 347.99,-434.03 344.32,-428.07"/>
<text text-anchor="start" x="414.56" y="-267.32" font-family="Times,serif" font-size="14.00">6</text>
<text text-anchor="start" x="414.56" y="-250.07" font-family="Times,serif" font-size="14.00"> op::ownership_assigned</text>
<text text-anchor="start" x="414.56" y="-232.82" font-family="Times,serif" font-size="14.00"> 0.01 GRAM</text>
</g>
<!-- parent -->
<g id="node5" class="node">
<title>parent</title>
<ellipse fill="#fed9a6" stroke="#fed9a6" cx="78.56" cy="-184.25" rx="44.37" ry="18"/>
<text text-anchor="middle" x="78.56" y="-179.57" font-family="Times,serif" font-size="14.00">parent</text>
</g>
<!-- treasury&#45;&gt;parent -->
<g id="edge2" class="edge">
<title>treasury&#45;&gt;parent</title>
<path fill="none" stroke="black" d="M183.54,-319.09C144.64,-314 95.63,-304.7 82.81,-289.25 65.46,-268.33 67.03,-236.1 71.27,-213.07"/>
<polygon fill="black" stroke="black" points="74.85,-214.1 73.5,-203.59 68,-212.64 74.85,-214.1"/>
<text text-anchor="start" x="83.56" y="-275.95" font-family="Times,serif" font-size="14.00">2</text>
<text text-anchor="start" x="83.56" y="-258.7" font-family="Times,serif" font-size="14.00"> op::proxy_save_coins</text>
<text text-anchor="start" x="83.56" y="-241.45" font-family="Times,serif" font-size="14.00"> 0.02 GRAM</text>
<text text-anchor="start" x="83.56" y="-224.2" font-family="Times,serif" font-size="14.00"> coins: 10</text>
</g>
<!-- collection -->
<g id="node6" class="node">
<title>collection</title>
<ellipse fill="#fed9a6" stroke="#fed9a6" cx="255.56" cy="-184.25" rx="59.1" ry="18"/>
<text text-anchor="middle" x="255.56" y="-179.57" font-family="Times,serif" font-size="14.00">collection</text>
</g>
<!-- treasury&#45;&gt;collection -->
<g id="edge4" class="edge">
<title>treasury&#45;&gt;collection</title>
<path fill="none" stroke="black" d="M237.18,-306.93C240.73,-283.39 247.13,-241.03 251.36,-213.03"/>
<polygon fill="black" stroke="black" points="254.94,-213.77 252.98,-203.36 248.02,-212.72 254.94,-213.77"/>
<text text-anchor="start" x="250.56" y="-275.95" font-family="Times,serif" font-size="14.00">4</text>
<text text-anchor="start" x="250.56" y="-258.7" font-family="Times,serif" font-size="14.00"> op::mint_bill</text>
<text text-anchor="start" x="250.56" y="-241.45" font-family="Times,serif" font-size="14.00"> 0.07 GRAM</text>
<text text-anchor="start" x="250.56" y="-224.2" font-family="Times,serif" font-size="14.00"> coins: 10</text>
</g>
<!-- parent&#45;&gt;wallet -->
<g id="edge3" class="edge">
<title>parent&#45;&gt;wallet</title>
<path fill="none" stroke="black" d="M78.56,-165.93C78.56,-142.39 78.56,-100.03 78.56,-72.03"/>
<polygon fill="black" stroke="black" points="82.06,-72.36 78.56,-62.36 75.06,-72.36 82.06,-72.36"/>
<text text-anchor="start" x="78.56" y="-134.95" font-family="Times,serif" font-size="14.00">3</text>
<text text-anchor="start" x="78.56" y="-117.7" font-family="Times,serif" font-size="14.00"> op::save_coins</text>
<text text-anchor="start" x="78.56" y="-100.45" font-family="Times,serif" font-size="14.00"> 0.01 GRAM</text>
<text text-anchor="start" x="78.56" y="-83.2" font-family="Times,serif" font-size="14.00"> coins: 10</text>
</g>
<!-- collection&#45;&gt;bill -->
<g id="edge5" class="edge">
<title>collection&#45;&gt;bill</title>
<path fill="none" stroke="black" d="M250.95,-166.08C246.13,-144.3 241.21,-106.32 256.81,-79.25 262.46,-69.45 272.03,-62.1 281.84,-56.73"/>
<polygon fill="black" stroke="black" points="283.11,-59.52 290.57,-52 280.05,-53.22 283.11,-59.52"/>
<text text-anchor="start" x="257.56" y="-134.95" font-family="Times,serif" font-size="14.00">5</text>
<text text-anchor="start" x="257.56" y="-117.7" font-family="Times,serif" font-size="14.00"> op::assign_bill</text>
<text text-anchor="start" x="257.56" y="-100.45" font-family="Times,serif" font-size="14.00"> 0.06 GRAM</text>
<text text-anchor="start" x="257.56" y="-83.2" font-family="Times,serif" font-size="14.00"> coins: 10</text>
</g>
</g>
</svg>
