<?xml version="1.0" encoding="UTF-8" standalone="no"?>
<!DOCTYPE svg PUBLIC "-//W3C//DTD SVG 1.1//EN"
 "http://www.w3.org/Graphics/SVG/1.1/DTD/svg11.dtd">
<!-- Generated by graphviz version 8.0.5 (20230430.1635)
 -->
<!-- Pages: 1 -->
<svg width="558pt" height="419pt"
 viewBox="0.00 0.00 558.30 418.75" xmlns="http://www.w3.org/2000/svg" xmlns:xlink="http://www.w3.org/1999/xlink">
<g id="graph0" class="graph" transform="scale(1 1) rotate(0) translate(4 414.75)">
<polygon fill="white" stroke="none" points="-4,4 -4,-414.75 554.3,-414.75 554.3,4 -4,4"/>
<text text-anchor="middle" x="275.15" y="-7.95" font-family="Times,serif" font-size="14.00">staker1 sends 10 hTON to staker2</text>
<!-- external -->
<g id="node1" class="node">
<title>external</title>
<ellipse fill="black" stroke="black" cx="1.8" cy="-392.75" rx="1.8" ry="1.8"/>
</g>
<!-- staker1 -->
<g id="node2" class="node">
<title>staker1</title>
<ellipse fill="#b3cde3" stroke="#b3cde3" cx="87.8" cy="-392.75" rx="49.1" ry="18"/>
<text text-anchor="middle" x="87.8" y="-388.07" font-family="Times,serif" font-size="14.00">staker1</text>
</g>
<!-- external&#45;&gt;staker1 -->
<g id="edge3" class="edge">
<title>external&#45;&gt;staker1</title>
<path fill="none" stroke="black" d="M3.93,-392.75C7.89,-392.75 16.97,-392.75 27.77,-392.75"/>
<polygon fill="black" stroke="black" points="27.54,-396.25 37.54,-392.75 27.54,-389.25 27.54,-396.25"/>
<text text-anchor="middle" x="21.15" y="-399.7" font-family="Times,serif" font-size="14.00">1</text>
</g>
<!-- wallet1 -->
<g id="node4" class="node">
<title>wallet1</title>
<ellipse fill="#ccebc5" stroke="#ccebc5" cx="69.8" cy="-218" rx="48.05" ry="18"/>
<text text-anchor="middle" x="69.8" y="-213.32" font-family="Times,serif" font-size="14.00">wallet1</text>
</g>
<!-- staker1&#45;&gt;wallet1 -->
<g id="edge1" class="edge">
<title>staker1&#45;&gt;wallet1</title>
<path fill="none" stroke="black" stroke-dasharray="1,5" d="M76.53,-375.01C73.39,-369.44 70.4,-363.05 68.8,-356.75 59.3,-319.34 62.18,-274.36 65.6,-246.21"/>
<polygon fill="black" stroke="black" points="70.32,-237.26 65.53,-246.71 63.38,-236.34 70.32,-237.26"/>
</g>
<!-- staker1&#45;&gt;wallet1 -->
<g id="edge4" class="edge">
<title>staker1&#45;&gt;wallet1</title>
<path fill="none" stroke="black" d="M86.01,-374.55C82.9,-344.75 76.49,-283.24 72.73,-247.14"/>
<polygon fill="black" stroke="black" points="76.13,-246.97 71.61,-237.38 69.17,-247.69 76.13,-246.97"/>
<text text-anchor="start" x="84.8" y="-343.45" font-family="Times,serif" font-size="14.00">2</text>
<text text-anchor="start" x="84.8" y="-326.2" font-family="Times,serif" font-size="14.00"> op::send_tokens</text>
<text text-anchor="start" x="84.8" y="-308.95" font-family="Times,serif" font-size="14.00"> 1.10 TON</text>
<text text-anchor="start" x="84.8" y="-291.7" font-family="Times,serif" font-size="14.00"> tokens: 10</text>
<text text-anchor="start" x="84.8" y="-274.45" font-family="Times,serif" font-size="14.00"> forward: 1</text>
</g>
<!-- staker2 -->
<g id="node3" class="node">
<title>staker2</title>
<ellipse fill="#b3cde3" stroke="#b3cde3" cx="382.8" cy="-392.75" rx="49.1" ry="18"/>
<text text-anchor="middle" x="382.8" y="-388.07" font-family="Times,serif" font-size="14.00">staker2</text>
</g>
<!-- wallet2 -->
<g id="node5" class="node">
<title>wallet2</title>
<ellipse fill="#ccebc5" stroke="#ccebc5" cx="290.8" cy="-43.25" rx="48.05" ry="18"/>
<text text-anchor="middle" x="290.8" y="-38.58" font-family="Times,serif" font-size="14.00">wallet2</text>
</g>
<!-- staker2&#45;&gt;wallet2 -->
<g id="edge2" class="edge">
<title>staker2&#45;&gt;wallet2</title>
<path fill="none" stroke="black" stroke-dasharray="1,5" d="M379.43,-374.34C372.34,-338.42 354.99,-253.57 335.8,-183.5 324.92,-143.78 309.78,-98.53 300.13,-70.68"/>
<polygon fill="black" stroke="black" points="300.31,-60.57 300.3,-71.16 293.7,-62.87 300.31,-60.57"/>
</g>
<!-- wallet1&#45;&gt;wallet2 -->
<g id="edge5" class="edge">
<title>wallet1&#45;&gt;wallet2</title>
<path fill="none" stroke="black" d="M63.7,-199.75C54.75,-171.01 42.09,-113.11 71.3,-79.25 91.69,-55.61 174.01,-47.87 231.82,-45.38"/>
<polygon fill="black" stroke="black" points="231.81,-48.84 241.66,-44.96 231.54,-41.85 231.81,-48.84"/>
<text text-anchor="start" x="71.8" y="-152.2" font-family="Times,serif" font-size="14.00">3</text>
<text text-anchor="start" x="71.8" y="-134.95" font-family="Times,serif" font-size="14.00"> op::receive_tokens</text>
<text text-anchor="start" x="71.8" y="-117.7" font-family="Times,serif" font-size="14.00"> 1.09 TON</text>
<text text-anchor="start" x="71.8" y="-100.45" font-family="Times,serif" font-size="14.00"> tokens: 10</text>
<text text-anchor="start" x="71.8" y="-83.2" font-family="Times,serif" font-size="14.00"> forward: 1</text>
</g>
<!-- wallet2&#45;&gt;staker1 -->
<g id="edge7" class="edge">
<title>wallet2&#45;&gt;staker1</title>
<path fill="none" stroke="black" d="M279.96,-61C264.17,-86.35 235.32,-136.51 222.3,-183.5 201.67,-257.96 256.7,-296.92 207.8,-356.75 193.11,-374.73 169.73,-383.79 147.5,-388.25"/>
<polygon fill="black" stroke="black" points="146.99,-384.96 137.73,-390.09 148.17,-391.86 146.99,-384.96"/>
<text text-anchor="start" x="221.8" y="-230.57" font-family="Times,serif" font-size="14.00">5</text>
<text text-anchor="start" x="221.8" y="-213.32" font-family="Times,serif" font-size="14.00"> op::gas_excess</text>
<text text-anchor="start" x="221.8" y="-196.07" font-family="Times,serif" font-size="14.00"> 0.08 TON</text>
</g>
<!-- wallet2&#45;&gt;staker2 -->
<g id="edge6" class="edge">
<title>wallet2&#45;&gt;staker2</title>
<path fill="none" stroke="black" d="M312.69,-59.34C319.36,-64.9 326.15,-71.71 330.8,-79.25 331.98,-81.16 378.04,-257.69 379.8,-270.5 384.14,-302.2 384.39,-338.98 383.87,-363.65"/>
<polygon fill="black" stroke="black" points="380.35,-363.29 383.58,-373.38 387.35,-363.48 380.35,-363.29"/>
<text text-anchor="start" x="374.8" y="-239.2" font-family="Times,serif" font-size="14.00">4</text>
<text text-anchor="start" x="374.8" y="-221.95" font-family="Times,serif" font-size="14.00"> op::transfer_notification</text>
<text text-anchor="start" x="374.8" y="-204.7" font-family="Times,serif" font-size="14.00"> 1 TON</text>
<text text-anchor="start" x="374.8" y="-187.45" font-family="Times,serif" font-size="14.00"> tokens: 10</text>
</g>
</g>
</svg>
