<?xml version="1.0" encoding="UTF-8" standalone="no"?>
<!DOCTYPE svg PUBLIC "-//W3C//DTD SVG 1.1//EN"
 "http://www.w3.org/Graphics/SVG/1.1/DTD/svg11.dtd">
<!-- Generated by graphviz version 8.0.5 (20230430.1635)
 -->
<!-- Pages: 1 -->
<svg width="573pt" height="544pt"
 viewBox="0.00 0.00 573.00 544.00" xmlns="http://www.w3.org/2000/svg" xmlns:xlink="http://www.w3.org/1999/xlink">
<g id="graph0" class="graph" transform="scale(1 1) rotate(0) translate(4 540)">
<polygon fill="white" stroke="none" points="-4,4 -4,-540 569,-540 569,4 -4,4"/>
<text text-anchor="middle" x="282.5" y="-7.95" font-family="Times,serif" font-size="14.00">staker unstakes 10 hTON to receive ~10 TON, when there is no active round</text>
<!-- staker -->
<g id="node1" class="node">
<title>staker</title>
<ellipse fill="#b3cde3" stroke="#b3cde3" cx="206.37" cy="-518" rx="42.79" ry="18"/>
<text text-anchor="middle" x="206.37" y="-513.33" font-family="Times,serif" font-size="14.00">staker</text>
</g>
<!-- wallet -->
<g id="node2" class="node">
<title>wallet</title>
<ellipse fill="#ccebc5" stroke="#ccebc5" cx="206.37" cy="-359.75" rx="41.74" ry="18"/>
<text text-anchor="middle" x="206.37" y="-355.07" font-family="Times,serif" font-size="14.00">wallet</text>
</g>
<!-- staker&#45;&gt;wallet -->
<g id="edge1" class="edge">
<title>staker&#45;&gt;wallet</title>
<path fill="none" stroke="black" d="M167.68,-509.98C151.78,-504.98 134.88,-496.47 125.37,-482 104.32,-449.97 104.32,-427.78 125.37,-395.75 133.01,-384.13 145.41,-376.35 158.23,-371.15"/>
<polygon fill="black" stroke="black" points="159.27,-374.14 167.53,-367.51 156.93,-367.55 159.27,-374.14"/>
<text text-anchor="start" x="125.37" y="-460.07" font-family="Times,serif" font-size="14.00">1</text>
<text text-anchor="start" x="125.37" y="-442.82" font-family="Times,serif" font-size="14.00"> op::unstake_tokens</text>
<text text-anchor="start" x="125.37" y="-425.57" font-family="Times,serif" font-size="14.00"> 0.10 TON</text>
<text text-anchor="start" x="125.37" y="-408.32" font-family="Times,serif" font-size="14.00"> tokens: 10</text>
</g>
<!-- wallet&#45;&gt;staker -->
<g id="edge6" class="edge">
<title>wallet&#45;&gt;staker</title>
<path fill="none" stroke="black" d="M238.42,-371.77C249.26,-377.21 260.18,-384.98 266.37,-395.75 285.46,-428.99 285.46,-448.76 266.37,-482 262.06,-489.5 255.46,-495.54 248.19,-500.36"/>
<polygon fill="black" stroke="black" points="246.64,-497.79 239.74,-505.82 250.14,-503.85 246.64,-497.79"/>
<text text-anchor="start" x="280.37" y="-468.7" font-family="Times,serif" font-size="14.00">6</text>
<text text-anchor="start" x="280.37" y="-451.45" font-family="Times,serif" font-size="14.00"> op::withdrawal_notification</text>
<text text-anchor="start" x="280.37" y="-434.2" font-family="Times,serif" font-size="14.00"> 10.05 TON</text>
<text text-anchor="start" x="280.37" y="-416.95" font-family="Times,serif" font-size="14.00"> tokens: 10</text>
<text text-anchor="start" x="280.37" y="-399.7" font-family="Times,serif" font-size="14.00"> coins: ~10</text>
</g>
<!-- parent -->
<g id="node4" class="node">
<title>parent</title>
<ellipse fill="#fed9a6" stroke="#fed9a6" cx="206.37" cy="-201.5" rx="44.37" ry="18"/>
<text text-anchor="middle" x="206.37" y="-196.82" font-family="Times,serif" font-size="14.00">parent</text>
</g>
<!-- wallet&#45;&gt;parent -->
<g id="edge2" class="edge">
<title>wallet&#45;&gt;parent</title>
<path fill="none" stroke="black" d="M165.17,-355.94C143,-352.08 117.39,-343.33 103.37,-323.75 81.05,-292.59 81.05,-268.66 103.37,-237.5 114.73,-221.64 133.7,-212.88 152.28,-208.07"/>
<polygon fill="black" stroke="black" points="152.81,-211.32 161.81,-205.73 151.29,-204.49 152.81,-211.32"/>
<text text-anchor="start" x="103.37" y="-301.82" font-family="Times,serif" font-size="14.00">2</text>
<text text-anchor="start" x="103.37" y="-284.57" font-family="Times,serif" font-size="14.00"> op::proxy_reserve_tokens</text>
<text text-anchor="start" x="103.37" y="-267.32" font-family="Times,serif" font-size="14.00"> 0.09 TON</text>
<text text-anchor="start" x="103.37" y="-250.07" font-family="Times,serif" font-size="14.00"> tokens: 10</text>
</g>
<!-- treasury -->
<g id="node3" class="node">
<title>treasury</title>
<ellipse fill="#decbe4" stroke="#decbe4" cx="206.37" cy="-43.25" rx="53.84" ry="18"/>
<text text-anchor="middle" x="206.37" y="-38.58" font-family="Times,serif" font-size="14.00">treasury</text>
</g>
<!-- treasury&#45;&gt;parent -->
<g id="edge4" class="edge">
<title>treasury&#45;&gt;parent</title>
<path fill="none" stroke="black" d="M241.31,-57.22C250.8,-62.53 259.95,-69.73 265.37,-79.25 284.34,-112.56 284.34,-132.19 265.37,-165.5 261.23,-172.78 254.91,-178.7 247.92,-183.46"/>
<polygon fill="black" stroke="black" points="246.63,-180.75 239.83,-188.88 250.21,-186.76 246.63,-180.75"/>
<text text-anchor="start" x="279.37" y="-152.2" font-family="Times,serif" font-size="14.00">4</text>
<text text-anchor="start" x="279.37" y="-134.95" font-family="Times,serif" font-size="14.00"> op::proxy_tokens_burned</text>
<text text-anchor="start" x="279.37" y="-117.7" font-family="Times,serif" font-size="14.00"> 10.07 TON</text>
<text text-anchor="start" x="279.37" y="-100.45" font-family="Times,serif" font-size="14.00"> tokens: 10</text>
<text text-anchor="start" x="279.37" y="-83.2" font-family="Times,serif" font-size="14.00"> coins: ~10</text>
</g>
<!-- parent&#45;&gt;wallet -->
<g id="edge5" class="edge">
<title>parent&#45;&gt;wallet</title>
<path fill="none" stroke="black" d="M246.42,-209.41C262.59,-214.38 279.69,-222.91 289.37,-237.5 310.57,-269.44 310.57,-291.81 289.37,-323.75 281.38,-335.8 268.34,-343.7 254.93,-348.9"/>
<polygon fill="black" stroke="black" points="254.04,-345.84 245.69,-352.36 256.28,-352.47 254.04,-345.84"/>
<text text-anchor="start" x="304.37" y="-310.45" font-family="Times,serif" font-size="14.00">5</text>
<text text-anchor="start" x="304.37" y="-293.2" font-family="Times,serif" font-size="14.00"> op::tokens_burned</text>
<text text-anchor="start" x="304.37" y="-275.95" font-family="Times,serif" font-size="14.00"> 10.06 TON</text>
<text text-anchor="start" x="304.37" y="-258.7" font-family="Times,serif" font-size="14.00"> tokens: 10</text>
<text text-anchor="start" x="304.37" y="-241.45" font-family="Times,serif" font-size="14.00"> coins: ~10</text>
</g>
<!-- parent&#45;&gt;treasury -->
<g id="edge3" class="edge">
<title>parent&#45;&gt;treasury</title>
<path fill="none" stroke="black" d="M167.02,-192.92C151.72,-187.85 135.72,-179.42 126.62,-165.5 105.66,-133.41 105.66,-111.34 126.62,-79.25 132.76,-69.85 142.05,-62.96 152.15,-57.91"/>
<polygon fill="black" stroke="black" points="153.23,-60.82 160.99,-53.61 150.43,-54.4 153.23,-60.82"/>
<text text-anchor="start" x="127.37" y="-143.57" font-family="Times,serif" font-size="14.00">3</text>
<text text-anchor="start" x="127.37" y="-126.33" font-family="Times,serif" font-size="14.00"> op::reserve_tokens</text>
<text text-anchor="start" x="127.37" y="-109.08" font-family="Times,serif" font-size="14.00"> 0.08 TON</text>
<text text-anchor="start" x="127.37" y="-91.83" font-family="Times,serif" font-size="14.00"> tokens: 10</text>
</g>
</g>
</svg>
