<?xml version="1.0" encoding="UTF-8" standalone="no"?>
<!DOCTYPE svg PUBLIC "-//W3C//DTD SVG 1.1//EN"
 "http://www.w3.org/Graphics/SVG/1.1/DTD/svg11.dtd">
<!-- Generated by graphviz version 8.0.5 (20230430.1635)
 -->
<!-- Pages: 1 -->
<svg width="601pt" height="544pt"
 viewBox="0.00 0.00 600.75 544.00" xmlns="http://www.w3.org/2000/svg" xmlns:xlink="http://www.w3.org/1999/xlink">
<g id="graph0" class="graph" transform="scale(1 1) rotate(0) translate(4 540)">
<polygon fill="white" stroke="none" points="-4,4 -4,-540 596.75,-540 596.75,4 -4,4"/>
<text text-anchor="middle" x="296.38" y="-7.95" font-family="Times,serif" font-size="14.00">staker unstakes 10 hGRAM to receive ~10 GRAM, when there is no active round</text>
<!-- staker -->
<g id="node1" class="node">
<title>staker</title>
<ellipse fill="#b3cde3" stroke="#b3cde3" cx="220.25" cy="-518" rx="42.79" ry="18"/>
<text text-anchor="middle" x="220.25" y="-513.33" font-family="Times,serif" font-size="14.00">staker</text>
</g>
<!-- wallet -->
<g id="node2" class="node">
<title>wallet</title>
<ellipse fill="#ccebc5" stroke="#ccebc5" cx="220.25" cy="-359.75" rx="41.74" ry="18"/>
<text text-anchor="middle" x="220.25" y="-355.07" font-family="Times,serif" font-size="14.00">wallet</text>
</g>
<!-- staker&#45;&gt;wallet -->
<g id="edge1" class="edge">
<title>staker&#45;&gt;wallet</title>
<path fill="none" stroke="black" d="M181.56,-509.98C165.65,-504.98 148.75,-496.47 139.25,-482 118.19,-449.97 118.19,-427.78 139.25,-395.75 146.88,-384.13 159.28,-376.35 172.11,-371.15"/>
<polygon fill="black" stroke="black" points="173.14,-374.14 181.4,-367.51 170.81,-367.55 173.14,-374.14"/>
<text text-anchor="start" x="139.25" y="-460.07" font-family="Times,serif" font-size="14.00">1</text>
<text text-anchor="start" x="139.25" y="-442.82" font-family="Times,serif" font-size="14.00"> op::unstake_tokens</text>
<text text-anchor="start" x="139.25" y="-425.57" font-family="Times,serif" font-size="14.00"> 0.10 GRAM</text>
<text text-anchor="start" x="139.25" y="-408.32" font-family="Times,serif" font-size="14.00"> tokens: 10</text>
</g>
<!-- wallet&#45;&gt;staker -->
<g id="edge6" class="edge">
<title>wallet&#45;&gt;staker</title>
<path fill="none" stroke="black" d="M252.29,-371.77C263.14,-377.21 274.06,-384.98 280.25,-395.75 299.34,-428.99 299.34,-448.76 280.25,-482 275.94,-489.5 269.34,-495.54 262.06,-500.36"/>
<polygon fill="black" stroke="black" points="260.52,-497.79 253.61,-505.82 264.02,-503.85 260.52,-497.79"/>
<text text-anchor="start" x="294.25" y="-468.7" font-family="Times,serif" font-size="14.00">6</text>
<text text-anchor="start" x="294.25" y="-451.45" font-family="Times,serif" font-size="14.00"> op::withdrawal_notification</text>
<text text-anchor="start" x="294.25" y="-434.2" font-family="Times,serif" font-size="14.00"> 10.05 GRAM</text>
<text text-anchor="start" x="294.25" y="-416.95" font-family="Times,serif" font-size="14.00"> tokens: 10</text>
<text text-anchor="start" x="294.25" y="-399.7" font-family="Times,serif" font-size="14.00"> coins: ~10</text>
</g>
<!-- parent -->
<g id="node4" class="node">
<title>parent</title>
<ellipse fill="#fed9a6" stroke="#fed9a6" cx="220.25" cy="-201.5" rx="44.37" ry="18"/>
<text text-anchor="middle" x="220.25" y="-196.82" font-family="Times,serif" font-size="14.00">parent</text>
</g>
<!-- wallet&#45;&gt;parent -->
<g id="edge2" class="edge">
<title>wallet&#45;&gt;parent</title>
<path fill="none" stroke="black" d="M179.04,-355.94C156.87,-352.08 131.27,-343.33 117.25,-323.75 94.92,-292.59 94.92,-268.66 117.25,-237.5 128.61,-221.64 147.57,-212.88 166.15,-208.07"/>
<polygon fill="black" stroke="black" points="166.68,-211.32 175.68,-205.73 165.16,-204.49 166.68,-211.32"/>
<text text-anchor="start" x="117.25" y="-301.82" font-family="Times,serif" font-size="14.00">2</text>
<text text-anchor="start" x="117.25" y="-284.57" font-family="Times,serif" font-size="14.00"> op::proxy_reserve_tokens</text>
<text text-anchor="start" x="117.25" y="-267.32" font-family="Times,serif" font-size="14.00"> 0.09 GRAM</text>
<text text-anchor="start" x="117.25" y="-250.07" font-family="Times,serif" font-size="14.00"> tokens: 10</text>
</g>
<!-- treasury -->
<g id="node3" class="node">
<title>treasury</title>
<ellipse fill="#decbe4" stroke="#decbe4" cx="220.25" cy="-43.25" rx="53.84" ry="18"/>
<text text-anchor="middle" x="220.25" y="-38.58" font-family="Times,serif" font-size="14.00">treasury</text>
</g>
<!-- treasury&#45;&gt;parent -->
<g id="edge4" class="edge">
<title>treasury&#45;&gt;parent</title>
<path fill="none" stroke="black" d="M255.19,-57.22C264.68,-62.53 273.82,-69.73 279.25,-79.25 298.22,-112.56 298.22,-132.19 279.25,-165.5 275.1,-172.78 268.78,-178.7 261.8,-183.46"/>
<polygon fill="black" stroke="black" points="260.5,-180.75 253.71,-188.88 264.09,-186.76 260.5,-180.75"/>
<text text-anchor="start" x="293.25" y="-152.2" font-family="Times,serif" font-size="14.00">4</text>
<text text-anchor="start" x="293.25" y="-134.95" font-family="Times,serif" font-size="14.00"> op::proxy_tokens_burned</text>
<text text-anchor="start" x="293.25" y="-117.7" font-family="Times,serif" font-size="14.00"> 10.07 GRAM</text>
<text text-anchor="start" x="293.25" y="-100.45" font-family="Times,serif" font-size="14.00"> tokens: 10</text>
<text text-anchor="start" x="293.25" y="-83.2" font-family="Times,serif" font-size="14.00"> coins: ~10</text>
</g>
<!-- parent&#45;&gt;wallet -->
<g id="edge5" class="edge">
<title>parent&#45;&gt;wallet</title>
<path fill="none" stroke="black" d="M260.29,-209.41C276.46,-214.38 293.56,-222.91 303.25,-237.5 324.44,-269.44 324.44,-291.81 303.25,-323.75 295.25,-335.8 282.21,-343.7 268.81,-348.9"/>
<polygon fill="black" stroke="black" points="267.92,-345.84 259.57,-352.36 270.16,-352.47 267.92,-345.84"/>
<text text-anchor="start" x="318.25" y="-310.45" font-family="Times,serif" font-size="14.00">5</text>
<text text-anchor="start" x="318.25" y="-293.2" font-family="Times,serif" font-size="14.00"> op::tokens_burned</text>
<text text-anchor="start" x="318.25" y="-275.95" font-family="Times,serif" font-size="14.00"> 10.06 GRAM</text>
<text text-anchor="start" x="318.25" y="-258.7" font-family="Times,serif" font-size="14.00"> tokens: 10</text>
<text text-anchor="start" x="318.25" y="-241.45" font-family="Times,serif" font-size="14.00"> coins: ~10</text>
</g>
<!-- parent&#45;&gt;treasury -->
<g id="edge3" class="edge">
<title>parent&#45;&gt;treasury</title>
<path fill="none" stroke="black" d="M180.89,-192.92C165.6,-187.85 149.59,-179.42 140.5,-165.5 119.53,-133.41 119.53,-111.34 140.5,-79.25 146.64,-69.85 155.93,-62.96 166.02,-57.91"/>
<polygon fill="black" stroke="black" points="167.1,-60.82 174.87,-53.61 164.3,-54.4 167.1,-60.82"/>
<text text-anchor="start" x="141.25" y="-143.57" font-family="Times,serif" font-size="14.00">3</text>
<text text-anchor="start" x="141.25" y="-126.33" font-family="Times,serif" font-size="14.00"> op::reserve_tokens</text>
<text text-anchor="start" x="141.25" y="-109.08" font-family="Times,serif" font-size="14.00"> 0.08 GRAM</text>
<text text-anchor="start" x="141.25" y="-91.83" font-family="Times,serif" font-size="14.00"> tokens: 10</text>
</g>
</g>
</svg>
