<?xml version="1.0" encoding="UTF-8" standalone="no"?>
<!DOCTYPE svg PUBLIC "-//W3C//DTD SVG 1.1//EN"
 "http://www.w3.org/Graphics/SVG/1.1/DTD/svg11.dtd">
<!-- Generated by graphviz version 8.0.5 (20230430.1635)
 -->
<!-- Pages: 1 -->
<svg width="635pt" height="492pt"
 viewBox="0.00 0.00 635.25 492.25" xmlns="http://www.w3.org/2000/svg" xmlns:xlink="http://www.w3.org/1999/xlink">
<g id="graph0" class="graph" transform="scale(1 1) rotate(0) translate(4 488.25)">
<polygon fill="white" stroke="none" points="-4,4 -4,-488.25 631.25,-488.25 631.25,4 -4,4"/>
<text text-anchor="middle" x="313.62" y="-7.95" font-family="Times,serif" font-size="14.00">staker unstakes 10 hGRAM to receive ~10 GRAM, after the current round is finalized</text>
<!-- staker -->
<g id="node1" class="node">
<title>staker</title>
<ellipse fill="#b3cde3" stroke="#b3cde3" cx="255.93" cy="-466.25" rx="42.79" ry="18"/>
<text text-anchor="middle" x="255.93" y="-461.57" font-family="Times,serif" font-size="14.00">staker</text>
</g>
<!-- wallet -->
<g id="node2" class="node">
<title>wallet</title>
<ellipse fill="#ccebc5" stroke="#ccebc5" cx="162.93" cy="-325.25" rx="41.74" ry="18"/>
<text text-anchor="middle" x="162.93" y="-320.57" font-family="Times,serif" font-size="14.00">wallet</text>
</g>
<!-- staker&#45;&gt;wallet -->
<g id="edge1" class="edge">
<title>staker&#45;&gt;wallet</title>
<path fill="none" stroke="black" d="M217.49,-457.86C201.52,-452.78 184.33,-444.32 173.93,-430.25 157.87,-408.51 156.77,-376.89 158.66,-354.23"/>
<polygon fill="black" stroke="black" points="162.22,-354.92 159.82,-344.6 155.26,-354.17 162.22,-354.92"/>
<text text-anchor="start" x="173.93" y="-416.95" font-family="Times,serif" font-size="14.00">1</text>
<text text-anchor="start" x="173.93" y="-399.7" font-family="Times,serif" font-size="14.00"> op::unstake_tokens</text>
<text text-anchor="start" x="173.93" y="-382.45" font-family="Times,serif" font-size="14.00"> 0.10 GRAM</text>
<text text-anchor="start" x="173.93" y="-365.2" font-family="Times,serif" font-size="14.00"> tokens: 10</text>
</g>
<!-- parent -->
<g id="node5" class="node">
<title>parent</title>
<ellipse fill="#fed9a6" stroke="#fed9a6" cx="152.93" cy="-184.25" rx="44.37" ry="18"/>
<text text-anchor="middle" x="152.93" y="-179.57" font-family="Times,serif" font-size="14.00">parent</text>
</g>
<!-- wallet&#45;&gt;parent -->
<g id="edge2" class="edge">
<title>wallet&#45;&gt;parent</title>
<path fill="none" stroke="black" d="M159.49,-306.87C158.51,-301.26 157.54,-295.01 156.93,-289.25 154.26,-263.62 153.32,-234.28 153.02,-213.31"/>
<polygon fill="black" stroke="black" points="156.51,-213.56 152.91,-203.6 149.51,-213.63 156.51,-213.56"/>
<text text-anchor="start" x="156.93" y="-275.95" font-family="Times,serif" font-size="14.00">2</text>
<text text-anchor="start" x="156.93" y="-258.7" font-family="Times,serif" font-size="14.00"> op::proxy_reserve_tokens</text>
<text text-anchor="start" x="156.93" y="-241.45" font-family="Times,serif" font-size="14.00"> 0.09 GRAM</text>
<text text-anchor="start" x="156.93" y="-224.2" font-family="Times,serif" font-size="14.00"> tokens: 10</text>
</g>
<!-- bill -->
<g id="node3" class="node">
<title>bill</title>
<ellipse fill="#ccebc5" stroke="#ccebc5" cx="346.93" cy="-325.25" rx="27.01" ry="18"/>
<text text-anchor="middle" x="346.93" y="-320.57" font-family="Times,serif" font-size="14.00">bill</text>
</g>
<!-- bill&#45;&gt;staker -->
<g id="edge6" class="edge">
<title>bill&#45;&gt;staker</title>
<path fill="none" stroke="black" d="M346.32,-343.53C344.7,-365.78 338.97,-404.61 318.93,-430.25 313.18,-437.62 305.41,-443.67 297.3,-448.54"/>
<polygon fill="black" stroke="black" points="295.84,-445.89 288.72,-453.73 299.18,-452.05 295.84,-445.89"/>
<text text-anchor="start" x="343.93" y="-408.32" font-family="Times,serif" font-size="14.00">6</text>
<text text-anchor="start" x="343.93" y="-391.07" font-family="Times,serif" font-size="14.00"> op::ownership_assigned</text>
<text text-anchor="start" x="343.93" y="-373.82" font-family="Times,serif" font-size="14.00"> 0.01 GRAM</text>
</g>
<!-- treasury -->
<g id="node4" class="node">
<title>treasury</title>
<ellipse fill="#decbe4" stroke="#decbe4" cx="256.93" cy="-43.25" rx="53.84" ry="18"/>
<text text-anchor="middle" x="256.93" y="-38.58" font-family="Times,serif" font-size="14.00">treasury</text>
</g>
<!-- collection -->
<g id="node6" class="node">
<title>collection</title>
<ellipse fill="#fed9a6" stroke="#fed9a6" cx="346.93" cy="-184.25" rx="59.1" ry="18"/>
<text text-anchor="middle" x="346.93" y="-179.57" font-family="Times,serif" font-size="14.00">collection</text>
</g>
<!-- treasury&#45;&gt;collection -->
<g id="edge4" class="edge">
<title>treasury&#45;&gt;collection</title>
<path fill="none" stroke="black" d="M291.44,-57.53C301.56,-62.91 311.81,-70.07 318.93,-79.25 335.92,-101.14 342.62,-132.53 345.26,-155.09"/>
<polygon fill="black" stroke="black" points="341.86,-155.36 346.3,-164.99 348.83,-154.7 341.86,-155.36"/>
<text text-anchor="start" x="343.93" y="-134.95" font-family="Times,serif" font-size="14.00">4</text>
<text text-anchor="start" x="343.93" y="-117.7" font-family="Times,serif" font-size="14.00"> op::mint_bill</text>
<text text-anchor="start" x="343.93" y="-100.45" font-family="Times,serif" font-size="14.00"> 0.07 GRAM</text>
<text text-anchor="start" x="343.93" y="-83.2" font-family="Times,serif" font-size="14.00"> tokens: 10</text>
</g>
<!-- parent&#45;&gt;treasury -->
<g id="edge3" class="edge">
<title>parent&#45;&gt;treasury</title>
<path fill="none" stroke="black" d="M152.25,-166.1C152.26,-143.64 155.55,-104.2 176.18,-79.25 183.49,-70.42 193.45,-63.75 203.88,-58.75"/>
<polygon fill="black" stroke="black" points="205.13,-61.59 212.95,-54.44 202.38,-55.16 205.13,-61.59"/>
<text text-anchor="start" x="176.93" y="-134.95" font-family="Times,serif" font-size="14.00">3</text>
<text text-anchor="start" x="176.93" y="-117.7" font-family="Times,serif" font-size="14.00"> op::reserve_tokens</text>
<text text-anchor="start" x="176.93" y="-100.45" font-family="Times,serif" font-size="14.00"> 0.08 GRAM</text>
<text text-anchor="start" x="176.93" y="-83.2" font-family="Times,serif" font-size="14.00"> tokens: 10</text>
</g>
<!-- collection&#45;&gt;bill -->
<g id="edge5" class="edge">
<title>collection&#45;&gt;bill</title>
<path fill="none" stroke="black" d="M346.93,-202.36C346.93,-225.78 346.93,-268.12 346.93,-296.21"/>
<polygon fill="black" stroke="black" points="343.43,-295.93 346.93,-305.93 350.43,-295.93 343.43,-295.93"/>
<text text-anchor="start" x="346.93" y="-275.95" font-family="Times,serif" font-size="14.00">5</text>
<text text-anchor="start" x="346.93" y="-258.7" font-family="Times,serif" font-size="14.00"> op::assign_bill</text>
<text text-anchor="start" x="346.93" y="-241.45" font-family="Times,serif" font-size="14.00"> 0.06 GRAM</text>
<text text-anchor="start" x="346.93" y="-224.2" font-family="Times,serif" font-size="14.00"> tokens: 10</text>
</g>
</g>
</svg>
