<?xml version="1.0" encoding="UTF-8" standalone="no"?>
<!DOCTYPE svg PUBLIC "-//W3C//DTD SVG 1.1//EN"
 "http://www.w3.org/Graphics/SVG/1.1/DTD/svg11.dtd">
<!-- Generated by graphviz version 8.0.5 (20230430.1635)
 -->
<!-- Pages: 1 -->
<svg width="608pt" height="492pt"
 viewBox="0.00 0.00 607.50 492.25" xmlns="http://www.w3.org/2000/svg" xmlns:xlink="http://www.w3.org/1999/xlink">
<g id="graph0" class="graph" transform="scale(1 1) rotate(0) translate(4 488.25)">
<polygon fill="white" stroke="none" points="-4,4 -4,-488.25 603.5,-488.25 603.5,4 -4,4"/>
<text text-anchor="middle" x="299.75" y="-7.95" font-family="Times,serif" font-size="14.00">staker unstakes 10 hTON to receive ~10 TON, after the current round is finalized</text>
<!-- staker -->
<g id="node1" class="node">
<title>staker</title>
<ellipse fill="#b3cde3" stroke="#b3cde3" cx="242.06" cy="-466.25" rx="42.79" ry="18"/>
<text text-anchor="middle" x="242.06" y="-461.57" font-family="Times,serif" font-size="14.00">staker</text>
</g>
<!-- wallet -->
<g id="node2" class="node">
<title>wallet</title>
<ellipse fill="#ccebc5" stroke="#ccebc5" cx="149.06" cy="-325.25" rx="41.74" ry="18"/>
<text text-anchor="middle" x="149.06" y="-320.57" font-family="Times,serif" font-size="14.00">wallet</text>
</g>
<!-- staker&#45;&gt;wallet -->
<g id="edge1" class="edge">
<title>staker&#45;&gt;wallet</title>
<path fill="none" stroke="black" d="M203.62,-457.86C187.65,-452.78 170.45,-444.32 160.06,-430.25 144,-408.51 142.9,-376.89 144.79,-354.23"/>
<polygon fill="black" stroke="black" points="148.34,-354.92 145.94,-344.6 141.38,-354.17 148.34,-354.92"/>
<text text-anchor="start" x="160.06" y="-416.95" font-family="Times,serif" font-size="14.00">1</text>
<text text-anchor="start" x="160.06" y="-399.7" font-family="Times,serif" font-size="14.00"> op::unstake_tokens</text>
<text text-anchor="start" x="160.06" y="-382.45" font-family="Times,serif" font-size="14.00"> 0.10 TON</text>
<text text-anchor="start" x="160.06" y="-365.2" font-family="Times,serif" font-size="14.00"> tokens: 10</text>
</g>
<!-- parent -->
<g id="node5" class="node">
<title>parent</title>
<ellipse fill="#fed9a6" stroke="#fed9a6" cx="139.06" cy="-184.25" rx="44.37" ry="18"/>
<text text-anchor="middle" x="139.06" y="-179.57" font-family="Times,serif" font-size="14.00">parent</text>
</g>
<!-- wallet&#45;&gt;parent -->
<g id="edge2" class="edge">
<title>wallet&#45;&gt;parent</title>
<path fill="none" stroke="black" d="M145.62,-306.87C144.63,-301.26 143.66,-295.01 143.06,-289.25 140.38,-263.62 139.45,-234.28 139.14,-213.31"/>
<polygon fill="black" stroke="black" points="142.63,-213.56 139.03,-203.6 135.64,-213.63 142.63,-213.56"/>
<text text-anchor="start" x="143.06" y="-275.95" font-family="Times,serif" font-size="14.00">2</text>
<text text-anchor="start" x="143.06" y="-258.7" font-family="Times,serif" font-size="14.00"> op::proxy_reserve_tokens</text>
<text text-anchor="start" x="143.06" y="-241.45" font-family="Times,serif" font-size="14.00"> 0.09 TON</text>
<text text-anchor="start" x="143.06" y="-224.2" font-family="Times,serif" font-size="14.00"> tokens: 10</text>
</g>
<!-- bill -->
<g id="node3" class="node">
<title>bill</title>
<ellipse fill="#ccebc5" stroke="#ccebc5" cx="333.06" cy="-325.25" rx="27.01" ry="18"/>
<text text-anchor="middle" x="333.06" y="-320.57" font-family="Times,serif" font-size="14.00">bill</text>
</g>
<!-- bill&#45;&gt;staker -->
<g id="edge6" class="edge">
<title>bill&#45;&gt;staker</title>
<path fill="none" stroke="black" d="M332.45,-343.53C330.83,-365.78 325.09,-404.61 305.06,-430.25 299.3,-437.62 291.53,-443.67 283.42,-448.54"/>
<polygon fill="black" stroke="black" points="281.97,-445.89 274.84,-453.73 285.3,-452.05 281.97,-445.89"/>
<text text-anchor="start" x="330.06" y="-408.32" font-family="Times,serif" font-size="14.00">6</text>
<text text-anchor="start" x="330.06" y="-391.07" font-family="Times,serif" font-size="14.00"> op::ownership_assigned</text>
<text text-anchor="start" x="330.06" y="-373.82" font-family="Times,serif" font-size="14.00"> 0.01 TON</text>
</g>
<!-- treasury -->
<g id="node4" class="node">
<title>treasury</title>
<ellipse fill="#decbe4" stroke="#decbe4" cx="243.06" cy="-43.25" rx="53.84" ry="18"/>
<text text-anchor="middle" x="243.06" y="-38.58" font-family="Times,serif" font-size="14.00">treasury</text>
</g>
<!-- collection -->
<g id="node6" class="node">
<title>collection</title>
<ellipse fill="#fed9a6" stroke="#fed9a6" cx="333.06" cy="-184.25" rx="59.1" ry="18"/>
<text text-anchor="middle" x="333.06" y="-179.57" font-family="Times,serif" font-size="14.00">collection</text>
</g>
<!-- treasury&#45;&gt;collection -->
<g id="edge4" class="edge">
<title>treasury&#45;&gt;collection</title>
<path fill="none" stroke="black" d="M277.56,-57.53C287.68,-62.91 297.94,-70.07 305.06,-79.25 322.04,-101.14 328.75,-132.53 331.38,-155.09"/>
<polygon fill="black" stroke="black" points="327.99,-155.36 332.42,-164.99 334.96,-154.7 327.99,-155.36"/>
<text text-anchor="start" x="330.06" y="-134.95" font-family="Times,serif" font-size="14.00">4</text>
<text text-anchor="start" x="330.06" y="-117.7" font-family="Times,serif" font-size="14.00"> op::mint_bill</text>
<text text-anchor="start" x="330.06" y="-100.45" font-family="Times,serif" font-size="14.00"> 0.07 TON</text>
<text text-anchor="start" x="330.06" y="-83.2" font-family="Times,serif" font-size="14.00"> tokens: 10</text>
</g>
<!-- parent&#45;&gt;treasury -->
<g id="edge3" class="edge">
<title>parent&#45;&gt;treasury</title>
<path fill="none" stroke="black" d="M138.37,-166.1C138.39,-143.64 141.68,-104.2 162.31,-79.25 169.61,-70.42 179.57,-63.75 190,-58.75"/>
<polygon fill="black" stroke="black" points="191.26,-61.59 199.07,-54.44 188.5,-55.16 191.26,-61.59"/>
<text text-anchor="start" x="163.06" y="-134.95" font-family="Times,serif" font-size="14.00">3</text>
<text text-anchor="start" x="163.06" y="-117.7" font-family="Times,serif" font-size="14.00"> op::reserve_tokens</text>
<text text-anchor="start" x="163.06" y="-100.45" font-family="Times,serif" font-size="14.00"> 0.08 TON</text>
<text text-anchor="start" x="163.06" y="-83.2" font-family="Times,serif" font-size="14.00"> tokens: 10</text>
</g>
<!-- collection&#45;&gt;bill -->
<g id="edge5" class="edge">
<title>collection&#45;&gt;bill</title>
<path fill="none" stroke="black" d="M333.06,-202.36C333.06,-225.78 333.06,-268.12 333.06,-296.21"/>
<polygon fill="black" stroke="black" points="329.56,-295.93 333.06,-305.93 336.56,-295.93 329.56,-295.93"/>
<text text-anchor="start" x="333.06" y="-275.95" font-family="Times,serif" font-size="14.00">5</text>
<text text-anchor="start" x="333.06" y="-258.7" font-family="Times,serif" font-size="14.00"> op::assign_bill</text>
<text text-anchor="start" x="333.06" y="-241.45" font-family="Times,serif" font-size="14.00"> 0.06 TON</text>
<text text-anchor="start" x="333.06" y="-224.2" font-family="Times,serif" font-size="14.00"> tokens: 10</text>
</g>
</g>
</svg>
