<?xml version="1.0" encoding="UTF-8" standalone="no"?>
<!DOCTYPE svg PUBLIC "-//W3C//DTD SVG 1.1//EN"
 "http://www.w3.org/Graphics/SVG/1.1/DTD/svg11.dtd">
<!-- Generated by graphviz version 8.0.5 (20230430.1635)
 -->
<!-- Pages: 1 -->
<svg width="524pt" height="245pt"
 viewBox="0.00 0.00 524.08 244.75" xmlns="http://www.w3.org/2000/svg" xmlns:xlink="http://www.w3.org/1999/xlink">
<g id="graph0" class="graph" transform="scale(1 1) rotate(0) translate(4 240.75)">
<polygon fill="white" stroke="none" points="-4,4 -4,-240.75 520.08,-240.75 520.08,4 -4,4"/>
<text text-anchor="middle" x="258.04" y="-7.95" font-family="Times,serif" font-size="14.00">borrowers request loans</text>
<!-- borrower1 -->
<g id="node1" class="node">
<title>borrower1</title>
<ellipse fill="#e5d8bd" stroke="#e5d8bd" cx="63.83" cy="-218.75" rx="63.83" ry="18"/>
<text text-anchor="middle" x="63.83" y="-214.07" font-family="Times,serif" font-size="14.00">borrower1</text>
</g>
<!-- treasury -->
<g id="node4" class="node">
<title>treasury</title>
<ellipse fill="#decbe4" stroke="#decbe4" cx="220.83" cy="-43.25" rx="53.84" ry="18"/>
<text text-anchor="middle" x="220.83" y="-38.58" font-family="Times,serif" font-size="14.00">treasury</text>
</g>
<!-- borrower1&#45;&gt;treasury -->
<g id="edge1" class="edge">
<title>borrower1&#45;&gt;treasury</title>
<path fill="none" stroke="black" d="M60.6,-200.37C56.29,-171.4 52.37,-113.1 82.58,-79.25 93.25,-67.3 128.44,-58.49 160.65,-52.7"/>
<polygon fill="black" stroke="black" points="161.16,-55.99 170.42,-50.85 159.97,-49.09 161.16,-55.99"/>
<text text-anchor="start" x="82.83" y="-169.45" font-family="Times,serif" font-size="14.00">1</text>
<text text-anchor="start" x="82.83" y="-152.2" font-family="Times,serif" font-size="14.00"> op::request_loan</text>
<text text-anchor="start" x="82.83" y="-134.95" font-family="Times,serif" font-size="14.00"> 100002 TON</text>
<text text-anchor="start" x="82.83" y="-117.7" font-family="Times,serif" font-size="14.00"> loan: 200000</text>
<text text-anchor="start" x="82.83" y="-100.45" font-family="Times,serif" font-size="14.00"> min payment: 100</text>
<text text-anchor="start" x="82.83" y="-83.2" font-family="Times,serif" font-size="14.00"> share: 40%</text>
</g>
<!-- borrower2 -->
<g id="node2" class="node">
<title>borrower2</title>
<ellipse fill="#e5d8bd" stroke="#e5d8bd" cx="220.83" cy="-218.75" rx="63.83" ry="18"/>
<text text-anchor="middle" x="220.83" y="-214.07" font-family="Times,serif" font-size="14.00">borrower2</text>
</g>
<!-- borrower2&#45;&gt;treasury -->
<g id="edge2" class="edge">
<title>borrower2&#45;&gt;treasury</title>
<path fill="none" stroke="black" d="M220.83,-200.48C220.83,-170.55 220.83,-108.77 220.83,-72.51"/>
<polygon fill="black" stroke="black" points="224.33,-72.71 220.83,-62.71 217.33,-72.71 224.33,-72.71"/>
<text text-anchor="start" x="220.83" y="-169.45" font-family="Times,serif" font-size="14.00">1</text>
<text text-anchor="start" x="220.83" y="-152.2" font-family="Times,serif" font-size="14.00"> op::request_loan</text>
<text text-anchor="start" x="220.83" y="-134.95" font-family="Times,serif" font-size="14.00"> 202 TON</text>
<text text-anchor="start" x="220.83" y="-117.7" font-family="Times,serif" font-size="14.00"> loan: 300000</text>
<text text-anchor="start" x="220.83" y="-100.45" font-family="Times,serif" font-size="14.00"> min payment: 100</text>
<text text-anchor="start" x="220.83" y="-83.2" font-family="Times,serif" font-size="14.00"> share: 40%</text>
</g>
<!-- borrower3 -->
<g id="node3" class="node">
<title>borrower3</title>
<ellipse fill="#e5d8bd" stroke="#e5d8bd" cx="377.83" cy="-218.75" rx="63.83" ry="18"/>
<text text-anchor="middle" x="377.83" y="-214.07" font-family="Times,serif" font-size="14.00">borrower3</text>
</g>
<!-- borrower3&#45;&gt;treasury -->
<g id="edge3" class="edge">
<title>borrower3&#45;&gt;treasury</title>
<path fill="none" stroke="black" d="M380.57,-200.33C384.07,-171.32 386.44,-112.95 355.83,-79.25 345.38,-67.74 311.41,-58.96 280.17,-53.08"/>
<polygon fill="black" stroke="black" points="281.18,-49.53 270.72,-51.2 279.94,-56.42 281.18,-49.53"/>
<text text-anchor="start" x="381.83" y="-169.45" font-family="Times,serif" font-size="14.00">1</text>
<text text-anchor="start" x="381.83" y="-152.2" font-family="Times,serif" font-size="14.00"> op::request_loan</text>
<text text-anchor="start" x="381.83" y="-134.95" font-family="Times,serif" font-size="14.00"> 302 TON</text>
<text text-anchor="start" x="381.83" y="-117.7" font-family="Times,serif" font-size="14.00"> loan: 300000</text>
<text text-anchor="start" x="381.83" y="-100.45" font-family="Times,serif" font-size="14.00"> min payment: 200</text>
<text text-anchor="start" x="381.83" y="-83.2" font-family="Times,serif" font-size="14.00"> share: 100%</text>
</g>
</g>
</svg>
