<?xml version="1.0" encoding="UTF-8" standalone="no"?>
<!DOCTYPE svg PUBLIC "-//W3C//DTD SVG 1.1//EN"
 "http://www.w3.org/Graphics/SVG/1.1/DTD/svg11.dtd">
<!-- Generated by graphviz version 8.0.5 (20230430.1635)
 -->
<!-- Pages: 1 -->
<svg width="699pt" height="367pt"
 viewBox="0.00 0.00 699.00 367.00" xmlns="http://www.w3.org/2000/svg" xmlns:xlink="http://www.w3.org/1999/xlink">
<g id="graph0" class="graph" transform="scale(1 1) rotate(0) translate(4 363)">
<polygon fill="white" stroke="none" points="-4,4 -4,-363 695,-363 695,4 -4,4"/>
<text text-anchor="middle" x="345.5" y="-7.95" font-family="Times,serif" font-size="14.00">staker unstakes 10 hTON which will be converted to near 10 TON considering the future price</text>
<!-- external -->
<g id="node1" class="node">
<title>external</title>
<ellipse fill="black" stroke="black" cx="107.65" cy="-341" rx="1.8" ry="1.8"/>
</g>
<!-- staker -->
<g id="node2" class="node">
<title>staker</title>
<ellipse fill="#b3cde3" stroke="#b3cde3" cx="187.65" cy="-341" rx="42.79" ry="18"/>
<text text-anchor="middle" x="187.65" y="-336.32" font-family="Times,serif" font-size="14.00">staker</text>
</g>
<!-- external&#45;&gt;staker -->
<g id="edge2" class="edge">
<title>external&#45;&gt;staker</title>
<path fill="none" stroke="black" d="M109.63,-341C113.57,-341 122.96,-341 133.92,-341"/>
<polygon fill="black" stroke="black" points="133.78,-344.5 143.78,-341 133.78,-337.5 133.78,-344.5"/>
<text text-anchor="middle" x="127.15" y="-347.95" font-family="Times,serif" font-size="14.00">1</text>
</g>
<!-- wallet -->
<g id="node5" class="node">
<title>wallet</title>
<ellipse fill="#ccebc5" stroke="#ccebc5" cx="187.65" cy="-192.12" rx="41.74" ry="18"/>
<text text-anchor="middle" x="187.65" y="-187.45" font-family="Times,serif" font-size="14.00">wallet</text>
</g>
<!-- staker&#45;&gt;wallet -->
<g id="edge1" class="edge">
<title>staker&#45;&gt;wallet</title>
<path fill="none" stroke="black" stroke-dasharray="1,5" d="M176.38,-323.26C173.24,-317.69 170.25,-311.3 168.65,-305 161.1,-275.28 162.3,-266 168.65,-236 169.86,-230.28 171.88,-224.41 174.17,-218.9"/>
<polygon fill="black" stroke="black" points="181.15,-212 173.83,-219.65 174.78,-209.1 181.15,-212"/>
</g>
<!-- staker&#45;&gt;wallet -->
<g id="edge3" class="edge">
<title>staker&#45;&gt;wallet</title>
<path fill="none" stroke="black" d="M187.65,-322.57C187.65,-297.62 187.65,-251.42 187.65,-221.5"/>
<polygon fill="black" stroke="black" points="191.15,-221.53 187.65,-211.53 184.15,-221.53 191.15,-221.53"/>
<text text-anchor="start" x="187.65" y="-291.7" font-family="Times,serif" font-size="14.00">2</text>
<text text-anchor="start" x="187.65" y="-274.45" font-family="Times,serif" font-size="14.00"> op::unstake_tokens</text>
<text text-anchor="start" x="187.65" y="-257.2" font-family="Times,serif" font-size="14.00"> 0.20 TON</text>
<text text-anchor="start" x="187.65" y="-239.95" font-family="Times,serif" font-size="14.00"> tokens: 10</text>
</g>
<!-- driver -->
<g id="node3" class="node">
<title>driver</title>
<ellipse fill="#b3cde3" stroke="#b3cde3" cx="489.65" cy="-341" rx="41.74" ry="18"/>
<text text-anchor="middle" x="489.65" y="-336.32" font-family="Times,serif" font-size="14.00">driver</text>
</g>
<!-- treasury -->
<g id="node4" class="node">
<title>treasury</title>
<ellipse fill="#decbe4" stroke="#decbe4" cx="343.65" cy="-43.25" rx="53.84" ry="18"/>
<text text-anchor="middle" x="343.65" y="-38.58" font-family="Times,serif" font-size="14.00">treasury</text>
</g>
<!-- treasury&#45;&gt;staker -->
<g id="edge6" class="edge">
<title>treasury&#45;&gt;staker</title>
<path fill="none" stroke="black" d="M343.89,-61.49C344.51,-116.66 345.11,-286.32 329.65,-305 318.06,-319 275.01,-328.29 239.32,-333.76"/>
<polygon fill="black" stroke="black" points="238.91,-330.43 229.52,-335.33 239.92,-337.35 238.91,-330.43"/>
<text text-anchor="start" x="342.65" y="-204.7" font-family="Times,serif" font-size="14.00">5</text>
<text text-anchor="start" x="342.65" y="-187.45" font-family="Times,serif" font-size="14.00"> op::gas_excess</text>
<text text-anchor="start" x="342.65" y="-170.2" font-family="Times,serif" font-size="14.00"> 0.10 TON</text>
</g>
<!-- treasury&#45;&gt;driver -->
<g id="edge5" class="edge">
<title>treasury&#45;&gt;driver</title>
<path fill="none" stroke="black" d="M364.71,-60.28C390.95,-81.5 435.08,-121.47 457.65,-166.25 481.57,-213.7 487.77,-276.51 489.28,-312.15"/>
<polygon fill="black" stroke="black" points="485.8,-311.83 489.62,-321.71 492.79,-311.6 485.8,-311.83"/>
<text text-anchor="start" x="475.65" y="-204.7" font-family="Times,serif" font-size="14.00">4</text>
<text text-anchor="start" x="475.65" y="-187.45" font-family="Times,serif" font-size="14.00"> op::gas_excess</text>
<text text-anchor="start" x="475.65" y="-170.2" font-family="Times,serif" font-size="14.00"> 0.08 TON</text>
</g>
<!-- wallet&#45;&gt;treasury -->
<g id="edge4" class="edge">
<title>wallet&#45;&gt;treasury</title>
<path fill="none" stroke="black" d="M182.37,-174.15C176.04,-150.12 168.83,-106.13 190.9,-79.25 202.6,-64.99 244.77,-56.02 281.85,-50.73"/>
<polygon fill="black" stroke="black" points="282.2,-54.08 291.64,-49.27 281.26,-47.14 282.2,-54.08"/>
<text text-anchor="start" x="191.65" y="-134.95" font-family="Times,serif" font-size="14.00">3</text>
<text text-anchor="start" x="191.65" y="-117.7" font-family="Times,serif" font-size="14.00"> op::reserve_tokens</text>
<text text-anchor="start" x="191.65" y="-100.45" font-family="Times,serif" font-size="14.00"> 0.19 TON</text>
<text text-anchor="start" x="191.65" y="-83.2" font-family="Times,serif" font-size="14.00"> tokens: 10</text>
</g>
</g>
</svg>
