<?xml version="1.0" encoding="UTF-8" standalone="no"?>
<!DOCTYPE svg PUBLIC "-//W3C//DTD SVG 1.1//EN"
 "http://www.w3.org/Graphics/SVG/1.1/DTD/svg11.dtd">
<!-- Generated by graphviz version 8.0.5 (20230430.1635)
 -->
<!-- Pages: 1 -->
<svg width="941pt" height="471pt"
 viewBox="0.00 0.00 940.67 471.00" xmlns="http://www.w3.org/2000/svg" xmlns:xlink="http://www.w3.org/1999/xlink">
<g id="graph0" class="graph" transform="scale(1 1) rotate(0) translate(4 467)">
<polygon fill="white" stroke="none" points="-4,4 -4,-467 936.67,-467 936.67,4 -4,4"/>
<text text-anchor="middle" x="466.33" y="-7.95" font-family="Times,serif" font-size="14.00">anyone sends a message to start the process of participation in the current election</text>
<!-- external -->
<g id="node1" class="node">
<title>external</title>
<ellipse fill="black" stroke="black" cx="93.83" cy="-306" rx="1.8" ry="1.8"/>
</g>
<!-- treasury -->
<g id="node2" class="node">
<title>treasury</title>
<ellipse fill="#decbe4" stroke="#decbe4" cx="358.83" cy="-306" rx="53.84" ry="18"/>
<text text-anchor="middle" x="358.83" y="-301.32" font-family="Times,serif" font-size="14.00">treasury</text>
</g>
<!-- external&#45;&gt;treasury -->
<g id="edge3" class="edge">
<title>external&#45;&gt;treasury</title>
<path fill="none" stroke="black" d="M96.13,-306C113.18,-306 221.72,-306 293.84,-306"/>
<polygon fill="black" stroke="black" points="293.64,-309.5 303.64,-306 293.64,-302.5 293.64,-309.5"/>
<text text-anchor="start" x="104.32" y="-330.2" font-family="Times,serif" font-size="14.00">1</text>
<text text-anchor="start" x="104.32" y="-312.95" font-family="Times,serif" font-size="14.00"> op::participate_in_election</text>
</g>
<!-- treasury&#45;&gt;treasury -->
<g id="edge4" class="edge">
<title>treasury&#45;&gt;treasury</title>
<path fill="none" stroke="black" d="M408.86,-313.13C421.34,-312.63 430.67,-310.26 430.67,-306 430.67,-303.07 426.26,-301.04 419.45,-299.89"/>
<polygon fill="black" stroke="black" points="420.15,-296.34 409.86,-298.87 419.48,-303.31 420.15,-296.34"/>
<text text-anchor="start" x="430.67" y="-309.95" font-family="Times,serif" font-size="14.00">2</text>
<text text-anchor="start" x="430.67" y="-292.7" font-family="Times,serif" font-size="14.00"> op::decide_loan_requests &#160;&#160;&#160;</text>
</g>
<!-- treasury&#45;&gt;treasury -->
<g id="edge5" class="edge">
<title>treasury&#45;&gt;treasury</title>
<path fill="none" stroke="black" d="M404.58,-315.92C483.79,-324.35 631.67,-321.04 631.67,-306 631.67,-291.6 496.23,-287.96 415.16,-295.06"/>
<polygon fill="black" stroke="black" points="415.2,-291.64 405.58,-296.08 415.87,-298.6 415.2,-291.64"/>
<text text-anchor="start" x="631.67" y="-309.95" font-family="Times,serif" font-size="14.00">3</text>
<text text-anchor="start" x="631.67" y="-292.7" font-family="Times,serif" font-size="14.00"> op::process_loan_requests</text>
</g>
<!-- loan2 -->
<g id="node3" class="node">
<title>loan2</title>
<ellipse fill="#fddaec" stroke="#fddaec" cx="471.83" cy="-167" rx="38.58" ry="18"/>
<text text-anchor="middle" x="471.83" y="-162.32" font-family="Times,serif" font-size="14.00">loan2</text>
</g>
<!-- treasury&#45;&gt;loan2 -->
<g id="edge6" class="edge">
<title>treasury&#45;&gt;loan2</title>
<path fill="none" stroke="#8dd3c7" d="M378.76,-288.85C389.72,-279.48 403.21,-267.11 413.83,-254.75 430.17,-235.74 445.8,-211.93 456.7,-194.07"/>
<polygon fill="#8dd3c7" stroke="#8dd3c7" points="460.1,-196.2 462.25,-185.83 454.1,-192.6 460.1,-196.2"/>
<text text-anchor="start" x="449.83" y="-241.45" font-family="Times,serif" font-size="14.00">4</text>
<text text-anchor="start" x="449.83" y="-224.2" font-family="Times,serif" font-size="14.00"> op::proxy_new_stake</text>
<text text-anchor="start" x="449.83" y="-206.95" font-family="Times,serif" font-size="14.00"> 300002 TON</text>
</g>
<!-- loan3 -->
<g id="node4" class="node">
<title>loan3</title>
<ellipse fill="#fddaec" stroke="#fddaec" cx="180.83" cy="-167" rx="38.58" ry="18"/>
<text text-anchor="middle" x="180.83" y="-162.32" font-family="Times,serif" font-size="14.00">loan3</text>
</g>
<!-- treasury&#45;&gt;loan3 -->
<g id="edge9" class="edge">
<title>treasury&#45;&gt;loan3</title>
<path fill="none" stroke="#fb8072" d="M324.59,-291.94C304.03,-283.17 277.99,-270.38 257.58,-254.75 234.54,-237.1 213.07,-211.76 198.74,-193.03"/>
<polygon fill="#fb8072" stroke="#fb8072" points="201.09,-191.33 192.3,-185.42 195.49,-195.53 201.09,-191.33"/>
<text text-anchor="start" x="257.83" y="-241.45" font-family="Times,serif" font-size="14.00">7</text>
<text text-anchor="start" x="257.83" y="-224.2" font-family="Times,serif" font-size="14.00"> op::proxy_new_stake</text>
<text text-anchor="start" x="257.83" y="-206.95" font-family="Times,serif" font-size="14.00"> 300002 TON</text>
</g>
<!-- borrower1 -->
<g id="node6" class="node">
<title>borrower1</title>
<ellipse fill="#e5d8bd" stroke="#e5d8bd" cx="358.83" cy="-445" rx="63.83" ry="18"/>
<text text-anchor="middle" x="358.83" y="-440.32" font-family="Times,serif" font-size="14.00">borrower1</text>
</g>
<!-- treasury&#45;&gt;borrower1 -->
<g id="edge12" class="edge">
<title>treasury&#45;&gt;borrower1</title>
<path fill="none" stroke="#80b1d3" d="M358.83,-324.21C358.83,-347.2 358.83,-388.21 358.83,-415.76"/>
<polygon fill="#80b1d3" stroke="#80b1d3" points="355.33,-415.65 358.83,-425.65 362.33,-415.65 355.33,-415.65"/>
<text text-anchor="start" x="358.83" y="-395.7" font-family="Times,serif" font-size="14.00">10</text>
<text text-anchor="start" x="358.83" y="-378.45" font-family="Times,serif" font-size="14.00"> op::request_rejected</text>
<text text-anchor="start" x="358.83" y="-361.2" font-family="Times,serif" font-size="14.00"> 301 TON</text>
</g>
<!-- elector -->
<g id="node5" class="node">
<title>elector</title>
<ellipse fill="#fbb4ae" stroke="#fbb4ae" cx="331.83" cy="-43.25" rx="45.95" ry="18"/>
<text text-anchor="middle" x="331.83" y="-38.58" font-family="Times,serif" font-size="14.00">elector</text>
</g>
<!-- loan2&#45;&gt;elector -->
<g id="edge7" class="edge">
<title>loan2&#45;&gt;elector</title>
<path fill="none" stroke="#8dd3c7" d="M442.8,-154.74C431.06,-149.04 418.12,-141.15 408.83,-131 391.85,-112.43 402.18,-98.39 385.83,-79.25 380.85,-73.41 374.64,-68.18 368.24,-63.66"/>
<polygon fill="#8dd3c7" stroke="#8dd3c7" points="370.76,-60.47 360.47,-57.94 366.93,-66.33 370.76,-60.47"/>
<text text-anchor="start" x="408.83" y="-117.7" font-family="Times,serif" font-size="14.00">5</text>
<text text-anchor="start" x="408.83" y="-100.45" font-family="Times,serif" font-size="14.00"> op::new_stake</text>
<text text-anchor="start" x="408.83" y="-83.2" font-family="Times,serif" font-size="14.00"> 300001 TON</text>
</g>
<!-- loan3&#45;&gt;elector -->
<g id="edge10" class="edge">
<title>loan3&#45;&gt;elector</title>
<path fill="none" stroke="#fb8072" d="M153.48,-153.93C144.25,-148.36 134.99,-140.79 129.83,-131 119.12,-110.65 115.02,-96.85 129.83,-79.25 148.11,-57.53 222.04,-49.29 275.17,-46.16"/>
<polygon fill="#fb8072" stroke="#fb8072" points="275.03,-49.62 284.83,-45.59 274.65,-42.63 275.03,-49.62"/>
<text text-anchor="start" x="129.83" y="-117.7" font-family="Times,serif" font-size="14.00">8</text>
<text text-anchor="start" x="129.83" y="-100.45" font-family="Times,serif" font-size="14.00"> op::new_stake</text>
<text text-anchor="start" x="129.83" y="-83.2" font-family="Times,serif" font-size="14.00"> 300001 TON</text>
</g>
<!-- elector&#45;&gt;loan2 -->
<g id="edge8" class="edge">
<title>elector&#45;&gt;loan2</title>
<path fill="none" stroke="#8dd3c7" d="M377.2,-46.55C425.35,-50.06 496.83,-58.66 513.83,-79.25 528.48,-96.98 523.59,-110.17 513.83,-131 511.32,-136.37 507.53,-141.21 503.23,-145.45"/>
<polygon fill="#8dd3c7" stroke="#8dd3c7" points="501.42,-143.25 496.13,-152.42 505.99,-148.55 501.42,-143.25"/>
<text text-anchor="start" x="522.83" y="-117.7" font-family="Times,serif" font-size="14.00">6</text>
<text text-anchor="start" x="522.83" y="-100.45" font-family="Times,serif" font-size="14.00"> op::new_stake_ok</text>
<text text-anchor="start" x="522.83" y="-83.2" font-family="Times,serif" font-size="14.00"> 1 TON</text>
</g>
<!-- elector&#45;&gt;loan3 -->
<g id="edge11" class="edge">
<title>elector&#45;&gt;loan3</title>
<path fill="none" stroke="#fb8072" d="M294.59,-54.01C280.16,-59.41 264.53,-67.48 253.58,-79.25 236.93,-97.17 250.06,-111.85 234.83,-131 229.65,-137.52 222.91,-143.21 215.96,-148"/>
<polygon fill="#fb8072" stroke="#fb8072" points="214.72,-145.28 208.14,-153.58 218.46,-151.19 214.72,-145.28"/>
<text text-anchor="start" x="253.83" y="-117.7" font-family="Times,serif" font-size="14.00">9</text>
<text text-anchor="start" x="253.83" y="-100.45" font-family="Times,serif" font-size="14.00"> op::new_stake_ok</text>
<text text-anchor="start" x="253.83" y="-83.2" font-family="Times,serif" font-size="14.00"> 1 TON</text>
</g>
<!-- borrower2 -->
<g id="node7" class="node">
<title>borrower2</title>
<ellipse fill="#e5d8bd" stroke="#e5d8bd" cx="868.83" cy="-445" rx="63.83" ry="18"/>
<text text-anchor="middle" x="868.83" y="-440.32" font-family="Times,serif" font-size="14.00">borrower2</text>
</g>
<!-- borrower2&#45;&gt;loan2 -->
<g id="edge1" class="edge">
<title>borrower2&#45;&gt;loan2</title>
<path fill="none" stroke="black" stroke-dasharray="1,5" d="M872.62,-426.53C878.89,-392.57 887.28,-317.08 849.83,-272.75 806.95,-221.98 609.72,-187.74 518.44,-174.33"/>
<polygon fill="black" stroke="black" points="509.63,-169.52 519.02,-174.42 508.62,-176.45 509.63,-169.52"/>
</g>
<!-- borrower3 -->
<g id="node8" class="node">
<title>borrower3</title>
<ellipse fill="#e5d8bd" stroke="#e5d8bd" cx="63.83" cy="-445" rx="63.83" ry="18"/>
<text text-anchor="middle" x="63.83" y="-440.32" font-family="Times,serif" font-size="14.00">borrower3</text>
</g>
<!-- borrower3&#45;&gt;loan3 -->
<g id="edge2" class="edge">
<title>borrower3&#45;&gt;loan3</title>
<path fill="none" stroke="black" stroke-dasharray="1,5" d="M62.27,-426.52C60.13,-394.43 58.95,-324.65 82.83,-272.75 98.57,-238.55 129.9,-208.21 152.91,-189.1"/>
<polygon fill="black" stroke="black" points="162.48,-185.86 152.51,-189.43 158.08,-180.42 162.48,-185.86"/>
</g>
</g>
</svg>
