<?xml version="1.0" encoding="UTF-8" standalone="no"?>
<!DOCTYPE svg PUBLIC "-//W3C//DTD SVG 1.1//EN"
 "http://www.w3.org/Graphics/SVG/1.1/DTD/svg11.dtd">
<!-- Generated by graphviz version 8.0.5 (20230430.1635)
 -->
<!-- Pages: 1 -->
<svg width="941pt" height="471pt"
 viewBox="0.00 0.00 940.67 471.00" xmlns="http://www.w3.org/2000/svg" xmlns:xlink="http://www.w3.org/1999/xlink">
<g id="graph0" class="graph" transform="scale(1 1) rotate(0) translate(4 467)">
<polygon fill="white" stroke="none" points="-4,4 -4,-467 936.67,-467 936.67,4 -4,4"/>
<text text-anchor="middle" x="466.33" y="-7.95" font-family="Times,serif" font-size="14.00">anyone sends a message to start the process of participation in the current election</text>
<!-- external -->
<g id="node1" class="node">
<title>external</title>
<ellipse fill="black" stroke="black" cx="93.83" cy="-306" rx="1.8" ry="1.8"/>
</g>
<!-- treasury -->
<g id="node2" class="node">
<title>treasury</title>
<ellipse fill="#decbe4" stroke="#decbe4" cx="358.83" cy="-306" rx="53.84" ry="18"/>
<text text-anchor="middle" x="358.83" y="-301.32" font-family="Times,serif" font-size="14.00">treasury</text>
</g>
<!-- external&#45;&gt;treasury -->
<g id="edge3" class="edge">
<title>external&#45;&gt;treasury</title>
<path fill="none" stroke="black" d="M96.13,-306C113.18,-306 221.72,-306 293.84,-306"/>
<polygon fill="black" stroke="black" points="293.64,-309.5 303.64,-306 293.64,-302.5 293.64,-309.5"/>
<text text-anchor="start" x="104.32" y="-330.2" font-family="Times,serif" font-size="14.00">1</text>
<text text-anchor="start" x="104.32" y="-312.95" font-family="Times,serif" font-size="14.00"> op::participate_in_election</text>
</g>
<!-- treasury&#45;&gt;treasury -->
<g id="edge4" class="edge">
<title>treasury&#45;&gt;treasury</title>
<path fill="none" stroke="black" d="M408.86,-313.13C421.34,-312.63 430.67,-310.26 430.67,-306 430.67,-303.07 426.26,-301.04 419.45,-299.89"/>
<polygon fill="black" stroke="black" points="420.15,-296.34 409.86,-298.87 419.48,-303.31 420.15,-296.34"/>
<text text-anchor="start" x="430.67" y="-309.95" font-family="Times,serif" font-size="14.00">2</text>
<text text-anchor="start" x="430.67" y="-292.7" font-family="Times,serif" font-size="14.00"> op::decide_loan_requests &#160;&#160;&#160;</text>
</g>
<!-- treasury&#45;&gt;treasury -->
<g id="edge5" class="edge">
<title>treasury&#45;&gt;treasury</title>
<path fill="none" stroke="black" d="M404.58,-315.92C483.79,-324.35 631.67,-321.04 631.67,-306 631.67,-291.6 496.23,-287.96 415.16,-295.06"/>
<polygon fill="black" stroke="black" points="415.2,-291.64 405.58,-296.08 415.87,-298.6 415.2,-291.64"/>
<text text-anchor="start" x="631.67" y="-309.95" font-family="Times,serif" font-size="14.00">3</text>
<text text-anchor="start" x="631.67" y="-292.7" font-family="Times,serif" font-size="14.00"> op::process_loan_requests</text>
</g>
<!-- loan2 -->
<g id="node3" class="node">
<title>loan2</title>
<ellipse fill="#fddaec" stroke="#fddaec" cx="472.83" cy="-167" rx="38.58" ry="18"/>
<text text-anchor="middle" x="472.83" y="-162.32" font-family="Times,serif" font-size="14.00">loan2</text>
</g>
<!-- treasury&#45;&gt;loan2 -->
<g id="edge6" class="edge">
<title>treasury&#45;&gt;loan2</title>
<path fill="none" stroke="#8dd3c7" d="M378.72,-288.82C389.67,-279.43 403.16,-267.07 413.83,-254.75 430.34,-235.7 446.24,-211.9 457.37,-194.05"/>
<polygon fill="#8dd3c7" stroke="#8dd3c7" points="460.79,-196.17 463.03,-185.81 454.82,-192.51 460.79,-196.17"/>
<text text-anchor="start" x="449.83" y="-241.45" font-family="Times,serif" font-size="14.00">4</text>
<text text-anchor="start" x="449.83" y="-224.2" font-family="Times,serif" font-size="14.00"> op::proxy_new_stake</text>
<text text-anchor="start" x="449.83" y="-206.95" font-family="Times,serif" font-size="14.00"> 300002 GRAM</text>
</g>
<!-- loan3 -->
<g id="node4" class="node">
<title>loan3</title>
<ellipse fill="#fddaec" stroke="#fddaec" cx="177.83" cy="-167" rx="38.58" ry="18"/>
<text text-anchor="middle" x="177.83" y="-162.32" font-family="Times,serif" font-size="14.00">loan3</text>
</g>
<!-- treasury&#45;&gt;loan3 -->
<g id="edge9" class="edge">
<title>treasury&#45;&gt;loan3</title>
<path fill="none" stroke="#fb8072" d="M324.69,-291.8C304.17,-282.98 278.14,-270.19 257.58,-254.75 233.97,-237.02 211.62,-211.69 196.63,-192.98"/>
<polygon fill="#fb8072" stroke="#fb8072" points="198.81,-191.09 189.88,-185.39 193.3,-195.42 198.81,-191.09"/>
<text text-anchor="start" x="257.83" y="-241.45" font-family="Times,serif" font-size="14.00">7</text>
<text text-anchor="start" x="257.83" y="-224.2" font-family="Times,serif" font-size="14.00"> op::proxy_new_stake</text>
<text text-anchor="start" x="257.83" y="-206.95" font-family="Times,serif" font-size="14.00"> 300002 GRAM</text>
</g>
<!-- borrower1 -->
<g id="node6" class="node">
<title>borrower1</title>
<ellipse fill="#e5d8bd" stroke="#e5d8bd" cx="358.83" cy="-445" rx="63.83" ry="18"/>
<text text-anchor="middle" x="358.83" y="-440.32" font-family="Times,serif" font-size="14.00">borrower1</text>
</g>
<!-- treasury&#45;&gt;borrower1 -->
<g id="edge12" class="edge">
<title>treasury&#45;&gt;borrower1</title>
<path fill="none" stroke="#80b1d3" d="M358.83,-324.21C358.83,-347.2 358.83,-388.21 358.83,-415.76"/>
<polygon fill="#80b1d3" stroke="#80b1d3" points="355.33,-415.65 358.83,-425.65 362.33,-415.65 355.33,-415.65"/>
<text text-anchor="start" x="358.83" y="-395.7" font-family="Times,serif" font-size="14.00">10</text>
<text text-anchor="start" x="358.83" y="-378.45" font-family="Times,serif" font-size="14.00"> op::request_rejected</text>
<text text-anchor="start" x="358.83" y="-361.2" font-family="Times,serif" font-size="14.00"> 301 GRAM</text>
</g>
<!-- elector -->
<g id="node5" class="node">
<title>elector</title>
<ellipse fill="#fbb4ae" stroke="#fbb4ae" cx="330.83" cy="-43.25" rx="45.95" ry="18"/>
<text text-anchor="middle" x="330.83" y="-38.58" font-family="Times,serif" font-size="14.00">elector</text>
</g>
<!-- loan2&#45;&gt;elector -->
<g id="edge7" class="edge">
<title>loan2&#45;&gt;elector</title>
<path fill="none" stroke="#8dd3c7" d="M443.34,-155.03C431.2,-149.35 417.74,-141.39 408.08,-131 390.92,-112.53 401.25,-98.39 384.83,-79.25 379.83,-73.42 373.62,-68.2 367.22,-63.68"/>
<polygon fill="#8dd3c7" stroke="#8dd3c7" points="369.74,-60.49 359.45,-57.95 365.91,-66.35 369.74,-60.49"/>
<text text-anchor="start" x="407.83" y="-117.7" font-family="Times,serif" font-size="14.00">5</text>
<text text-anchor="start" x="407.83" y="-100.45" font-family="Times,serif" font-size="14.00"> op::new_stake</text>
<text text-anchor="start" x="407.83" y="-83.2" font-family="Times,serif" font-size="14.00"> 300001 GRAM</text>
</g>
<!-- loan3&#45;&gt;elector -->
<g id="edge10" class="edge">
<title>loan3&#45;&gt;elector</title>
<path fill="none" stroke="#fb8072" d="M149.84,-154.29C140.21,-148.74 130.49,-141.07 125.08,-131 114.21,-110.73 110.25,-96.82 125.08,-79.25 143.84,-57.04 219.9,-48.92 274.08,-45.96"/>
<polygon fill="#fb8072" stroke="#fb8072" points="274.12,-49.41 283.93,-45.41 273.77,-42.42 274.12,-49.41"/>
<text text-anchor="start" x="125.83" y="-117.7" font-family="Times,serif" font-size="14.00">8</text>
<text text-anchor="start" x="125.83" y="-100.45" font-family="Times,serif" font-size="14.00"> op::new_stake</text>
<text text-anchor="start" x="125.83" y="-83.2" font-family="Times,serif" font-size="14.00"> 300001 GRAM</text>
</g>
<!-- elector&#45;&gt;loan2 -->
<g id="edge8" class="edge">
<title>elector&#45;&gt;loan2</title>
<path fill="none" stroke="#8dd3c7" d="M376.3,-46.34C425.5,-49.67 499.32,-58.13 516.83,-79.25 531.52,-96.95 526.83,-110.28 516.83,-131 514.18,-136.49 510.21,-141.39 505.7,-145.66"/>
<polygon fill="#8dd3c7" stroke="#8dd3c7" points="503.71,-143.59 498.21,-152.64 508.16,-148.99 503.71,-143.59"/>
<text text-anchor="start" x="525.83" y="-117.7" font-family="Times,serif" font-size="14.00">6</text>
<text text-anchor="start" x="525.83" y="-100.45" font-family="Times,serif" font-size="14.00"> op::new_stake_ok</text>
<text text-anchor="start" x="525.83" y="-83.2" font-family="Times,serif" font-size="14.00"> 1 GRAM</text>
</g>
<!-- elector&#45;&gt;loan3 -->
<g id="edge11" class="edge">
<title>elector&#45;&gt;loan3</title>
<path fill="none" stroke="#fb8072" d="M293.59,-54.01C279.16,-59.41 263.53,-67.48 252.58,-79.25 235.93,-97.17 249.22,-111.98 233.83,-131 228.46,-137.64 221.47,-143.39 214.26,-148.19"/>
<polygon fill="#fb8072" stroke="#fb8072" points="212.83,-145.57 206.11,-153.77 216.47,-151.55 212.83,-145.57"/>
<text text-anchor="start" x="252.83" y="-117.7" font-family="Times,serif" font-size="14.00">9</text>
<text text-anchor="start" x="252.83" y="-100.45" font-family="Times,serif" font-size="14.00"> op::new_stake_ok</text>
<text text-anchor="start" x="252.83" y="-83.2" font-family="Times,serif" font-size="14.00"> 1 GRAM</text>
</g>
<!-- borrower2 -->
<g id="node7" class="node">
<title>borrower2</title>
<ellipse fill="#e5d8bd" stroke="#e5d8bd" cx="868.83" cy="-445" rx="63.83" ry="18"/>
<text text-anchor="middle" x="868.83" y="-440.32" font-family="Times,serif" font-size="14.00">borrower2</text>
</g>
<!-- borrower2&#45;&gt;loan2 -->
<g id="edge1" class="edge">
<title>borrower2&#45;&gt;loan2</title>
<path fill="none" stroke="black" stroke-dasharray="1,5" d="M872.62,-426.53C878.89,-392.57 887.28,-317.08 849.83,-272.75 807.05,-222.11 610.36,-187.8 519.31,-174.35"/>
<polygon fill="black" stroke="black" points="510.53,-169.54 519.92,-174.44 509.52,-176.46 510.53,-169.54"/>
</g>
<!-- borrower3 -->
<g id="node8" class="node">
<title>borrower3</title>
<ellipse fill="#e5d8bd" stroke="#e5d8bd" cx="63.83" cy="-445" rx="63.83" ry="18"/>
<text text-anchor="middle" x="63.83" y="-440.32" font-family="Times,serif" font-size="14.00">borrower3</text>
</g>
<!-- borrower3&#45;&gt;loan3 -->
<g id="edge2" class="edge">
<title>borrower3&#45;&gt;loan3</title>
<path fill="none" stroke="black" stroke-dasharray="1,5" d="M62.35,-426.56C60.33,-394.53 59.35,-324.84 82.83,-272.75 98.09,-238.91 128.46,-208.51 150.77,-189.29"/>
<polygon fill="black" stroke="black" points="160.15,-185.97 150.25,-189.72 155.65,-180.61 160.15,-185.97"/>
</g>
</g>
</svg>
