<?xml version="1.0" encoding="UTF-8" standalone="no"?>
<!DOCTYPE svg PUBLIC "-//W3C//DTD SVG 1.1//EN"
 "http://www.w3.org/Graphics/SVG/1.1/DTD/svg11.dtd">
<!-- Generated by graphviz version 8.0.5 (20230430.1635)
 -->
<!-- Pages: 1 -->
<svg width="401pt" height="334pt"
 viewBox="0.00 0.00 401.25 334.00" xmlns="http://www.w3.org/2000/svg" xmlns:xlink="http://www.w3.org/1999/xlink">
<g id="graph0" class="graph" transform="scale(1 1) rotate(0) translate(4 330)">
<polygon fill="white" stroke="none" points="-4,4 -4,-330 397.25,-330 397.25,4 -4,4"/>
<text text-anchor="middle" x="196.62" y="-7.95" font-family="Times,serif" font-size="14.00">withdrawing but there&#39;s not enough TON in treasury</text>
<!-- external -->
<g id="node1" class="node">
<title>external</title>
<ellipse fill="black" stroke="black" cx="20.55" cy="-308" rx="1.8" ry="1.8"/>
</g>
<!-- driver -->
<g id="node3" class="node">
<title>driver</title>
<ellipse fill="#b3cde3" stroke="#b3cde3" cx="99.55" cy="-308" rx="41.74" ry="18"/>
<text text-anchor="middle" x="99.55" y="-303.32" font-family="Times,serif" font-size="14.00">driver</text>
</g>
<!-- external&#45;&gt;driver -->
<g id="edge2" class="edge">
<title>external&#45;&gt;driver</title>
<path fill="none" stroke="black" d="M22.83,-308C26.89,-308 35.94,-308 46.46,-308"/>
<polygon fill="black" stroke="black" points="46.34,-311.5 56.34,-308 46.34,-304.5 46.34,-311.5"/>
<text text-anchor="middle" x="40.08" y="-314.95" font-family="Times,serif" font-size="14.00">1</text>
</g>
<!-- staker -->
<g id="node2" class="node">
<title>staker</title>
<ellipse fill="#b3cde3" stroke="#b3cde3" cx="347.55" cy="-308" rx="42.79" ry="18"/>
<text text-anchor="middle" x="347.55" y="-303.32" font-family="Times,serif" font-size="14.00">staker</text>
</g>
<!-- wallet -->
<g id="node5" class="node">
<title>wallet</title>
<ellipse fill="#ccebc5" stroke="#ccebc5" cx="187.55" cy="-184.25" rx="41.74" ry="18"/>
<text text-anchor="middle" x="187.55" y="-179.57" font-family="Times,serif" font-size="14.00">wallet</text>
</g>
<!-- staker&#45;&gt;wallet -->
<g id="edge1" class="edge">
<title>staker&#45;&gt;wallet</title>
<path fill="none" stroke="black" stroke-dasharray="1,5" d="M349.93,-289.61C351.55,-270.16 350.87,-238.93 333.55,-220.25 320.53,-206.21 274.4,-196.76 237.42,-191.26"/>
<polygon fill="black" stroke="black" points="228.75,-186.48 238.16,-191.36 227.76,-193.41 228.75,-186.48"/>
</g>
<!-- driver&#45;&gt;wallet -->
<g id="edge3" class="edge">
<title>driver&#45;&gt;wallet</title>
<path fill="none" stroke="black" d="M60.67,-301.24C43.11,-296.49 23.95,-287.82 13.3,-272 0.45,-252.92 -1.27,-238.04 13.3,-220.25 28.52,-201.67 89.66,-192.75 135.24,-188.6"/>
<polygon fill="black" stroke="black" points="135.5,-192.01 145.17,-187.67 134.91,-185.03 135.5,-192.01"/>
<text text-anchor="start" x="13.55" y="-258.7" font-family="Times,serif" font-size="14.00">2</text>
<text text-anchor="start" x="13.55" y="-241.45" font-family="Times,serif" font-size="14.00"> op::withdraw_tokens</text>
<text text-anchor="start" x="13.55" y="-224.2" font-family="Times,serif" font-size="14.00"> 0.07 TON</text>
</g>
<!-- treasury -->
<g id="node4" class="node">
<title>treasury</title>
<ellipse fill="#decbe4" stroke="#decbe4" cx="187.55" cy="-43.25" rx="53.84" ry="18"/>
<text text-anchor="middle" x="187.55" y="-38.58" font-family="Times,serif" font-size="14.00">treasury</text>
</g>
<!-- treasury&#45;&gt;wallet -->
<g id="edge5" class="edge">
<title>treasury&#45;&gt;wallet</title>
<path fill="none" stroke="black" d="M216.95,-58.58C224.75,-63.92 232.2,-70.79 236.55,-79.25 250.58,-106.52 250.58,-120.98 236.55,-148.25 233.44,-154.29 228.76,-159.52 223.49,-163.96"/>
<polygon fill="black" stroke="black" points="221.87,-161.54 215.89,-170.29 226.02,-167.18 221.87,-161.54"/>
<text text-anchor="start" x="247.55" y="-134.95" font-family="Times,serif" font-size="14.00">4</text>
<text text-anchor="start" x="247.55" y="-117.7" font-family="Times,serif" font-size="14.00"> op::burn_failed</text>
<text text-anchor="start" x="247.55" y="-100.45" font-family="Times,serif" font-size="14.00"> 0.05 TON</text>
<text text-anchor="start" x="247.55" y="-83.2" font-family="Times,serif" font-size="14.00"> tokens: 10</text>
</g>
<!-- wallet&#45;&gt;driver -->
<g id="edge6" class="edge">
<title>wallet&#45;&gt;driver</title>
<path fill="none" stroke="black" d="M187.19,-202.7C185.95,-221.63 181.39,-251.84 165.55,-272 159.26,-280.01 150.61,-286.41 141.64,-291.42"/>
<polygon fill="black" stroke="black" points="140.25,-288.7 132.89,-296.32 143.39,-294.96 140.25,-288.7"/>
<text text-anchor="start" x="185.55" y="-258.7" font-family="Times,serif" font-size="14.00">5</text>
<text text-anchor="start" x="185.55" y="-241.45" font-family="Times,serif" font-size="14.00"> op::withdraw_failed</text>
<text text-anchor="start" x="185.55" y="-224.2" font-family="Times,serif" font-size="14.00"> 0.04 TON</text>
</g>
<!-- wallet&#45;&gt;treasury -->
<g id="edge4" class="edge">
<title>wallet&#45;&gt;treasury</title>
<path fill="none" stroke="black" d="M152.4,-174.14C139.27,-168.84 125.7,-160.67 118.05,-148.25 101.97,-122.14 101.97,-105.36 118.05,-79.25 122.84,-71.48 129.94,-65.37 137.8,-60.59"/>
<polygon fill="black" stroke="black" points="139.08,-63.34 146.28,-55.57 135.81,-57.16 139.08,-63.34"/>
<text text-anchor="start" x="118.55" y="-134.95" font-family="Times,serif" font-size="14.00">3</text>
<text text-anchor="start" x="118.55" y="-117.7" font-family="Times,serif" font-size="14.00"> op::burn_tokens</text>
<text text-anchor="start" x="118.55" y="-100.45" font-family="Times,serif" font-size="14.00"> 0.06 TON</text>
<text text-anchor="start" x="118.55" y="-83.2" font-family="Times,serif" font-size="14.00"> tokens: 10</text>
</g>
</g>
</svg>
