<?xml version="1.0" encoding="UTF-8" standalone="no"?>
<!DOCTYPE svg PUBLIC "-//W3C//DTD SVG 1.1//EN"
 "http://www.w3.org/Graphics/SVG/1.1/DTD/svg11.dtd">
<!-- Generated by graphviz version 8.0.5 (20230430.1635)
 -->
<!-- Pages: 1 -->
<svg width="528pt" height="350pt"
 viewBox="0.00 0.00 527.80 349.75" xmlns="http://www.w3.org/2000/svg" xmlns:xlink="http://www.w3.org/1999/xlink">
<g id="graph0" class="graph" transform="scale(1 1) rotate(0) translate(4 345.75)">
<polygon fill="white" stroke="none" points="-4,4 -4,-345.75 523.8,-345.75 523.8,4 -4,4"/>
<text text-anchor="middle" x="259.9" y="-7.95" font-family="Times,serif" font-size="14.00">staker withdraws 10 TON</text>
<!-- external -->
<g id="node1" class="node">
<title>external</title>
<ellipse fill="black" stroke="black" cx="1.8" cy="-323.75" rx="1.8" ry="1.8"/>
</g>
<!-- driver -->
<g id="node3" class="node">
<title>driver</title>
<ellipse fill="#b3cde3" stroke="#b3cde3" cx="80.8" cy="-323.75" rx="41.74" ry="18"/>
<text text-anchor="middle" x="80.8" y="-319.07" font-family="Times,serif" font-size="14.00">driver</text>
</g>
<!-- external&#45;&gt;driver -->
<g id="edge2" class="edge">
<title>external&#45;&gt;driver</title>
<path fill="none" stroke="black" d="M4.08,-323.75C8.14,-323.75 17.19,-323.75 27.71,-323.75"/>
<polygon fill="black" stroke="black" points="27.59,-327.25 37.59,-323.75 27.59,-320.25 27.59,-327.25"/>
<text text-anchor="middle" x="21.33" y="-330.7" font-family="Times,serif" font-size="14.00">1</text>
</g>
<!-- staker -->
<g id="node2" class="node">
<title>staker</title>
<ellipse fill="#b3cde3" stroke="#b3cde3" cx="292.8" cy="-323.75" rx="42.79" ry="18"/>
<text text-anchor="middle" x="292.8" y="-319.07" font-family="Times,serif" font-size="14.00">staker</text>
</g>
<!-- wallet -->
<g id="node5" class="node">
<title>wallet</title>
<ellipse fill="#ccebc5" stroke="#ccebc5" cx="229.8" cy="-192.12" rx="41.74" ry="18"/>
<text text-anchor="middle" x="229.8" y="-187.45" font-family="Times,serif" font-size="14.00">wallet</text>
</g>
<!-- staker&#45;&gt;wallet -->
<g id="edge1" class="edge">
<title>staker&#45;&gt;wallet</title>
<path fill="none" stroke="black" stroke-dasharray="1,5" d="M286.27,-305.47C279.37,-287.72 267.84,-259.45 255.8,-236 252.83,-230.21 249.37,-224.14 245.97,-218.45"/>
<polygon fill="black" stroke="black" points="243.99,-208.51 246.23,-218.87 238.02,-212.17 243.99,-208.51"/>
</g>
<!-- driver&#45;&gt;wallet -->
<g id="edge3" class="edge">
<title>driver&#45;&gt;wallet</title>
<path fill="none" stroke="black" d="M79.51,-305.26C79.08,-285.73 81.58,-254.42 99.55,-236 123.26,-211.69 141.65,-228.94 173.8,-218 180.14,-215.84 186.76,-213.24 193.12,-210.54"/>
<polygon fill="black" stroke="black" points="194.1,-213.5 201.85,-206.27 191.29,-207.09 194.1,-213.5"/>
<text text-anchor="start" x="99.8" y="-274.45" font-family="Times,serif" font-size="14.00">2</text>
<text text-anchor="start" x="99.8" y="-257.2" font-family="Times,serif" font-size="14.00"> op::withdraw_tokens</text>
<text text-anchor="start" x="99.8" y="-239.95" font-family="Times,serif" font-size="14.00"> 0.07 TON</text>
</g>
<!-- treasury -->
<g id="node4" class="node">
<title>treasury</title>
<ellipse fill="#decbe4" stroke="#decbe4" cx="173.8" cy="-43.25" rx="53.84" ry="18"/>
<text text-anchor="middle" x="173.8" y="-38.58" font-family="Times,serif" font-size="14.00">treasury</text>
</g>
<!-- treasury&#45;&gt;staker -->
<g id="edge5" class="edge">
<title>treasury&#45;&gt;staker</title>
<path fill="none" stroke="black" d="M227.42,-45.94C251.74,-49.73 278.44,-58.76 293.8,-79.25 341.92,-143.41 318.17,-246.21 302.64,-295.14"/>
<polygon fill="black" stroke="black" points="299.02,-293.96 299.2,-304.55 305.66,-296.15 299.02,-293.96"/>
<text text-anchor="start" x="321.8" y="-204.7" font-family="Times,serif" font-size="14.00">4</text>
<text text-anchor="start" x="321.8" y="-187.45" font-family="Times,serif" font-size="14.00"> op::withdrawal_notification</text>
<text text-anchor="start" x="321.8" y="-170.2" font-family="Times,serif" font-size="14.00"> 10 TON</text>
</g>
<!-- treasury&#45;&gt;driver -->
<g id="edge6" class="edge">
<title>treasury&#45;&gt;driver</title>
<path fill="none" stroke="black" d="M153.24,-60.14C127.87,-81.19 86.03,-121 69.3,-166.25 53.41,-209.22 63.36,-263.27 72.06,-295.3"/>
<polygon fill="black" stroke="black" points="68.91,-296.02 75.04,-304.66 75.64,-294.08 68.91,-296.02"/>
<text text-anchor="start" x="69.8" y="-204.7" font-family="Times,serif" font-size="14.00">5</text>
<text text-anchor="start" x="69.8" y="-187.45" font-family="Times,serif" font-size="14.00"> op::gas_excess</text>
<text text-anchor="start" x="69.8" y="-170.2" font-family="Times,serif" font-size="14.00"> 0.04 TON</text>
</g>
<!-- wallet&#45;&gt;treasury -->
<g id="edge4" class="edge">
<title>wallet&#45;&gt;treasury</title>
<path fill="none" stroke="black" d="M204,-177.73C193.06,-170.57 181.44,-160.66 175.3,-148.25 163.57,-124.54 164.78,-93.92 167.95,-72.05"/>
<polygon fill="black" stroke="black" points="171.52,-72.94 169.73,-62.5 164.61,-71.78 171.52,-72.94"/>
<text text-anchor="start" x="175.8" y="-134.95" font-family="Times,serif" font-size="14.00">3</text>
<text text-anchor="start" x="175.8" y="-117.7" font-family="Times,serif" font-size="14.00"> op::burn_tokens</text>
<text text-anchor="start" x="175.8" y="-100.45" font-family="Times,serif" font-size="14.00"> 0.06 TON</text>
<text text-anchor="start" x="175.8" y="-83.2" font-family="Times,serif" font-size="14.00"> tokens: 10</text>
</g>
</g>
</svg>
