<?xml version="1.0" encoding="UTF-8" standalone="no"?>
<!DOCTYPE svg PUBLIC "-//W3C//DTD SVG 1.1//EN"
 "http://www.w3.org/Graphics/SVG/1.1/DTD/svg11.dtd">
<!-- Generated by graphviz version 8.0.5 (20230430.1635)
 -->
<!-- Pages: 1 -->
<svg width="607pt" height="245pt"
 viewBox="0.00 0.00 607.05 244.75" xmlns="http://www.w3.org/2000/svg" xmlns:xlink="http://www.w3.org/1999/xlink">
<g id="graph0" class="graph" transform="scale(1 1) rotate(0) translate(4 240.75)">
<polygon fill="white" stroke="none" points="-4,4 -4,-240.75 603.05,-240.75 603.05,4 -4,4"/>
<text text-anchor="middle" x="299.52" y="-7.95" font-family="Times,serif" font-size="14.00">validators request loans</text>
<!-- external1 -->
<g id="node1" class="node">
<title>external1</title>
<ellipse fill="black" stroke="black" cx="1.8" cy="-218.75" rx="1.8" ry="1.8"/>
</g>
<!-- validator1 -->
<g id="node4" class="node">
<title>validator1</title>
<ellipse fill="#b3cde3" stroke="#b3cde3" cx="101.8" cy="-218.75" rx="62.26" ry="18"/>
<text text-anchor="middle" x="101.8" y="-214.07" font-family="Times,serif" font-size="14.00">validator1</text>
</g>
<!-- external1&#45;&gt;validator1 -->
<g id="edge1" class="edge">
<title>external1&#45;&gt;validator1</title>
<path fill="none" stroke="black" d="M3.89,-218.75C7.84,-218.75 17.03,-218.75 28.27,-218.75"/>
<polygon fill="black" stroke="black" points="28.09,-222.25 38.09,-218.75 28.09,-215.25 28.09,-222.25"/>
<text text-anchor="middle" x="21.57" y="-225.7" font-family="Times,serif" font-size="14.00">1</text>
</g>
<!-- external2 -->
<g id="node2" class="node">
<title>external2</title>
<ellipse fill="black" stroke="black" cx="183.8" cy="-218.75" rx="1.8" ry="1.8"/>
</g>
<!-- validator2 -->
<g id="node5" class="node">
<title>validator2</title>
<ellipse fill="#b3cde3" stroke="#b3cde3" cx="283.8" cy="-218.75" rx="62.26" ry="18"/>
<text text-anchor="middle" x="283.8" y="-214.07" font-family="Times,serif" font-size="14.00">validator2</text>
</g>
<!-- external2&#45;&gt;validator2 -->
<g id="edge3" class="edge">
<title>external2&#45;&gt;validator2</title>
<path fill="none" stroke="black" d="M185.89,-218.75C189.84,-218.75 199.03,-218.75 210.27,-218.75"/>
<polygon fill="black" stroke="black" points="210.09,-222.25 220.09,-218.75 210.09,-215.25 210.09,-222.25"/>
<text text-anchor="middle" x="203.57" y="-225.7" font-family="Times,serif" font-size="14.00">1</text>
</g>
<!-- externalN -->
<g id="node3" class="node">
<title>externalN</title>
<ellipse fill="black" stroke="black" cx="365.8" cy="-218.75" rx="1.8" ry="1.8"/>
</g>
<!-- validatorN -->
<g id="node6" class="node">
<title>validatorN</title>
<ellipse fill="#b3cde3" stroke="#b3cde3" cx="467.8" cy="-218.75" rx="64.36" ry="18"/>
<text text-anchor="middle" x="467.8" y="-214.07" font-family="Times,serif" font-size="14.00">validatorN</text>
</g>
<!-- externalN&#45;&gt;validatorN -->
<g id="edge5" class="edge">
<title>externalN&#45;&gt;validatorN</title>
<path fill="none" stroke="black" d="M367.93,-218.75C371.89,-218.75 381.03,-218.75 392.25,-218.75"/>
<polygon fill="black" stroke="black" points="392.04,-222.25 402.04,-218.75 392.04,-215.25 392.04,-222.25"/>
<text text-anchor="middle" x="385.52" y="-225.7" font-family="Times,serif" font-size="14.00">1</text>
</g>
<!-- treasury -->
<g id="node7" class="node">
<title>treasury</title>
<ellipse fill="#decbe4" stroke="#decbe4" cx="283.8" cy="-43.25" rx="53.84" ry="18"/>
<text text-anchor="middle" x="283.8" y="-38.58" font-family="Times,serif" font-size="14.00">treasury</text>
</g>
<!-- validator1&#45;&gt;treasury -->
<g id="edge2" class="edge">
<title>validator1&#45;&gt;treasury</title>
<path fill="none" stroke="black" d="M102.12,-200.51C103.64,-171.23 111.07,-111.79 145.55,-79.25 165.32,-60.59 193.57,-51.5 219.39,-47.2"/>
<polygon fill="black" stroke="black" points="219.87,-50.52 229.27,-45.64 218.87,-43.59 219.87,-50.52"/>
<text text-anchor="start" x="144.8" y="-169.45" font-family="Times,serif" font-size="14.00">2</text>
<text text-anchor="start" x="144.8" y="-152.2" font-family="Times,serif" font-size="14.00"> op::request_loan</text>
<text text-anchor="start" x="144.8" y="-134.95" font-family="Times,serif" font-size="14.00"> 100002 TON</text>
<text text-anchor="start" x="144.8" y="-117.7" font-family="Times,serif" font-size="14.00"> loan: 200000</text>
<text text-anchor="start" x="144.8" y="-100.45" font-family="Times,serif" font-size="14.00"> min payment: 100</text>
<text text-anchor="start" x="144.8" y="-83.2" font-family="Times,serif" font-size="14.00"> share: 40%</text>
</g>
<!-- validator2&#45;&gt;treasury -->
<g id="edge4" class="edge">
<title>validator2&#45;&gt;treasury</title>
<path fill="none" stroke="black" d="M283.8,-200.48C283.8,-170.55 283.8,-108.77 283.8,-72.51"/>
<polygon fill="black" stroke="black" points="287.3,-72.71 283.8,-62.71 280.3,-72.71 287.3,-72.71"/>
<text text-anchor="start" x="283.8" y="-169.45" font-family="Times,serif" font-size="14.00">2</text>
<text text-anchor="start" x="283.8" y="-152.2" font-family="Times,serif" font-size="14.00"> op::request_loan</text>
<text text-anchor="start" x="283.8" y="-134.95" font-family="Times,serif" font-size="14.00"> 202 TON</text>
<text text-anchor="start" x="283.8" y="-117.7" font-family="Times,serif" font-size="14.00"> loan: 300000</text>
<text text-anchor="start" x="283.8" y="-100.45" font-family="Times,serif" font-size="14.00"> min payment: 100</text>
<text text-anchor="start" x="283.8" y="-83.2" font-family="Times,serif" font-size="14.00"> share: 40%</text>
</g>
<!-- validatorN&#45;&gt;treasury -->
<g id="edge6" class="edge">
<title>validatorN&#45;&gt;treasury</title>
<path fill="none" stroke="black" d="M467.17,-200.49C465.14,-171.18 456.68,-111.69 421.8,-79.25 402.01,-60.84 373.94,-51.77 348.27,-47.42"/>
<polygon fill="black" stroke="black" points="348.86,-43.82 338.45,-45.83 347.84,-50.75 348.86,-43.82"/>
<text text-anchor="start" x="464.8" y="-169.45" font-family="Times,serif" font-size="14.00">2</text>
<text text-anchor="start" x="464.8" y="-152.2" font-family="Times,serif" font-size="14.00"> op::request_loan</text>
<text text-anchor="start" x="464.8" y="-134.95" font-family="Times,serif" font-size="14.00"> 302 TON</text>
<text text-anchor="start" x="464.8" y="-117.7" font-family="Times,serif" font-size="14.00"> loan: 300000</text>
<text text-anchor="start" x="464.8" y="-100.45" font-family="Times,serif" font-size="14.00"> min payment: 200</text>
<text text-anchor="start" x="464.8" y="-83.2" font-family="Times,serif" font-size="14.00"> share: 100%</text>
</g>
</g>
</svg>
