<?xml version="1.0" encoding="UTF-8" standalone="no"?>
<!DOCTYPE svg PUBLIC "-//W3C//DTD SVG 1.1//EN"
 "http://www.w3.org/Graphics/SVG/1.1/DTD/svg11.dtd">
<!-- Generated by graphviz version 8.0.5 (20230430.1635)
 -->
<!-- Pages: 1 -->
<svg width="787pt" height="441pt"
 viewBox="0.00 0.00 786.58 440.50" xmlns="http://www.w3.org/2000/svg" xmlns:xlink="http://www.w3.org/1999/xlink">
<g id="graph0" class="graph" transform="scale(1 1) rotate(0) translate(4 436.5)">
<polygon fill="white" stroke="none" points="-4,4 -4,-436.5 782.58,-436.5 782.58,4 -4,4"/>
<text text-anchor="middle" x="389.29" y="-7.95" font-family="Times,serif" font-size="14.00">anyone sends a message to finish participation</text>
<!-- external -->
<g id="node1" class="node">
<title>external</title>
<ellipse fill="black" stroke="black" cx="70.08" cy="-290.75" rx="1.8" ry="1.8"/>
</g>
<!-- treasury -->
<g id="node2" class="node">
<title>treasury</title>
<ellipse fill="#decbe4" stroke="#decbe4" cx="311.08" cy="-290.75" rx="53.84" ry="18"/>
<text text-anchor="middle" x="311.08" y="-286.07" font-family="Times,serif" font-size="14.00">treasury</text>
</g>
<!-- external&#45;&gt;treasury -->
<g id="edge1" class="edge">
<title>external&#45;&gt;treasury</title>
<path fill="none" stroke="black" d="M72.16,-290.75C87.22,-290.75 180.65,-290.75 246.1,-290.75"/>
<polygon fill="black" stroke="black" points="245.76,-294.25 255.76,-290.75 245.76,-287.25 245.76,-294.25"/>
<text text-anchor="start" x="80.56" y="-314.95" font-family="Times,serif" font-size="14.00">1</text>
<text text-anchor="start" x="80.56" y="-297.7" font-family="Times,serif" font-size="14.00"> op::finish_participation</text>
</g>
<!-- treasury&#45;&gt;treasury -->
<g id="edge2" class="edge">
<title>treasury&#45;&gt;treasury</title>
<path fill="none" stroke="black" d="M353.14,-302.31C369.4,-302.82 382.92,-298.97 382.92,-290.75 382.92,-284.46 374.99,-280.73 363.98,-279.55"/>
<polygon fill="black" stroke="black" points="364.25,-276.03 354.14,-279.19 364.02,-283.02 364.25,-276.03"/>
<text text-anchor="start" x="382.92" y="-294.7" font-family="Times,serif" font-size="14.00">2</text>
<text text-anchor="start" x="382.92" y="-277.45" font-family="Times,serif" font-size="14.00"> op::recover_stakes</text>
</g>
<!-- loan1 -->
<g id="node3" class="node">
<title>loan1</title>
<ellipse fill="#fddaec" stroke="#fddaec" cx="144.08" cy="-167" rx="38.58" ry="18"/>
<text text-anchor="middle" x="144.08" y="-162.32" font-family="Times,serif" font-size="14.00">loan1</text>
</g>
<!-- treasury&#45;&gt;loan1 -->
<g id="edge3" class="edge">
<title>treasury&#45;&gt;loan1</title>
<path fill="none" stroke="#8dd3c7" d="M259.22,-285.49C175.55,-278.36 19.23,-263.91 11.08,-254.75 -4.21,-237.57 -2.96,-221.22 11.08,-203 21.6,-189.35 62.56,-179.96 96.27,-174.37"/>
<polygon fill="#8dd3c7" stroke="#8dd3c7" points="96.59,-177.71 105.92,-172.69 95.49,-170.8 96.59,-177.71"/>
<text text-anchor="start" x="11.08" y="-241.45" font-family="Times,serif" font-size="14.00">3</text>
<text text-anchor="start" x="11.08" y="-224.2" font-family="Times,serif" font-size="14.00"> op::proxy_recover_stake</text>
<text text-anchor="start" x="11.08" y="-206.95" font-family="Times,serif" font-size="14.00"> 1 TON</text>
</g>
<!-- loan2 -->
<g id="node4" class="node">
<title>loan2</title>
<ellipse fill="#fddaec" stroke="#fddaec" cx="478.08" cy="-167" rx="38.58" ry="18"/>
<text text-anchor="middle" x="478.08" y="-162.32" font-family="Times,serif" font-size="14.00">loan2</text>
</g>
<!-- treasury&#45;&gt;loan2 -->
<g id="edge9" class="edge">
<title>treasury&#45;&gt;loan2</title>
<path fill="none" stroke="#fb8072" d="M351.51,-278.41C365.09,-273.01 379.46,-265.35 390.08,-254.75 407.89,-236.96 395.97,-221.46 413.08,-203 420.26,-195.26 429.55,-188.87 438.85,-183.77"/>
<polygon fill="#fb8072" stroke="#fb8072" points="440.1,-186.56 447.45,-178.92 436.95,-180.31 440.1,-186.56"/>
<text text-anchor="start" x="413.08" y="-241.45" font-family="Times,serif" font-size="14.00">9</text>
<text text-anchor="start" x="413.08" y="-224.2" font-family="Times,serif" font-size="14.00"> op::proxy_recover_stake</text>
<text text-anchor="start" x="413.08" y="-206.95" font-family="Times,serif" font-size="14.00"> 1 TON</text>
</g>
<!-- borrower1 -->
<g id="node6" class="node">
<title>borrower1</title>
<ellipse fill="#e5d8bd" stroke="#e5d8bd" cx="98.08" cy="-414.5" rx="63.83" ry="18"/>
<text text-anchor="middle" x="98.08" y="-409.82" font-family="Times,serif" font-size="14.00">borrower1</text>
</g>
<!-- treasury&#45;&gt;borrower1 -->
<g id="edge7" class="edge">
<title>treasury&#45;&gt;borrower1</title>
<path fill="none" stroke="#8dd3c7" d="M258.82,-295.34C210.11,-299.73 142.13,-308.92 122.58,-326.75 106.42,-341.49 100.6,-366 98.65,-385.21"/>
<polygon fill="#8dd3c7" stroke="#8dd3c7" points="95.1,-384.86 97.89,-395.08 102.08,-385.35 95.1,-384.86"/>
<text text-anchor="start" x="123.08" y="-365.2" font-family="Times,serif" font-size="14.00">7</text>
<text text-anchor="start" x="123.08" y="-347.95" font-family="Times,serif" font-size="14.00"> op::loan_result</text>
<text text-anchor="start" x="123.08" y="-330.7" font-family="Times,serif" font-size="14.00"> 100050 TON</text>
</g>
<!-- borrower2 -->
<g id="node7" class="node">
<title>borrower2</title>
<ellipse fill="#e5d8bd" stroke="#e5d8bd" cx="244.08" cy="-414.5" rx="63.83" ry="18"/>
<text text-anchor="middle" x="244.08" y="-409.82" font-family="Times,serif" font-size="14.00">borrower2</text>
</g>
<!-- treasury&#45;&gt;borrower2 -->
<g id="edge13" class="edge">
<title>treasury&#45;&gt;borrower2</title>
<path fill="none" stroke="#fb8072" d="M272.84,-303.81C262.19,-309.1 251.83,-316.52 245.58,-326.75 234.96,-344.12 235.14,-367.33 237.67,-385.38"/>
<polygon fill="#fb8072" stroke="#fb8072" points="234.37,-385.85 239.53,-395.11 241.27,-384.66 234.37,-385.85"/>
<text text-anchor="start" x="245.08" y="-365.2" font-family="Times,serif" font-size="14.00">13</text>
<text text-anchor="start" x="245.08" y="-347.95" font-family="Times,serif" font-size="14.00"> op::loan_result</text>
<text text-anchor="start" x="245.08" y="-330.7" font-family="Times,serif" font-size="14.00"> 250 TON</text>
</g>
<!-- governor -->
<g id="node8" class="node">
<title>governor</title>
<ellipse fill="#b3cde3" stroke="#b3cde3" cx="444.08" cy="-414.5" rx="56.47" ry="18"/>
<text text-anchor="middle" x="444.08" y="-409.82" font-family="Times,serif" font-size="14.00">governor</text>
</g>
<!-- treasury&#45;&gt;governor -->
<g id="edge8" class="edge">
<title>treasury&#45;&gt;governor</title>
<path fill="none" stroke="#8dd3c7" d="M334.91,-307.33C342.06,-312.83 349.48,-319.48 355.08,-326.75 370.41,-346.65 360.71,-360.11 377.83,-378.5 383.81,-384.93 391.25,-390.41 398.96,-394.98"/>
<polygon fill="#8dd3c7" stroke="#8dd3c7" points="396.96,-398.42 407.42,-400.12 400.3,-392.27 396.96,-398.42"/>
<text text-anchor="start" x="377.08" y="-365.2" font-family="Times,serif" font-size="14.00">8</text>
<text text-anchor="start" x="377.08" y="-347.95" font-family="Times,serif" font-size="14.00"> op::take_profit</text>
<text text-anchor="start" x="377.08" y="-330.7" font-family="Times,serif" font-size="14.00"> 50 TON</text>
</g>
<!-- treasury&#45;&gt;governor -->
<g id="edge14" class="edge">
<title>treasury&#45;&gt;governor</title>
<path fill="none" stroke="#fb8072" d="M363.45,-295.13C408.96,-299.28 469.9,-308.21 485.08,-326.75 499.65,-344.54 494.71,-357.61 485.08,-378.5 483.04,-382.92 480.14,-386.99 476.8,-390.67"/>
<polygon fill="#fb8072" stroke="#fb8072" points="474.83,-387.66 469.99,-397.08 479.65,-392.74 474.83,-387.66"/>
<text text-anchor="start" x="494.08" y="-365.2" font-family="Times,serif" font-size="14.00">14</text>
<text text-anchor="start" x="494.08" y="-347.95" font-family="Times,serif" font-size="14.00"> op::take_profit</text>
<text text-anchor="start" x="494.08" y="-330.7" font-family="Times,serif" font-size="14.00"> 50 TON</text>
</g>
<!-- loan1&#45;&gt;treasury -->
<g id="edge6" class="edge">
<title>loan1&#45;&gt;treasury</title>
<path fill="none" stroke="#8dd3c7" d="M166.04,-182.24C173.73,-188 181.95,-195.15 188.08,-203 203.62,-222.92 192.95,-237.69 211.58,-254.75 223.37,-265.55 238.7,-273.06 253.78,-278.26"/>
<polygon fill="#8dd3c7" stroke="#8dd3c7" points="252.55,-281.85 263.14,-281.5 254.64,-275.17 252.55,-281.85"/>
<text text-anchor="start" x="211.08" y="-241.45" font-family="Times,serif" font-size="14.00">6</text>
<text text-anchor="start" x="211.08" y="-224.2" font-family="Times,serif" font-size="14.00"> op::recover_stake_result</text>
<text text-anchor="start" x="211.08" y="-206.95" font-family="Times,serif" font-size="14.00"> 300101 TON</text>
</g>
<!-- elector -->
<g id="node5" class="node">
<title>elector</title>
<ellipse fill="#fbb4ae" stroke="#fbb4ae" cx="322.08" cy="-43.25" rx="45.95" ry="18"/>
<text text-anchor="middle" x="322.08" y="-38.58" font-family="Times,serif" font-size="14.00">elector</text>
</g>
<!-- loan1&#45;&gt;elector -->
<g id="edge4" class="edge">
<title>loan1&#45;&gt;elector</title>
<path fill="none" stroke="#8dd3c7" d="M112.74,-155.96C101.07,-150.53 89.03,-142.5 82.33,-131 70.75,-111.13 67.29,-96.65 82.33,-79.25 105.48,-52.48 201.77,-45.78 265.06,-44.33"/>
<polygon fill="#8dd3c7" stroke="#8dd3c7" points="264.76,-47.82 274.69,-44.13 264.63,-40.82 264.76,-47.82"/>
<text text-anchor="start" x="83.08" y="-117.7" font-family="Times,serif" font-size="14.00">4</text>
<text text-anchor="start" x="83.08" y="-100.45" font-family="Times,serif" font-size="14.00"> op::recover_stake</text>
<text text-anchor="start" x="83.08" y="-83.2" font-family="Times,serif" font-size="14.00"> 1 TON</text>
</g>
<!-- loan2&#45;&gt;treasury -->
<g id="edge12" class="edge">
<title>loan2&#45;&gt;treasury</title>
<path fill="none" stroke="#fb8072" d="M516.92,-169.02C542.18,-171.95 573.43,-180.35 590.08,-203 603.7,-221.53 605.3,-237.5 590.08,-254.75 576.06,-270.63 452.78,-281.07 374.85,-286.14"/>
<polygon fill="#fb8072" stroke="#fb8072" points="374.93,-282.69 365.17,-286.82 375.37,-289.68 374.93,-282.69"/>
<text text-anchor="start" x="600.08" y="-241.45" font-family="Times,serif" font-size="14.00">12</text>
<text text-anchor="start" x="600.08" y="-224.2" font-family="Times,serif" font-size="14.00"> op::recover_stake_result</text>
<text text-anchor="start" x="600.08" y="-206.95" font-family="Times,serif" font-size="14.00"> 300101 TON</text>
</g>
<!-- loan2&#45;&gt;elector -->
<g id="edge10" class="edge">
<title>loan2&#45;&gt;elector</title>
<path fill="none" stroke="#fb8072" d="M448.01,-155.37C435.4,-149.71 421.37,-141.67 411.33,-131 394.05,-112.64 405.32,-97.65 388.08,-79.25 381.44,-72.17 373.05,-66.23 364.49,-61.38"/>
<polygon fill="#fb8072" stroke="#fb8072" points="366.32,-57.87 355.84,-56.36 363.09,-64.08 366.32,-57.87"/>
<text text-anchor="start" x="411.08" y="-117.7" font-family="Times,serif" font-size="14.00">10</text>
<text text-anchor="start" x="411.08" y="-100.45" font-family="Times,serif" font-size="14.00"> op::recover_stake</text>
<text text-anchor="start" x="411.08" y="-83.2" font-family="Times,serif" font-size="14.00"> 1 TON</text>
</g>
<!-- elector&#45;&gt;loan1 -->
<g id="edge5" class="edge">
<title>elector&#45;&gt;loan1</title>
<path fill="none" stroke="#8dd3c7" d="M281.64,-51.92C264.15,-57.06 244.62,-65.5 231.08,-79.25 213.89,-96.71 228.3,-112.64 212.08,-131 204.69,-139.36 194.83,-146 184.92,-151.15"/>
<polygon fill="#8dd3c7" stroke="#8dd3c7" points="183.61,-148.37 176.07,-155.81 186.61,-154.7 183.61,-148.37"/>
<text text-anchor="start" x="231.08" y="-117.7" font-family="Times,serif" font-size="14.00">5</text>
<text text-anchor="start" x="231.08" y="-100.45" font-family="Times,serif" font-size="14.00"> op::recover_stake_ok</text>
<text text-anchor="start" x="231.08" y="-83.2" font-family="Times,serif" font-size="14.00"> 300101 TON</text>
</g>
<!-- elector&#45;&gt;loan2 -->
<g id="edge11" class="edge">
<title>elector&#45;&gt;loan2</title>
<path fill="none" stroke="#fb8072" d="M367.91,-44.86C425.44,-46.71 519.28,-53.69 541.08,-79.25 556,-96.75 552.74,-111.18 541.08,-131 536,-139.63 527.94,-146.29 519.25,-151.36"/>
<polygon fill="#fb8072" stroke="#fb8072" points="518,-148.58 510.7,-156.26 521.19,-154.81 518,-148.58"/>
<text text-anchor="start" x="551.08" y="-117.7" font-family="Times,serif" font-size="14.00">11</text>
<text text-anchor="start" x="551.08" y="-100.45" font-family="Times,serif" font-size="14.00"> op::recover_stake_ok</text>
<text text-anchor="start" x="551.08" y="-83.2" font-family="Times,serif" font-size="14.00"> 300101 TON</text>
</g>
</g>
</svg>
