<?xml version="1.0" encoding="UTF-8" standalone="no"?>
<!DOCTYPE svg PUBLIC "-//W3C//DTD SVG 1.1//EN"
 "http://www.w3.org/Graphics/SVG/1.1/DTD/svg11.dtd">
<!-- Generated by graphviz version 8.0.5 (20230430.1635)
 -->
<!-- Pages: 1 -->
<svg width="938pt" height="471pt"
 viewBox="0.00 0.00 937.51 471.00" xmlns="http://www.w3.org/2000/svg" xmlns:xlink="http://www.w3.org/1999/xlink">
<g id="graph0" class="graph" transform="scale(1 1) rotate(0) translate(4 467)">
<polygon fill="white" stroke="none" points="-4,4 -4,-467 933.51,-467 933.51,4 -4,4"/>
<text text-anchor="middle" x="464.76" y="-7.95" font-family="Times,serif" font-size="14.00">anyone sends a message to start the process of participation in election</text>
<!-- external -->
<g id="node1" class="node">
<title>external</title>
<ellipse fill="black" stroke="black" cx="92.26" cy="-306" rx="1.8" ry="1.8"/>
</g>
<!-- treasury -->
<g id="node2" class="node">
<title>treasury</title>
<ellipse fill="#decbe4" stroke="#decbe4" cx="357.26" cy="-306" rx="53.84" ry="18"/>
<text text-anchor="middle" x="357.26" y="-301.32" font-family="Times,serif" font-size="14.00">treasury</text>
</g>
<!-- external&#45;&gt;treasury -->
<g id="edge3" class="edge">
<title>external&#45;&gt;treasury</title>
<path fill="none" stroke="black" d="M94.55,-306C111.6,-306 220.14,-306 292.26,-306"/>
<polygon fill="black" stroke="black" points="292.06,-309.5 302.06,-306 292.06,-302.5 292.06,-309.5"/>
<text text-anchor="start" x="102.74" y="-330.2" font-family="Times,serif" font-size="14.00">1</text>
<text text-anchor="start" x="102.74" y="-312.95" font-family="Times,serif" font-size="14.00"> op::participate_in_election</text>
</g>
<!-- treasury&#45;&gt;treasury -->
<g id="edge4" class="edge">
<title>treasury&#45;&gt;treasury</title>
<path fill="none" stroke="black" d="M407.28,-313.13C419.76,-312.63 429.09,-310.26 429.09,-306 429.09,-303.07 424.68,-301.04 417.87,-299.89"/>
<polygon fill="black" stroke="black" points="418.57,-296.34 408.28,-298.87 417.9,-303.31 418.57,-296.34"/>
<text text-anchor="start" x="429.09" y="-309.95" font-family="Times,serif" font-size="14.00">2</text>
<text text-anchor="start" x="429.09" y="-292.7" font-family="Times,serif" font-size="14.00"> op::decide_loan_requests &#160;&#160;&#160;</text>
</g>
<!-- treasury&#45;&gt;treasury -->
<g id="edge5" class="edge">
<title>treasury&#45;&gt;treasury</title>
<path fill="none" stroke="black" d="M403,-315.92C482.22,-324.35 630.09,-321.04 630.09,-306 630.09,-291.6 494.65,-287.96 413.58,-295.06"/>
<polygon fill="black" stroke="black" points="413.62,-291.64 404,-296.08 414.29,-298.6 413.62,-291.64"/>
<text text-anchor="start" x="630.09" y="-309.95" font-family="Times,serif" font-size="14.00">3</text>
<text text-anchor="start" x="630.09" y="-292.7" font-family="Times,serif" font-size="14.00"> op::process_loan_requests</text>
</g>
<!-- loan2 -->
<g id="node3" class="node">
<title>loan2</title>
<ellipse fill="#fed9a6" stroke="#fed9a6" cx="469.26" cy="-167" rx="38.58" ry="18"/>
<text text-anchor="middle" x="469.26" y="-162.32" font-family="Times,serif" font-size="14.00">loan2</text>
</g>
<!-- treasury&#45;&gt;loan2 -->
<g id="edge6" class="edge">
<title>treasury&#45;&gt;loan2</title>
<path fill="none" stroke="black" d="M375.46,-289.06C385.86,-279.56 398.86,-267 409.26,-254.75 425.65,-235.43 441.86,-211.65 453.28,-193.88"/>
<polygon fill="black" stroke="black" points="456.71,-196.01 459.11,-185.69 450.8,-192.26 456.71,-196.01"/>
<text text-anchor="start" x="446.26" y="-241.45" font-family="Times,serif" font-size="14.00">4</text>
<text text-anchor="start" x="446.26" y="-224.2" font-family="Times,serif" font-size="14.00"> op::send_new_stake</text>
<text text-anchor="start" x="446.26" y="-206.95" font-family="Times,serif" font-size="14.00"> 300002 TON</text>
</g>
<!-- loan3 -->
<g id="node4" class="node">
<title>loan3</title>
<ellipse fill="#fed9a6" stroke="#fed9a6" cx="181.26" cy="-167" rx="38.58" ry="18"/>
<text text-anchor="middle" x="181.26" y="-162.32" font-family="Times,serif" font-size="14.00">loan3</text>
</g>
<!-- treasury&#45;&gt;loan3 -->
<g id="edge9" class="edge">
<title>treasury&#45;&gt;loan3</title>
<path fill="none" stroke="black" d="M323.91,-291.43C304.22,-282.56 279.38,-269.84 259.76,-254.75 236.51,-236.87 214.52,-211.57 199.76,-192.9"/>
<polygon fill="black" stroke="black" points="202.01,-191.09 193.12,-185.33 196.48,-195.38 202.01,-191.09"/>
<text text-anchor="start" x="260.26" y="-241.45" font-family="Times,serif" font-size="14.00">7</text>
<text text-anchor="start" x="260.26" y="-224.2" font-family="Times,serif" font-size="14.00"> op::send_new_stake</text>
<text text-anchor="start" x="260.26" y="-206.95" font-family="Times,serif" font-size="14.00"> 300002 TON</text>
</g>
<!-- validator1 -->
<g id="node6" class="node">
<title>validator1</title>
<ellipse fill="#b3cde3" stroke="#b3cde3" cx="357.26" cy="-445" rx="62.26" ry="18"/>
<text text-anchor="middle" x="357.26" y="-440.32" font-family="Times,serif" font-size="14.00">validator1</text>
</g>
<!-- treasury&#45;&gt;validator1 -->
<g id="edge12" class="edge">
<title>treasury&#45;&gt;validator1</title>
<path fill="none" stroke="black" d="M357.26,-324.21C357.26,-347.2 357.26,-388.21 357.26,-415.76"/>
<polygon fill="black" stroke="black" points="353.76,-415.65 357.26,-425.65 360.76,-415.65 353.76,-415.65"/>
<text text-anchor="start" x="357.26" y="-395.7" font-family="Times,serif" font-size="14.00">10</text>
<text text-anchor="start" x="357.26" y="-378.45" font-family="Times,serif" font-size="14.00"> op::request_rejected</text>
<text text-anchor="start" x="357.26" y="-361.2" font-family="Times,serif" font-size="14.00"> 301 TON</text>
</g>
<!-- elector -->
<g id="node5" class="node">
<title>elector</title>
<ellipse fill="#fbb4ae" stroke="#fbb4ae" cx="329.26" cy="-43.25" rx="45.95" ry="18"/>
<text text-anchor="middle" x="329.26" y="-38.58" font-family="Times,serif" font-size="14.00">elector</text>
</g>
<!-- loan2&#45;&gt;elector -->
<g id="edge7" class="edge">
<title>loan2&#45;&gt;elector</title>
<path fill="none" stroke="black" d="M440.22,-154.74C428.48,-149.04 415.55,-141.15 406.26,-131 389.27,-112.43 399.6,-98.39 383.26,-79.25 378.27,-73.41 372.06,-68.18 365.66,-63.66"/>
<polygon fill="black" stroke="black" points="368.18,-60.47 357.89,-57.94 364.35,-66.33 368.18,-60.47"/>
<text text-anchor="start" x="406.26" y="-117.7" font-family="Times,serif" font-size="14.00">5</text>
<text text-anchor="start" x="406.26" y="-100.45" font-family="Times,serif" font-size="14.00"> op::new_stake</text>
<text text-anchor="start" x="406.26" y="-83.2" font-family="Times,serif" font-size="14.00"> 300001 TON</text>
</g>
<!-- loan3&#45;&gt;elector -->
<g id="edge10" class="edge">
<title>loan3&#45;&gt;elector</title>
<path fill="none" stroke="black" d="M152.62,-154.43C142.76,-148.9 132.8,-141.21 127.26,-131 116.27,-110.79 112.45,-96.85 127.26,-79.25 145.54,-57.53 219.46,-49.29 272.59,-46.16"/>
<polygon fill="black" stroke="black" points="272.45,-49.62 282.25,-45.59 272.07,-42.63 272.45,-49.62"/>
<text text-anchor="start" x="127.26" y="-117.7" font-family="Times,serif" font-size="14.00">8</text>
<text text-anchor="start" x="127.26" y="-100.45" font-family="Times,serif" font-size="14.00"> op::new_stake</text>
<text text-anchor="start" x="127.26" y="-83.2" font-family="Times,serif" font-size="14.00"> 300001 TON</text>
</g>
<!-- elector&#45;&gt;loan2 -->
<g id="edge8" class="edge">
<title>elector&#45;&gt;loan2</title>
<path fill="none" stroke="black" d="M374.62,-46.55C422.77,-50.06 494.25,-58.66 511.26,-79.25 525.9,-96.98 521.01,-110.17 511.26,-131 508.74,-136.37 504.95,-141.21 500.66,-145.45"/>
<polygon fill="black" stroke="black" points="498.85,-143.25 493.55,-152.42 503.41,-148.55 498.85,-143.25"/>
<text text-anchor="start" x="520.26" y="-117.7" font-family="Times,serif" font-size="14.00">6</text>
<text text-anchor="start" x="520.26" y="-100.45" font-family="Times,serif" font-size="14.00"> op::new_stake_ok</text>
<text text-anchor="start" x="520.26" y="-83.2" font-family="Times,serif" font-size="14.00"> 1 TON</text>
</g>
<!-- elector&#45;&gt;loan3 -->
<g id="edge11" class="edge">
<title>elector&#45;&gt;loan3</title>
<path fill="none" stroke="black" d="M292.01,-54.01C277.59,-59.41 261.95,-67.48 251.01,-79.25 234.35,-97.17 247.23,-111.65 232.26,-131 227.66,-136.93 221.78,-142.24 215.65,-146.81"/>
<polygon fill="black" stroke="black" points="213.9,-144.45 207.62,-152.98 217.85,-150.23 213.9,-144.45"/>
<text text-anchor="start" x="251.26" y="-117.7" font-family="Times,serif" font-size="14.00">9</text>
<text text-anchor="start" x="251.26" y="-100.45" font-family="Times,serif" font-size="14.00"> op::new_stake_ok</text>
<text text-anchor="start" x="251.26" y="-83.2" font-family="Times,serif" font-size="14.00"> 1 TON</text>
</g>
<!-- validator2 -->
<g id="node7" class="node">
<title>validator2</title>
<ellipse fill="#b3cde3" stroke="#b3cde3" cx="867.26" cy="-445" rx="62.26" ry="18"/>
<text text-anchor="middle" x="867.26" y="-440.32" font-family="Times,serif" font-size="14.00">validator2</text>
</g>
<!-- validator2&#45;&gt;loan2 -->
<g id="edge1" class="edge">
<title>validator2&#45;&gt;loan2</title>
<path fill="none" stroke="black" stroke-dasharray="1,5" d="M871.03,-426.77C877.35,-392.88 885.99,-317.04 848.26,-272.75 805.05,-222.04 607.41,-187.76 515.95,-174.34"/>
<polygon fill="black" stroke="black" points="507.12,-169.53 516.51,-174.42 506.12,-176.45 507.12,-169.53"/>
</g>
<!-- validator3 -->
<g id="node8" class="node">
<title>validator3</title>
<ellipse fill="#b3cde3" stroke="#b3cde3" cx="62.26" cy="-445" rx="62.26" ry="18"/>
<text text-anchor="middle" x="62.26" y="-440.32" font-family="Times,serif" font-size="14.00">validator3</text>
</g>
<!-- validator3&#45;&gt;loan3 -->
<g id="edge2" class="edge">
<title>validator3&#45;&gt;loan3</title>
<path fill="none" stroke="black" stroke-dasharray="1,5" d="M60.66,-426.75C58.42,-394.74 57.05,-324.67 81.26,-272.75 97.49,-237.95 129.95,-207.39 153.49,-188.39"/>
<polygon fill="black" stroke="black" points="162.87,-185.47 152.85,-188.9 158.54,-179.97 162.87,-185.47"/>
</g>
</g>
</svg>
