<?xml version="1.0" encoding="UTF-8" standalone="no"?>
<!DOCTYPE svg PUBLIC "-//W3C//DTD SVG 1.1//EN"
 "http://www.w3.org/Graphics/SVG/1.1/DTD/svg11.dtd">
<!-- Generated by graphviz version 8.0.5 (20230430.1635)
 -->
<!-- Pages: 1 -->
<svg width="926pt" height="495pt"
 viewBox="0.00 0.00 926.28 495.25" xmlns="http://www.w3.org/2000/svg" xmlns:xlink="http://www.w3.org/1999/xlink">
<g id="graph0" class="graph" transform="scale(1 1) rotate(0) translate(4 491.25)">
<polygon fill="white" stroke="none" points="-4,4 -4,-491.25 922.28,-491.25 922.28,4 -4,4"/>
<text text-anchor="middle" x="459.14" y="-7.95" font-family="Times,serif" font-size="14.00">when current round is finalized, all stake/unstake bills are burned and converted to tokens/coins</text>
<!-- staker1 -->
<g id="node1" class="node">
<title>staker1</title>
<ellipse fill="#b3cde3" stroke="#b3cde3" cx="216.28" cy="-43.25" rx="49.1" ry="18"/>
<text text-anchor="middle" x="216.28" y="-38.58" font-family="Times,serif" font-size="14.00">staker1</text>
</g>
<!-- wallet1 -->
<g id="node3" class="node">
<title>wallet1</title>
<ellipse fill="#ccebc5" stroke="#ccebc5" cx="249.28" cy="-149.75" rx="48.05" ry="18"/>
<text text-anchor="middle" x="249.28" y="-145.07" font-family="Times,serif" font-size="14.00">wallet1</text>
</g>
<!-- staker1&#45;&gt;wallet1 -->
<g id="edge1" class="edge">
<title>staker1&#45;&gt;wallet1</title>
<path fill="none" stroke="black" stroke-dasharray="1,5" d="M218.3,-61.49C220.31,-75.79 224.03,-96.51 230.28,-113.75 231.39,-116.8 232.73,-119.92 234.18,-122.96"/>
<polygon fill="black" stroke="black" points="235.41,-132.95 233.92,-122.46 241.63,-129.73 235.41,-132.95"/>
</g>
<!-- bill1 -->
<g id="node5" class="node">
<title>bill1</title>
<ellipse fill="#ccebc5" stroke="#ccebc5" cx="121.28" cy="-149.75" rx="33.32" ry="18"/>
<text text-anchor="middle" x="121.28" y="-145.07" font-family="Times,serif" font-size="14.00">bill1</text>
</g>
<!-- staker1&#45;&gt;bill1 -->
<g id="edge2" class="edge">
<title>staker1&#45;&gt;bill1</title>
<path fill="none" stroke="black" stroke-dasharray="1,5" d="M201.26,-60.77C185.28,-78.36 159.86,-106.31 141.98,-125.98"/>
<polygon fill="black" stroke="black" points="133.05,-130.61 142.36,-125.56 138.22,-135.32 133.05,-130.61"/>
</g>
<!-- staker2 -->
<g id="node2" class="node">
<title>staker2</title>
<ellipse fill="#b3cde3" stroke="#b3cde3" cx="668.28" cy="-43.25" rx="49.1" ry="18"/>
<text text-anchor="middle" x="668.28" y="-38.58" font-family="Times,serif" font-size="14.00">staker2</text>
</g>
<!-- wallet2 -->
<g id="node4" class="node">
<title>wallet2</title>
<ellipse fill="#ccebc5" stroke="#ccebc5" cx="455.28" cy="-149.75" rx="48.05" ry="18"/>
<text text-anchor="middle" x="455.28" y="-145.07" font-family="Times,serif" font-size="14.00">wallet2</text>
</g>
<!-- staker2&#45;&gt;wallet2 -->
<g id="edge3" class="edge">
<title>staker2&#45;&gt;wallet2</title>
<path fill="none" stroke="black" stroke-dasharray="1,5" d="M669.83,-61.64C670.22,-77.47 668.02,-100.34 654.28,-113.75 634.57,-132.98 564.16,-141.79 512.67,-145.73"/>
<polygon fill="black" stroke="black" points="502.89,-142.92 513.12,-145.69 503.4,-149.9 502.89,-142.92"/>
</g>
<!-- bill2 -->
<g id="node6" class="node">
<title>bill2</title>
<ellipse fill="#ccebc5" stroke="#ccebc5" cx="708.28" cy="-149.75" rx="33.32" ry="18"/>
<text text-anchor="middle" x="708.28" y="-145.07" font-family="Times,serif" font-size="14.00">bill2</text>
</g>
<!-- staker2&#45;&gt;bill2 -->
<g id="edge4" class="edge">
<title>staker2&#45;&gt;bill2</title>
<path fill="none" stroke="black" stroke-dasharray="1,5" d="M675.19,-61.31C677.48,-67 680.01,-73.39 682.28,-79.25 687.8,-93.52 693.79,-109.5 698.63,-122.54"/>
<polygon fill="black" stroke="black" points="698.63,-132.6 698.44,-122.01 705.19,-130.17 698.63,-132.6"/>
</g>
<!-- wallet1&#45;&gt;staker1 -->
<g id="edge11" class="edge">
<title>wallet1&#45;&gt;staker1</title>
<path fill="none" stroke="#8dd3c7" d="M243.83,-131.49C238.72,-115.31 230.99,-90.83 225.02,-71.92"/>
<polygon fill="#8dd3c7" stroke="#8dd3c7" points="228.09,-71.01 221.74,-62.53 221.41,-73.12 228.09,-71.01"/>
<text text-anchor="start" x="238.28" y="-100.45" font-family="Times,serif" font-size="14.00">7</text>
<text text-anchor="start" x="238.28" y="-83.2" font-family="Times,serif" font-size="14.00"> op::transfer_notification</text>
</g>
<!-- wallet2&#45;&gt;staker2 -->
<g id="edge17" class="edge">
<title>wallet2&#45;&gt;staker2</title>
<path fill="none" stroke="#fb8072" d="M448.58,-131.49C443.81,-115.98 440.15,-93.51 452.28,-79.25 472,-56.08 551.6,-48.2 608.43,-45.55"/>
<polygon fill="#fb8072" stroke="#fb8072" points="608.27,-49.02 618.12,-45.1 607.98,-42.03 608.27,-49.02"/>
<text text-anchor="start" x="452.28" y="-100.45" font-family="Times,serif" font-size="14.00">13</text>
<text text-anchor="start" x="452.28" y="-83.2" font-family="Times,serif" font-size="14.00"> op::withdrawal_notification</text>
</g>
<!-- collection -->
<g id="node9" class="node">
<title>collection</title>
<ellipse fill="#fed9a6" stroke="#fed9a6" cx="377.28" cy="-469.25" rx="59.1" ry="18"/>
<text text-anchor="middle" x="377.28" y="-464.57" font-family="Times,serif" font-size="14.00">collection</text>
</g>
<!-- bill1&#45;&gt;collection -->
<g id="edge7" class="edge">
<title>bill1&#45;&gt;collection</title>
<path fill="none" stroke="#8dd3c7" d="M117.13,-167.95C106.42,-216.99 83.45,-358.74 155.28,-433.25 175.89,-454.63 250.45,-462.96 307.54,-466.2"/>
<polygon fill="#8dd3c7" stroke="#8dd3c7" points="307.17,-469.73 317.34,-466.76 307.54,-462.74 307.17,-469.73"/>
<text text-anchor="start" x="109.28" y="-313.45" font-family="Times,serif" font-size="14.00">3</text>
<text text-anchor="start" x="109.28" y="-296.2" font-family="Times,serif" font-size="14.00"> op::bill_burned</text>
</g>
<!-- bill2&#45;&gt;collection -->
<g id="edge13" class="edge">
<title>bill2&#45;&gt;collection</title>
<path fill="none" stroke="#fb8072" d="M726.13,-165.42C759.98,-195.12 827.85,-264.82 801.28,-326.75 774.2,-389.88 751.55,-404.24 689.28,-433.25 647.58,-452.68 525.21,-461.7 446.69,-465.6"/>
<polygon fill="#fb8072" stroke="#fb8072" points="446.74,-462.14 436.92,-466.11 447.07,-469.13 446.74,-462.14"/>
<text text-anchor="start" x="807.28" y="-313.45" font-family="Times,serif" font-size="14.00">9</text>
<text text-anchor="start" x="807.28" y="-296.2" font-family="Times,serif" font-size="14.00"> op::bill_burned</text>
</g>
<!-- treasury -->
<g id="node7" class="node">
<title>treasury</title>
<ellipse fill="#decbe4" stroke="#decbe4" cx="377.28" cy="-362.75" rx="53.84" ry="18"/>
<text text-anchor="middle" x="377.28" y="-358.07" font-family="Times,serif" font-size="14.00">treasury</text>
</g>
<!-- parent -->
<g id="node8" class="node">
<title>parent</title>
<ellipse fill="#fed9a6" stroke="#fed9a6" cx="281.28" cy="-256.25" rx="44.37" ry="18"/>
<text text-anchor="middle" x="281.28" y="-251.57" font-family="Times,serif" font-size="14.00">parent</text>
</g>
<!-- treasury&#45;&gt;parent -->
<g id="edge9" class="edge">
<title>treasury&#45;&gt;parent</title>
<path fill="none" stroke="#8dd3c7" d="M324.95,-358.09C303.73,-353.72 281.18,-344.77 268.03,-326.75 259.15,-314.57 261.82,-298.1 267.02,-284.25"/>
<polygon fill="#8dd3c7" stroke="#8dd3c7" points="270.58,-285.85 271.34,-275.28 264.15,-283.07 270.58,-285.85"/>
<text text-anchor="start" x="267.28" y="-313.45" font-family="Times,serif" font-size="14.00">5</text>
<text text-anchor="start" x="267.28" y="-296.2" font-family="Times,serif" font-size="14.00"> op::proxy_tokens_minted</text>
</g>
<!-- treasury&#45;&gt;parent -->
<g id="edge15" class="edge">
<title>treasury&#45;&gt;parent</title>
<path fill="none" stroke="#fb8072" d="M419.14,-351.04C431.28,-345.78 443.17,-338.05 450.28,-326.75 458.45,-313.77 459.96,-304.14 450.28,-292.25 435.98,-274.68 379.63,-265.66 335.88,-261.21"/>
<polygon fill="#fb8072" stroke="#fb8072" points="336.35,-257.65 326.06,-260.18 335.68,-264.62 336.35,-257.65"/>
<text text-anchor="start" x="456.28" y="-313.45" font-family="Times,serif" font-size="14.00">11</text>
<text text-anchor="start" x="456.28" y="-296.2" font-family="Times,serif" font-size="14.00"> op::proxy_tokens_burned</text>
</g>
<!-- treasury&#45;&gt;collection -->
<g id="edge5" class="edge">
<title>treasury&#45;&gt;collection</title>
<path fill="none" stroke="black" d="M344.66,-377.43C335.99,-382.75 327.69,-389.77 322.78,-398.75 315.43,-412.21 315.43,-419.79 322.78,-433.25 325.82,-438.81 330.16,-443.62 335.09,-447.74"/>
<polygon fill="black" stroke="black" points="332.65,-451.02 342.8,-454.03 336.74,-445.34 332.65,-451.02"/>
<text text-anchor="start" x="322.28" y="-419.95" font-family="Times,serif" font-size="14.00">1</text>
<text text-anchor="start" x="322.28" y="-402.7" font-family="Times,serif" font-size="14.00"> op::burn_all</text>
</g>
<!-- parent&#45;&gt;wallet1 -->
<g id="edge10" class="edge">
<title>parent&#45;&gt;wallet1</title>
<path fill="none" stroke="#8dd3c7" d="M276,-237.99C271.04,-221.81 263.55,-197.33 257.75,-178.42"/>
<polygon fill="#8dd3c7" stroke="#8dd3c7" points="260.85,-177.57 254.57,-169.03 254.15,-179.62 260.85,-177.57"/>
<text text-anchor="start" x="269.28" y="-206.95" font-family="Times,serif" font-size="14.00">6</text>
<text text-anchor="start" x="269.28" y="-189.7" font-family="Times,serif" font-size="14.00"> op::tokens_minted</text>
</g>
<!-- parent&#45;&gt;wallet2 -->
<g id="edge16" class="edge">
<title>parent&#45;&gt;wallet2</title>
<path fill="none" stroke="#fb8072" d="M324.25,-251.01C350.51,-246.68 383.66,-237.92 408.28,-220.25 423.38,-209.42 435.1,-192.12 443.06,-177.5"/>
<polygon fill="#fb8072" stroke="#fb8072" points="446.53,-179.41 447.97,-168.91 440.29,-176.22 446.53,-179.41"/>
<text text-anchor="start" x="437.28" y="-206.95" font-family="Times,serif" font-size="14.00">12</text>
<text text-anchor="start" x="437.28" y="-189.7" font-family="Times,serif" font-size="14.00"> op::tokens_burned</text>
</g>
<!-- collection&#45;&gt;bill1 -->
<g id="edge6" class="edge">
<title>collection&#45;&gt;bill1</title>
<path fill="none" stroke="#8dd3c7" d="M319.38,-465.25C251.38,-460.96 143.29,-451.47 107.28,-433.25 48.87,-403.69 29.89,-387.51 5.53,-326.75 -19.32,-264.77 50.17,-201.66 92.06,-170.57"/>
<polygon fill="#8dd3c7" stroke="#8dd3c7" points="93.74,-172.95 99.79,-164.26 89.64,-167.28 93.74,-172.95"/>
<text text-anchor="start" x="6.28" y="-313.45" font-family="Times,serif" font-size="14.00">2</text>
<text text-anchor="start" x="6.28" y="-296.2" font-family="Times,serif" font-size="14.00"> op::burn_bill</text>
</g>
<!-- collection&#45;&gt;bill2 -->
<g id="edge12" class="edge">
<title>collection&#45;&gt;bill2</title>
<path fill="none" stroke="#fb8072" d="M435.13,-465C514.97,-459.96 651,-449.15 667.28,-433.25 703,-398.38 707.89,-243.44 708.36,-179"/>
<polygon fill="#fb8072" stroke="#fb8072" points="711.86,-179.09 708.4,-169.08 704.86,-179.06 711.86,-179.09"/>
<text text-anchor="start" x="703.28" y="-313.45" font-family="Times,serif" font-size="14.00">8</text>
<text text-anchor="start" x="703.28" y="-296.2" font-family="Times,serif" font-size="14.00"> op::burn_bill</text>
</g>
<!-- collection&#45;&gt;treasury -->
<g id="edge8" class="edge">
<title>collection&#45;&gt;treasury</title>
<path fill="none" stroke="#8dd3c7" d="M398.01,-452.1C403.36,-446.74 408.41,-440.31 411.28,-433.25 417.05,-419.04 417.05,-412.96 411.28,-398.75 409.68,-394.8 407.39,-391.05 404.75,-387.58"/>
<polygon fill="#8dd3c7" stroke="#8dd3c7" points="407.9,-385.72 398.66,-380.55 402.66,-390.36 407.9,-385.72"/>
<text text-anchor="start" x="415.28" y="-419.95" font-family="Times,serif" font-size="14.00">4</text>
<text text-anchor="start" x="415.28" y="-402.7" font-family="Times,serif" font-size="14.00"> op::mint_tokens</text>
</g>
<!-- collection&#45;&gt;treasury -->
<g id="edge14" class="edge">
<title>collection&#45;&gt;treasury</title>
<path fill="none" stroke="#fb8072" d="M433.73,-463.32C474.4,-458.47 524.31,-449.36 537.28,-433.25 546.9,-421.31 546.9,-410.69 537.28,-398.75 524.98,-383.46 479.43,-374.49 440.06,-369.46"/>
<polygon fill="#fb8072" stroke="#fb8072" points="440.5,-365.87 430.16,-368.14 439.67,-372.82 440.5,-365.87"/>
<text text-anchor="start" x="544.28" y="-419.95" font-family="Times,serif" font-size="14.00">10</text>
<text text-anchor="start" x="544.28" y="-402.7" font-family="Times,serif" font-size="14.00"> op::burn_tokens</text>
</g>
<!-- collection&#45;&gt;treasury -->
<g id="edge18" class="edge">
<title>collection&#45;&gt;treasury</title>
<path fill="none" stroke="black" d="M318.33,-467.28C242.2,-463.97 124.37,-450.63 168.28,-398.75 186.54,-377.18 258.18,-368.89 312.54,-365.71"/>
<polygon fill="black" stroke="black" points="312.71,-369.16 322.51,-365.13 312.34,-362.17 312.71,-369.16"/>
<text text-anchor="start" x="168.28" y="-419.95" font-family="Times,serif" font-size="14.00">14</text>
<text text-anchor="start" x="168.28" y="-402.7" font-family="Times,serif" font-size="14.00"> op::last_bill_burned</text>
</g>
</g>
</svg>
