<?xml version="1.0" encoding="UTF-8" standalone="no"?>
<!DOCTYPE svg PUBLIC "-//W3C//DTD SVG 1.1//EN"
 "http://www.w3.org/Graphics/SVG/1.1/DTD/svg11.dtd">
<!-- Generated by graphviz version 8.0.5 (20230430.1635)
 -->
<!-- Pages: 1 -->
<svg width="926pt" height="495pt"
 viewBox="0.00 0.00 926.28 495.25" xmlns="http://www.w3.org/2000/svg" xmlns:xlink="http://www.w3.org/1999/xlink">
<g id="graph0" class="graph" transform="scale(1 1) rotate(0) translate(4 491.25)">
<polygon fill="white" stroke="none" points="-4,4 -4,-491.25 922.28,-491.25 922.28,4 -4,4"/>
<text text-anchor="middle" x="459.14" y="-7.95" font-family="Times,serif" font-size="14.00">when current round is finalized, all stake/unstake bills are burned and converted to tokens/coins</text>
<!-- staker1 -->
<g id="node1" class="node">
<title>staker1</title>
<ellipse fill="#b3cde3" stroke="#b3cde3" cx="224.28" cy="-43.25" rx="49.1" ry="18"/>
<text text-anchor="middle" x="224.28" y="-38.58" font-family="Times,serif" font-size="14.00">staker1</text>
</g>
<!-- wallet1 -->
<g id="node3" class="node">
<title>wallet1</title>
<ellipse fill="#ccebc5" stroke="#ccebc5" cx="257.28" cy="-149.75" rx="48.05" ry="18"/>
<text text-anchor="middle" x="257.28" y="-145.07" font-family="Times,serif" font-size="14.00">wallet1</text>
</g>
<!-- staker1&#45;&gt;wallet1 -->
<g id="edge1" class="edge">
<title>staker1&#45;&gt;wallet1</title>
<path fill="none" stroke="black" stroke-dasharray="1,5" d="M226.3,-61.49C228.31,-75.79 232.03,-96.51 238.28,-113.75 239.39,-116.8 240.73,-119.92 242.18,-122.96"/>
<polygon fill="black" stroke="black" points="243.41,-132.95 241.92,-122.46 249.63,-129.73 243.41,-132.95"/>
</g>
<!-- bill1 -->
<g id="node5" class="node">
<title>bill1</title>
<ellipse fill="#ccebc5" stroke="#ccebc5" cx="121.28" cy="-149.75" rx="33.32" ry="18"/>
<text text-anchor="middle" x="121.28" y="-145.07" font-family="Times,serif" font-size="14.00">bill1</text>
</g>
<!-- staker1&#45;&gt;bill1 -->
<g id="edge2" class="edge">
<title>staker1&#45;&gt;bill1</title>
<path fill="none" stroke="black" stroke-dasharray="1,5" d="M208.34,-60.42C190.97,-78.05 163.04,-106.39 143.51,-126.2"/>
<polygon fill="black" stroke="black" points="134.34,-130.52 143.85,-125.85 139.32,-135.43 134.34,-130.52"/>
</g>
<!-- staker2 -->
<g id="node2" class="node">
<title>staker2</title>
<ellipse fill="#b3cde3" stroke="#b3cde3" cx="664.28" cy="-43.25" rx="49.1" ry="18"/>
<text text-anchor="middle" x="664.28" y="-38.58" font-family="Times,serif" font-size="14.00">staker2</text>
</g>
<!-- wallet2 -->
<g id="node4" class="node">
<title>wallet2</title>
<ellipse fill="#ccebc5" stroke="#ccebc5" cx="451.28" cy="-149.75" rx="48.05" ry="18"/>
<text text-anchor="middle" x="451.28" y="-145.07" font-family="Times,serif" font-size="14.00">wallet2</text>
</g>
<!-- staker2&#45;&gt;wallet2 -->
<g id="edge3" class="edge">
<title>staker2&#45;&gt;wallet2</title>
<path fill="none" stroke="black" stroke-dasharray="1,5" d="M665.83,-61.64C666.22,-77.47 664.02,-100.34 650.28,-113.75 630.57,-132.98 560.16,-141.79 508.67,-145.73"/>
<polygon fill="black" stroke="black" points="498.89,-142.92 509.12,-145.69 499.4,-149.9 498.89,-142.92"/>
</g>
<!-- bill2 -->
<g id="node6" class="node">
<title>bill2</title>
<ellipse fill="#ccebc5" stroke="#ccebc5" cx="708.28" cy="-149.75" rx="33.32" ry="18"/>
<text text-anchor="middle" x="708.28" y="-145.07" font-family="Times,serif" font-size="14.00">bill2</text>
</g>
<!-- staker2&#45;&gt;bill2 -->
<g id="edge4" class="edge">
<title>staker2&#45;&gt;bill2</title>
<path fill="none" stroke="black" stroke-dasharray="1,5" d="M671.48,-61.35C678.51,-78.04 689.3,-103.66 697.38,-122.86"/>
<polygon fill="black" stroke="black" points="697.79,-132.86 697.14,-122.28 704.24,-130.14 697.79,-132.86"/>
</g>
<!-- wallet1&#45;&gt;staker1 -->
<g id="edge11" class="edge">
<title>wallet1&#45;&gt;staker1</title>
<path fill="none" stroke="#8dd3c7" d="M251.83,-131.49C246.72,-115.31 238.99,-90.83 233.02,-71.92"/>
<polygon fill="#8dd3c7" stroke="#8dd3c7" points="236.09,-71.01 229.74,-62.53 229.41,-73.12 236.09,-71.01"/>
<text text-anchor="start" x="246.28" y="-100.45" font-family="Times,serif" font-size="14.00">7</text>
<text text-anchor="start" x="246.28" y="-83.2" font-family="Times,serif" font-size="14.00"> op::stake_notification</text>
</g>
<!-- wallet2&#45;&gt;staker2 -->
<g id="edge17" class="edge">
<title>wallet2&#45;&gt;staker2</title>
<path fill="none" stroke="#fb8072" d="M444.58,-131.49C439.81,-115.98 436.15,-93.51 448.28,-79.25 468,-56.08 547.6,-48.2 604.43,-45.55"/>
<polygon fill="#fb8072" stroke="#fb8072" points="604.27,-49.02 614.12,-45.1 603.98,-42.03 604.27,-49.02"/>
<text text-anchor="start" x="448.28" y="-100.45" font-family="Times,serif" font-size="14.00">13</text>
<text text-anchor="start" x="448.28" y="-83.2" font-family="Times,serif" font-size="14.00"> op::withdrawal_notification</text>
</g>
<!-- collection -->
<g id="node9" class="node">
<title>collection</title>
<ellipse fill="#fed9a6" stroke="#fed9a6" cx="377.28" cy="-469.25" rx="59.1" ry="18"/>
<text text-anchor="middle" x="377.28" y="-464.57" font-family="Times,serif" font-size="14.00">collection</text>
</g>
<!-- bill1&#45;&gt;collection -->
<g id="edge7" class="edge">
<title>bill1&#45;&gt;collection</title>
<path fill="none" stroke="#8dd3c7" d="M117.13,-167.95C106.42,-216.99 83.45,-358.74 155.28,-433.25 175.89,-454.63 250.45,-462.96 307.54,-466.2"/>
<polygon fill="#8dd3c7" stroke="#8dd3c7" points="307.17,-469.73 317.34,-466.76 307.54,-462.74 307.17,-469.73"/>
<text text-anchor="start" x="109.28" y="-313.45" font-family="Times,serif" font-size="14.00">3</text>
<text text-anchor="start" x="109.28" y="-296.2" font-family="Times,serif" font-size="14.00"> op::bill_burned</text>
</g>
<!-- bill2&#45;&gt;collection -->
<g id="edge13" class="edge">
<title>bill2&#45;&gt;collection</title>
<path fill="none" stroke="#fb8072" d="M726.13,-165.42C759.98,-195.12 827.85,-264.82 801.28,-326.75 774.2,-389.88 751.55,-404.24 689.28,-433.25 647.58,-452.68 525.21,-461.7 446.69,-465.6"/>
<polygon fill="#fb8072" stroke="#fb8072" points="446.74,-462.14 436.92,-466.11 447.07,-469.13 446.74,-462.14"/>
<text text-anchor="start" x="807.28" y="-313.45" font-family="Times,serif" font-size="14.00">9</text>
<text text-anchor="start" x="807.28" y="-296.2" font-family="Times,serif" font-size="14.00"> op::bill_burned</text>
</g>
<!-- treasury -->
<g id="node7" class="node">
<title>treasury</title>
<ellipse fill="#decbe4" stroke="#decbe4" cx="377.28" cy="-362.75" rx="53.84" ry="18"/>
<text text-anchor="middle" x="377.28" y="-358.07" font-family="Times,serif" font-size="14.00">treasury</text>
</g>
<!-- parent -->
<g id="node8" class="node">
<title>parent</title>
<ellipse fill="#fed9a6" stroke="#fed9a6" cx="286.28" cy="-256.25" rx="44.37" ry="18"/>
<text text-anchor="middle" x="286.28" y="-251.57" font-family="Times,serif" font-size="14.00">parent</text>
</g>
<!-- treasury&#45;&gt;parent -->
<g id="edge9" class="edge">
<title>treasury&#45;&gt;parent</title>
<path fill="none" stroke="#8dd3c7" d="M325.13,-357.91C304.19,-353.49 281.99,-344.56 269.03,-326.75 259.91,-314.21 263.77,-297.39 270.13,-283.44"/>
<polygon fill="#8dd3c7" stroke="#8dd3c7" points="273.58,-285.38 275.05,-274.89 267.36,-282.18 273.58,-285.38"/>
<text text-anchor="start" x="268.28" y="-313.45" font-family="Times,serif" font-size="14.00">5</text>
<text text-anchor="start" x="268.28" y="-296.2" font-family="Times,serif" font-size="14.00"> op::proxy_tokens_minted</text>
</g>
<!-- treasury&#45;&gt;parent -->
<g id="edge15" class="edge">
<title>treasury&#45;&gt;parent</title>
<path fill="none" stroke="#fb8072" d="M419.31,-351.33C431.75,-346.08 443.98,-338.28 451.28,-326.75 459.48,-313.8 460.93,-304.16 451.28,-292.25 437.46,-275.19 383.22,-266.11 340.66,-261.51"/>
<polygon fill="#fb8072" stroke="#fb8072" points="341.14,-257.94 330.84,-260.41 340.43,-264.9 341.14,-257.94"/>
<text text-anchor="start" x="457.28" y="-313.45" font-family="Times,serif" font-size="14.00">11</text>
<text text-anchor="start" x="457.28" y="-296.2" font-family="Times,serif" font-size="14.00"> op::proxy_tokens_burned</text>
</g>
<!-- treasury&#45;&gt;collection -->
<g id="edge5" class="edge">
<title>treasury&#45;&gt;collection</title>
<path fill="none" stroke="black" d="M344.66,-377.43C335.99,-382.75 327.69,-389.77 322.78,-398.75 315.43,-412.21 315.43,-419.79 322.78,-433.25 325.82,-438.81 330.16,-443.62 335.09,-447.74"/>
<polygon fill="black" stroke="black" points="332.65,-451.02 342.8,-454.03 336.74,-445.34 332.65,-451.02"/>
<text text-anchor="start" x="322.28" y="-419.95" font-family="Times,serif" font-size="14.00">1</text>
<text text-anchor="start" x="322.28" y="-402.7" font-family="Times,serif" font-size="14.00"> op::burn_all</text>
</g>
<!-- parent&#45;&gt;wallet1 -->
<g id="edge10" class="edge">
<title>parent&#45;&gt;wallet1</title>
<path fill="none" stroke="#8dd3c7" d="M281.49,-237.99C277,-221.81 270.21,-197.33 264.96,-178.42"/>
<polygon fill="#8dd3c7" stroke="#8dd3c7" points="268.12,-177.73 262.08,-169.03 261.38,-179.6 268.12,-177.73"/>
<text text-anchor="start" x="275.28" y="-206.95" font-family="Times,serif" font-size="14.00">6</text>
<text text-anchor="start" x="275.28" y="-189.7" font-family="Times,serif" font-size="14.00"> op::tokens_minted</text>
</g>
<!-- parent&#45;&gt;wallet2 -->
<g id="edge16" class="edge">
<title>parent&#45;&gt;wallet2</title>
<path fill="none" stroke="#fb8072" d="M329.96,-252.02C356.73,-248.08 390.35,-239.38 414.28,-220.25 427.77,-209.47 436.96,-192.4 442.8,-177.88"/>
<polygon fill="#fb8072" stroke="#fb8072" points="446.31,-179.47 446.48,-168.88 439.74,-177.06 446.31,-179.47"/>
<text text-anchor="start" x="438.28" y="-206.95" font-family="Times,serif" font-size="14.00">12</text>
<text text-anchor="start" x="438.28" y="-189.7" font-family="Times,serif" font-size="14.00"> op::tokens_burned</text>
</g>
<!-- collection&#45;&gt;bill1 -->
<g id="edge6" class="edge">
<title>collection&#45;&gt;bill1</title>
<path fill="none" stroke="#8dd3c7" d="M319.38,-465.25C251.38,-460.96 143.29,-451.47 107.28,-433.25 48.87,-403.69 29.89,-387.51 5.53,-326.75 -19.32,-264.77 50.17,-201.66 92.06,-170.57"/>
<polygon fill="#8dd3c7" stroke="#8dd3c7" points="93.74,-172.95 99.79,-164.26 89.64,-167.28 93.74,-172.95"/>
<text text-anchor="start" x="6.28" y="-313.45" font-family="Times,serif" font-size="14.00">2</text>
<text text-anchor="start" x="6.28" y="-296.2" font-family="Times,serif" font-size="14.00"> op::burn_bill</text>
</g>
<!-- collection&#45;&gt;bill2 -->
<g id="edge12" class="edge">
<title>collection&#45;&gt;bill2</title>
<path fill="none" stroke="#fb8072" d="M435.13,-465C514.97,-459.96 651,-449.15 667.28,-433.25 703,-398.38 707.89,-243.44 708.36,-179"/>
<polygon fill="#fb8072" stroke="#fb8072" points="711.86,-179.09 708.4,-169.08 704.86,-179.06 711.86,-179.09"/>
<text text-anchor="start" x="703.28" y="-313.45" font-family="Times,serif" font-size="14.00">8</text>
<text text-anchor="start" x="703.28" y="-296.2" font-family="Times,serif" font-size="14.00"> op::burn_bill</text>
</g>
<!-- collection&#45;&gt;treasury -->
<g id="edge8" class="edge">
<title>collection&#45;&gt;treasury</title>
<path fill="none" stroke="#8dd3c7" d="M398.01,-452.1C403.36,-446.74 408.41,-440.31 411.28,-433.25 417.05,-419.04 417.05,-412.96 411.28,-398.75 409.68,-394.8 407.39,-391.05 404.75,-387.58"/>
<polygon fill="#8dd3c7" stroke="#8dd3c7" points="407.9,-385.72 398.66,-380.55 402.66,-390.36 407.9,-385.72"/>
<text text-anchor="start" x="415.28" y="-419.95" font-family="Times,serif" font-size="14.00">4</text>
<text text-anchor="start" x="415.28" y="-402.7" font-family="Times,serif" font-size="14.00"> op::mint_tokens</text>
</g>
<!-- collection&#45;&gt;treasury -->
<g id="edge14" class="edge">
<title>collection&#45;&gt;treasury</title>
<path fill="none" stroke="#fb8072" d="M433.73,-463.32C474.4,-458.47 524.31,-449.36 537.28,-433.25 546.9,-421.31 546.9,-410.69 537.28,-398.75 524.98,-383.46 479.43,-374.49 440.06,-369.46"/>
<polygon fill="#fb8072" stroke="#fb8072" points="440.5,-365.87 430.16,-368.14 439.67,-372.82 440.5,-365.87"/>
<text text-anchor="start" x="544.28" y="-419.95" font-family="Times,serif" font-size="14.00">10</text>
<text text-anchor="start" x="544.28" y="-402.7" font-family="Times,serif" font-size="14.00"> op::burn_tokens</text>
</g>
<!-- collection&#45;&gt;treasury -->
<g id="edge18" class="edge">
<title>collection&#45;&gt;treasury</title>
<path fill="none" stroke="black" d="M318.33,-467.28C242.2,-463.97 124.37,-450.63 168.28,-398.75 186.54,-377.18 258.18,-368.89 312.54,-365.71"/>
<polygon fill="black" stroke="black" points="312.71,-369.16 322.51,-365.13 312.34,-362.17 312.71,-369.16"/>
<text text-anchor="start" x="168.28" y="-419.95" font-family="Times,serif" font-size="14.00">14</text>
<text text-anchor="start" x="168.28" y="-402.7" font-family="Times,serif" font-size="14.00"> op::last_bill_burned</text>
</g>
</g>
</svg>
