<?xml version="1.0" encoding="UTF-8" standalone="no"?>
<!DOCTYPE svg PUBLIC "-//W3C//DTD SVG 1.1//EN"
 "http://www.w3.org/Graphics/SVG/1.1/DTD/svg11.dtd">
<!-- Generated by graphviz version 8.0.5 (20230430.1635)
 -->
<!-- Pages: 1 -->
<svg width="773pt" height="441pt"
 viewBox="0.00 0.00 772.79 440.50" xmlns="http://www.w3.org/2000/svg" xmlns:xlink="http://www.w3.org/1999/xlink">
<g id="graph0" class="graph" transform="scale(1 1) rotate(0) translate(4 436.5)">
<polygon fill="white" stroke="none" points="-4,4 -4,-436.5 768.79,-436.5 768.79,4 -4,4"/>
<text text-anchor="middle" x="382.4" y="-7.95" font-family="Times,serif" font-size="14.00">anyone sends a message to finish participation</text>
<!-- external -->
<g id="node1" class="node">
<title>external</title>
<ellipse fill="black" stroke="black" cx="63.29" cy="-290.75" rx="1.8" ry="1.8"/>
</g>
<!-- treasury -->
<g id="node2" class="node">
<title>treasury</title>
<ellipse fill="#decbe4" stroke="#decbe4" cx="304.29" cy="-290.75" rx="53.84" ry="18"/>
<text text-anchor="middle" x="304.29" y="-286.07" font-family="Times,serif" font-size="14.00">treasury</text>
</g>
<!-- external&#45;&gt;treasury -->
<g id="edge1" class="edge">
<title>external&#45;&gt;treasury</title>
<path fill="none" stroke="black" d="M65.38,-290.75C80.43,-290.75 173.86,-290.75 239.32,-290.75"/>
<polygon fill="black" stroke="black" points="238.97,-294.25 248.97,-290.75 238.97,-287.25 238.97,-294.25"/>
<text text-anchor="start" x="73.77" y="-314.95" font-family="Times,serif" font-size="14.00">1</text>
<text text-anchor="start" x="73.77" y="-297.7" font-family="Times,serif" font-size="14.00"> op::finish_participation</text>
</g>
<!-- treasury&#45;&gt;treasury -->
<g id="edge2" class="edge">
<title>treasury&#45;&gt;treasury</title>
<path fill="none" stroke="black" d="M346.35,-302.31C362.61,-302.82 376.13,-298.97 376.13,-290.75 376.13,-284.46 368.21,-280.73 357.2,-279.55"/>
<polygon fill="black" stroke="black" points="357.46,-276.03 347.35,-279.19 357.23,-283.02 357.46,-276.03"/>
<text text-anchor="start" x="376.13" y="-294.7" font-family="Times,serif" font-size="14.00">2</text>
<text text-anchor="start" x="376.13" y="-277.45" font-family="Times,serif" font-size="14.00"> op::recover_stakes</text>
</g>
<!-- loan1 -->
<g id="node3" class="node">
<title>loan1</title>
<ellipse fill="#fed9a6" stroke="#fed9a6" cx="139.29" cy="-167" rx="38.58" ry="18"/>
<text text-anchor="middle" x="139.29" y="-162.32" font-family="Times,serif" font-size="14.00">loan1</text>
</g>
<!-- treasury&#45;&gt;loan1 -->
<g id="edge3" class="edge">
<title>treasury&#45;&gt;loan1</title>
<path fill="none" stroke="black" d="M251.14,-287.17C170.95,-282.72 26.68,-272.36 11.04,-254.75 -4.23,-237.55 -2.92,-221.28 11.04,-203 21.02,-189.94 59.58,-180.58 91.84,-174.84"/>
<polygon fill="black" stroke="black" points="92.21,-178.16 101.48,-173.04 91.04,-171.26 92.21,-178.16"/>
<text text-anchor="start" x="11.29" y="-241.45" font-family="Times,serif" font-size="14.00">3</text>
<text text-anchor="start" x="11.29" y="-224.2" font-family="Times,serif" font-size="14.00"> op::send_recover_stake</text>
<text text-anchor="start" x="11.29" y="-206.95" font-family="Times,serif" font-size="14.00"> 1 TON</text>
</g>
<!-- loan2 -->
<g id="node4" class="node">
<title>loan2</title>
<ellipse fill="#fed9a6" stroke="#fed9a6" cx="469.29" cy="-167" rx="38.58" ry="18"/>
<text text-anchor="middle" x="469.29" y="-162.32" font-family="Times,serif" font-size="14.00">loan2</text>
</g>
<!-- treasury&#45;&gt;loan2 -->
<g id="edge9" class="edge">
<title>treasury&#45;&gt;loan2</title>
<path fill="none" stroke="black" d="M344.75,-278.43C358.33,-273.04 372.7,-265.37 383.29,-254.75 401.03,-236.96 389.11,-221.56 406.04,-203 412.88,-195.51 421.7,-189.26 430.57,-184.22"/>
<polygon fill="black" stroke="black" points="431.89,-186.96 439.12,-179.22 428.64,-180.76 431.89,-186.96"/>
<text text-anchor="start" x="405.29" y="-241.45" font-family="Times,serif" font-size="14.00">9</text>
<text text-anchor="start" x="405.29" y="-224.2" font-family="Times,serif" font-size="14.00"> op::send_recover_stake</text>
<text text-anchor="start" x="405.29" y="-206.95" font-family="Times,serif" font-size="14.00"> 1 TON</text>
</g>
<!-- validator1 -->
<g id="node6" class="node">
<title>validator1</title>
<ellipse fill="#b3cde3" stroke="#b3cde3" cx="94.29" cy="-414.5" rx="62.26" ry="18"/>
<text text-anchor="middle" x="94.29" y="-409.82" font-family="Times,serif" font-size="14.00">validator1</text>
</g>
<!-- treasury&#45;&gt;validator1 -->
<g id="edge7" class="edge">
<title>treasury&#45;&gt;validator1</title>
<path fill="none" stroke="black" d="M251.91,-295.2C203.1,-299.5 135.05,-308.6 115.79,-326.75 100.01,-341.62 95.05,-366.12 93.8,-385.29"/>
<polygon fill="black" stroke="black" points="90.28,-385.02 93.44,-395.13 97.27,-385.25 90.28,-385.02"/>
<text text-anchor="start" x="116.29" y="-365.2" font-family="Times,serif" font-size="14.00">7</text>
<text text-anchor="start" x="116.29" y="-347.95" font-family="Times,serif" font-size="14.00"> op::loan_result</text>
<text text-anchor="start" x="116.29" y="-330.7" font-family="Times,serif" font-size="14.00"> 100050 TON</text>
</g>
<!-- validator2 -->
<g id="node7" class="node">
<title>validator2</title>
<ellipse fill="#b3cde3" stroke="#b3cde3" cx="237.29" cy="-414.5" rx="62.26" ry="18"/>
<text text-anchor="middle" x="237.29" y="-409.82" font-family="Times,serif" font-size="14.00">validator2</text>
</g>
<!-- treasury&#45;&gt;validator2 -->
<g id="edge13" class="edge">
<title>treasury&#45;&gt;validator2</title>
<path fill="none" stroke="black" d="M266.05,-303.81C255.4,-309.1 245.05,-316.52 238.79,-326.75 228.17,-344.12 228.35,-367.33 230.88,-385.38"/>
<polygon fill="black" stroke="black" points="227.59,-385.85 232.74,-395.11 234.48,-384.66 227.59,-385.85"/>
<text text-anchor="start" x="238.29" y="-365.2" font-family="Times,serif" font-size="14.00">13</text>
<text text-anchor="start" x="238.29" y="-347.95" font-family="Times,serif" font-size="14.00"> op::loan_result</text>
<text text-anchor="start" x="238.29" y="-330.7" font-family="Times,serif" font-size="14.00"> 250 TON</text>
</g>
<!-- governor -->
<g id="node8" class="node">
<title>governor</title>
<ellipse fill="#b3cde3" stroke="#b3cde3" cx="437.29" cy="-414.5" rx="56.47" ry="18"/>
<text text-anchor="middle" x="437.29" y="-409.82" font-family="Times,serif" font-size="14.00">governor</text>
</g>
<!-- treasury&#45;&gt;governor -->
<g id="edge8" class="edge">
<title>treasury&#45;&gt;governor</title>
<path fill="none" stroke="black" d="M328.12,-307.33C335.27,-312.83 342.69,-319.48 348.29,-326.75 363.63,-346.65 353.93,-360.11 371.04,-378.5 377.03,-384.93 384.47,-390.41 392.17,-394.98"/>
<polygon fill="black" stroke="black" points="390.17,-398.42 400.63,-400.12 393.51,-392.27 390.17,-398.42"/>
<text text-anchor="start" x="370.29" y="-365.2" font-family="Times,serif" font-size="14.00">8</text>
<text text-anchor="start" x="370.29" y="-347.95" font-family="Times,serif" font-size="14.00"> op::take_profit</text>
<text text-anchor="start" x="370.29" y="-330.7" font-family="Times,serif" font-size="14.00"> 50 TON</text>
</g>
<!-- treasury&#45;&gt;governor -->
<g id="edge14" class="edge">
<title>treasury&#45;&gt;governor</title>
<path fill="none" stroke="black" d="M356.67,-295.13C402.18,-299.28 463.11,-308.21 478.29,-326.75 492.86,-344.54 487.92,-357.61 478.29,-378.5 476.25,-382.92 473.35,-386.99 470.02,-390.67"/>
<polygon fill="black" stroke="black" points="468.05,-387.66 463.2,-397.08 472.87,-392.74 468.05,-387.66"/>
<text text-anchor="start" x="487.29" y="-365.2" font-family="Times,serif" font-size="14.00">14</text>
<text text-anchor="start" x="487.29" y="-347.95" font-family="Times,serif" font-size="14.00"> op::take_profit</text>
<text text-anchor="start" x="487.29" y="-330.7" font-family="Times,serif" font-size="14.00"> 50 TON</text>
</g>
<!-- loan1&#45;&gt;treasury -->
<g id="edge6" class="edge">
<title>loan1&#45;&gt;treasury</title>
<path fill="none" stroke="black" d="M160.23,-182.4C167.57,-188.18 175.42,-195.3 181.29,-203 196.6,-223.09 186.16,-237.69 204.79,-254.75 216.59,-265.55 231.92,-273.06 247,-278.26"/>
<polygon fill="black" stroke="black" points="245.76,-281.85 256.35,-281.5 247.85,-275.17 245.76,-281.85"/>
<text text-anchor="start" x="204.29" y="-241.45" font-family="Times,serif" font-size="14.00">6</text>
<text text-anchor="start" x="204.29" y="-224.2" font-family="Times,serif" font-size="14.00"> op::recover_stake_result</text>
<text text-anchor="start" x="204.29" y="-206.95" font-family="Times,serif" font-size="14.00"> 300101 TON</text>
</g>
<!-- elector -->
<g id="node5" class="node">
<title>elector</title>
<ellipse fill="#fbb4ae" stroke="#fbb4ae" cx="317.29" cy="-43.25" rx="45.95" ry="18"/>
<text text-anchor="middle" x="317.29" y="-38.58" font-family="Times,serif" font-size="14.00">elector</text>
</g>
<!-- loan1&#45;&gt;elector -->
<g id="edge4" class="edge">
<title>loan1&#45;&gt;elector</title>
<path fill="none" stroke="black" d="M107.96,-155.96C96.28,-150.53 84.24,-142.5 77.54,-131 65.96,-111.13 62.5,-96.65 77.54,-79.25 100.69,-52.48 196.99,-45.78 260.27,-44.33"/>
<polygon fill="black" stroke="black" points="259.97,-47.82 269.9,-44.13 259.84,-40.82 259.97,-47.82"/>
<text text-anchor="start" x="78.29" y="-117.7" font-family="Times,serif" font-size="14.00">4</text>
<text text-anchor="start" x="78.29" y="-100.45" font-family="Times,serif" font-size="14.00"> op::recover_stake</text>
<text text-anchor="start" x="78.29" y="-83.2" font-family="Times,serif" font-size="14.00"> 1 TON</text>
</g>
<!-- loan2&#45;&gt;treasury -->
<g id="edge12" class="edge">
<title>loan2&#45;&gt;treasury</title>
<path fill="none" stroke="black" d="M507.76,-169.71C531.68,-173.01 560.75,-181.56 576.29,-203 589.79,-221.62 591.48,-237.48 576.29,-254.75 562.73,-270.17 443.92,-280.7 367.88,-285.93"/>
<polygon fill="black" stroke="black" points="367.73,-282.5 357.99,-286.66 368.2,-289.48 367.73,-282.5"/>
<text text-anchor="start" x="586.29" y="-241.45" font-family="Times,serif" font-size="14.00">12</text>
<text text-anchor="start" x="586.29" y="-224.2" font-family="Times,serif" font-size="14.00"> op::recover_stake_result</text>
<text text-anchor="start" x="586.29" y="-206.95" font-family="Times,serif" font-size="14.00"> 300101 TON</text>
</g>
<!-- loan2&#45;&gt;elector -->
<g id="edge10" class="edge">
<title>loan2&#45;&gt;elector</title>
<path fill="none" stroke="black" d="M440.39,-154.7C428.71,-149 415.82,-141.11 406.54,-131 389.5,-112.42 400.53,-97.65 383.29,-79.25 376.66,-72.17 368.26,-66.23 359.7,-61.38"/>
<polygon fill="black" stroke="black" points="361.54,-57.87 351.05,-56.36 358.31,-64.08 361.54,-57.87"/>
<text text-anchor="start" x="406.29" y="-117.7" font-family="Times,serif" font-size="14.00">10</text>
<text text-anchor="start" x="406.29" y="-100.45" font-family="Times,serif" font-size="14.00"> op::recover_stake</text>
<text text-anchor="start" x="406.29" y="-83.2" font-family="Times,serif" font-size="14.00"> 1 TON</text>
</g>
<!-- elector&#45;&gt;loan1 -->
<g id="edge5" class="edge">
<title>elector&#45;&gt;loan1</title>
<path fill="none" stroke="black" d="M276.86,-51.92C259.36,-57.06 239.83,-65.5 226.29,-79.25 209.1,-96.71 223.52,-112.64 207.29,-131 199.91,-139.36 190.05,-146 180.13,-151.15"/>
<polygon fill="black" stroke="black" points="178.83,-148.37 171.29,-155.81 181.82,-154.7 178.83,-148.37"/>
<text text-anchor="start" x="226.29" y="-117.7" font-family="Times,serif" font-size="14.00">5</text>
<text text-anchor="start" x="226.29" y="-100.45" font-family="Times,serif" font-size="14.00"> op::recover_stake_ok</text>
<text text-anchor="start" x="226.29" y="-83.2" font-family="Times,serif" font-size="14.00"> 300101 TON</text>
</g>
<!-- elector&#45;&gt;loan2 -->
<g id="edge11" class="edge">
<title>elector&#45;&gt;loan2</title>
<path fill="none" stroke="black" d="M363.12,-44.86C420.66,-46.71 514.49,-53.69 536.29,-79.25 551.22,-96.75 548.21,-111.33 536.29,-131 530.63,-140.34 521.57,-147.31 511.91,-152.46"/>
<polygon fill="black" stroke="black" points="510.74,-149.62 503.16,-157.03 513.7,-155.96 510.74,-149.62"/>
<text text-anchor="start" x="546.29" y="-117.7" font-family="Times,serif" font-size="14.00">11</text>
<text text-anchor="start" x="546.29" y="-100.45" font-family="Times,serif" font-size="14.00"> op::recover_stake_ok</text>
<text text-anchor="start" x="546.29" y="-83.2" font-family="Times,serif" font-size="14.00"> 300101 TON</text>
</g>
</g>
</svg>
