<?xml version="1.0" encoding="UTF-8" standalone="no"?>
<!DOCTYPE svg PUBLIC "-//W3C//DTD SVG 1.1//EN"
 "http://www.w3.org/Graphics/SVG/1.1/DTD/svg11.dtd">
<!-- Generated by graphviz version 8.0.5 (20230430.1635)
 -->
<!-- Pages: 1 -->
<svg width="530pt" height="474pt"
 viewBox="0.00 0.00 529.50 473.50" xmlns="http://www.w3.org/2000/svg" xmlns:xlink="http://www.w3.org/1999/xlink">
<g id="graph0" class="graph" transform="scale(1 1) rotate(0) translate(4 469.5)">
<polygon fill="white" stroke="none" points="-4,4 -4,-469.5 525.5,-469.5 525.5,4 -4,4"/>
<text text-anchor="middle" x="260.75" y="-7.95" font-family="Times,serif" font-size="14.00">staker sends a simple message with comment &#39;w&#39; to unstake all tokens</text>
<!-- staker -->
<g id="node1" class="node">
<title>staker</title>
<ellipse fill="#b3cde3" stroke="#b3cde3" cx="187.3" cy="-447.5" rx="42.79" ry="18"/>
<text text-anchor="middle" x="187.3" y="-442.82" font-family="Times,serif" font-size="14.00">staker</text>
</g>
<!-- treasury -->
<g id="node3" class="node">
<title>treasury</title>
<ellipse fill="#decbe4" stroke="#decbe4" cx="187.3" cy="-323.75" rx="53.84" ry="18"/>
<text text-anchor="middle" x="187.3" y="-319.07" font-family="Times,serif" font-size="14.00">treasury</text>
</g>
<!-- staker&#45;&gt;treasury -->
<g id="edge1" class="edge">
<title>staker&#45;&gt;treasury</title>
<path fill="none" stroke="black" d="M187.3,-429.06C187.3,-409.17 187.3,-376.37 187.3,-352.86"/>
<polygon fill="black" stroke="black" points="190.8,-353.16 187.3,-343.16 183.8,-353.16 190.8,-353.16"/>
<text text-anchor="start" x="187.3" y="-398.2" font-family="Times,serif" font-size="14.00">1</text>
<text text-anchor="start" x="187.3" y="-380.95" font-family="Times,serif" font-size="14.00"> comment: w</text>
<text text-anchor="start" x="187.3" y="-363.7" font-family="Times,serif" font-size="14.00"> 0.10 TON</text>
</g>
<!-- wallet -->
<g id="node2" class="node">
<title>wallet</title>
<ellipse fill="#ccebc5" stroke="#ccebc5" cx="187.3" cy="-59.75" rx="41.74" ry="18"/>
<text text-anchor="middle" x="187.3" y="-55.08" font-family="Times,serif" font-size="14.00">wallet</text>
</g>
<!-- wallet&#45;&gt;wallet -->
<g id="edge4" class="edge">
<title>wallet&#45;&gt;wallet</title>
<path fill="none" stroke="black" d="M215.26,-73.58C231.68,-76.53 247.04,-71.92 247.04,-59.75 247.04,-50.34 237.85,-45.45 226.09,-45.08"/>
<polygon fill="black" stroke="black" points="225.96,-41.65 216.26,-45.92 226.5,-48.63 225.96,-41.65"/>
<text text-anchor="start" x="247.04" y="-80.95" font-family="Times,serif" font-size="14.00">4</text>
<text text-anchor="start" x="247.04" y="-63.7" font-family="Times,serif" font-size="14.00"> op::unstake_tokens</text>
<text text-anchor="start" x="247.04" y="-46.45" font-family="Times,serif" font-size="14.00"> 0.07 TON</text>
<text text-anchor="start" x="247.04" y="-29.2" font-family="Times,serif" font-size="14.00"> ...</text>
</g>
<!-- parent -->
<g id="node4" class="node">
<title>parent</title>
<ellipse fill="#fed9a6" stroke="#fed9a6" cx="187.3" cy="-200" rx="44.37" ry="18"/>
<text text-anchor="middle" x="187.3" y="-195.32" font-family="Times,serif" font-size="14.00">parent</text>
</g>
<!-- treasury&#45;&gt;parent -->
<g id="edge2" class="edge">
<title>treasury&#45;&gt;parent</title>
<path fill="none" stroke="black" d="M187.3,-305.31C187.3,-285.42 187.3,-252.62 187.3,-229.11"/>
<polygon fill="black" stroke="black" points="190.8,-229.41 187.3,-219.41 183.8,-229.41 190.8,-229.41"/>
<text text-anchor="start" x="187.3" y="-274.45" font-family="Times,serif" font-size="14.00">2</text>
<text text-anchor="start" x="187.3" y="-257.2" font-family="Times,serif" font-size="14.00"> op::proxy_unstake_all</text>
<text text-anchor="start" x="187.3" y="-239.95" font-family="Times,serif" font-size="14.00"> 0.09 TON</text>
</g>
<!-- parent&#45;&gt;wallet -->
<g id="edge3" class="edge">
<title>parent&#45;&gt;wallet</title>
<path fill="none" stroke="black" d="M187.3,-181.77C187.3,-158.49 187.3,-116.69 187.3,-88.83"/>
<polygon fill="black" stroke="black" points="190.8,-89.2 187.3,-79.2 183.8,-89.2 190.8,-89.2"/>
<text text-anchor="start" x="187.3" y="-150.7" font-family="Times,serif" font-size="14.00">3</text>
<text text-anchor="start" x="187.3" y="-133.45" font-family="Times,serif" font-size="14.00"> op::unstake_all</text>
<text text-anchor="start" x="187.3" y="-116.2" font-family="Times,serif" font-size="14.00"> 0.08 TON</text>
</g>
</g>
</svg>
