<?xml version="1.0" encoding="UTF-8" standalone="no"?>
<!DOCTYPE svg PUBLIC "-//W3C//DTD SVG 1.1//EN"
 "http://www.w3.org/Graphics/SVG/1.1/DTD/svg11.dtd">
<!-- Generated by graphviz version 8.0.5 (20230430.1635)
 -->
<!-- Pages: 1 -->
<svg width="530pt" height="458pt"
 viewBox="0.00 0.00 529.50 457.75" xmlns="http://www.w3.org/2000/svg" xmlns:xlink="http://www.w3.org/1999/xlink">
<g id="graph0" class="graph" transform="scale(1 1) rotate(0) translate(4 453.75)">
<polygon fill="white" stroke="none" points="-4,4 -4,-453.75 525.5,-453.75 525.5,4 -4,4"/>
<text text-anchor="middle" x="260.75" y="-7.95" font-family="Times,serif" font-size="14.00">staker sends a simple message with comment &#39;w&#39; to unstake all tokens</text>
<!-- staker -->
<g id="node1" class="node">
<title>staker</title>
<ellipse fill="#b3cde3" stroke="#b3cde3" cx="193.54" cy="-431.75" rx="42.79" ry="18"/>
<text text-anchor="middle" x="193.54" y="-427.07" font-family="Times,serif" font-size="14.00">staker</text>
</g>
<!-- treasury -->
<g id="node3" class="node">
<title>treasury</title>
<ellipse fill="#decbe4" stroke="#decbe4" cx="193.54" cy="-308" rx="53.84" ry="18"/>
<text text-anchor="middle" x="193.54" y="-303.32" font-family="Times,serif" font-size="14.00">treasury</text>
</g>
<!-- staker&#45;&gt;treasury -->
<g id="edge1" class="edge">
<title>staker&#45;&gt;treasury</title>
<path fill="none" stroke="black" d="M193.54,-413.31C193.54,-393.42 193.54,-360.62 193.54,-337.11"/>
<polygon fill="black" stroke="black" points="197.04,-337.41 193.54,-327.41 190.04,-337.41 197.04,-337.41"/>
<text text-anchor="start" x="193.54" y="-382.45" font-family="Times,serif" font-size="14.00">1</text>
<text text-anchor="start" x="193.54" y="-365.2" font-family="Times,serif" font-size="14.00"> comment: w</text>
<text text-anchor="start" x="193.54" y="-347.95" font-family="Times,serif" font-size="14.00"> 0.10 TON</text>
</g>
<!-- wallet -->
<g id="node2" class="node">
<title>wallet</title>
<ellipse fill="#ccebc5" stroke="#ccebc5" cx="193.54" cy="-43.25" rx="41.74" ry="18"/>
<text text-anchor="middle" x="193.54" y="-38.58" font-family="Times,serif" font-size="14.00">wallet</text>
</g>
<!-- parent -->
<g id="node4" class="node">
<title>parent</title>
<ellipse fill="#fed9a6" stroke="#fed9a6" cx="193.54" cy="-184.25" rx="44.37" ry="18"/>
<text text-anchor="middle" x="193.54" y="-179.57" font-family="Times,serif" font-size="14.00">parent</text>
</g>
<!-- treasury&#45;&gt;parent -->
<g id="edge2" class="edge">
<title>treasury&#45;&gt;parent</title>
<path fill="none" stroke="black" d="M193.54,-289.56C193.54,-269.67 193.54,-236.87 193.54,-213.36"/>
<polygon fill="black" stroke="black" points="197.04,-213.66 193.54,-203.66 190.04,-213.66 197.04,-213.66"/>
<text text-anchor="start" x="193.54" y="-258.7" font-family="Times,serif" font-size="14.00">2</text>
<text text-anchor="start" x="193.54" y="-241.45" font-family="Times,serif" font-size="14.00"> op::proxy_unstake_tokens</text>
<text text-anchor="start" x="193.54" y="-224.2" font-family="Times,serif" font-size="14.00"> 0.09 TON</text>
</g>
<!-- parent&#45;&gt;wallet -->
<g id="edge3" class="edge">
<title>parent&#45;&gt;wallet</title>
<path fill="none" stroke="black" d="M193.54,-165.93C193.54,-142.39 193.54,-100.03 193.54,-72.03"/>
<polygon fill="black" stroke="black" points="197.04,-72.36 193.54,-62.36 190.04,-72.36 197.04,-72.36"/>
<text text-anchor="start" x="193.54" y="-134.95" font-family="Times,serif" font-size="14.00">3</text>
<text text-anchor="start" x="193.54" y="-117.7" font-family="Times,serif" font-size="14.00"> op::unstake_tokens</text>
<text text-anchor="start" x="193.54" y="-100.45" font-family="Times,serif" font-size="14.00"> 0.08 TON</text>
<text text-anchor="start" x="193.54" y="-83.2" font-family="Times,serif" font-size="14.00"> ...</text>
</g>
</g>
</svg>
