<?xml version="1.0" encoding="UTF-8" standalone="no"?>
<!DOCTYPE svg PUBLIC "-//W3C//DTD SVG 1.1//EN"
 "http://www.w3.org/Graphics/SVG/1.1/DTD/svg11.dtd">
<!-- Generated by graphviz version 8.0.5 (20230430.1635)
 -->
<!-- Pages: 1 -->
<svg width="491pt" height="350pt"
 viewBox="0.00 0.00 490.50 349.75" xmlns="http://www.w3.org/2000/svg" xmlns:xlink="http://www.w3.org/1999/xlink">
<g id="graph0" class="graph" transform="scale(1 1) rotate(0) translate(4 345.75)">
<polygon fill="white" stroke="none" points="-4,4 -4,-345.75 486.5,-345.75 486.5,4 -4,4"/>
<text text-anchor="middle" x="241.25" y="-7.95" font-family="Times,serif" font-size="14.00">staker sends a simple message with comment &#39;d&#39; to deposit coins</text>
<!-- external -->
<g id="node1" class="node">
<title>external</title>
<ellipse fill="black" stroke="black" cx="84.4" cy="-323.75" rx="1.8" ry="1.8"/>
</g>
<!-- staker -->
<g id="node2" class="node">
<title>staker</title>
<ellipse fill="#b3cde3" stroke="#b3cde3" cx="164.4" cy="-323.75" rx="42.79" ry="18"/>
<text text-anchor="middle" x="164.4" y="-319.07" font-family="Times,serif" font-size="14.00">staker</text>
</g>
<!-- external&#45;&gt;staker -->
<g id="edge2" class="edge">
<title>external&#45;&gt;staker</title>
<path fill="none" stroke="black" d="M86.38,-323.75C90.32,-323.75 99.71,-323.75 110.67,-323.75"/>
<polygon fill="black" stroke="black" points="110.53,-327.25 120.53,-323.75 110.53,-320.25 110.53,-327.25"/>
<text text-anchor="middle" x="103.9" y="-330.7" font-family="Times,serif" font-size="14.00">1</text>
</g>
<!-- wallet -->
<g id="node4" class="node">
<title>wallet</title>
<ellipse fill="#ccebc5" stroke="#ccebc5" cx="290.4" cy="-192.12" rx="41.74" ry="18"/>
<text text-anchor="middle" x="290.4" y="-187.45" font-family="Times,serif" font-size="14.00">wallet</text>
</g>
<!-- staker&#45;&gt;wallet -->
<g id="edge1" class="edge">
<title>staker&#45;&gt;wallet</title>
<path fill="none" stroke="black" stroke-dasharray="1,5" d="M180.1,-306.59C202.2,-283.86 242.59,-242.31 267.88,-216.29"/>
<polygon fill="black" stroke="black" points="277.06,-211.87 267.58,-216.61 272.04,-207 277.06,-211.87"/>
</g>
<!-- treasury -->
<g id="node5" class="node">
<title>treasury</title>
<ellipse fill="#decbe4" stroke="#decbe4" cx="158.4" cy="-43.25" rx="53.84" ry="18"/>
<text text-anchor="middle" x="158.4" y="-38.58" font-family="Times,serif" font-size="14.00">treasury</text>
</g>
<!-- staker&#45;&gt;treasury -->
<g id="edge3" class="edge">
<title>staker&#45;&gt;treasury</title>
<path fill="none" stroke="black" d="M161.47,-305.39C158.13,-284.67 152.88,-248.92 150.9,-218 147.6,-166.57 152.04,-106.47 155.36,-72.13"/>
<polygon fill="black" stroke="black" points="158.91,-72.83 156.43,-62.53 151.94,-72.12 158.91,-72.83"/>
<text text-anchor="start" x="151.4" y="-204.7" font-family="Times,serif" font-size="14.00">2</text>
<text text-anchor="start" x="151.4" y="-187.45" font-family="Times,serif" font-size="14.00"> comment: d</text>
<text text-anchor="start" x="151.4" y="-170.2" font-family="Times,serif" font-size="14.00"> 10.10 TON</text>
</g>
<!-- driver -->
<g id="node3" class="node">
<title>driver</title>
<ellipse fill="#b3cde3" stroke="#b3cde3" cx="290.4" cy="-323.75" rx="41.74" ry="18"/>
<text text-anchor="middle" x="290.4" y="-319.07" font-family="Times,serif" font-size="14.00">driver</text>
</g>
<!-- wallet&#45;&gt;driver -->
<g id="edge5" class="edge">
<title>wallet&#45;&gt;driver</title>
<path fill="none" stroke="black" d="M290.4,-210.33C290.4,-231.77 290.4,-268.71 290.4,-294.37"/>
<polygon fill="black" stroke="black" points="286.9,-294.27 290.4,-304.27 293.9,-294.27 286.9,-294.27"/>
<text text-anchor="start" x="290.4" y="-274.45" font-family="Times,serif" font-size="14.00">4</text>
<text text-anchor="start" x="290.4" y="-257.2" font-family="Times,serif" font-size="14.00"> op::gas_excess</text>
<text text-anchor="start" x="290.4" y="-239.95" font-family="Times,serif" font-size="14.00"> 0.08 TON</text>
</g>
<!-- treasury&#45;&gt;wallet -->
<g id="edge4" class="edge">
<title>treasury&#45;&gt;wallet</title>
<path fill="none" stroke="black" d="M173.1,-60.6C196.33,-86.45 241.67,-136.91 268.67,-166.95"/>
<polygon fill="black" stroke="black" points="265.48,-168.75 274.77,-173.85 270.69,-164.07 265.48,-168.75"/>
<text text-anchor="start" x="251.4" y="-134.95" font-family="Times,serif" font-size="14.00">3</text>
<text text-anchor="start" x="251.4" y="-117.7" font-family="Times,serif" font-size="14.00"> op::save_coins</text>
<text text-anchor="start" x="251.4" y="-100.45" font-family="Times,serif" font-size="14.00"> 0.09 TON</text>
<text text-anchor="start" x="251.4" y="-83.2" font-family="Times,serif" font-size="14.00"> coins: 10</text>
</g>
</g>
</svg>
