<?xml version="1.0" encoding="UTF-8" standalone="no"?>
<!DOCTYPE svg PUBLIC "-//W3C//DTD SVG 1.1//EN"
 "http://www.w3.org/Graphics/SVG/1.1/DTD/svg11.dtd">
<!-- Generated by graphviz version 8.0.5 (20230430.1635)
 -->
<!-- Pages: 1 -->
<svg width="307pt" height="193pt"
 viewBox="0.00 0.00 307.00 193.00" xmlns="http://www.w3.org/2000/svg" xmlns:xlink="http://www.w3.org/1999/xlink">
<g id="graph0" class="graph" transform="scale(1 1) rotate(0) translate(4 189)">
<polygon fill="white" stroke="none" points="-4,4 -4,-189 303,-189 303,4 -4,4"/>
<text text-anchor="middle" x="149.5" y="-7.95" font-family="Times,serif" font-size="14.00">the new governor accepts governance</text>
<!-- proposed_governor -->
<g id="node1" class="node">
<title>proposed_governor</title>
<ellipse fill="#b3cde3" stroke="#b3cde3" cx="107.5" cy="-167" rx="107.5" ry="18"/>
<text text-anchor="middle" x="107.5" y="-162.32" font-family="Times,serif" font-size="14.00">proposed_governor</text>
</g>
<!-- treasury -->
<g id="node2" class="node">
<title>treasury</title>
<ellipse fill="#decbe4" stroke="#decbe4" cx="107.5" cy="-43.25" rx="53.84" ry="18"/>
<text text-anchor="middle" x="107.5" y="-38.58" font-family="Times,serif" font-size="14.00">treasury</text>
</g>
<!-- proposed_governor&#45;&gt;treasury -->
<g id="edge1" class="edge">
<title>proposed_governor&#45;&gt;treasury</title>
<path fill="none" stroke="black" d="M40.68,-152.54C30.18,-147.49 20.62,-140.54 14,-131 0.9,-112.1 0.9,-98.15 14,-79.25 22.19,-67.45 34.87,-59.62 48.28,-54.43"/>
<polygon fill="black" stroke="black" points="49.26,-57.45 57.62,-50.95 47.03,-50.82 49.26,-57.45"/>
<text text-anchor="start" x="14.5" y="-117.7" font-family="Times,serif" font-size="14.00">1</text>
<text text-anchor="start" x="14.5" y="-100.45" font-family="Times,serif" font-size="14.00"> op::accept_governance</text>
<text text-anchor="start" x="14.5" y="-83.2" font-family="Times,serif" font-size="14.00"> 0.10 TON</text>
</g>
<!-- treasury&#45;&gt;proposed_governor -->
<g id="edge2" class="edge">
<title>treasury&#45;&gt;proposed_governor</title>
<path fill="none" stroke="black" d="M149.36,-54.96C161.5,-60.22 173.39,-67.95 180.5,-79.25 192.76,-98.71 192.76,-111.54 180.5,-131 177.1,-136.41 172.6,-141 167.5,-144.9"/>
<polygon fill="black" stroke="black" points="165.9,-142.41 159.44,-150.81 169.73,-148.27 165.9,-142.41"/>
<text text-anchor="start" x="189.5" y="-117.7" font-family="Times,serif" font-size="14.00">2</text>
<text text-anchor="start" x="189.5" y="-100.45" font-family="Times,serif" font-size="14.00"> op::gas_excess</text>
<text text-anchor="start" x="189.5" y="-83.2" font-family="Times,serif" font-size="14.00"> 0.09 TON</text>
</g>
</g>
</svg>
