<?xml version="1.0" encoding="UTF-8" standalone="no"?>
<!DOCTYPE svg PUBLIC "-//W3C//DTD SVG 1.1//EN"
 "http://www.w3.org/Graphics/SVG/1.1/DTD/svg11.dtd">
<!-- Generated by graphviz version 8.0.5 (20230430.1635)
 -->
<!-- Pages: 1 -->
<svg width="575pt" height="367pt"
 viewBox="0.00 0.00 575.10 367.00" xmlns="http://www.w3.org/2000/svg" xmlns:xlink="http://www.w3.org/1999/xlink">
<g id="graph0" class="graph" transform="scale(1 1) rotate(0) translate(4 363)">
<polygon fill="white" stroke="none" points="-4,4 -4,-363 571.1,-363 571.1,4 -4,4"/>
<text text-anchor="middle" x="283.55" y="-7.95" font-family="Times,serif" font-size="14.00">staker sends a simple message with comment &#39;s&#39; to stake coins</text>
<!-- external -->
<g id="node1" class="node">
<title>external</title>
<ellipse fill="black" stroke="black" cx="166.1" cy="-341" rx="1.8" ry="1.8"/>
</g>
<!-- staker -->
<g id="node2" class="node">
<title>staker</title>
<ellipse fill="#b3cde3" stroke="#b3cde3" cx="246.1" cy="-341" rx="42.79" ry="18"/>
<text text-anchor="middle" x="246.1" y="-336.32" font-family="Times,serif" font-size="14.00">staker</text>
</g>
<!-- external&#45;&gt;staker -->
<g id="edge2" class="edge">
<title>external&#45;&gt;staker</title>
<path fill="none" stroke="black" d="M168.07,-341C172.01,-341 181.41,-341 192.37,-341"/>
<polygon fill="black" stroke="black" points="192.23,-344.5 202.23,-341 192.23,-337.5 192.23,-344.5"/>
<text text-anchor="middle" x="185.6" y="-347.95" font-family="Times,serif" font-size="14.00">1</text>
</g>
<!-- wallet -->
<g id="node3" class="node">
<title>wallet</title>
<ellipse fill="#ccebc5" stroke="#ccebc5" cx="147.1" cy="-192.12" rx="41.74" ry="18"/>
<text text-anchor="middle" x="147.1" y="-187.45" font-family="Times,serif" font-size="14.00">wallet</text>
</g>
<!-- staker&#45;&gt;wallet -->
<g id="edge1" class="edge">
<title>staker&#45;&gt;wallet</title>
<path fill="none" stroke="black" stroke-dasharray="1,5" d="M210.47,-330.54C176.68,-321.4 130.67,-308.45 128.1,-305 109.39,-279.94 121.18,-242.95 132.85,-218.46"/>
<polygon fill="black" stroke="black" points="140.15,-211.75 132.52,-219.11 133.9,-208.6 140.15,-211.75"/>
</g>
<!-- treasury -->
<g id="node4" class="node">
<title>treasury</title>
<ellipse fill="#decbe4" stroke="#decbe4" cx="233.1" cy="-43.25" rx="53.84" ry="18"/>
<text text-anchor="middle" x="233.1" y="-38.58" font-family="Times,serif" font-size="14.00">treasury</text>
</g>
<!-- staker&#45;&gt;treasury -->
<g id="edge3" class="edge">
<title>staker&#45;&gt;treasury</title>
<path fill="none" stroke="black" d="M289.02,-338.94C342.91,-336.59 430.78,-329.08 451.1,-305 475.31,-276.3 503.58,-141.65 450.1,-79.25 430.73,-56.66 354.43,-48.6 297.75,-45.76"/>
<polygon fill="black" stroke="black" points="298.2,-42.23 288.06,-45.27 297.89,-49.22 298.2,-42.23"/>
<text text-anchor="start" x="480.1" y="-204.7" font-family="Times,serif" font-size="14.00">2</text>
<text text-anchor="start" x="480.1" y="-187.45" font-family="Times,serif" font-size="14.00"> comment: s</text>
<text text-anchor="start" x="480.1" y="-170.2" font-family="Times,serif" font-size="14.00"> 0.07 TON</text>
</g>
<!-- wallet&#45;&gt;staker -->
<g id="edge7" class="edge">
<title>wallet&#45;&gt;staker</title>
<path fill="none" stroke="black" d="M141.83,-210.12C135.63,-233.76 128.51,-276.86 148.6,-305 154.92,-313.87 177.11,-322.18 198.71,-328.48"/>
<polygon fill="black" stroke="black" points="197.63,-332.09 208.2,-331.41 199.51,-325.35 197.63,-332.09"/>
<text text-anchor="start" x="149.1" y="-291.7" font-family="Times,serif" font-size="14.00">6</text>
<text text-anchor="start" x="149.1" y="-274.45" font-family="Times,serif" font-size="14.00"> op::transfer_notification</text>
<text text-anchor="start" x="149.1" y="-257.2" font-family="Times,serif" font-size="14.00"> 0.01 TON</text>
<text text-anchor="start" x="149.1" y="-239.95" font-family="Times,serif" font-size="14.00"> tokens: 9</text>
</g>
<!-- wallet&#45;&gt;staker -->
<g id="edge8" class="edge">
<title>wallet&#45;&gt;staker</title>
<path fill="none" stroke="black" d="M187.56,-197.19C234.45,-202.83 307.43,-214.82 324.1,-236 343.06,-260.1 340.76,-279.26 324.1,-305 317.1,-315.8 305.89,-323.31 294.13,-328.5"/>
<polygon fill="black" stroke="black" points="293.26,-325.47 285.2,-332.35 295.79,-332 293.26,-325.47"/>
<text text-anchor="start" x="337.1" y="-283.07" font-family="Times,serif" font-size="14.00">7</text>
<text text-anchor="start" x="337.1" y="-265.82" font-family="Times,serif" font-size="14.00"> op::gas_excess</text>
<text text-anchor="start" x="337.1" y="-248.57" font-family="Times,serif" font-size="14.00"> 0.03 TON</text>
</g>
<!-- wallet&#45;&gt;treasury -->
<g id="edge5" class="edge">
<title>wallet&#45;&gt;treasury</title>
<path fill="none" stroke="black" d="M105.2,-189.91C74.58,-186.56 34.94,-176.54 14.35,-148.25 -3.7,-123.46 -5.55,-102.58 14.35,-79.25 33.86,-56.36 111.2,-48.38 168.41,-45.63"/>
<polygon fill="black" stroke="black" points="168.36,-49.09 178.2,-45.16 168.05,-42.1 168.36,-49.09"/>
<text text-anchor="start" x="15.1" y="-134.95" font-family="Times,serif" font-size="14.00">4</text>
<text text-anchor="start" x="15.1" y="-117.7" font-family="Times,serif" font-size="14.00"> op::mint_tokens</text>
<text text-anchor="start" x="15.1" y="-100.45" font-family="Times,serif" font-size="14.00"> 0.06 TON</text>
<text text-anchor="start" x="15.1" y="-83.2" font-family="Times,serif" font-size="14.00"> coins: 10</text>
</g>
<!-- treasury&#45;&gt;wallet -->
<g id="edge4" class="edge">
<title>treasury&#45;&gt;wallet</title>
<path fill="none" stroke="black" d="M187.13,-52.76C172.35,-57.89 157.51,-66.11 148.6,-79.25 131.94,-103.82 134.63,-138.91 139.51,-163.22"/>
<polygon fill="black" stroke="black" points="136.3,-163.89 141.92,-172.87 143.13,-162.34 136.3,-163.89"/>
<text text-anchor="start" x="149.1" y="-126.33" font-family="Times,serif" font-size="14.00">3</text>
<text text-anchor="start" x="149.1" y="-109.08" font-family="Times,serif" font-size="14.00"> op::stake_first_coins</text>
<text text-anchor="start" x="149.1" y="-91.83" font-family="Times,serif" font-size="14.00"> 0.07 TON</text>
</g>
<!-- treasury&#45;&gt;wallet -->
<g id="edge6" class="edge">
<title>treasury&#45;&gt;wallet</title>
<path fill="none" stroke="black" d="M270.59,-56.43C281,-61.73 291.09,-69.12 297.1,-79.25 312.73,-105.63 315.56,-123.77 297.1,-148.25 284.87,-164.46 235.53,-176.39 196.73,-183.49"/>
<polygon fill="black" stroke="black" points="196.35,-180.18 187.11,-185.36 197.56,-187.07 196.35,-180.18"/>
<text text-anchor="start" x="309.1" y="-134.95" font-family="Times,serif" font-size="14.00">5</text>
<text text-anchor="start" x="309.1" y="-117.7" font-family="Times,serif" font-size="14.00"> op::receive_tokens</text>
<text text-anchor="start" x="309.1" y="-100.45" font-family="Times,serif" font-size="14.00"> 0.05 TON</text>
<text text-anchor="start" x="309.1" y="-83.2" font-family="Times,serif" font-size="14.00"> tokens: 10</text>
</g>
</g>
</svg>
