<?xml version="1.0" encoding="UTF-8" standalone="no"?>
<!DOCTYPE svg PUBLIC "-//W3C//DTD SVG 1.1//EN"
 "http://www.w3.org/Graphics/SVG/1.1/DTD/svg11.dtd">
<!-- Generated by graphviz version 8.0.5 (20230430.1635)
 -->
<!-- Pages: 1 -->
<svg width="312pt" height="193pt"
 viewBox="0.00 0.00 312.00 193.00" xmlns="http://www.w3.org/2000/svg" xmlns:xlink="http://www.w3.org/1999/xlink">
<g id="graph0" class="graph" transform="scale(1 1) rotate(0) translate(4 189)">
<polygon fill="white" stroke="none" points="-4,4 -4,-189 308,-189 308,4 -4,4"/>
<text text-anchor="middle" x="152" y="-7.95" font-family="Times,serif" font-size="14.00">the current governor changes the halter</text>
<!-- governor -->
<g id="node1" class="node">
<title>governor</title>
<ellipse fill="#b3cde3" stroke="#b3cde3" cx="108.07" cy="-167" rx="56.47" ry="18"/>
<text text-anchor="middle" x="108.07" y="-162.32" font-family="Times,serif" font-size="14.00">governor</text>
</g>
<!-- treasury -->
<g id="node2" class="node">
<title>treasury</title>
<ellipse fill="#decbe4" stroke="#decbe4" cx="108.07" cy="-43.25" rx="53.84" ry="18"/>
<text text-anchor="middle" x="108.07" y="-38.58" font-family="Times,serif" font-size="14.00">treasury</text>
</g>
<!-- governor&#45;&gt;treasury -->
<g id="edge1" class="edge">
<title>governor&#45;&gt;treasury</title>
<path fill="none" stroke="black" d="M71.34,-152.93C61.75,-147.66 52.58,-140.51 47.07,-131 35.55,-111.1 35.55,-99.15 47.07,-79.25 50.94,-72.57 56.62,-67.05 62.99,-62.53"/>
<polygon fill="black" stroke="black" points="64.31,-65.21 70.98,-56.97 60.63,-59.25 64.31,-65.21"/>
<text text-anchor="start" x="47.07" y="-117.7" font-family="Times,serif" font-size="14.00">1</text>
<text text-anchor="start" x="47.07" y="-100.45" font-family="Times,serif" font-size="14.00"> op::set_halter</text>
<text text-anchor="start" x="47.07" y="-83.2" font-family="Times,serif" font-size="14.00"> 0.10 TON</text>
</g>
<!-- treasury&#45;&gt;governor -->
<g id="edge2" class="edge">
<title>treasury&#45;&gt;governor</title>
<path fill="none" stroke="black" d="M132.98,-59.67C139.43,-65 145.55,-71.6 149.07,-79.25 158.7,-100.14 158.7,-110.11 149.07,-131 147.03,-135.42 144.13,-139.49 140.8,-143.17"/>
<polygon fill="black" stroke="black" points="138.83,-140.16 133.98,-149.58 143.65,-145.24 138.83,-140.16"/>
<text text-anchor="start" x="156.07" y="-117.7" font-family="Times,serif" font-size="14.00">2</text>
<text text-anchor="start" x="156.07" y="-100.45" font-family="Times,serif" font-size="14.00"> op::gas_excess</text>
<text text-anchor="start" x="156.07" y="-83.2" font-family="Times,serif" font-size="14.00"> 0.09 TON</text>
</g>
</g>
</svg>
