<?xml version="1.0" encoding="UTF-8" standalone="no"?>
<!DOCTYPE svg PUBLIC "-//W3C//DTD SVG 1.1//EN"
 "http://www.w3.org/Graphics/SVG/1.1/DTD/svg11.dtd">
<!-- Generated by graphviz version 8.0.5 (20230430.1635)
 -->
<!-- Pages: 1 -->
<svg width="530pt" height="334pt"
 viewBox="0.00 0.00 529.50 334.00" xmlns="http://www.w3.org/2000/svg" xmlns:xlink="http://www.w3.org/1999/xlink">
<g id="graph0" class="graph" transform="scale(1 1) rotate(0) translate(4 330)">
<polygon fill="white" stroke="none" points="-4,4 -4,-330 525.5,-330 525.5,4 -4,4"/>
<text text-anchor="middle" x="260.75" y="-7.95" font-family="Times,serif" font-size="14.00">staker sends a simple message with comment &#39;w&#39; to unstake all tokens</text>
<!-- external -->
<g id="node1" class="node">
<title>external</title>
<ellipse fill="black" stroke="black" cx="43.9" cy="-308" rx="1.8" ry="1.8"/>
</g>
<!-- staker -->
<g id="node2" class="node">
<title>staker</title>
<ellipse fill="#b3cde3" stroke="#b3cde3" cx="123.9" cy="-308" rx="42.79" ry="18"/>
<text text-anchor="middle" x="123.9" y="-303.32" font-family="Times,serif" font-size="14.00">staker</text>
</g>
<!-- external&#45;&gt;staker -->
<g id="edge2" class="edge">
<title>external&#45;&gt;staker</title>
<path fill="none" stroke="black" d="M45.88,-308C49.82,-308 59.21,-308 70.17,-308"/>
<polygon fill="black" stroke="black" points="70.03,-311.5 80.03,-308 70.03,-304.5 70.03,-311.5"/>
<text text-anchor="middle" x="63.4" y="-314.95" font-family="Times,serif" font-size="14.00">1</text>
</g>
<!-- treasury -->
<g id="node4" class="node">
<title>treasury</title>
<ellipse fill="#decbe4" stroke="#decbe4" cx="256.9" cy="-184.25" rx="53.84" ry="18"/>
<text text-anchor="middle" x="256.9" y="-179.57" font-family="Times,serif" font-size="14.00">treasury</text>
</g>
<!-- staker&#45;&gt;treasury -->
<g id="edge3" class="edge">
<title>staker&#45;&gt;treasury</title>
<path fill="none" stroke="black" d="M165.81,-303.65C189.17,-299.62 217.07,-290.88 234.9,-272 242.89,-263.54 249.07,-235.25 252.81,-213.25"/>
<polygon fill="black" stroke="black" points="256.42,-213.89 254.55,-203.46 249.51,-212.78 256.42,-213.89"/>
<text text-anchor="start" x="251.9" y="-258.7" font-family="Times,serif" font-size="14.00">2</text>
<text text-anchor="start" x="251.9" y="-241.45" font-family="Times,serif" font-size="14.00"> comment: w</text>
<text text-anchor="start" x="251.9" y="-224.2" font-family="Times,serif" font-size="14.00"> 0.20 TON</text>
</g>
<!-- wallet -->
<g id="node5" class="node">
<title>wallet</title>
<ellipse fill="#ccebc5" stroke="#ccebc5" cx="123.9" cy="-43.25" rx="41.74" ry="18"/>
<text text-anchor="middle" x="123.9" y="-38.58" font-family="Times,serif" font-size="14.00">wallet</text>
</g>
<!-- staker&#45;&gt;wallet -->
<g id="edge1" class="edge">
<title>staker&#45;&gt;wallet</title>
<path fill="none" stroke="black" stroke-dasharray="1,5" d="M114.45,-290.05C111.81,-284.47 109.29,-278.13 107.9,-272 89,-188.44 85.74,-162.52 105.9,-79.25 106.66,-76.13 107.74,-72.97 109.01,-69.9"/>
<polygon fill="black" stroke="black" points="116.16,-63.01 108.7,-70.54 109.84,-60.01 116.16,-63.01"/>
</g>
<!-- driver -->
<g id="node3" class="node">
<title>driver</title>
<ellipse fill="#b3cde3" stroke="#b3cde3" cx="371.9" cy="-308" rx="41.74" ry="18"/>
<text text-anchor="middle" x="371.9" y="-303.32" font-family="Times,serif" font-size="14.00">driver</text>
</g>
<!-- treasury&#45;&gt;staker -->
<g id="edge7" class="edge">
<title>treasury&#45;&gt;staker</title>
<path fill="none" stroke="black" d="M207.22,-191.66C173.07,-197.2 132.04,-206.52 121.4,-220.25 108.66,-236.7 110.39,-260.65 114.69,-279.22"/>
<polygon fill="black" stroke="black" points="111.53,-279.96 117.51,-288.7 118.29,-278.14 111.53,-279.96"/>
<text text-anchor="start" x="121.9" y="-258.7" font-family="Times,serif" font-size="14.00">6</text>
<text text-anchor="start" x="121.9" y="-241.45" font-family="Times,serif" font-size="14.00"> op::gas_excess</text>
<text text-anchor="start" x="121.9" y="-224.2" font-family="Times,serif" font-size="14.00"> 0.10 TON</text>
</g>
<!-- treasury&#45;&gt;driver -->
<g id="edge6" class="edge">
<title>treasury&#45;&gt;driver</title>
<path fill="none" stroke="black" d="M303.68,-193.47C320.35,-198.59 337.94,-206.88 349.9,-220.25 364.14,-236.17 369.43,-260.01 371.28,-278.67"/>
<polygon fill="black" stroke="black" points="367.84,-278.77 372.03,-288.5 374.83,-278.28 367.84,-278.77"/>
<text text-anchor="start" x="369.9" y="-258.7" font-family="Times,serif" font-size="14.00">5</text>
<text text-anchor="start" x="369.9" y="-241.45" font-family="Times,serif" font-size="14.00"> op::gas_excess</text>
<text text-anchor="start" x="369.9" y="-224.2" font-family="Times,serif" font-size="14.00"> 0.07 TON</text>
</g>
<!-- treasury&#45;&gt;wallet -->
<g id="edge4" class="edge">
<title>treasury&#45;&gt;wallet</title>
<path fill="none" stroke="black" d="M264.41,-166.1C272.96,-143.65 283.39,-104.21 263.9,-79.25 252.83,-65.07 210.1,-55.78 174.73,-50.36"/>
<polygon fill="black" stroke="black" points="175.44,-46.78 165.04,-48.8 174.43,-53.71 175.44,-46.78"/>
<text text-anchor="start" x="275.9" y="-126.33" font-family="Times,serif" font-size="14.00">3</text>
<text text-anchor="start" x="275.9" y="-109.08" font-family="Times,serif" font-size="14.00"> op::unstake_all_tokens</text>
<text text-anchor="start" x="275.9" y="-91.83" font-family="Times,serif" font-size="14.00"> 0.19 TON</text>
</g>
<!-- wallet&#45;&gt;treasury -->
<g id="edge5" class="edge">
<title>wallet&#45;&gt;treasury</title>
<path fill="none" stroke="black" d="M117.43,-61.39C110.18,-83.84 101.79,-123.26 121.15,-148.25 130.73,-160.61 164.88,-169.38 196.53,-175.05"/>
<polygon fill="black" stroke="black" points="195.69,-178.62 206.13,-176.85 196.86,-171.72 195.69,-178.62"/>
<text text-anchor="start" x="121.9" y="-134.95" font-family="Times,serif" font-size="14.00">4</text>
<text text-anchor="start" x="121.9" y="-117.7" font-family="Times,serif" font-size="14.00"> op::reserve_tokens</text>
<text text-anchor="start" x="121.9" y="-100.45" font-family="Times,serif" font-size="14.00"> 0.18 TON</text>
<text text-anchor="start" x="121.9" y="-83.2" font-family="Times,serif" font-size="14.00"> tokens: 10</text>
</g>
</g>
</svg>
