<?xml version="1.0" encoding="UTF-8" standalone="no"?>
<!DOCTYPE svg PUBLIC "-//W3C//DTD SVG 1.1//EN"
 "http://www.w3.org/Graphics/SVG/1.1/DTD/svg11.dtd">
<!-- Generated by graphviz version 8.0.5 (20230430.1635)
 -->
<!-- Pages: 1 -->
<svg width="306pt" height="193pt"
 viewBox="0.00 0.00 306.00 193.00" xmlns="http://www.w3.org/2000/svg" xmlns:xlink="http://www.w3.org/1999/xlink">
<g id="graph0" class="graph" transform="scale(1 1) rotate(0) translate(4 189)">
<polygon fill="white" stroke="none" points="-4,4 -4,-189 302,-189 302,4 -4,4"/>
<text text-anchor="middle" x="149" y="-7.95" font-family="Times,serif" font-size="14.00">the current halter sets the stopped flag</text>
<!-- halter -->
<g id="node1" class="node">
<title>halter</title>
<ellipse fill="#b3cde3" stroke="#b3cde3" cx="105.37" cy="-167" rx="41.21" ry="18"/>
<text text-anchor="middle" x="105.37" y="-162.32" font-family="Times,serif" font-size="14.00">halter</text>
</g>
<!-- treasury -->
<g id="node2" class="node">
<title>treasury</title>
<ellipse fill="#decbe4" stroke="#decbe4" cx="105.37" cy="-43.25" rx="53.84" ry="18"/>
<text text-anchor="middle" x="105.37" y="-38.58" font-family="Times,serif" font-size="14.00">treasury</text>
</g>
<!-- halter&#45;&gt;treasury -->
<g id="edge1" class="edge">
<title>halter&#45;&gt;treasury</title>
<path fill="none" stroke="black" d="M70.83,-156.74C57.94,-151.42 44.62,-143.27 37.12,-131 25.13,-111.37 25.13,-98.88 37.12,-79.25 41.76,-71.66 48.63,-65.64 56.25,-60.9"/>
<polygon fill="black" stroke="black" points="57.68,-63.56 64.81,-55.73 54.35,-57.41 57.68,-63.56"/>
<text text-anchor="start" x="37.37" y="-117.7" font-family="Times,serif" font-size="14.00">1</text>
<text text-anchor="start" x="37.37" y="-100.45" font-family="Times,serif" font-size="14.00"> op::set_stopped</text>
<text text-anchor="start" x="37.37" y="-83.2" font-family="Times,serif" font-size="14.00"> 0.10 TON</text>
</g>
<!-- treasury&#45;&gt;halter -->
<g id="edge2" class="edge">
<title>treasury&#45;&gt;halter</title>
<path fill="none" stroke="black" d="M134.44,-58.88C141.98,-64.19 149.17,-70.98 153.37,-79.25 163.8,-99.75 163.8,-110.5 153.37,-131 150.34,-136.97 145.75,-142.17 140.59,-146.6"/>
<polygon fill="black" stroke="black" points="139.06,-144.12 133.17,-152.92 143.27,-149.72 139.06,-144.12"/>
<text text-anchor="start" x="160.37" y="-117.7" font-family="Times,serif" font-size="14.00">2</text>
<text text-anchor="start" x="160.37" y="-100.45" font-family="Times,serif" font-size="14.00"> op::gas_excess</text>
<text text-anchor="start" x="160.37" y="-83.2" font-family="Times,serif" font-size="14.00"> 0.09 TON</text>
</g>
</g>
</svg>
