<?xml version="1.0" encoding="UTF-8" standalone="no"?>
<!DOCTYPE svg PUBLIC "-//W3C//DTD SVG 1.1//EN"
 "http://www.w3.org/Graphics/SVG/1.1/DTD/svg11.dtd">
<!-- Generated by graphviz version 8.0.5 (20230430.1635)
 -->
<!-- Pages: 1 -->
<svg width="516pt" height="334pt"
 viewBox="0.00 0.00 516.00 334.00" xmlns="http://www.w3.org/2000/svg" xmlns:xlink="http://www.w3.org/1999/xlink">
<g id="graph0" class="graph" transform="scale(1 1) rotate(0) translate(4 330)">
<polygon fill="white" stroke="none" points="-4,4 -4,-330 512,-330 512,4 -4,4"/>
<text text-anchor="middle" x="254" y="-7.95" font-family="Times,serif" font-size="14.00">staker sends a simple message with comment &#39;u&#39; to withdraw tokens</text>
<!-- external -->
<g id="node1" class="node">
<title>external</title>
<ellipse fill="black" stroke="black" cx="169.39" cy="-308" rx="1.8" ry="1.8"/>
</g>
<!-- staker -->
<g id="node2" class="node">
<title>staker</title>
<ellipse fill="#b3cde3" stroke="#b3cde3" cx="249.39" cy="-308" rx="42.79" ry="18"/>
<text text-anchor="middle" x="249.39" y="-303.32" font-family="Times,serif" font-size="14.00">staker</text>
</g>
<!-- external&#45;&gt;staker -->
<g id="edge2" class="edge">
<title>external&#45;&gt;staker</title>
<path fill="none" stroke="black" d="M171.36,-308C175.3,-308 184.7,-308 195.66,-308"/>
<polygon fill="black" stroke="black" points="195.52,-311.5 205.52,-308 195.52,-304.5 195.52,-311.5"/>
<text text-anchor="middle" x="188.89" y="-314.95" font-family="Times,serif" font-size="14.00">1</text>
</g>
<!-- treasury -->
<g id="node3" class="node">
<title>treasury</title>
<ellipse fill="#decbe4" stroke="#decbe4" cx="157.39" cy="-184.25" rx="53.84" ry="18"/>
<text text-anchor="middle" x="157.39" y="-179.57" font-family="Times,serif" font-size="14.00">treasury</text>
</g>
<!-- staker&#45;&gt;treasury -->
<g id="edge3" class="edge">
<title>staker&#45;&gt;treasury</title>
<path fill="none" stroke="black" d="M214.11,-297.42C203.34,-294.74 191.43,-292.01 180.39,-290 147.03,-283.93 51.4,-297.35 28.89,-272 13.61,-254.8 14.92,-238.53 28.89,-220.25 37.67,-208.75 68.57,-200.13 97.86,-194.33"/>
<polygon fill="black" stroke="black" points="98.36,-197.61 107.54,-192.31 97.07,-190.73 98.36,-197.61"/>
<text text-anchor="start" x="29.39" y="-258.7" font-family="Times,serif" font-size="14.00">2</text>
<text text-anchor="start" x="29.39" y="-241.45" font-family="Times,serif" font-size="14.00"> comment: u</text>
<text text-anchor="start" x="29.39" y="-224.2" font-family="Times,serif" font-size="14.00"> 0.07 TON</text>
</g>
<!-- wallet -->
<g id="node4" class="node">
<title>wallet</title>
<ellipse fill="#ccebc5" stroke="#ccebc5" cx="332.39" cy="-43.25" rx="41.74" ry="18"/>
<text text-anchor="middle" x="332.39" y="-38.58" font-family="Times,serif" font-size="14.00">wallet</text>
</g>
<!-- staker&#45;&gt;wallet -->
<g id="edge1" class="edge">
<title>staker&#45;&gt;wallet</title>
<path fill="none" stroke="black" stroke-dasharray="1,5" d="M292.06,-306.26C347.84,-304.29 440.98,-297.21 462.39,-272 486.35,-243.78 512.76,-150.53 456.39,-79.25 439.29,-57.62 409.91,-48.71 384.04,-45.28"/>
<polygon fill="black" stroke="black" points="375.21,-40.79 384.77,-45.36 374.45,-47.75 375.21,-40.79"/>
</g>
<!-- treasury&#45;&gt;staker -->
<g id="edge6" class="edge">
<title>treasury&#45;&gt;staker</title>
<path fill="none" stroke="black" d="M147,-202.24C136.98,-221.05 125.38,-251.42 140.39,-272 144.4,-277.5 175.33,-287.14 203.22,-294.91"/>
<polygon fill="black" stroke="black" points="202.13,-298.51 212.7,-297.78 203.98,-291.76 202.13,-298.51"/>
<text text-anchor="start" x="140.39" y="-258.7" font-family="Times,serif" font-size="14.00">5</text>
<text text-anchor="start" x="140.39" y="-241.45" font-family="Times,serif" font-size="14.00"> op::withdrawal_notification</text>
<text text-anchor="start" x="140.39" y="-224.2" font-family="Times,serif" font-size="14.00"> 10 TON</text>
</g>
<!-- treasury&#45;&gt;staker -->
<g id="edge7" class="edge">
<title>treasury&#45;&gt;staker</title>
<path fill="none" stroke="black" d="M210.03,-188.17C257.53,-192.04 322.35,-200.81 338.39,-220.25 353.03,-237.99 351.34,-252.99 338.39,-272 329.42,-285.16 314.69,-293.37 299.77,-298.49"/>
<polygon fill="black" stroke="black" points="299.05,-295.35 290.47,-301.57 301.06,-302.06 299.05,-295.35"/>
<text text-anchor="start" x="348.39" y="-258.7" font-family="Times,serif" font-size="14.00">6</text>
<text text-anchor="start" x="348.39" y="-241.45" font-family="Times,serif" font-size="14.00"> op::gas_excess</text>
<text text-anchor="start" x="348.39" y="-224.2" font-family="Times,serif" font-size="14.00"> 0.04 TON</text>
</g>
<!-- treasury&#45;&gt;wallet -->
<g id="edge4" class="edge">
<title>treasury&#45;&gt;wallet</title>
<path fill="none" stroke="black" d="M151.52,-165.92C145.06,-143.27 138.03,-103.62 158.14,-79.25 173.42,-60.73 234.55,-51.79 280.11,-47.63"/>
<polygon fill="black" stroke="black" points="280.37,-51.03 290.03,-46.69 279.77,-44.06 280.37,-51.03"/>
<text text-anchor="start" x="158.39" y="-126.33" font-family="Times,serif" font-size="14.00">3</text>
<text text-anchor="start" x="158.39" y="-109.08" font-family="Times,serif" font-size="14.00"> op::withdraw_tokens</text>
<text text-anchor="start" x="158.39" y="-91.83" font-family="Times,serif" font-size="14.00"> 0.07 TON</text>
</g>
<!-- wallet&#45;&gt;treasury -->
<g id="edge5" class="edge">
<title>wallet&#45;&gt;treasury</title>
<path fill="none" stroke="black" d="M333.96,-61.59C335.02,-84.62 333.16,-125.09 310.39,-148.25 297.43,-161.42 255.26,-170.46 218.47,-176.05"/>
<polygon fill="black" stroke="black" points="218.16,-172.7 208.77,-177.6 219.17,-179.63 218.16,-172.7"/>
<text text-anchor="start" x="333.39" y="-134.95" font-family="Times,serif" font-size="14.00">4</text>
<text text-anchor="start" x="333.39" y="-117.7" font-family="Times,serif" font-size="14.00"> op::burn_tokens</text>
<text text-anchor="start" x="333.39" y="-100.45" font-family="Times,serif" font-size="14.00"> 0.06 TON</text>
<text text-anchor="start" x="333.39" y="-83.2" font-family="Times,serif" font-size="14.00"> tokens: 10</text>
</g>
</g>
</svg>
