<?xml version="1.0" encoding="UTF-8" standalone="no"?>
<!DOCTYPE svg PUBLIC "-//W3C//DTD SVG 1.1//EN"
 "http://www.w3.org/Graphics/SVG/1.1/DTD/svg11.dtd">
<!-- Generated by graphviz version 8.0.5 (20230430.1635)
 -->
<!-- Pages: 1 -->
<svg width="372pt" height="193pt"
 viewBox="0.00 0.00 372.00 193.00" xmlns="http://www.w3.org/2000/svg" xmlns:xlink="http://www.w3.org/1999/xlink">
<g id="graph0" class="graph" transform="scale(1 1) rotate(0) translate(4 189)">
<polygon fill="white" stroke="none" points="-4,4 -4,-189 368,-189 368,4 -4,4"/>
<text text-anchor="middle" x="182" y="-7.95" font-family="Times,serif" font-size="14.00">the current governor proposes another governor</text>
<!-- external -->
<g id="node1" class="node">
<title>external</title>
<ellipse fill="black" stroke="black" cx="44.12" cy="-167" rx="1.8" ry="1.8"/>
</g>
<!-- governor -->
<g id="node2" class="node">
<title>governor</title>
<ellipse fill="#b3cde3" stroke="#b3cde3" cx="138.12" cy="-167" rx="56.47" ry="18"/>
<text text-anchor="middle" x="138.12" y="-162.32" font-family="Times,serif" font-size="14.00">governor</text>
</g>
<!-- external&#45;&gt;governor -->
<g id="edge1" class="edge">
<title>external&#45;&gt;governor</title>
<path fill="none" stroke="black" d="M46.08,-167C50,-167 59.39,-167 70.75,-167"/>
<polygon fill="black" stroke="black" points="70.63,-170.5 80.63,-167 70.63,-163.5 70.63,-170.5"/>
<text text-anchor="middle" x="63.79" y="-173.95" font-family="Times,serif" font-size="14.00">1</text>
</g>
<!-- treasury -->
<g id="node3" class="node">
<title>treasury</title>
<ellipse fill="#decbe4" stroke="#decbe4" cx="138.12" cy="-43.25" rx="53.84" ry="18"/>
<text text-anchor="middle" x="138.12" y="-38.58" font-family="Times,serif" font-size="14.00">treasury</text>
</g>
<!-- governor&#45;&gt;treasury -->
<g id="edge2" class="edge">
<title>governor&#45;&gt;treasury</title>
<path fill="none" stroke="black" d="M88.66,-158.11C73.07,-153.04 57.49,-144.7 48.12,-131 35.13,-112.02 35.13,-98.23 48.12,-79.25 55.74,-68.11 67.46,-60.52 79.96,-55.34"/>
<polygon fill="black" stroke="black" points="80.86,-58.38 89.08,-51.69 78.48,-51.79 80.86,-58.38"/>
<text text-anchor="start" x="48.12" y="-117.7" font-family="Times,serif" font-size="14.00">2</text>
<text text-anchor="start" x="48.12" y="-100.45" font-family="Times,serif" font-size="14.00"> op::propose_governor</text>
<text text-anchor="start" x="48.12" y="-83.2" font-family="Times,serif" font-size="14.00"> 0.10 TON</text>
</g>
<!-- treasury&#45;&gt;governor -->
<g id="edge3" class="edge">
<title>treasury&#45;&gt;governor</title>
<path fill="none" stroke="black" d="M178.11,-55.63C189.45,-60.91 200.51,-68.49 207.12,-79.25 219.15,-98.85 219.15,-111.4 207.12,-131 202.47,-138.57 195.62,-144.56 188.02,-149.29"/>
<polygon fill="black" stroke="black" points="186.95,-146.43 179.83,-154.28 190.29,-152.58 186.95,-146.43"/>
<text text-anchor="start" x="216.12" y="-117.7" font-family="Times,serif" font-size="14.00">3</text>
<text text-anchor="start" x="216.12" y="-100.45" font-family="Times,serif" font-size="14.00"> op::gas_excess</text>
<text text-anchor="start" x="216.12" y="-83.2" font-family="Times,serif" font-size="14.00"> 0.09 TON</text>
</g>
</g>
</svg>
