<?xml version="1.0" encoding="UTF-8" standalone="no"?>
<!DOCTYPE svg PUBLIC "-//W3C//DTD SVG 1.1//EN"
 "http://www.w3.org/Graphics/SVG/1.1/DTD/svg11.dtd">
<!-- Generated by graphviz version 8.0.5 (20230430.1635)
 -->
<!-- Pages: 1 -->
<svg width="342pt" height="333pt"
 viewBox="0.00 0.00 342.34 332.50" xmlns="http://www.w3.org/2000/svg" xmlns:xlink="http://www.w3.org/1999/xlink">
<g id="graph0" class="graph" transform="scale(1 1) rotate(0) translate(4 328.5)">
<polygon fill="white" stroke="none" points="-4,4 -4,-328.5 338.34,-328.5 338.34,4 -4,4"/>
<text text-anchor="middle" x="167.17" y="-7.95" font-family="Times,serif" font-size="14.00">the current governor sets the content</text>
<!-- governor -->
<g id="node1" class="node">
<title>governor</title>
<ellipse fill="#b3cde3" stroke="#b3cde3" cx="117.84" cy="-306.5" rx="56.47" ry="18"/>
<text text-anchor="middle" x="117.84" y="-301.82" font-family="Times,serif" font-size="14.00">governor</text>
</g>
<!-- treasury -->
<g id="node2" class="node">
<title>treasury</title>
<ellipse fill="#decbe4" stroke="#decbe4" cx="53.84" cy="-174.88" rx="53.84" ry="18"/>
<text text-anchor="middle" x="53.84" y="-170.2" font-family="Times,serif" font-size="14.00">treasury</text>
</g>
<!-- governor&#45;&gt;treasury -->
<g id="edge1" class="edge">
<title>governor&#45;&gt;treasury</title>
<path fill="none" stroke="black" d="M69.35,-296.85C54.67,-291.71 40.12,-283.53 31.34,-270.5 17.61,-250.14 26.74,-222.37 37.19,-202.19"/>
<polygon fill="black" stroke="black" points="40.68,-204.12 42.49,-193.68 34.57,-200.71 40.68,-204.12"/>
<text text-anchor="start" x="31.84" y="-257.2" font-family="Times,serif" font-size="14.00">1</text>
<text text-anchor="start" x="31.84" y="-239.95" font-family="Times,serif" font-size="14.00"> op::proxy_set_content</text>
<text text-anchor="start" x="31.84" y="-222.7" font-family="Times,serif" font-size="14.00"> 0.10 TON</text>
</g>
<!-- parent -->
<g id="node3" class="node">
<title>parent</title>
<ellipse fill="#fed9a6" stroke="#fed9a6" cx="129.84" cy="-43.25" rx="44.37" ry="18"/>
<text text-anchor="middle" x="129.84" y="-38.58" font-family="Times,serif" font-size="14.00">parent</text>
</g>
<!-- treasury&#45;&gt;parent -->
<g id="edge2" class="edge">
<title>treasury&#45;&gt;parent</title>
<path fill="none" stroke="black" d="M54.74,-156.65C56.57,-136.43 62.06,-102.71 78.59,-79.25 82.72,-73.39 88.16,-68.21 93.95,-63.76"/>
<polygon fill="black" stroke="black" points="95.37,-66.34 101.59,-57.76 91.38,-60.59 95.37,-66.34"/>
<text text-anchor="start" x="78.84" y="-117.7" font-family="Times,serif" font-size="14.00">2</text>
<text text-anchor="start" x="78.84" y="-100.45" font-family="Times,serif" font-size="14.00"> op::set_content</text>
<text text-anchor="start" x="78.84" y="-83.2" font-family="Times,serif" font-size="14.00"> 0.09 TON</text>
</g>
<!-- parent&#45;&gt;governor -->
<g id="edge3" class="edge">
<title>parent&#45;&gt;governor</title>
<path fill="none" stroke="black" d="M163.58,-55.35C174.57,-60.75 185.54,-68.47 191.84,-79.25 234.69,-152.66 237.31,-198.69 191.84,-270.5 186.7,-278.61 179.12,-284.88 170.74,-289.71"/>
<polygon fill="black" stroke="black" points="169.41,-286.97 162.04,-294.58 172.54,-293.23 169.41,-286.97"/>
<text text-anchor="start" x="224.84" y="-187.45" font-family="Times,serif" font-size="14.00">3</text>
<text text-anchor="start" x="224.84" y="-170.2" font-family="Times,serif" font-size="14.00"> op::gas_excess</text>
<text text-anchor="start" x="224.84" y="-152.95" font-family="Times,serif" font-size="14.00"> 0.08 TON</text>
</g>
</g>
</svg>
