<?xml version="1.0" encoding="UTF-8" standalone="no"?>
<!DOCTYPE svg PUBLIC "-//W3C//DTD SVG 1.1//EN"
 "http://www.w3.org/Graphics/SVG/1.1/DTD/svg11.dtd">
<!-- Generated by graphviz version 8.0.5 (20230430.1635)
 -->
<!-- Pages: 1 -->
<svg width="337pt" height="193pt"
 viewBox="0.00 0.00 336.75 193.00" xmlns="http://www.w3.org/2000/svg" xmlns:xlink="http://www.w3.org/1999/xlink">
<g id="graph0" class="graph" transform="scale(1 1) rotate(0) translate(4 189)">
<polygon fill="white" stroke="none" points="-4,4 -4,-189 332.75,-189 332.75,4 -4,4"/>
<text text-anchor="middle" x="164.38" y="-7.95" font-family="Times,serif" font-size="14.00">the current halter sets the instant&#45;mint flag</text>
<!-- halter -->
<g id="node1" class="node">
<title>halter</title>
<ellipse fill="#b3cde3" stroke="#b3cde3" cx="121.05" cy="-167" rx="41.21" ry="18"/>
<text text-anchor="middle" x="121.05" y="-162.32" font-family="Times,serif" font-size="14.00">halter</text>
</g>
<!-- treasury -->
<g id="node2" class="node">
<title>treasury</title>
<ellipse fill="#decbe4" stroke="#decbe4" cx="121.05" cy="-43.25" rx="53.84" ry="18"/>
<text text-anchor="middle" x="121.05" y="-38.58" font-family="Times,serif" font-size="14.00">treasury</text>
</g>
<!-- halter&#45;&gt;treasury -->
<g id="edge1" class="edge">
<title>halter&#45;&gt;treasury</title>
<path fill="none" stroke="black" d="M82.61,-160.12C65.25,-155.34 46.32,-146.68 35.8,-131 23,-111.9 23,-98.35 35.8,-79.25 42.69,-68.97 53.2,-61.71 64.51,-56.58"/>
<polygon fill="black" stroke="black" points="65.58,-59.53 73.59,-52.6 63,-53.02 65.58,-59.53"/>
<text text-anchor="start" x="36.05" y="-117.7" font-family="Times,serif" font-size="14.00">1</text>
<text text-anchor="start" x="36.05" y="-100.45" font-family="Times,serif" font-size="14.00"> op::set_instant_mint</text>
<text text-anchor="start" x="36.05" y="-83.2" font-family="Times,serif" font-size="14.00"> 0.10 TON</text>
</g>
<!-- treasury&#45;&gt;halter -->
<g id="edge2" class="edge">
<title>treasury&#45;&gt;halter</title>
<path fill="none" stroke="black" d="M158.55,-56.43C168.96,-61.73 179.05,-69.12 185.05,-79.25 196.78,-99.03 196.78,-111.22 185.05,-131 180.08,-139.39 172.31,-145.9 163.87,-150.9"/>
<polygon fill="black" stroke="black" points="162.44,-148.22 155.17,-155.93 165.66,-154.43 162.44,-148.22"/>
<text text-anchor="start" x="193.05" y="-117.7" font-family="Times,serif" font-size="14.00">2</text>
<text text-anchor="start" x="193.05" y="-100.45" font-family="Times,serif" font-size="14.00"> op::gas_excess</text>
<text text-anchor="start" x="193.05" y="-83.2" font-family="Times,serif" font-size="14.00"> 0.09 TON</text>
</g>
</g>
</svg>
