<?xml version="1.0" encoding="UTF-8" standalone="no"?>
<!DOCTYPE svg PUBLIC "-//W3C//DTD SVG 1.1//EN"
 "http://www.w3.org/Graphics/SVG/1.1/DTD/svg11.dtd">
<!-- Generated by graphviz version 8.0.5 (20230430.1635)
 -->
<!-- Pages: 1 -->
<svg width="346pt" height="193pt"
 viewBox="0.00 0.00 346.30 193.00" xmlns="http://www.w3.org/2000/svg" xmlns:xlink="http://www.w3.org/1999/xlink">
<g id="graph0" class="graph" transform="scale(1 1) rotate(0) translate(4 189)">
<polygon fill="white" stroke="none" points="-4,4 -4,-189 342.3,-189 342.3,4 -4,4"/>
<text text-anchor="middle" x="169.15" y="-7.95" font-family="Times,serif" font-size="14.00">the new governor accepts governance</text>
<!-- external -->
<g id="node1" class="node">
<title>external</title>
<ellipse fill="black" stroke="black" cx="1.8" cy="-167" rx="1.8" ry="1.8"/>
</g>
<!-- proposed_governor -->
<g id="node2" class="node">
<title>proposed_governor</title>
<ellipse fill="#b3cde3" stroke="#b3cde3" cx="146.8" cy="-167" rx="107.5" ry="18"/>
<text text-anchor="middle" x="146.8" y="-162.32" font-family="Times,serif" font-size="14.00">proposed_governor</text>
</g>
<!-- external&#45;&gt;proposed_governor -->
<g id="edge1" class="edge">
<title>external&#45;&gt;proposed_governor</title>
<path fill="none" stroke="black" d="M3.85,-167C7.68,-167 16.61,-167 28.24,-167"/>
<polygon fill="black" stroke="black" points="28.09,-170.5 38.09,-167 28.09,-163.5 28.09,-170.5"/>
<text text-anchor="middle" x="21.45" y="-173.95" font-family="Times,serif" font-size="14.00">1</text>
</g>
<!-- treasury -->
<g id="node3" class="node">
<title>treasury</title>
<ellipse fill="#decbe4" stroke="#decbe4" cx="146.8" cy="-43.25" rx="53.84" ry="18"/>
<text text-anchor="middle" x="146.8" y="-38.58" font-family="Times,serif" font-size="14.00">treasury</text>
</g>
<!-- proposed_governor&#45;&gt;treasury -->
<g id="edge2" class="edge">
<title>proposed_governor&#45;&gt;treasury</title>
<path fill="none" stroke="black" d="M79.98,-152.54C69.48,-147.49 59.92,-140.54 53.3,-131 40.19,-112.1 40.19,-98.15 53.3,-79.25 61.49,-67.45 74.17,-59.62 87.58,-54.43"/>
<polygon fill="black" stroke="black" points="88.56,-57.45 96.92,-50.95 86.33,-50.82 88.56,-57.45"/>
<text text-anchor="start" x="53.8" y="-117.7" font-family="Times,serif" font-size="14.00">2</text>
<text text-anchor="start" x="53.8" y="-100.45" font-family="Times,serif" font-size="14.00"> op::accept_governance</text>
<text text-anchor="start" x="53.8" y="-83.2" font-family="Times,serif" font-size="14.00"> 0.10 TON</text>
</g>
<!-- treasury&#45;&gt;proposed_governor -->
<g id="edge3" class="edge">
<title>treasury&#45;&gt;proposed_governor</title>
<path fill="none" stroke="black" d="M188.66,-54.96C200.8,-60.22 212.69,-67.95 219.8,-79.25 232.05,-98.71 232.05,-111.54 219.8,-131 216.39,-136.41 211.89,-141 206.8,-144.9"/>
<polygon fill="black" stroke="black" points="205.2,-142.41 198.74,-150.81 209.03,-148.27 205.2,-142.41"/>
<text text-anchor="start" x="228.8" y="-117.7" font-family="Times,serif" font-size="14.00">3</text>
<text text-anchor="start" x="228.8" y="-100.45" font-family="Times,serif" font-size="14.00"> op::gas_excess</text>
<text text-anchor="start" x="228.8" y="-83.2" font-family="Times,serif" font-size="14.00"> 0.09 TON</text>
</g>
</g>
</svg>
