<?xml version="1.0" encoding="UTF-8" standalone="no"?>
<!DOCTYPE svg PUBLIC "-//W3C//DTD SVG 1.1//EN"
 "http://www.w3.org/Graphics/SVG/1.1/DTD/svg11.dtd">
<!-- Generated by graphviz version 8.0.5 (20230430.1635)
 -->
<!-- Pages: 1 -->
<svg width="312pt" height="193pt"
 viewBox="0.00 0.00 312.00 193.00" xmlns="http://www.w3.org/2000/svg" xmlns:xlink="http://www.w3.org/1999/xlink">
<g id="graph0" class="graph" transform="scale(1 1) rotate(0) translate(4 189)">
<polygon fill="white" stroke="none" points="-4,4 -4,-189 308,-189 308,4 -4,4"/>
<text text-anchor="middle" x="152" y="-7.95" font-family="Times,serif" font-size="14.00">the current governor changes the halter</text>
<!-- external -->
<g id="node1" class="node">
<title>external</title>
<ellipse fill="black" stroke="black" cx="27.15" cy="-167" rx="1.8" ry="1.8"/>
</g>
<!-- governor -->
<g id="node2" class="node">
<title>governor</title>
<ellipse fill="#b3cde3" stroke="#b3cde3" cx="121.15" cy="-167" rx="56.47" ry="18"/>
<text text-anchor="middle" x="121.15" y="-162.32" font-family="Times,serif" font-size="14.00">governor</text>
</g>
<!-- external&#45;&gt;governor -->
<g id="edge1" class="edge">
<title>external&#45;&gt;governor</title>
<path fill="none" stroke="black" d="M29.11,-167C33.03,-167 42.42,-167 53.78,-167"/>
<polygon fill="black" stroke="black" points="53.66,-170.5 63.66,-167 53.66,-163.5 53.66,-170.5"/>
<text text-anchor="middle" x="46.82" y="-173.95" font-family="Times,serif" font-size="14.00">1</text>
</g>
<!-- treasury -->
<g id="node3" class="node">
<title>treasury</title>
<ellipse fill="#decbe4" stroke="#decbe4" cx="121.15" cy="-43.25" rx="53.84" ry="18"/>
<text text-anchor="middle" x="121.15" y="-38.58" font-family="Times,serif" font-size="14.00">treasury</text>
</g>
<!-- governor&#45;&gt;treasury -->
<g id="edge2" class="edge">
<title>governor&#45;&gt;treasury</title>
<path fill="none" stroke="black" d="M84.41,-152.93C74.83,-147.66 65.66,-140.51 60.15,-131 48.62,-111.1 48.62,-99.15 60.15,-79.25 64.02,-72.57 69.7,-67.05 76.06,-62.53"/>
<polygon fill="black" stroke="black" points="77.39,-65.21 84.05,-56.97 73.71,-59.25 77.39,-65.21"/>
<text text-anchor="start" x="60.15" y="-117.7" font-family="Times,serif" font-size="14.00">2</text>
<text text-anchor="start" x="60.15" y="-100.45" font-family="Times,serif" font-size="14.00"> op::set_halter</text>
<text text-anchor="start" x="60.15" y="-83.2" font-family="Times,serif" font-size="14.00"> 0.10 TON</text>
</g>
<!-- treasury&#45;&gt;governor -->
<g id="edge3" class="edge">
<title>treasury&#45;&gt;governor</title>
<path fill="none" stroke="black" d="M146.06,-59.67C152.51,-65 158.62,-71.6 162.15,-79.25 171.78,-100.14 171.78,-110.11 162.15,-131 160.11,-135.42 157.21,-139.49 153.87,-143.17"/>
<polygon fill="black" stroke="black" points="151.91,-140.16 147.06,-149.58 156.72,-145.24 151.91,-140.16"/>
<text text-anchor="start" x="169.15" y="-117.7" font-family="Times,serif" font-size="14.00">3</text>
<text text-anchor="start" x="169.15" y="-100.45" font-family="Times,serif" font-size="14.00"> op::gas_excess</text>
<text text-anchor="start" x="169.15" y="-83.2" font-family="Times,serif" font-size="14.00"> 0.09 TON</text>
</g>
</g>
</svg>
