<?xml version="1.0" encoding="UTF-8" standalone="no"?>
<!DOCTYPE svg PUBLIC "-//W3C//DTD SVG 1.1//EN"
 "http://www.w3.org/Graphics/SVG/1.1/DTD/svg11.dtd">
<!-- Generated by graphviz version 8.0.5 (20230430.1635)
 -->
<!-- Pages: 1 -->
<svg width="361pt" height="193pt"
 viewBox="0.00 0.00 360.75 193.00" xmlns="http://www.w3.org/2000/svg" xmlns:xlink="http://www.w3.org/1999/xlink">
<g id="graph0" class="graph" transform="scale(1 1) rotate(0) translate(4 189)">
<polygon fill="white" stroke="none" points="-4,4 -4,-189 356.75,-189 356.75,4 -4,4"/>
<text text-anchor="middle" x="176.38" y="-7.95" font-family="Times,serif" font-size="14.00">the current halter sends any message to a loan</text>
<!-- halter -->
<g id="node1" class="node">
<title>halter</title>
<ellipse fill="#b3cde3" stroke="#b3cde3" cx="59.11" cy="-167" rx="41.21" ry="18"/>
<text text-anchor="middle" x="59.11" y="-162.32" font-family="Times,serif" font-size="14.00">halter</text>
</g>
<!-- treasury -->
<g id="node2" class="node">
<title>treasury</title>
<ellipse fill="#decbe4" stroke="#decbe4" cx="166.11" cy="-43.25" rx="53.84" ry="18"/>
<text text-anchor="middle" x="166.11" y="-38.58" font-family="Times,serif" font-size="14.00">treasury</text>
</g>
<!-- halter&#45;&gt;treasury -->
<g id="edge1" class="edge">
<title>halter&#45;&gt;treasury</title>
<path fill="none" stroke="black" d="M53.85,-148.86C49.18,-129.92 45.11,-99.44 59.86,-79.25 70.29,-64.96 86.75,-56.41 103.63,-51.32"/>
<polygon fill="black" stroke="black" points="104.35,-54.49 113.14,-48.58 102.58,-47.72 104.35,-54.49"/>
<text text-anchor="start" x="60.11" y="-117.7" font-family="Times,serif" font-size="14.00">1</text>
<text text-anchor="start" x="60.11" y="-100.45" font-family="Times,serif" font-size="14.00"> op::send_message_to_loan</text>
<text text-anchor="start" x="60.11" y="-83.2" font-family="Times,serif" font-size="14.00"> 0.10 TON</text>
</g>
<!-- loan -->
<g id="node3" class="node">
<title>loan</title>
<ellipse fill="#fed9a6" stroke="#fed9a6" cx="273.11" cy="-167" rx="32.27" ry="18"/>
<text text-anchor="middle" x="273.11" y="-162.32" font-family="Times,serif" font-size="14.00">loan</text>
</g>
<!-- treasury&#45;&gt;loan -->
<g id="edge2" class="edge">
<title>treasury&#45;&gt;loan</title>
<path fill="none" stroke="black" d="M210.24,-53.81C225.09,-59.05 240.55,-67.07 251.11,-79.25 265.1,-95.39 270.41,-119.21 272.32,-137.81"/>
<polygon fill="black" stroke="black" points="268.89,-137.89 273.13,-147.6 275.87,-137.37 268.89,-137.89"/>
<text text-anchor="start" x="271.11" y="-109.08" font-family="Times,serif" font-size="14.00">2</text>
<text text-anchor="start" x="271.11" y="-91.83" font-family="Times,serif" font-size="14.00"> 0.9 TON</text>
</g>
</g>
</svg>
