<?xml version="1.0" encoding="UTF-8" standalone="no"?>
<!DOCTYPE svg PUBLIC "-//W3C//DTD SVG 1.1//EN"
 "http://www.w3.org/Graphics/SVG/1.1/DTD/svg11.dtd">
<!-- Generated by graphviz version 8.0.5 (20230430.1635)
 -->
<!-- Pages: 1 -->
<svg width="345pt" height="193pt"
 viewBox="0.00 0.00 345.00 193.00" xmlns="http://www.w3.org/2000/svg" xmlns:xlink="http://www.w3.org/1999/xlink">
<g id="graph0" class="graph" transform="scale(1 1) rotate(0) translate(4 189)">
<polygon fill="white" stroke="none" points="-4,4 -4,-189 341,-189 341,4 -4,4"/>
<text text-anchor="middle" x="168.5" y="-7.95" font-family="Times,serif" font-size="14.00">the current halter sets the rounds imbalance</text>
<!-- halter -->
<g id="node1" class="node">
<title>halter</title>
<ellipse fill="#b3cde3" stroke="#b3cde3" cx="124.41" cy="-167" rx="41.21" ry="18"/>
<text text-anchor="middle" x="124.41" y="-162.32" font-family="Times,serif" font-size="14.00">halter</text>
</g>
<!-- treasury -->
<g id="node2" class="node">
<title>treasury</title>
<ellipse fill="#decbe4" stroke="#decbe4" cx="124.41" cy="-43.25" rx="53.84" ry="18"/>
<text text-anchor="middle" x="124.41" y="-38.58" font-family="Times,serif" font-size="14.00">treasury</text>
</g>
<!-- halter&#45;&gt;treasury -->
<g id="edge1" class="edge">
<title>halter&#45;&gt;treasury</title>
<path fill="none" stroke="black" d="M83.51,-163.47C60.9,-159.73 34.54,-151 20.16,-131 6.73,-112.33 6.73,-97.92 20.16,-79.25 30.22,-65.26 46.15,-56.78 62.55,-51.67"/>
<polygon fill="black" stroke="black" points="63.04,-54.9 71.78,-48.91 61.22,-48.14 63.04,-54.9"/>
<text text-anchor="start" x="20.41" y="-117.7" font-family="Times,serif" font-size="14.00">1</text>
<text text-anchor="start" x="20.41" y="-100.45" font-family="Times,serif" font-size="14.00"> op::set_rounds_imbalance</text>
<text text-anchor="start" x="20.41" y="-83.2" font-family="Times,serif" font-size="14.00"> 0.10 TON</text>
</g>
<!-- treasury&#45;&gt;halter -->
<g id="edge2" class="edge">
<title>treasury&#45;&gt;halter</title>
<path fill="none" stroke="black" d="M170.65,-52.91C185.21,-58.05 199.73,-66.24 208.41,-79.25 221.17,-98.39 221.17,-111.86 208.41,-131 200.16,-143.38 186.62,-151.38 172.79,-156.56"/>
<polygon fill="black" stroke="black" points="172.16,-153.41 163.74,-159.85 174.34,-160.06 172.16,-153.41"/>
<text text-anchor="start" x="217.41" y="-117.7" font-family="Times,serif" font-size="14.00">2</text>
<text text-anchor="start" x="217.41" y="-100.45" font-family="Times,serif" font-size="14.00"> op::gas_excess</text>
<text text-anchor="start" x="217.41" y="-83.2" font-family="Times,serif" font-size="14.00"> 0.09 TON</text>
</g>
</g>
</svg>
