<?xml version="1.0" encoding="UTF-8" standalone="no"?>
<!DOCTYPE svg PUBLIC "-//W3C//DTD SVG 1.1//EN"
 "http://www.w3.org/Graphics/SVG/1.1/DTD/svg11.dtd">
<!-- Generated by graphviz version 8.0.5 (20230430.1635)
 -->
<!-- Pages: 1 -->
<svg width="306pt" height="193pt"
 viewBox="0.00 0.00 306.00 193.00" xmlns="http://www.w3.org/2000/svg" xmlns:xlink="http://www.w3.org/1999/xlink">
<g id="graph0" class="graph" transform="scale(1 1) rotate(0) translate(4 189)">
<polygon fill="white" stroke="none" points="-4,4 -4,-189 302,-189 302,4 -4,4"/>
<text text-anchor="middle" x="149" y="-7.95" font-family="Times,serif" font-size="14.00">the current halter sets the stopped flag</text>
<!-- external -->
<g id="node1" class="node">
<title>external</title>
<ellipse fill="black" stroke="black" cx="28.15" cy="-167" rx="1.8" ry="1.8"/>
</g>
<!-- halter -->
<g id="node2" class="node">
<title>halter</title>
<ellipse fill="#b3cde3" stroke="#b3cde3" cx="107.15" cy="-167" rx="41.21" ry="18"/>
<text text-anchor="middle" x="107.15" y="-162.32" font-family="Times,serif" font-size="14.00">halter</text>
</g>
<!-- external&#45;&gt;halter -->
<g id="edge1" class="edge">
<title>external&#45;&gt;halter</title>
<path fill="none" stroke="black" d="M30.43,-167C34.61,-167 44.08,-167 54.99,-167"/>
<polygon fill="black" stroke="black" points="54.77,-170.5 64.77,-167 54.77,-163.5 54.77,-170.5"/>
<text text-anchor="middle" x="47.94" y="-173.95" font-family="Times,serif" font-size="14.00">1</text>
</g>
<!-- treasury -->
<g id="node3" class="node">
<title>treasury</title>
<ellipse fill="#decbe4" stroke="#decbe4" cx="107.15" cy="-43.25" rx="53.84" ry="18"/>
<text text-anchor="middle" x="107.15" y="-38.58" font-family="Times,serif" font-size="14.00">treasury</text>
</g>
<!-- halter&#45;&gt;treasury -->
<g id="edge2" class="edge">
<title>halter&#45;&gt;treasury</title>
<path fill="none" stroke="black" d="M72.61,-156.74C59.72,-151.42 46.4,-143.27 38.9,-131 26.91,-111.37 26.91,-98.88 38.9,-79.25 43.54,-71.66 50.41,-65.64 58.03,-60.9"/>
<polygon fill="black" stroke="black" points="59.46,-63.56 66.59,-55.73 56.13,-57.41 59.46,-63.56"/>
<text text-anchor="start" x="39.15" y="-117.7" font-family="Times,serif" font-size="14.00">2</text>
<text text-anchor="start" x="39.15" y="-100.45" font-family="Times,serif" font-size="14.00"> op::set_stopped</text>
<text text-anchor="start" x="39.15" y="-83.2" font-family="Times,serif" font-size="14.00"> 0.10 TON</text>
</g>
<!-- treasury&#45;&gt;halter -->
<g id="edge3" class="edge">
<title>treasury&#45;&gt;halter</title>
<path fill="none" stroke="black" d="M136.22,-58.88C143.76,-64.19 150.94,-70.98 155.15,-79.25 165.57,-99.75 165.57,-110.5 155.15,-131 152.11,-136.97 147.53,-142.17 142.37,-146.6"/>
<polygon fill="black" stroke="black" points="140.84,-144.12 134.95,-152.92 145.04,-149.72 140.84,-144.12"/>
<text text-anchor="start" x="162.15" y="-117.7" font-family="Times,serif" font-size="14.00">3</text>
<text text-anchor="start" x="162.15" y="-100.45" font-family="Times,serif" font-size="14.00"> op::gas_excess</text>
<text text-anchor="start" x="162.15" y="-83.2" font-family="Times,serif" font-size="14.00"> 0.09 TON</text>
</g>
</g>
</svg>
