<?xml version="1.0" encoding="UTF-8" standalone="no"?>
<!DOCTYPE svg PUBLIC "-//W3C//DTD SVG 1.1//EN"
 "http://www.w3.org/Graphics/SVG/1.1/DTD/svg11.dtd">
<!-- Generated by graphviz version 8.0.5 (20230430.1635)
 -->
<!-- Pages: 1 -->
<svg width="359pt" height="209pt"
 viewBox="0.00 0.00 358.50 208.75" xmlns="http://www.w3.org/2000/svg" xmlns:xlink="http://www.w3.org/1999/xlink">
<g id="graph0" class="graph" transform="scale(1 1) rotate(0) translate(4 204.75)">
<polygon fill="white" stroke="none" points="-4,4 -4,-204.75 354.5,-204.75 354.5,4 -4,4"/>
<text text-anchor="middle" x="175.25" y="-7.95" font-family="Times,serif" font-size="14.00">the current halter sends process&#45;loan&#45;requests</text>
<!-- halter -->
<g id="node1" class="node">
<title>halter</title>
<ellipse fill="#b3cde3" stroke="#b3cde3" cx="70.62" cy="-182.75" rx="41.21" ry="18"/>
<text text-anchor="middle" x="70.62" y="-178.07" font-family="Times,serif" font-size="14.00">halter</text>
</g>
<!-- treasury -->
<g id="node2" class="node">
<title>treasury</title>
<ellipse fill="#decbe4" stroke="#decbe4" cx="70.62" cy="-51.12" rx="53.84" ry="18"/>
<text text-anchor="middle" x="70.62" y="-46.45" font-family="Times,serif" font-size="14.00">treasury</text>
</g>
<!-- halter&#45;&gt;treasury -->
<g id="edge1" class="edge">
<title>halter&#45;&gt;treasury</title>
<path fill="none" stroke="black" d="M70.62,-164.27C70.62,-142.69 70.62,-105.74 70.62,-80.18"/>
<polygon fill="black" stroke="black" points="74.13,-80.33 70.62,-70.33 67.13,-80.33 74.13,-80.33"/>
<text text-anchor="start" x="70.62" y="-133.45" font-family="Times,serif" font-size="14.00">1</text>
<text text-anchor="start" x="70.62" y="-116.2" font-family="Times,serif" font-size="14.00"> op::retry_process_loan_requests</text>
<text text-anchor="start" x="70.62" y="-98.95" font-family="Times,serif" font-size="14.00"> 0.10 TON</text>
</g>
<!-- treasury&#45;&gt;treasury -->
<g id="edge2" class="edge">
<title>treasury&#45;&gt;treasury</title>
<path fill="none" stroke="black" d="M109.42,-63.97C127.1,-65.28 142.46,-61 142.46,-51.12 142.46,-43.33 132.9,-39.02 120.18,-38.19"/>
<polygon fill="black" stroke="black" points="120.4,-34.7 110.42,-38.28 120.45,-41.7 120.4,-34.7"/>
<text text-anchor="start" x="142.46" y="-63.7" font-family="Times,serif" font-size="14.00">2</text>
<text text-anchor="start" x="142.46" y="-46.45" font-family="Times,serif" font-size="14.00"> op::process_loan_requests</text>
<text text-anchor="start" x="142.46" y="-29.2" font-family="Times,serif" font-size="14.00"> 0.9 TON</text>
</g>
</g>
</svg>
