<?xml version="1.0" encoding="UTF-8" standalone="no"?>
<!DOCTYPE svg PUBLIC "-//W3C//DTD SVG 1.1//EN"
 "http://www.w3.org/Graphics/SVG/1.1/DTD/svg11.dtd">
<!-- Generated by graphviz version 8.0.5 (20230430.1635)
 -->
<!-- Pages: 1 -->
<svg width="306pt" height="193pt"
 viewBox="0.00 0.00 306.00 193.00" xmlns="http://www.w3.org/2000/svg" xmlns:xlink="http://www.w3.org/1999/xlink">
<g id="graph0" class="graph" transform="scale(1 1) rotate(0) translate(4 189)">
<polygon fill="white" stroke="none" points="-4,4 -4,-189 302,-189 302,4 -4,4"/>
<text text-anchor="middle" x="149" y="-7.95" font-family="Times,serif" font-size="14.00">the current governor sets a new parent</text>
<!-- governor -->
<g id="node1" class="node">
<title>governor</title>
<ellipse fill="#b3cde3" stroke="#b3cde3" cx="105.39" cy="-167" rx="56.47" ry="18"/>
<text text-anchor="middle" x="105.39" y="-162.32" font-family="Times,serif" font-size="14.00">governor</text>
</g>
<!-- treasury -->
<g id="node2" class="node">
<title>treasury</title>
<ellipse fill="#decbe4" stroke="#decbe4" cx="105.39" cy="-43.25" rx="53.84" ry="18"/>
<text text-anchor="middle" x="105.39" y="-38.58" font-family="Times,serif" font-size="14.00">treasury</text>
</g>
<!-- governor&#45;&gt;treasury -->
<g id="edge1" class="edge">
<title>governor&#45;&gt;treasury</title>
<path fill="none" stroke="black" d="M67.51,-153.42C57.42,-148.14 47.71,-140.86 41.89,-131 30.19,-111.2 30.19,-99.05 41.89,-79.25 46.07,-72.16 52.26,-66.41 59.16,-61.78"/>
<polygon fill="black" stroke="black" points="60.32,-64.57 67.18,-56.49 56.78,-58.53 60.32,-64.57"/>
<text text-anchor="start" x="42.39" y="-117.7" font-family="Times,serif" font-size="14.00">1</text>
<text text-anchor="start" x="42.39" y="-100.45" font-family="Times,serif" font-size="14.00"> op::set_parent</text>
<text text-anchor="start" x="42.39" y="-83.2" font-family="Times,serif" font-size="14.00"> 0.10 TON</text>
</g>
<!-- treasury&#45;&gt;governor -->
<g id="edge2" class="edge">
<title>treasury&#45;&gt;governor</title>
<path fill="none" stroke="black" d="M131.49,-59.44C138.25,-64.78 144.67,-71.43 148.39,-79.25 158.26,-100.02 158.26,-110.23 148.39,-131 146.18,-135.65 143.02,-139.88 139.4,-143.66"/>
<polygon fill="black" stroke="black" points="137.57,-140.51 132.49,-149.81 142.26,-145.7 137.57,-140.51"/>
<text text-anchor="start" x="155.39" y="-117.7" font-family="Times,serif" font-size="14.00">2</text>
<text text-anchor="start" x="155.39" y="-100.45" font-family="Times,serif" font-size="14.00"> op::gas_excess</text>
<text text-anchor="start" x="155.39" y="-83.2" font-family="Times,serif" font-size="14.00"> 0.09 TON</text>
</g>
</g>
</svg>
