<?xml version="1.0" encoding="UTF-8" standalone="no"?>
<!DOCTYPE svg PUBLIC "-//W3C//DTD SVG 1.1//EN"
 "http://www.w3.org/Graphics/SVG/1.1/DTD/svg11.dtd">
<!-- Generated by graphviz version 8.0.5 (20230430.1635)
 -->
<!-- Pages: 1 -->
<svg width="284pt" height="193pt"
 viewBox="0.00 0.00 283.50 193.00" xmlns="http://www.w3.org/2000/svg" xmlns:xlink="http://www.w3.org/1999/xlink">
<g id="graph0" class="graph" transform="scale(1 1) rotate(0) translate(4 189)">
<polygon fill="white" stroke="none" points="-4,4 -4,-189 279.5,-189 279.5,4 -4,4"/>
<text text-anchor="middle" x="137.75" y="-7.95" font-family="Times,serif" font-size="14.00">the current governor sets the driver</text>
<!-- external -->
<g id="node1" class="node">
<title>external</title>
<ellipse fill="black" stroke="black" cx="12.9" cy="-167" rx="1.8" ry="1.8"/>
</g>
<!-- governor -->
<g id="node2" class="node">
<title>governor</title>
<ellipse fill="#b3cde3" stroke="#b3cde3" cx="106.9" cy="-167" rx="56.47" ry="18"/>
<text text-anchor="middle" x="106.9" y="-162.32" font-family="Times,serif" font-size="14.00">governor</text>
</g>
<!-- external&#45;&gt;governor -->
<g id="edge1" class="edge">
<title>external&#45;&gt;governor</title>
<path fill="none" stroke="black" d="M14.86,-167C18.78,-167 28.17,-167 39.53,-167"/>
<polygon fill="black" stroke="black" points="39.41,-170.5 49.41,-167 39.41,-163.5 39.41,-170.5"/>
<text text-anchor="middle" x="32.57" y="-173.95" font-family="Times,serif" font-size="14.00">1</text>
</g>
<!-- treasury -->
<g id="node3" class="node">
<title>treasury</title>
<ellipse fill="#decbe4" stroke="#decbe4" cx="106.9" cy="-43.25" rx="53.84" ry="18"/>
<text text-anchor="middle" x="106.9" y="-38.58" font-family="Times,serif" font-size="14.00">treasury</text>
</g>
<!-- governor&#45;&gt;treasury -->
<g id="edge2" class="edge">
<title>governor&#45;&gt;treasury</title>
<path fill="none" stroke="black" d="M69.72,-153.02C60.02,-147.75 50.73,-140.58 45.15,-131 33.57,-111.13 33.57,-99.12 45.15,-79.25 49.07,-72.52 54.83,-66.97 61.27,-62.44"/>
<polygon fill="black" stroke="black" points="62.66,-65.08 69.37,-56.88 59.01,-59.11 62.66,-65.08"/>
<text text-anchor="start" x="45.9" y="-117.7" font-family="Times,serif" font-size="14.00">2</text>
<text text-anchor="start" x="45.9" y="-100.45" font-family="Times,serif" font-size="14.00"> op::set_driver</text>
<text text-anchor="start" x="45.9" y="-83.2" font-family="Times,serif" font-size="14.00"> 0.10 TON</text>
</g>
<!-- treasury&#45;&gt;governor -->
<g id="edge3" class="edge">
<title>treasury&#45;&gt;governor</title>
<path fill="none" stroke="black" d="M131.81,-59.67C138.26,-65 144.37,-71.6 147.9,-79.25 157.53,-100.14 157.53,-110.11 147.9,-131 145.86,-135.42 142.96,-139.49 139.62,-143.17"/>
<polygon fill="black" stroke="black" points="137.66,-140.16 132.81,-149.58 142.47,-145.24 137.66,-140.16"/>
<text text-anchor="start" x="154.9" y="-117.7" font-family="Times,serif" font-size="14.00">3</text>
<text text-anchor="start" x="154.9" y="-100.45" font-family="Times,serif" font-size="14.00"> op::gas_excess</text>
<text text-anchor="start" x="154.9" y="-83.2" font-family="Times,serif" font-size="14.00"> 0.09 TON</text>
</g>
</g>
</svg>
