<?xml version="1.0" encoding="UTF-8" standalone="no"?>
<!DOCTYPE svg PUBLIC "-//W3C//DTD SVG 1.1//EN"
 "http://www.w3.org/Graphics/SVG/1.1/DTD/svg11.dtd">
<!-- Generated by graphviz version 8.0.5 (20230430.1635)
 -->
<!-- Pages: 1 -->
<svg width="361pt" height="193pt"
 viewBox="0.00 0.00 360.75 193.00" xmlns="http://www.w3.org/2000/svg" xmlns:xlink="http://www.w3.org/1999/xlink">
<g id="graph0" class="graph" transform="scale(1 1) rotate(0) translate(4 189)">
<polygon fill="white" stroke="none" points="-4,4 -4,-189 356.75,-189 356.75,4 -4,4"/>
<text text-anchor="middle" x="176.38" y="-7.95" font-family="Times,serif" font-size="14.00">the current halter sends any message to a loan</text>
<!-- halter -->
<g id="node1" class="node">
<title>halter</title>
<ellipse fill="#b3cde3" stroke="#b3cde3" cx="52.36" cy="-167" rx="41.21" ry="18"/>
<text text-anchor="middle" x="52.36" y="-162.32" font-family="Times,serif" font-size="14.00">halter</text>
</g>
<!-- treasury -->
<g id="node2" class="node">
<title>treasury</title>
<ellipse fill="#decbe4" stroke="#decbe4" cx="159.36" cy="-43.25" rx="53.84" ry="18"/>
<text text-anchor="middle" x="159.36" y="-38.58" font-family="Times,serif" font-size="14.00">treasury</text>
</g>
<!-- halter&#45;&gt;treasury -->
<g id="edge1" class="edge">
<title>halter&#45;&gt;treasury</title>
<path fill="none" stroke="black" d="M47.1,-148.86C42.43,-129.92 38.36,-99.44 53.11,-79.25 63.54,-64.96 80,-56.41 96.88,-51.32"/>
<polygon fill="black" stroke="black" points="97.6,-54.49 106.39,-48.58 95.83,-47.72 97.6,-54.49"/>
<text text-anchor="start" x="53.36" y="-117.7" font-family="Times,serif" font-size="14.00">1</text>
<text text-anchor="start" x="53.36" y="-100.45" font-family="Times,serif" font-size="14.00"> op::send_message_to_loan</text>
<text text-anchor="start" x="53.36" y="-83.2" font-family="Times,serif" font-size="14.00"> 0.10 GRAM</text>
</g>
<!-- loan -->
<g id="node3" class="node">
<title>loan</title>
<ellipse fill="#fed9a6" stroke="#fed9a6" cx="266.36" cy="-167" rx="32.27" ry="18"/>
<text text-anchor="middle" x="266.36" y="-162.32" font-family="Times,serif" font-size="14.00">loan</text>
</g>
<!-- treasury&#45;&gt;loan -->
<g id="edge2" class="edge">
<title>treasury&#45;&gt;loan</title>
<path fill="none" stroke="black" d="M203.49,-53.81C218.34,-59.05 233.8,-67.07 244.36,-79.25 258.35,-95.39 263.66,-119.21 265.57,-137.81"/>
<polygon fill="black" stroke="black" points="262.14,-137.89 266.38,-147.6 269.12,-137.37 262.14,-137.89"/>
<text text-anchor="start" x="264.36" y="-109.08" font-family="Times,serif" font-size="14.00">2</text>
<text text-anchor="start" x="264.36" y="-91.83" font-family="Times,serif" font-size="14.00"> 0.9 GRAM</text>
</g>
</g>
</svg>
