<?xml version="1.0" encoding="UTF-8" standalone="no"?>
<!DOCTYPE svg PUBLIC "-//W3C//DTD SVG 1.1//EN"
 "http://www.w3.org/Graphics/SVG/1.1/DTD/svg11.dtd">
<!-- Generated by graphviz version 8.0.5 (20230430.1635)
 -->
<!-- Pages: 1 -->
<svg width="294pt" height="193pt"
 viewBox="0.00 0.00 294.00 193.00" xmlns="http://www.w3.org/2000/svg" xmlns:xlink="http://www.w3.org/1999/xlink">
<g id="graph0" class="graph" transform="scale(1 1) rotate(0) translate(4 189)">
<polygon fill="white" stroke="none" points="-4,4 -4,-189 290,-189 290,4 -4,4"/>
<text text-anchor="middle" x="143" y="-7.95" font-family="Times,serif" font-size="14.00">the current governor sets the content</text>
<!-- external -->
<g id="node1" class="node">
<title>external</title>
<ellipse fill="black" stroke="black" cx="15.65" cy="-167" rx="1.8" ry="1.8"/>
</g>
<!-- governor -->
<g id="node2" class="node">
<title>governor</title>
<ellipse fill="#b3cde3" stroke="#b3cde3" cx="109.65" cy="-167" rx="56.47" ry="18"/>
<text text-anchor="middle" x="109.65" y="-162.32" font-family="Times,serif" font-size="14.00">governor</text>
</g>
<!-- external&#45;&gt;governor -->
<g id="edge1" class="edge">
<title>external&#45;&gt;governor</title>
<path fill="none" stroke="black" d="M17.61,-167C21.53,-167 30.92,-167 42.28,-167"/>
<polygon fill="black" stroke="black" points="42.16,-170.5 52.16,-167 42.16,-163.5 42.16,-170.5"/>
<text text-anchor="middle" x="35.32" y="-173.95" font-family="Times,serif" font-size="14.00">1</text>
</g>
<!-- treasury -->
<g id="node3" class="node">
<title>treasury</title>
<ellipse fill="#decbe4" stroke="#decbe4" cx="109.65" cy="-43.25" rx="53.84" ry="18"/>
<text text-anchor="middle" x="109.65" y="-38.58" font-family="Times,serif" font-size="14.00">treasury</text>
</g>
<!-- governor&#45;&gt;treasury -->
<g id="edge2" class="edge">
<title>governor&#45;&gt;treasury</title>
<path fill="none" stroke="black" d="M69.6,-153.88C58.91,-148.62 48.61,-141.24 42.4,-131 30.47,-111.34 30.47,-98.91 42.4,-79.25 47.01,-71.65 53.88,-65.62 61.48,-60.87"/>
<polygon fill="black" stroke="black" points="62.56,-63.72 69.65,-55.85 59.2,-57.58 62.56,-63.72"/>
<text text-anchor="start" x="42.65" y="-117.7" font-family="Times,serif" font-size="14.00">2</text>
<text text-anchor="start" x="42.65" y="-100.45" font-family="Times,serif" font-size="14.00"> op::set_content</text>
<text text-anchor="start" x="42.65" y="-83.2" font-family="Times,serif" font-size="14.00"> 0.10 TON</text>
</g>
<!-- treasury&#45;&gt;governor -->
<g id="edge3" class="edge">
<title>treasury&#45;&gt;governor</title>
<path fill="none" stroke="black" d="M137.53,-59.11C144.76,-64.43 151.64,-71.16 155.65,-79.25 165.86,-99.86 165.86,-110.39 155.65,-131 153.21,-135.93 149.7,-140.36 145.69,-144.26"/>
<polygon fill="black" stroke="black" points="143.92,-142.02 138.53,-151.14 148.43,-147.38 143.92,-142.02"/>
<text text-anchor="start" x="162.65" y="-117.7" font-family="Times,serif" font-size="14.00">3</text>
<text text-anchor="start" x="162.65" y="-100.45" font-family="Times,serif" font-size="14.00"> op::gas_excess</text>
<text text-anchor="start" x="162.65" y="-83.2" font-family="Times,serif" font-size="14.00"> 0.09 TON</text>
</g>
</g>
</svg>
