<?xml version="1.0" encoding="UTF-8" standalone="no"?>
<!DOCTYPE svg PUBLIC "-//W3C//DTD SVG 1.1//EN"
 "http://www.w3.org/Graphics/SVG/1.1/DTD/svg11.dtd">
<!-- Generated by graphviz version 8.0.5 (20230430.1635)
 -->
<!-- Pages: 1 -->
<svg width="365pt" height="209pt"
 viewBox="0.00 0.00 365.25 208.75" xmlns="http://www.w3.org/2000/svg" xmlns:xlink="http://www.w3.org/1999/xlink">
<g id="graph0" class="graph" transform="scale(1 1) rotate(0) translate(4 204.75)">
<polygon fill="white" stroke="none" points="-4,4 -4,-204.75 361.25,-204.75 361.25,4 -4,4"/>
<text text-anchor="middle" x="178.62" y="-7.95" font-family="Times,serif" font-size="14.00">the current halter retries process&#45;loan&#45;requests</text>
<!-- halter -->
<g id="node1" class="node">
<title>halter</title>
<ellipse fill="#b3cde3" stroke="#b3cde3" cx="74" cy="-182.75" rx="41.21" ry="18"/>
<text text-anchor="middle" x="74" y="-178.07" font-family="Times,serif" font-size="14.00">halter</text>
</g>
<!-- treasury -->
<g id="node2" class="node">
<title>treasury</title>
<ellipse fill="#decbe4" stroke="#decbe4" cx="74" cy="-51.12" rx="53.84" ry="18"/>
<text text-anchor="middle" x="74" y="-46.45" font-family="Times,serif" font-size="14.00">treasury</text>
</g>
<!-- halter&#45;&gt;treasury -->
<g id="edge1" class="edge">
<title>halter&#45;&gt;treasury</title>
<path fill="none" stroke="black" d="M74,-164.27C74,-142.69 74,-105.74 74,-80.18"/>
<polygon fill="black" stroke="black" points="77.5,-80.33 74,-70.33 70.5,-80.33 77.5,-80.33"/>
<text text-anchor="start" x="74" y="-133.45" font-family="Times,serif" font-size="14.00">1</text>
<text text-anchor="start" x="74" y="-116.2" font-family="Times,serif" font-size="14.00"> op::retry_process_loan_requests</text>
<text text-anchor="start" x="74" y="-98.95" font-family="Times,serif" font-size="14.00"> 0.10 TON</text>
</g>
<!-- treasury&#45;&gt;treasury -->
<g id="edge2" class="edge">
<title>treasury&#45;&gt;treasury</title>
<path fill="none" stroke="black" d="M112.8,-63.97C130.47,-65.28 145.84,-61 145.84,-51.12 145.84,-43.33 136.27,-39.02 123.55,-38.19"/>
<polygon fill="black" stroke="black" points="123.77,-34.7 113.8,-38.28 123.83,-41.7 123.77,-34.7"/>
<text text-anchor="start" x="145.84" y="-63.7" font-family="Times,serif" font-size="14.00">2</text>
<text text-anchor="start" x="145.84" y="-46.45" font-family="Times,serif" font-size="14.00"> op::process_loan_requests</text>
<text text-anchor="start" x="145.84" y="-29.2" font-family="Times,serif" font-size="14.00"> 0.9 TON</text>
</g>
</g>
</svg>
