<?xml version="1.0" encoding="UTF-8" standalone="no"?>
<!DOCTYPE svg PUBLIC "-//W3C//DTD SVG 1.1//EN"
 "http://www.w3.org/Graphics/SVG/1.1/DTD/svg11.dtd">
<!-- Generated by graphviz version 8.0.5 (20230430.1635)
 -->
<!-- Pages: 1 -->
<svg width="317pt" height="209pt"
 viewBox="0.00 0.00 316.68 208.75" xmlns="http://www.w3.org/2000/svg" xmlns:xlink="http://www.w3.org/1999/xlink">
<g id="graph0" class="graph" transform="scale(1 1) rotate(0) translate(4 204.75)">
<polygon fill="white" stroke="none" points="-4,4 -4,-204.75 312.68,-204.75 312.68,4 -4,4"/>
<text text-anchor="middle" x="154.34" y="-7.95" font-family="Times,serif" font-size="14.00">the current halter retries distribution</text>
<!-- halter -->
<g id="node1" class="node">
<title>halter</title>
<ellipse fill="#b3cde3" stroke="#b3cde3" cx="53.84" cy="-182.75" rx="41.21" ry="18"/>
<text text-anchor="middle" x="53.84" y="-178.07" font-family="Times,serif" font-size="14.00">halter</text>
</g>
<!-- treasury -->
<g id="node2" class="node">
<title>treasury</title>
<ellipse fill="#decbe4" stroke="#decbe4" cx="53.84" cy="-51.12" rx="53.84" ry="18"/>
<text text-anchor="middle" x="53.84" y="-46.45" font-family="Times,serif" font-size="14.00">treasury</text>
</g>
<!-- halter&#45;&gt;treasury -->
<g id="edge1" class="edge">
<title>halter&#45;&gt;treasury</title>
<path fill="none" stroke="black" d="M53.84,-164.27C53.84,-142.69 53.84,-105.74 53.84,-80.18"/>
<polygon fill="black" stroke="black" points="57.34,-80.33 53.84,-70.33 50.34,-80.33 57.34,-80.33"/>
<text text-anchor="start" x="53.84" y="-133.45" font-family="Times,serif" font-size="14.00">1</text>
<text text-anchor="start" x="53.84" y="-116.2" font-family="Times,serif" font-size="14.00"> op::retry_distribute</text>
<text text-anchor="start" x="53.84" y="-98.95" font-family="Times,serif" font-size="14.00"> 0.10 TON</text>
</g>
<!-- treasury&#45;&gt;treasury -->
<g id="edge2" class="edge">
<title>treasury&#45;&gt;treasury</title>
<path fill="none" stroke="black" d="M92.64,-63.97C110.31,-65.28 125.68,-61 125.68,-51.12 125.68,-43.33 116.11,-39.02 103.39,-38.19"/>
<polygon fill="black" stroke="black" points="103.61,-34.7 93.64,-38.28 103.66,-41.7 103.61,-34.7"/>
<text text-anchor="start" x="125.68" y="-63.7" font-family="Times,serif" font-size="14.00">2</text>
<text text-anchor="start" x="125.68" y="-46.45" font-family="Times,serif" font-size="14.00"> op::decide_loan_requests</text>
<text text-anchor="start" x="125.68" y="-29.2" font-family="Times,serif" font-size="14.00"> 0.9 TON</text>
</g>
</g>
</svg>
