<?xml version="1.0" encoding="UTF-8" standalone="no"?>
<!DOCTYPE svg PUBLIC "-//W3C//DTD SVG 1.1//EN"
 "http://www.w3.org/Graphics/SVG/1.1/DTD/svg11.dtd">
<!-- Generated by graphviz version 8.0.5 (20230430.1635)
 -->
<!-- Pages: 1 -->
<svg width="349pt" height="193pt"
 viewBox="0.00 0.00 348.75 193.00" xmlns="http://www.w3.org/2000/svg" xmlns:xlink="http://www.w3.org/1999/xlink">
<g id="graph0" class="graph" transform="scale(1 1) rotate(0) translate(4 189)">
<polygon fill="white" stroke="none" points="-4,4 -4,-189 344.75,-189 344.75,4 -4,4"/>
<text text-anchor="middle" x="170.38" y="-7.95" font-family="Times,serif" font-size="14.00">the current governor sets the governance fee</text>
<!-- external -->
<g id="node1" class="node">
<title>external</title>
<ellipse fill="black" stroke="black" cx="32.19" cy="-167" rx="1.8" ry="1.8"/>
</g>
<!-- governor -->
<g id="node2" class="node">
<title>governor</title>
<ellipse fill="#b3cde3" stroke="#b3cde3" cx="126.19" cy="-167" rx="56.47" ry="18"/>
<text text-anchor="middle" x="126.19" y="-162.32" font-family="Times,serif" font-size="14.00">governor</text>
</g>
<!-- external&#45;&gt;governor -->
<g id="edge1" class="edge">
<title>external&#45;&gt;governor</title>
<path fill="none" stroke="black" d="M34.15,-167C38.07,-167 47.46,-167 58.81,-167"/>
<polygon fill="black" stroke="black" points="58.7,-170.5 68.7,-167 58.7,-163.5 58.7,-170.5"/>
<text text-anchor="middle" x="51.85" y="-173.95" font-family="Times,serif" font-size="14.00">1</text>
</g>
<!-- treasury -->
<g id="node3" class="node">
<title>treasury</title>
<ellipse fill="#decbe4" stroke="#decbe4" cx="126.19" cy="-43.25" rx="53.84" ry="18"/>
<text text-anchor="middle" x="126.19" y="-38.58" font-family="Times,serif" font-size="14.00">treasury</text>
</g>
<!-- governor&#45;&gt;treasury -->
<g id="edge2" class="edge">
<title>governor&#45;&gt;treasury</title>
<path fill="none" stroke="black" d="M74.92,-159.09C58.09,-154.12 41.12,-145.59 30.94,-131 17.77,-112.14 17.77,-98.11 30.94,-79.25 39.46,-67.04 52.73,-59.08 66.69,-53.89"/>
<polygon fill="black" stroke="black" points="67.48,-56.99 75.91,-50.58 65.32,-50.33 67.48,-56.99"/>
<text text-anchor="start" x="31.19" y="-117.7" font-family="Times,serif" font-size="14.00">2</text>
<text text-anchor="start" x="31.19" y="-100.45" font-family="Times,serif" font-size="14.00"> op::set_governance_fee</text>
<text text-anchor="start" x="31.19" y="-83.2" font-family="Times,serif" font-size="14.00"> 0.10 TON</text>
</g>
<!-- treasury&#45;&gt;governor -->
<g id="edge3" class="edge">
<title>treasury&#45;&gt;governor</title>
<path fill="none" stroke="black" d="M168.77,-54.54C181.38,-59.78 193.78,-67.62 201.19,-79.25 213.54,-98.65 213.54,-111.6 201.19,-131 195.97,-139.19 188.28,-145.49 179.79,-150.34"/>
<polygon fill="black" stroke="black" points="178.36,-147.64 170.95,-155.21 181.47,-153.91 178.36,-147.64"/>
<text text-anchor="start" x="210.19" y="-117.7" font-family="Times,serif" font-size="14.00">3</text>
<text text-anchor="start" x="210.19" y="-100.45" font-family="Times,serif" font-size="14.00"> op::gas_excess</text>
<text text-anchor="start" x="210.19" y="-83.2" font-family="Times,serif" font-size="14.00"> 0.09 TON</text>
</g>
</g>
</svg>
