<?xml version="1.0" encoding="UTF-8" standalone="no"?>
<!DOCTYPE svg PUBLIC "-//W3C//DTD SVG 1.1//EN"
 "http://www.w3.org/Graphics/SVG/1.1/DTD/svg11.dtd">
<!-- Generated by graphviz version 8.0.5 (20230430.1635)
 -->
<!-- Pages: 1 -->
<svg width="336pt" height="209pt"
 viewBox="0.00 0.00 336.00 208.75" xmlns="http://www.w3.org/2000/svg" xmlns:xlink="http://www.w3.org/1999/xlink">
<g id="graph0" class="graph" transform="scale(1 1) rotate(0) translate(4 204.75)">
<polygon fill="white" stroke="none" points="-4,4 -4,-204.75 332,-204.75 332,4 -4,4"/>
<text text-anchor="middle" x="164" y="-7.95" font-family="Times,serif" font-size="14.00">the current halter retries recovering stakes</text>
<!-- halter -->
<g id="node1" class="node">
<title>halter</title>
<ellipse fill="#b3cde3" stroke="#b3cde3" cx="86.38" cy="-182.75" rx="41.21" ry="18"/>
<text text-anchor="middle" x="86.38" y="-178.07" font-family="Times,serif" font-size="14.00">halter</text>
</g>
<!-- treasury -->
<g id="node2" class="node">
<title>treasury</title>
<ellipse fill="#decbe4" stroke="#decbe4" cx="86.38" cy="-51.12" rx="53.84" ry="18"/>
<text text-anchor="middle" x="86.38" y="-46.45" font-family="Times,serif" font-size="14.00">treasury</text>
</g>
<!-- halter&#45;&gt;treasury -->
<g id="edge1" class="edge">
<title>halter&#45;&gt;treasury</title>
<path fill="none" stroke="black" d="M86.38,-164.27C86.38,-142.69 86.38,-105.74 86.38,-80.18"/>
<polygon fill="black" stroke="black" points="89.88,-80.33 86.38,-70.33 82.88,-80.33 89.88,-80.33"/>
<text text-anchor="start" x="86.38" y="-133.45" font-family="Times,serif" font-size="14.00">1</text>
<text text-anchor="start" x="86.38" y="-116.2" font-family="Times,serif" font-size="14.00"> op::retry_recover_stakes</text>
<text text-anchor="start" x="86.38" y="-98.95" font-family="Times,serif" font-size="14.00"> 0.10 TON</text>
</g>
<!-- treasury&#45;&gt;treasury -->
<g id="edge2" class="edge">
<title>treasury&#45;&gt;treasury</title>
<path fill="none" stroke="black" d="M125.17,-63.97C142.85,-65.28 158.21,-61 158.21,-51.12 158.21,-43.33 148.65,-39.02 135.93,-38.19"/>
<polygon fill="black" stroke="black" points="136.15,-34.7 126.17,-38.28 136.2,-41.7 136.15,-34.7"/>
<text text-anchor="start" x="158.21" y="-63.7" font-family="Times,serif" font-size="14.00">2</text>
<text text-anchor="start" x="158.21" y="-46.45" font-family="Times,serif" font-size="14.00"> op::recover_stakes</text>
<text text-anchor="start" x="158.21" y="-29.2" font-family="Times,serif" font-size="14.00"> 0.9 TON</text>
</g>
</g>
</svg>
