<?xml version="1.0" encoding="UTF-8" standalone="no"?>
<!DOCTYPE svg PUBLIC "-//W3C//DTD SVG 1.1//EN"
 "http://www.w3.org/Graphics/SVG/1.1/DTD/svg11.dtd">
<!-- Generated by graphviz version 8.0.5 (20230430.1635)
 -->
<!-- Pages: 1 -->
<svg width="367pt" height="193pt"
 viewBox="0.00 0.00 366.75 193.00" xmlns="http://www.w3.org/2000/svg" xmlns:xlink="http://www.w3.org/1999/xlink">
<g id="graph0" class="graph" transform="scale(1 1) rotate(0) translate(4 189)">
<polygon fill="white" stroke="none" points="-4,4 -4,-189 362.75,-189 362.75,4 -4,4"/>
<text text-anchor="middle" x="179.38" y="-7.95" font-family="Times,serif" font-size="14.00">the current halter sets the balanced&#45;rounds flag</text>
<!-- external -->
<g id="node1" class="node">
<title>external</title>
<ellipse fill="black" stroke="black" cx="56.74" cy="-167" rx="1.8" ry="1.8"/>
</g>
<!-- halter -->
<g id="node2" class="node">
<title>halter</title>
<ellipse fill="#b3cde3" stroke="#b3cde3" cx="135.74" cy="-167" rx="41.21" ry="18"/>
<text text-anchor="middle" x="135.74" y="-162.32" font-family="Times,serif" font-size="14.00">halter</text>
</g>
<!-- external&#45;&gt;halter -->
<g id="edge1" class="edge">
<title>external&#45;&gt;halter</title>
<path fill="none" stroke="black" d="M59.02,-167C63.2,-167 72.67,-167 83.58,-167"/>
<polygon fill="black" stroke="black" points="83.36,-170.5 93.36,-167 83.36,-163.5 83.36,-170.5"/>
<text text-anchor="middle" x="76.54" y="-173.95" font-family="Times,serif" font-size="14.00">1</text>
</g>
<!-- treasury -->
<g id="node3" class="node">
<title>treasury</title>
<ellipse fill="#decbe4" stroke="#decbe4" cx="135.74" cy="-43.25" rx="53.84" ry="18"/>
<text text-anchor="middle" x="135.74" y="-38.58" font-family="Times,serif" font-size="14.00">treasury</text>
</g>
<!-- halter&#45;&gt;treasury -->
<g id="edge2" class="edge">
<title>halter&#45;&gt;treasury</title>
<path fill="none" stroke="black" d="M99.38,-157.98C73.94,-151.54 43.18,-141.82 35.49,-131 22.18,-112.25 22.18,-98 35.49,-79.25 44.77,-66.18 59.31,-57.95 74.47,-52.78"/>
<polygon fill="black" stroke="black" points="75.4,-55.86 84,-49.67 73.42,-49.15 75.4,-55.86"/>
<text text-anchor="start" x="35.74" y="-117.7" font-family="Times,serif" font-size="14.00">2</text>
<text text-anchor="start" x="35.74" y="-100.45" font-family="Times,serif" font-size="14.00"> op::set_balanced_rounds</text>
<text text-anchor="start" x="35.74" y="-83.2" font-family="Times,serif" font-size="14.00"> 0.10 TON</text>
</g>
<!-- treasury&#45;&gt;halter -->
<g id="edge3" class="edge">
<title>treasury&#45;&gt;halter</title>
<path fill="none" stroke="black" d="M180.13,-53.87C193.54,-59.08 206.81,-67.05 214.74,-79.25 227.29,-98.53 227.29,-111.72 214.74,-131 207.38,-142.31 195.44,-149.99 183.05,-155.2"/>
<polygon fill="black" stroke="black" points="182.26,-152.13 174.09,-158.87 184.68,-158.7 182.26,-152.13"/>
<text text-anchor="start" x="223.74" y="-117.7" font-family="Times,serif" font-size="14.00">3</text>
<text text-anchor="start" x="223.74" y="-100.45" font-family="Times,serif" font-size="14.00"> op::gas_excess</text>
<text text-anchor="start" x="223.74" y="-83.2" font-family="Times,serif" font-size="14.00"> 0.09 TON</text>
</g>
</g>
</svg>
