<?xml version="1.0" encoding="UTF-8" standalone="no"?>
<!DOCTYPE svg PUBLIC "-//W3C//DTD SVG 1.1//EN"
 "http://www.w3.org/Graphics/SVG/1.1/DTD/svg11.dtd">
<!-- Generated by graphviz version 8.0.5 (20230430.1635)
 -->
<!-- Pages: 1 -->
<svg width="265pt" height="317pt"
 viewBox="0.00 0.00 264.75 316.75" xmlns="http://www.w3.org/2000/svg" xmlns:xlink="http://www.w3.org/1999/xlink">
<g id="graph0" class="graph" transform="scale(1 1) rotate(0) translate(4 312.75)">
<polygon fill="white" stroke="none" points="-4,4 -4,-312.75 260.75,-312.75 260.75,4 -4,4"/>
<text text-anchor="middle" x="128.38" y="-7.95" font-family="Times,serif" font-size="14.00">the current halter retries burn&#45;all</text>
<!-- halter -->
<g id="node1" class="node">
<title>halter</title>
<ellipse fill="#b3cde3" stroke="#b3cde3" cx="92.3" cy="-290.75" rx="41.21" ry="18"/>
<text text-anchor="middle" x="92.3" y="-286.07" font-family="Times,serif" font-size="14.00">halter</text>
</g>
<!-- treasury -->
<g id="node2" class="node">
<title>treasury</title>
<ellipse fill="#decbe4" stroke="#decbe4" cx="92.3" cy="-167" rx="53.84" ry="18"/>
<text text-anchor="middle" x="92.3" y="-162.32" font-family="Times,serif" font-size="14.00">treasury</text>
</g>
<!-- halter&#45;&gt;treasury -->
<g id="edge1" class="edge">
<title>halter&#45;&gt;treasury</title>
<path fill="none" stroke="black" d="M92.3,-272.31C92.3,-252.42 92.3,-219.62 92.3,-196.11"/>
<polygon fill="black" stroke="black" points="95.8,-196.41 92.3,-186.41 88.8,-196.41 95.8,-196.41"/>
<text text-anchor="start" x="92.3" y="-241.45" font-family="Times,serif" font-size="14.00">1</text>
<text text-anchor="start" x="92.3" y="-224.2" font-family="Times,serif" font-size="14.00"> op::retry_burn_all</text>
<text text-anchor="start" x="92.3" y="-206.95" font-family="Times,serif" font-size="14.00"> 0.10 TON</text>
</g>
<!-- collection -->
<g id="node3" class="node">
<title>collection</title>
<ellipse fill="#fed9a6" stroke="#fed9a6" cx="92.3" cy="-43.25" rx="59.1" ry="18"/>
<text text-anchor="middle" x="92.3" y="-38.58" font-family="Times,serif" font-size="14.00">collection</text>
</g>
<!-- treasury&#45;&gt;collection -->
<g id="edge2" class="edge">
<title>treasury&#45;&gt;collection</title>
<path fill="none" stroke="black" d="M92.3,-148.56C92.3,-128.67 92.3,-95.87 92.3,-72.36"/>
<polygon fill="black" stroke="black" points="95.8,-72.66 92.3,-62.66 88.8,-72.66 95.8,-72.66"/>
<text text-anchor="start" x="92.3" y="-117.7" font-family="Times,serif" font-size="14.00">2</text>
<text text-anchor="start" x="92.3" y="-100.45" font-family="Times,serif" font-size="14.00"> op::burn_all</text>
<text text-anchor="start" x="92.3" y="-83.2" font-family="Times,serif" font-size="14.00"> 0.9 TON</text>
</g>
</g>
</svg>
