<?xml version="1.0" encoding="UTF-8" standalone="no"?>
<!DOCTYPE svg PUBLIC "-//W3C//DTD SVG 1.1//EN"
 "http://www.w3.org/Graphics/SVG/1.1/DTD/svg11.dtd">
<!-- Generated by graphviz version 8.0.5 (20230430.1635)
 -->
<!-- Pages: 1 -->
<svg width="474pt" height="193pt"
 viewBox="0.00 0.00 474.00 193.00" xmlns="http://www.w3.org/2000/svg" xmlns:xlink="http://www.w3.org/1999/xlink">
<g id="graph0" class="graph" transform="scale(1 1) rotate(0) translate(4 189)">
<polygon fill="white" stroke="none" points="-4,4 -4,-189 470,-189 470,4 -4,4"/>
<text text-anchor="middle" x="233" y="-7.95" font-family="Times,serif" font-size="14.00">the current governor withdraws surplus TON value of treasury</text>
<!-- governor -->
<g id="node1" class="node">
<title>governor</title>
<ellipse fill="#b3cde3" stroke="#b3cde3" cx="188.73" cy="-167" rx="56.47" ry="18"/>
<text text-anchor="middle" x="188.73" y="-162.32" font-family="Times,serif" font-size="14.00">governor</text>
</g>
<!-- treasury -->
<g id="node2" class="node">
<title>treasury</title>
<ellipse fill="#decbe4" stroke="#decbe4" cx="188.73" cy="-43.25" rx="53.84" ry="18"/>
<text text-anchor="middle" x="188.73" y="-38.58" font-family="Times,serif" font-size="14.00">treasury</text>
</g>
<!-- governor&#45;&gt;treasury -->
<g id="edge1" class="edge">
<title>governor&#45;&gt;treasury</title>
<path fill="none" stroke="black" d="M139.21,-157.86C123.91,-152.76 108.67,-144.48 99.48,-131 86.53,-112 86.53,-98.25 99.48,-79.25 107.03,-68.18 118.66,-60.62 131.05,-55.44"/>
<polygon fill="black" stroke="black" points="131.89,-58.49 140.08,-51.78 129.49,-51.92 131.89,-58.49"/>
<text text-anchor="start" x="99.73" y="-117.7" font-family="Times,serif" font-size="14.00">1</text>
<text text-anchor="start" x="99.73" y="-100.45" font-family="Times,serif" font-size="14.00"> op::withdraw_surplus</text>
<text text-anchor="start" x="99.73" y="-83.2" font-family="Times,serif" font-size="14.00"> 0.10 TON</text>
</g>
<!-- treasury&#45;&gt;governor -->
<g id="edge2" class="edge">
<title>treasury&#45;&gt;governor</title>
<path fill="none" stroke="black" d="M228.72,-55.63C240.07,-60.91 251.13,-68.49 257.73,-79.25 269.77,-98.85 269.77,-111.4 257.73,-131 253.09,-138.57 246.24,-144.56 238.63,-149.29"/>
<polygon fill="black" stroke="black" points="237.56,-146.43 230.44,-154.28 240.9,-152.58 237.56,-146.43"/>
<text text-anchor="start" x="266.73" y="-117.7" font-family="Times,serif" font-size="14.00">2</text>
<text text-anchor="start" x="266.73" y="-100.45" font-family="Times,serif" font-size="14.00"> op::gas_excess</text>
<text text-anchor="start" x="266.73" y="-83.2" font-family="Times,serif" font-size="14.00"> 20.09 TON</text>
</g>
</g>
</svg>
