<?xml version="1.0" encoding="UTF-8" standalone="no"?>
<!DOCTYPE svg PUBLIC "-//W3C//DTD SVG 1.1//EN"
 "http://www.w3.org/Graphics/SVG/1.1/DTD/svg11.dtd">
<!-- Generated by graphviz version 8.0.5 (20230430.1635)
 -->
<!-- Pages: 1 -->
<svg width="422pt" height="193pt"
 viewBox="0.00 0.00 421.50 193.00" xmlns="http://www.w3.org/2000/svg" xmlns:xlink="http://www.w3.org/1999/xlink">
<g id="graph0" class="graph" transform="scale(1 1) rotate(0) translate(4 189)">
<polygon fill="white" stroke="none" points="-4,4 -4,-189 417.5,-189 417.5,4 -4,4"/>
<text text-anchor="middle" x="206.75" y="-7.95" font-family="Times,serif" font-size="14.00">the current governor upgrades the code of the treasury</text>
<!-- governor -->
<g id="node1" class="node">
<title>governor</title>
<ellipse fill="#b3cde3" stroke="#b3cde3" cx="162.5" cy="-167" rx="56.47" ry="18"/>
<text text-anchor="middle" x="162.5" y="-162.32" font-family="Times,serif" font-size="14.00">governor</text>
</g>
<!-- treasury -->
<g id="node2" class="node">
<title>treasury</title>
<ellipse fill="#decbe4" stroke="#decbe4" cx="162.5" cy="-43.25" rx="53.84" ry="18"/>
<text text-anchor="middle" x="162.5" y="-38.58" font-family="Times,serif" font-size="14.00">treasury</text>
</g>
<!-- governor&#45;&gt;treasury -->
<g id="edge1" class="edge">
<title>governor&#45;&gt;treasury</title>
<path fill="none" stroke="black" d="M118.88,-155.18C106.73,-149.94 94.9,-142.25 87.75,-131 75.41,-111.59 75.41,-98.66 87.75,-79.25 93.17,-70.73 101.28,-64.24 110.18,-59.32"/>
<polygon fill="black" stroke="black" points="111.56,-62.06 119.06,-54.57 108.53,-55.75 111.56,-62.06"/>
<text text-anchor="start" x="88.5" y="-117.7" font-family="Times,serif" font-size="14.00">1</text>
<text text-anchor="start" x="88.5" y="-100.45" font-family="Times,serif" font-size="14.00"> op::upgrade_code</text>
<text text-anchor="start" x="88.5" y="-83.2" font-family="Times,serif" font-size="14.00"> 0.10 TON</text>
</g>
<!-- treasury&#45;&gt;governor -->
<g id="edge2" class="edge">
<title>treasury&#45;&gt;governor</title>
<path fill="none" stroke="black" d="M195.42,-57.87C204.16,-63.19 212.55,-70.22 217.5,-79.25 228.57,-99.41 228.57,-110.84 217.5,-131 214.29,-136.86 209.63,-141.88 204.36,-146.13"/>
<polygon fill="black" stroke="black" points="202.89,-143.59 196.71,-152.2 206.9,-149.33 202.89,-143.59"/>
<text text-anchor="start" x="225.5" y="-117.7" font-family="Times,serif" font-size="14.00">2</text>
<text text-anchor="start" x="225.5" y="-100.45" font-family="Times,serif" font-size="14.00"> op::gas_excess</text>
<text text-anchor="start" x="225.5" y="-83.2" font-family="Times,serif" font-size="14.00"> 0.09 TON</text>
</g>
</g>
</svg>
