<?xml version="1.0" encoding="UTF-8" standalone="no"?>
<!DOCTYPE svg PUBLIC "-//W3C//DTD SVG 1.1//EN"
 "http://www.w3.org/Graphics/SVG/1.1/DTD/svg11.dtd">
<!-- Generated by graphviz version 8.0.5 (20230430.1635)
 -->
<!-- Pages: 1 -->
<svg width="352pt" height="193pt"
 viewBox="0.00 0.00 351.75 193.00" xmlns="http://www.w3.org/2000/svg" xmlns:xlink="http://www.w3.org/1999/xlink">
<g id="graph0" class="graph" transform="scale(1 1) rotate(0) translate(4 189)">
<polygon fill="white" stroke="none" points="-4,4 -4,-189 347.75,-189 347.75,4 -4,4"/>
<text text-anchor="middle" x="171.88" y="-7.95" font-family="Times,serif" font-size="14.00">staker withdraws surplus TON value of wallet</text>
<!-- staker -->
<g id="node1" class="node">
<title>staker</title>
<ellipse fill="#b3cde3" stroke="#b3cde3" cx="127.61" cy="-167" rx="42.79" ry="18"/>
<text text-anchor="middle" x="127.61" y="-162.32" font-family="Times,serif" font-size="14.00">staker</text>
</g>
<!-- wallet -->
<g id="node2" class="node">
<title>wallet</title>
<ellipse fill="#ccebc5" stroke="#ccebc5" cx="127.61" cy="-43.25" rx="41.74" ry="18"/>
<text text-anchor="middle" x="127.61" y="-38.58" font-family="Times,serif" font-size="14.00">wallet</text>
</g>
<!-- staker&#45;&gt;wallet -->
<g id="edge1" class="edge">
<title>staker&#45;&gt;wallet</title>
<path fill="none" stroke="black" d="M87.41,-160.6C69.25,-155.93 49.43,-147.23 38.36,-131 25.4,-112 25.4,-98.25 38.36,-79.25 47.5,-65.84 62.63,-57.57 77.85,-52.47"/>
<polygon fill="black" stroke="black" points="78.71,-55.57 87.33,-49.42 76.75,-48.85 78.71,-55.57"/>
<text text-anchor="start" x="38.61" y="-117.7" font-family="Times,serif" font-size="14.00">1</text>
<text text-anchor="start" x="38.61" y="-100.45" font-family="Times,serif" font-size="14.00"> op::withdraw_surplus</text>
<text text-anchor="start" x="38.61" y="-83.2" font-family="Times,serif" font-size="14.00"> 0.10 TON</text>
</g>
<!-- wallet&#45;&gt;staker -->
<g id="edge2" class="edge">
<title>wallet&#45;&gt;staker</title>
<path fill="none" stroke="black" d="M162.52,-53.42C175.55,-58.73 189.02,-66.89 196.61,-79.25 208.64,-98.85 208.64,-111.4 196.61,-131 191.08,-140.01 182.43,-146.78 173.11,-151.85"/>
<polygon fill="black" stroke="black" points="171.78,-149.08 164.24,-156.53 174.78,-155.4 171.78,-149.08"/>
<text text-anchor="start" x="205.61" y="-117.7" font-family="Times,serif" font-size="14.00">2</text>
<text text-anchor="start" x="205.61" y="-100.45" font-family="Times,serif" font-size="14.00"> op::gas_excess</text>
<text text-anchor="start" x="205.61" y="-83.2" font-family="Times,serif" font-size="14.00"> 0.14 TON</text>
</g>
</g>
</svg>
