<?xml version="1.0" encoding="UTF-8" standalone="no"?>
<!DOCTYPE svg PUBLIC "-//W3C//DTD SVG 1.1//EN"
 "http://www.w3.org/Graphics/SVG/1.1/DTD/svg11.dtd">
<!-- Generated by graphviz version 8.0.5 (20230430.1635)
 -->
<!-- Pages: 1 -->
<svg width="368pt" height="193pt"
 viewBox="0.00 0.00 368.30 193.00" xmlns="http://www.w3.org/2000/svg" xmlns:xlink="http://www.w3.org/1999/xlink">
<g id="graph0" class="graph" transform="scale(1 1) rotate(0) translate(4 189)">
<polygon fill="white" stroke="none" points="-4,4 -4,-189 364.3,-189 364.3,4 -4,4"/>
<text text-anchor="middle" x="180.15" y="-7.95" font-family="Times,serif" font-size="14.00">staker withdraws surplus of wallet</text>
<!-- external -->
<g id="node1" class="node">
<title>external</title>
<ellipse fill="black" stroke="black" cx="1.8" cy="-167" rx="1.8" ry="1.8"/>
</g>
<!-- staker -->
<g id="node2" class="node">
<title>staker</title>
<ellipse fill="#b3cde3" stroke="#b3cde3" cx="81.8" cy="-167" rx="42.79" ry="18"/>
<text text-anchor="middle" x="81.8" y="-162.32" font-family="Times,serif" font-size="14.00">staker</text>
</g>
<!-- external&#45;&gt;staker -->
<g id="edge2" class="edge">
<title>external&#45;&gt;staker</title>
<path fill="none" stroke="black" d="M3.78,-167C7.72,-167 17.11,-167 28.07,-167"/>
<polygon fill="black" stroke="black" points="27.93,-170.5 37.93,-167 27.93,-163.5 27.93,-170.5"/>
<text text-anchor="middle" x="21.3" y="-173.95" font-family="Times,serif" font-size="14.00">1</text>
</g>
<!-- wallet -->
<g id="node3" class="node">
<title>wallet</title>
<ellipse fill="#ccebc5" stroke="#ccebc5" cx="81.8" cy="-43.25" rx="41.74" ry="18"/>
<text text-anchor="middle" x="81.8" y="-38.58" font-family="Times,serif" font-size="14.00">wallet</text>
</g>
<!-- staker&#45;&gt;wallet -->
<g id="edge1" class="edge">
<title>staker&#45;&gt;wallet</title>
<path fill="none" stroke="black" stroke-dasharray="1,5" d="M70.53,-149.26C67.39,-143.69 64.4,-137.3 62.8,-131 57.14,-108.71 57.14,-101.54 62.8,-79.25 63.6,-76.1 64.75,-72.93 66.09,-69.85"/>
<polygon fill="black" stroke="black" points="73.43,-63.01 65.82,-70.38 67.17,-59.87 73.43,-63.01"/>
</g>
<!-- staker&#45;&gt;wallet -->
<g id="edge3" class="edge">
<title>staker&#45;&gt;wallet</title>
<path fill="none" stroke="black" d="M81.8,-148.56C81.8,-128.67 81.8,-95.87 81.8,-72.36"/>
<polygon fill="black" stroke="black" points="85.3,-72.66 81.8,-62.66 78.3,-72.66 85.3,-72.66"/>
<text text-anchor="start" x="81.8" y="-117.7" font-family="Times,serif" font-size="14.00">2</text>
<text text-anchor="start" x="81.8" y="-100.45" font-family="Times,serif" font-size="14.00"> op::withdraw_surplus</text>
<text text-anchor="start" x="81.8" y="-83.2" font-family="Times,serif" font-size="14.00"> 0.10 TON</text>
</g>
<!-- wallet&#45;&gt;staker -->
<g id="edge4" class="edge">
<title>wallet&#45;&gt;staker</title>
<path fill="none" stroke="black" d="M122.63,-47.52C164.74,-51.85 226.23,-61.13 240.8,-79.25 255.21,-97.18 255.21,-113.07 240.8,-131 227.55,-147.48 175.47,-156.65 134.48,-161.43"/>
<polygon fill="black" stroke="black" points="134.35,-158.03 124.79,-162.61 135.11,-164.99 134.35,-158.03"/>
<text text-anchor="start" x="250.8" y="-117.7" font-family="Times,serif" font-size="14.00">3</text>
<text text-anchor="start" x="250.8" y="-100.45" font-family="Times,serif" font-size="14.00"> op::gas_excess</text>
<text text-anchor="start" x="250.8" y="-83.2" font-family="Times,serif" font-size="14.00"> 0.14 TON</text>
</g>
</g>
</svg>
