<?xml version="1.0" encoding="UTF-8" standalone="no"?>
<!DOCTYPE svg PUBLIC "-//W3C//DTD SVG 1.1//EN"
 "http://www.w3.org/Graphics/SVG/1.1/DTD/svg11.dtd">
<!-- Generated by graphviz version 8.0.5 (20230430.1635)
 -->
<!-- Pages: 1 -->
<svg width="461pt" height="333pt"
 viewBox="0.00 0.00 460.50 332.50" xmlns="http://www.w3.org/2000/svg" xmlns:xlink="http://www.w3.org/1999/xlink">
<g id="graph0" class="graph" transform="scale(1 1) rotate(0) translate(4 328.5)">
<polygon fill="white" stroke="none" points="-4,4 -4,-328.5 456.5,-328.5 456.5,4 -4,4"/>
<text text-anchor="middle" x="226.25" y="-7.95" font-family="Times,serif" font-size="14.00">the current governor withdraws surplus TON value of parent</text>
<!-- governor -->
<g id="node1" class="node">
<title>governor</title>
<ellipse fill="#b3cde3" stroke="#b3cde3" cx="174.92" cy="-306.5" rx="56.47" ry="18"/>
<text text-anchor="middle" x="174.92" y="-301.82" font-family="Times,serif" font-size="14.00">governor</text>
</g>
<!-- treasury -->
<g id="node2" class="node">
<title>treasury</title>
<ellipse fill="#decbe4" stroke="#decbe4" cx="88.92" cy="-174.88" rx="53.84" ry="18"/>
<text text-anchor="middle" x="88.92" y="-170.2" font-family="Times,serif" font-size="14.00">treasury</text>
</g>
<!-- governor&#45;&gt;treasury -->
<g id="edge1" class="edge">
<title>governor&#45;&gt;treasury</title>
<path fill="none" stroke="black" d="M120.39,-301.2C100.08,-296.63 78.94,-287.7 66.42,-270.5 51.9,-250.56 61.28,-222.56 72.01,-202.2"/>
<polygon fill="black" stroke="black" points="75.4,-204.31 77.29,-193.88 69.31,-200.86 75.4,-204.31"/>
<text text-anchor="start" x="66.92" y="-257.2" font-family="Times,serif" font-size="14.00">1</text>
<text text-anchor="start" x="66.92" y="-239.95" font-family="Times,serif" font-size="14.00"> op::proxy_withdraw_surplus</text>
<text text-anchor="start" x="66.92" y="-222.7" font-family="Times,serif" font-size="14.00"> 0.10 TON</text>
</g>
<!-- parent -->
<g id="node3" class="node">
<title>parent</title>
<ellipse fill="#fed9a6" stroke="#fed9a6" cx="186.92" cy="-43.25" rx="44.37" ry="18"/>
<text text-anchor="middle" x="186.92" y="-38.58" font-family="Times,serif" font-size="14.00">parent</text>
</g>
<!-- treasury&#45;&gt;parent -->
<g id="edge2" class="edge">
<title>treasury&#45;&gt;parent</title>
<path fill="none" stroke="black" d="M89.2,-156.55C90.4,-135.93 95.28,-101.51 113.67,-79.25 120.95,-70.44 130.96,-63.7 141.25,-58.6"/>
<polygon fill="black" stroke="black" points="142.41,-61.47 150.12,-54.2 139.56,-55.08 142.41,-61.47"/>
<text text-anchor="start" x="113.92" y="-117.7" font-family="Times,serif" font-size="14.00">2</text>
<text text-anchor="start" x="113.92" y="-100.45" font-family="Times,serif" font-size="14.00"> op::withdraw_surplus</text>
<text text-anchor="start" x="113.92" y="-83.2" font-family="Times,serif" font-size="14.00"> 0.09 TON</text>
</g>
<!-- parent&#45;&gt;governor -->
<g id="edge3" class="edge">
<title>parent&#45;&gt;governor</title>
<path fill="none" stroke="black" d="M227.46,-50.79C244.15,-55.69 261.88,-64.27 271.92,-79.25 319.22,-149.88 320.77,-200.94 271.92,-270.5 263.47,-282.53 250.47,-290.44 236.71,-295.64"/>
<polygon fill="black" stroke="black" points="236,-292.51 227.6,-298.97 238.19,-299.16 236,-292.51"/>
<text text-anchor="start" x="307.92" y="-187.45" font-family="Times,serif" font-size="14.00">3</text>
<text text-anchor="start" x="307.92" y="-170.2" font-family="Times,serif" font-size="14.00"> op::gas_excess</text>
<text text-anchor="start" x="307.92" y="-152.95" font-family="Times,serif" font-size="14.00"> 20.08 TON</text>
</g>
</g>
</svg>
