<?xml version="1.0" encoding="UTF-8" standalone="no"?>
<!DOCTYPE svg PUBLIC "-//W3C//DTD SVG 1.1//EN"
 "http://www.w3.org/Graphics/SVG/1.1/DTD/svg11.dtd">
<!-- Generated by graphviz version 8.0.5 (20230430.1635)
 -->
<!-- Pages: 1 -->
<svg width="488pt" height="193pt"
 viewBox="0.00 0.00 487.50 193.00" xmlns="http://www.w3.org/2000/svg" xmlns:xlink="http://www.w3.org/1999/xlink">
<g id="graph0" class="graph" transform="scale(1 1) rotate(0) translate(4 189)">
<polygon fill="white" stroke="none" points="-4,4 -4,-189 483.5,-189 483.5,4 -4,4"/>
<text text-anchor="middle" x="239.75" y="-7.95" font-family="Times,serif" font-size="14.00">the current governor withdraws surplus GRAM value of treasury</text>
<!-- governor -->
<g id="node1" class="node">
<title>governor</title>
<ellipse fill="#b3cde3" stroke="#b3cde3" cx="195.48" cy="-167" rx="56.47" ry="18"/>
<text text-anchor="middle" x="195.48" y="-162.32" font-family="Times,serif" font-size="14.00">governor</text>
</g>
<!-- treasury -->
<g id="node2" class="node">
<title>treasury</title>
<ellipse fill="#decbe4" stroke="#decbe4" cx="195.48" cy="-43.25" rx="53.84" ry="18"/>
<text text-anchor="middle" x="195.48" y="-38.58" font-family="Times,serif" font-size="14.00">treasury</text>
</g>
<!-- governor&#45;&gt;treasury -->
<g id="edge1" class="edge">
<title>governor&#45;&gt;treasury</title>
<path fill="none" stroke="black" d="M145.96,-157.86C130.66,-152.76 115.42,-144.48 106.23,-131 93.28,-112 93.28,-98.25 106.23,-79.25 113.78,-68.18 125.41,-60.62 137.8,-55.44"/>
<polygon fill="black" stroke="black" points="138.64,-58.49 146.83,-51.78 136.24,-51.92 138.64,-58.49"/>
<text text-anchor="start" x="106.48" y="-117.7" font-family="Times,serif" font-size="14.00">1</text>
<text text-anchor="start" x="106.48" y="-100.45" font-family="Times,serif" font-size="14.00"> op::withdraw_surplus</text>
<text text-anchor="start" x="106.48" y="-83.2" font-family="Times,serif" font-size="14.00"> 0.10 GRAM</text>
</g>
<!-- treasury&#45;&gt;governor -->
<g id="edge2" class="edge">
<title>treasury&#45;&gt;governor</title>
<path fill="none" stroke="black" d="M235.47,-55.63C246.82,-60.91 257.88,-68.49 264.48,-79.25 276.52,-98.85 276.52,-111.4 264.48,-131 259.84,-138.57 252.99,-144.56 245.38,-149.29"/>
<polygon fill="black" stroke="black" points="244.31,-146.43 237.19,-154.28 247.65,-152.58 244.31,-146.43"/>
<text text-anchor="start" x="273.48" y="-117.7" font-family="Times,serif" font-size="14.00">2</text>
<text text-anchor="start" x="273.48" y="-100.45" font-family="Times,serif" font-size="14.00"> op::gas_excess</text>
<text text-anchor="start" x="273.48" y="-83.2" font-family="Times,serif" font-size="14.00"> 20.09 GRAM</text>
</g>
</g>
</svg>
