<?xml version="1.0" encoding="UTF-8" standalone="no"?>
<!DOCTYPE svg PUBLIC "-//W3C//DTD SVG 1.1//EN"
 "http://www.w3.org/Graphics/SVG/1.1/DTD/svg11.dtd">
<!-- Generated by graphviz version 8.0.5 (20230430.1635)
 -->
<!-- Pages: 1 -->
<svg width="395pt" height="193pt"
 viewBox="0.00 0.00 394.50 193.00" xmlns="http://www.w3.org/2000/svg" xmlns:xlink="http://www.w3.org/1999/xlink">
<g id="graph0" class="graph" transform="scale(1 1) rotate(0) translate(4 189)">
<polygon fill="white" stroke="none" points="-4,4 -4,-189 390.5,-189 390.5,4 -4,4"/>
<text text-anchor="middle" x="193.25" y="-7.95" font-family="Times,serif" font-size="14.00">the current governor withdraws surplus of treasury</text>
<!-- external -->
<g id="node1" class="node">
<title>external</title>
<ellipse fill="black" stroke="black" cx="54.98" cy="-167" rx="1.8" ry="1.8"/>
</g>
<!-- governor -->
<g id="node2" class="node">
<title>governor</title>
<ellipse fill="#b3cde3" stroke="#b3cde3" cx="148.98" cy="-167" rx="56.47" ry="18"/>
<text text-anchor="middle" x="148.98" y="-162.32" font-family="Times,serif" font-size="14.00">governor</text>
</g>
<!-- external&#45;&gt;governor -->
<g id="edge1" class="edge">
<title>external&#45;&gt;governor</title>
<path fill="none" stroke="black" d="M56.95,-167C60.86,-167 70.25,-167 81.61,-167"/>
<polygon fill="black" stroke="black" points="81.49,-170.5 91.49,-167 81.49,-163.5 81.49,-170.5"/>
<text text-anchor="middle" x="74.65" y="-173.95" font-family="Times,serif" font-size="14.00">1</text>
</g>
<!-- treasury -->
<g id="node3" class="node">
<title>treasury</title>
<ellipse fill="#decbe4" stroke="#decbe4" cx="148.98" cy="-43.25" rx="53.84" ry="18"/>
<text text-anchor="middle" x="148.98" y="-38.58" font-family="Times,serif" font-size="14.00">treasury</text>
</g>
<!-- governor&#45;&gt;treasury -->
<g id="edge2" class="edge">
<title>governor&#45;&gt;treasury</title>
<path fill="none" stroke="black" d="M99.46,-157.86C84.16,-152.76 68.92,-144.48 59.73,-131 46.78,-112 46.78,-98.25 59.73,-79.25 67.28,-68.18 78.91,-60.62 91.3,-55.44"/>
<polygon fill="black" stroke="black" points="92.14,-58.49 100.33,-51.78 89.74,-51.92 92.14,-58.49"/>
<text text-anchor="start" x="59.98" y="-117.7" font-family="Times,serif" font-size="14.00">2</text>
<text text-anchor="start" x="59.98" y="-100.45" font-family="Times,serif" font-size="14.00"> op::withdraw_surplus</text>
<text text-anchor="start" x="59.98" y="-83.2" font-family="Times,serif" font-size="14.00"> 0.10 TON</text>
</g>
<!-- treasury&#45;&gt;governor -->
<g id="edge3" class="edge">
<title>treasury&#45;&gt;governor</title>
<path fill="none" stroke="black" d="M188.97,-55.63C200.32,-60.91 211.38,-68.49 217.98,-79.25 230.02,-98.85 230.02,-111.4 217.98,-131 213.34,-138.57 206.49,-144.56 198.88,-149.29"/>
<polygon fill="black" stroke="black" points="197.81,-146.43 190.69,-154.28 201.15,-152.58 197.81,-146.43"/>
<text text-anchor="start" x="226.98" y="-117.7" font-family="Times,serif" font-size="14.00">3</text>
<text text-anchor="start" x="226.98" y="-100.45" font-family="Times,serif" font-size="14.00"> op::gas_excess</text>
<text text-anchor="start" x="226.98" y="-83.2" font-family="Times,serif" font-size="14.00"> 20.09 TON</text>
</g>
</g>
</svg>
