<?xml version="1.0" encoding="UTF-8" standalone="no"?>
<!DOCTYPE svg PUBLIC "-//W3C//DTD SVG 1.1//EN"
 "http://www.w3.org/Graphics/SVG/1.1/DTD/svg11.dtd">
<!-- Generated by graphviz version 8.0.5 (20230430.1635)
 -->
<!-- Pages: 1 -->
<svg width="408pt" height="333pt"
 viewBox="0.00 0.00 408.00 332.50" xmlns="http://www.w3.org/2000/svg" xmlns:xlink="http://www.w3.org/1999/xlink">
<g id="graph0" class="graph" transform="scale(1 1) rotate(0) translate(4 328.5)">
<polygon fill="white" stroke="none" points="-4,4 -4,-328.5 404,-328.5 404,4 -4,4"/>
<text text-anchor="middle" x="200" y="-7.95" font-family="Times,serif" font-size="14.00">the current governor upgrades the code of the parent</text>
<!-- governor -->
<g id="node1" class="node">
<title>governor</title>
<ellipse fill="#b3cde3" stroke="#b3cde3" cx="150.67" cy="-306.5" rx="56.47" ry="18"/>
<text text-anchor="middle" x="150.67" y="-301.82" font-family="Times,serif" font-size="14.00">governor</text>
</g>
<!-- treasury -->
<g id="node2" class="node">
<title>treasury</title>
<ellipse fill="#decbe4" stroke="#decbe4" cx="77.67" cy="-174.88" rx="53.84" ry="18"/>
<text text-anchor="middle" x="77.67" y="-170.2" font-family="Times,serif" font-size="14.00">treasury</text>
</g>
<!-- governor&#45;&gt;treasury -->
<g id="edge1" class="edge">
<title>governor&#45;&gt;treasury</title>
<path fill="none" stroke="black" d="M99.53,-298.56C82.75,-293.58 65.82,-285.06 55.67,-270.5 41.64,-250.38 50.65,-222.58 61.05,-202.32"/>
<polygon fill="black" stroke="black" points="64.56,-204.22 66.34,-193.77 58.43,-200.83 64.56,-204.22"/>
<text text-anchor="start" x="55.67" y="-257.2" font-family="Times,serif" font-size="14.00">1</text>
<text text-anchor="start" x="55.67" y="-239.95" font-family="Times,serif" font-size="14.00"> op::proxy_upgrade_code</text>
<text text-anchor="start" x="55.67" y="-222.7" font-family="Times,serif" font-size="14.00"> 0.10 TON</text>
</g>
<!-- parent -->
<g id="node3" class="node">
<title>parent</title>
<ellipse fill="#fed9a6" stroke="#fed9a6" cx="161.67" cy="-43.25" rx="44.37" ry="18"/>
<text text-anchor="middle" x="161.67" y="-38.58" font-family="Times,serif" font-size="14.00">parent</text>
</g>
<!-- treasury&#45;&gt;parent -->
<g id="edge2" class="edge">
<title>treasury&#45;&gt;parent</title>
<path fill="none" stroke="black" d="M78.43,-156.46C80.14,-136.07 85.59,-102.17 102.92,-79.25 108,-72.52 114.79,-66.84 121.94,-62.13"/>
<polygon fill="black" stroke="black" points="123.28,-64.8 130.09,-56.68 119.7,-58.79 123.28,-64.8"/>
<text text-anchor="start" x="103.67" y="-117.7" font-family="Times,serif" font-size="14.00">2</text>
<text text-anchor="start" x="103.67" y="-100.45" font-family="Times,serif" font-size="14.00"> op::upgrade_code</text>
<text text-anchor="start" x="103.67" y="-83.2" font-family="Times,serif" font-size="14.00"> 0.09 TON</text>
</g>
<!-- parent&#45;&gt;governor -->
<g id="edge3" class="edge">
<title>parent&#45;&gt;governor</title>
<path fill="none" stroke="black" d="M198.68,-53.63C211.73,-58.91 225.05,-67 232.67,-79.25 277.56,-151.43 279.51,-199.57 232.67,-270.5 226.46,-279.9 217.16,-286.78 207.03,-291.82"/>
<polygon fill="black" stroke="black" points="205.91,-288.92 198.13,-296.1 208.69,-295.34 205.91,-288.92"/>
<text text-anchor="start" x="266.67" y="-187.45" font-family="Times,serif" font-size="14.00">3</text>
<text text-anchor="start" x="266.67" y="-170.2" font-family="Times,serif" font-size="14.00"> op::gas_excess</text>
<text text-anchor="start" x="266.67" y="-152.95" font-family="Times,serif" font-size="14.00"> 0.09 TON</text>
</g>
</g>
</svg>
