<?xml version="1.0" encoding="UTF-8" standalone="no"?>
<!DOCTYPE svg PUBLIC "-//W3C//DTD SVG 1.1//EN"
 "http://www.w3.org/Graphics/SVG/1.1/DTD/svg11.dtd">
<!-- Generated by graphviz version 8.0.5 (20230430.1635)
 -->
<!-- Pages: 1 -->
<svg width="365pt" height="193pt"
 viewBox="0.00 0.00 364.55 193.00" xmlns="http://www.w3.org/2000/svg" xmlns:xlink="http://www.w3.org/1999/xlink">
<g id="graph0" class="graph" transform="scale(1 1) rotate(0) translate(4 189)">
<polygon fill="white" stroke="none" points="-4,4 -4,-189 360.55,-189 360.55,4 -4,4"/>
<text text-anchor="middle" x="178.28" y="-7.95" font-family="Times,serif" font-size="14.00">the current halter sends any message to a loan</text>
<!-- external -->
<g id="node1" class="node">
<title>external</title>
<ellipse fill="black" stroke="black" cx="1.8" cy="-167" rx="1.8" ry="1.8"/>
</g>
<!-- halter -->
<g id="node2" class="node">
<title>halter</title>
<ellipse fill="#b3cde3" stroke="#b3cde3" cx="80.8" cy="-167" rx="41.21" ry="18"/>
<text text-anchor="middle" x="80.8" y="-162.32" font-family="Times,serif" font-size="14.00">halter</text>
</g>
<!-- external&#45;&gt;halter -->
<g id="edge1" class="edge">
<title>external&#45;&gt;halter</title>
<path fill="none" stroke="black" d="M4.08,-167C8.26,-167 17.73,-167 28.64,-167"/>
<polygon fill="black" stroke="black" points="28.42,-170.5 38.42,-167 28.42,-163.5 28.42,-170.5"/>
<text text-anchor="middle" x="21.59" y="-173.95" font-family="Times,serif" font-size="14.00">1</text>
</g>
<!-- treasury -->
<g id="node3" class="node">
<title>treasury</title>
<ellipse fill="#decbe4" stroke="#decbe4" cx="187.8" cy="-43.25" rx="53.84" ry="18"/>
<text text-anchor="middle" x="187.8" y="-38.58" font-family="Times,serif" font-size="14.00">treasury</text>
</g>
<!-- halter&#45;&gt;treasury -->
<g id="edge2" class="edge">
<title>halter&#45;&gt;treasury</title>
<path fill="none" stroke="black" d="M75.55,-148.86C70.87,-129.92 66.81,-99.44 81.55,-79.25 91.98,-64.96 108.44,-56.41 125.32,-51.32"/>
<polygon fill="black" stroke="black" points="126.04,-54.49 134.83,-48.58 124.27,-47.72 126.04,-54.49"/>
<text text-anchor="start" x="80.8" y="-117.7" font-family="Times,serif" font-size="14.00">2</text>
<text text-anchor="start" x="80.8" y="-100.45" font-family="Times,serif" font-size="14.00"> op::send_message_to_loan</text>
<text text-anchor="start" x="80.8" y="-83.2" font-family="Times,serif" font-size="14.00"> 0.10 TON</text>
</g>
<!-- loan -->
<g id="node4" class="node">
<title>loan</title>
<ellipse fill="#fed9a6" stroke="#fed9a6" cx="294.8" cy="-167" rx="32.27" ry="18"/>
<text text-anchor="middle" x="294.8" y="-162.32" font-family="Times,serif" font-size="14.00">loan</text>
</g>
<!-- treasury&#45;&gt;loan -->
<g id="edge3" class="edge">
<title>treasury&#45;&gt;loan</title>
<path fill="none" stroke="black" d="M231.94,-53.81C246.78,-59.05 262.24,-67.07 272.8,-79.25 286.79,-95.39 292.1,-119.21 294.02,-137.81"/>
<polygon fill="black" stroke="black" points="290.59,-137.89 294.82,-147.6 297.57,-137.37 290.59,-137.89"/>
<text text-anchor="start" x="292.8" y="-109.08" font-family="Times,serif" font-size="14.00">3</text>
<text text-anchor="start" x="292.8" y="-91.83" font-family="Times,serif" font-size="14.00"> 0.9 TON</text>
</g>
</g>
</svg>
