<?xml version="1.0" encoding="UTF-8" standalone="no"?>
<!DOCTYPE svg PUBLIC "-//W3C//DTD SVG 1.1//EN"
 "http://www.w3.org/Graphics/SVG/1.1/DTD/svg11.dtd">
<!-- Generated by graphviz version 8.0.5 (20230430.1635)
 -->
<!-- Pages: 1 -->
<svg width="475pt" height="333pt"
 viewBox="0.00 0.00 474.75 332.50" xmlns="http://www.w3.org/2000/svg" xmlns:xlink="http://www.w3.org/1999/xlink">
<g id="graph0" class="graph" transform="scale(1 1) rotate(0) translate(4 328.5)">
<polygon fill="white" stroke="none" points="-4,4 -4,-328.5 470.75,-328.5 470.75,4 -4,4"/>
<text text-anchor="middle" x="233.38" y="-7.95" font-family="Times,serif" font-size="14.00">the current governor withdraws surplus TON value of librarian</text>
<!-- governor -->
<g id="node1" class="node">
<title>governor</title>
<ellipse fill="#b3cde3" stroke="#b3cde3" cx="182.04" cy="-306.5" rx="56.47" ry="18"/>
<text text-anchor="middle" x="182.04" y="-301.82" font-family="Times,serif" font-size="14.00">governor</text>
</g>
<!-- treasury -->
<g id="node2" class="node">
<title>treasury</title>
<ellipse fill="#decbe4" stroke="#decbe4" cx="96.04" cy="-174.88" rx="53.84" ry="18"/>
<text text-anchor="middle" x="96.04" y="-170.2" font-family="Times,serif" font-size="14.00">treasury</text>
</g>
<!-- governor&#45;&gt;treasury -->
<g id="edge1" class="edge">
<title>governor&#45;&gt;treasury</title>
<path fill="none" stroke="black" d="M127.52,-301.2C107.21,-296.63 86.07,-287.7 73.54,-270.5 59.02,-250.56 68.4,-222.56 79.13,-202.2"/>
<polygon fill="black" stroke="black" points="82.53,-204.31 84.41,-193.88 76.44,-200.86 82.53,-204.31"/>
<text text-anchor="start" x="74.04" y="-257.2" font-family="Times,serif" font-size="14.00">1</text>
<text text-anchor="start" x="74.04" y="-239.95" font-family="Times,serif" font-size="14.00"> op::proxy_withdraw_surplus</text>
<text text-anchor="start" x="74.04" y="-222.7" font-family="Times,serif" font-size="14.00"> 0.10 TON</text>
</g>
<!-- librarian -->
<g id="node3" class="node">
<title>librarian</title>
<ellipse fill="#ffffcc" stroke="#ffffcc" cx="194.04" cy="-43.25" rx="54.36" ry="18"/>
<text text-anchor="middle" x="194.04" y="-38.58" font-family="Times,serif" font-size="14.00">librarian</text>
</g>
<!-- treasury&#45;&gt;librarian -->
<g id="edge2" class="edge">
<title>treasury&#45;&gt;librarian</title>
<path fill="none" stroke="black" d="M96.32,-156.55C97.53,-135.93 102.41,-101.51 120.79,-79.25 127.19,-71.51 135.7,-65.37 144.65,-60.53"/>
<polygon fill="black" stroke="black" points="145.97,-63.29 153.45,-55.79 142.92,-56.99 145.97,-63.29"/>
<text text-anchor="start" x="121.04" y="-117.7" font-family="Times,serif" font-size="14.00">2</text>
<text text-anchor="start" x="121.04" y="-100.45" font-family="Times,serif" font-size="14.00"> op::withdraw_surplus</text>
<text text-anchor="start" x="121.04" y="-83.2" font-family="Times,serif" font-size="14.00"> 0.09 TON</text>
</g>
<!-- librarian&#45;&gt;governor -->
<g id="edge3" class="edge">
<title>librarian&#45;&gt;governor</title>
<path fill="none" stroke="black" d="M240.82,-52.78C255.55,-57.91 270.25,-66.12 279.04,-79.25 326.34,-149.88 327.9,-200.94 279.04,-270.5 270.6,-282.53 257.6,-290.44 243.83,-295.64"/>
<polygon fill="black" stroke="black" points="243.13,-292.51 234.72,-298.97 245.32,-299.16 243.13,-292.51"/>
<text text-anchor="start" x="315.04" y="-187.45" font-family="Times,serif" font-size="14.00">3</text>
<text text-anchor="start" x="315.04" y="-170.2" font-family="Times,serif" font-size="14.00"> op::gas_excess</text>
<text text-anchor="start" x="315.04" y="-152.95" font-family="Times,serif" font-size="14.00"> 20.08 TON</text>
</g>
</g>
</svg>
