<?xml version="1.0" encoding="UTF-8" standalone="no"?>
<!DOCTYPE svg PUBLIC "-//W3C//DTD SVG 1.1//EN"
 "http://www.w3.org/Graphics/SVG/1.1/DTD/svg11.dtd">
<!-- Generated by graphviz version 8.0.5 (20230430.1635)
 -->
<!-- Pages: 1 -->
<svg width="474pt" height="333pt"
 viewBox="0.00 0.00 474.00 332.50" xmlns="http://www.w3.org/2000/svg" xmlns:xlink="http://www.w3.org/1999/xlink">
<g id="graph0" class="graph" transform="scale(1 1) rotate(0) translate(4 328.5)">
<polygon fill="white" stroke="none" points="-4,4 -4,-328.5 470,-328.5 470,4 -4,4"/>
<text text-anchor="middle" x="233" y="-7.95" font-family="Times,serif" font-size="14.00">the current governor withdraws surplus GRAM value of parent</text>
<!-- governor -->
<g id="node1" class="node">
<title>governor</title>
<ellipse fill="#b3cde3" stroke="#b3cde3" cx="181.67" cy="-306.5" rx="56.47" ry="18"/>
<text text-anchor="middle" x="181.67" y="-301.82" font-family="Times,serif" font-size="14.00">governor</text>
</g>
<!-- treasury -->
<g id="node2" class="node">
<title>treasury</title>
<ellipse fill="#decbe4" stroke="#decbe4" cx="95.67" cy="-174.88" rx="53.84" ry="18"/>
<text text-anchor="middle" x="95.67" y="-170.2" font-family="Times,serif" font-size="14.00">treasury</text>
</g>
<!-- governor&#45;&gt;treasury -->
<g id="edge1" class="edge">
<title>governor&#45;&gt;treasury</title>
<path fill="none" stroke="black" d="M127.14,-301.2C106.83,-296.63 85.69,-287.7 73.17,-270.5 58.65,-250.56 68.03,-222.56 78.76,-202.2"/>
<polygon fill="black" stroke="black" points="82.15,-204.31 84.04,-193.88 76.06,-200.86 82.15,-204.31"/>
<text text-anchor="start" x="73.67" y="-257.2" font-family="Times,serif" font-size="14.00">1</text>
<text text-anchor="start" x="73.67" y="-239.95" font-family="Times,serif" font-size="14.00"> op::proxy_withdraw_surplus</text>
<text text-anchor="start" x="73.67" y="-222.7" font-family="Times,serif" font-size="14.00"> 0.10 GRAM</text>
</g>
<!-- parent -->
<g id="node3" class="node">
<title>parent</title>
<ellipse fill="#fed9a6" stroke="#fed9a6" cx="193.67" cy="-43.25" rx="44.37" ry="18"/>
<text text-anchor="middle" x="193.67" y="-38.58" font-family="Times,serif" font-size="14.00">parent</text>
</g>
<!-- treasury&#45;&gt;parent -->
<g id="edge2" class="edge">
<title>treasury&#45;&gt;parent</title>
<path fill="none" stroke="black" d="M95.95,-156.55C97.15,-135.93 102.03,-101.51 120.42,-79.25 127.7,-70.44 137.71,-63.7 148,-58.6"/>
<polygon fill="black" stroke="black" points="149.16,-61.47 156.87,-54.2 146.31,-55.08 149.16,-61.47"/>
<text text-anchor="start" x="120.67" y="-117.7" font-family="Times,serif" font-size="14.00">2</text>
<text text-anchor="start" x="120.67" y="-100.45" font-family="Times,serif" font-size="14.00"> op::withdraw_surplus</text>
<text text-anchor="start" x="120.67" y="-83.2" font-family="Times,serif" font-size="14.00"> 0.09 GRAM</text>
</g>
<!-- parent&#45;&gt;governor -->
<g id="edge3" class="edge">
<title>parent&#45;&gt;governor</title>
<path fill="none" stroke="black" d="M234.21,-50.79C250.9,-55.69 268.63,-64.27 278.67,-79.25 325.97,-149.88 327.52,-200.94 278.67,-270.5 270.22,-282.53 257.22,-290.44 243.46,-295.64"/>
<polygon fill="black" stroke="black" points="242.75,-292.51 234.35,-298.97 244.94,-299.16 242.75,-292.51"/>
<text text-anchor="start" x="314.67" y="-187.45" font-family="Times,serif" font-size="14.00">3</text>
<text text-anchor="start" x="314.67" y="-170.2" font-family="Times,serif" font-size="14.00"> op::gas_excess</text>
<text text-anchor="start" x="314.67" y="-152.95" font-family="Times,serif" font-size="14.00"> 20.08 GRAM</text>
</g>
</g>
</svg>
