<?xml version="1.0" encoding="UTF-8" standalone="no"?>
<!DOCTYPE svg PUBLIC "-//W3C//DTD SVG 1.1//EN"
 "http://www.w3.org/Graphics/SVG/1.1/DTD/svg11.dtd">
<!-- Generated by graphviz version 8.0.5 (20230430.1635)
 -->
<!-- Pages: 1 -->
<svg width="359pt" height="209pt"
 viewBox="0.00 0.00 358.50 208.75" xmlns="http://www.w3.org/2000/svg" xmlns:xlink="http://www.w3.org/1999/xlink">
<g id="graph0" class="graph" transform="scale(1 1) rotate(0) translate(4 204.75)">
<polygon fill="white" stroke="none" points="-4,4 -4,-204.75 354.5,-204.75 354.5,4 -4,4"/>
<text text-anchor="middle" x="175.25" y="-7.95" font-family="Times,serif" font-size="14.00">the current halter sends process&#45;loan&#45;requests</text>
<!-- external -->
<g id="node1" class="node">
<title>external</title>
<ellipse fill="black" stroke="black" cx="5.11" cy="-182.75" rx="1.8" ry="1.8"/>
</g>
<!-- halter -->
<g id="node2" class="node">
<title>halter</title>
<ellipse fill="#b3cde3" stroke="#b3cde3" cx="84.11" cy="-182.75" rx="41.21" ry="18"/>
<text text-anchor="middle" x="84.11" y="-178.07" font-family="Times,serif" font-size="14.00">halter</text>
</g>
<!-- external&#45;&gt;halter -->
<g id="edge1" class="edge">
<title>external&#45;&gt;halter</title>
<path fill="none" stroke="black" d="M7.38,-182.75C11.56,-182.75 21.03,-182.75 31.95,-182.75"/>
<polygon fill="black" stroke="black" points="31.72,-186.25 41.72,-182.75 31.72,-179.25 31.72,-186.25"/>
<text text-anchor="middle" x="24.9" y="-189.7" font-family="Times,serif" font-size="14.00">1</text>
</g>
<!-- treasury -->
<g id="node3" class="node">
<title>treasury</title>
<ellipse fill="#decbe4" stroke="#decbe4" cx="84.11" cy="-51.12" rx="53.84" ry="18"/>
<text text-anchor="middle" x="84.11" y="-46.45" font-family="Times,serif" font-size="14.00">treasury</text>
</g>
<!-- halter&#45;&gt;treasury -->
<g id="edge2" class="edge">
<title>halter&#45;&gt;treasury</title>
<path fill="none" stroke="black" d="M84.11,-164.27C84.11,-142.69 84.11,-105.74 84.11,-80.18"/>
<polygon fill="black" stroke="black" points="87.61,-80.33 84.11,-70.33 80.61,-80.33 87.61,-80.33"/>
<text text-anchor="start" x="84.11" y="-133.45" font-family="Times,serif" font-size="14.00">2</text>
<text text-anchor="start" x="84.11" y="-116.2" font-family="Times,serif" font-size="14.00"> op::send_process_loan_requests</text>
<text text-anchor="start" x="84.11" y="-98.95" font-family="Times,serif" font-size="14.00"> 0.10 TON</text>
</g>
<!-- treasury&#45;&gt;treasury -->
<g id="edge3" class="edge">
<title>treasury&#45;&gt;treasury</title>
<path fill="none" stroke="black" d="M122.9,-63.97C140.58,-65.28 155.94,-61 155.94,-51.12 155.94,-43.33 146.38,-39.02 133.66,-38.19"/>
<polygon fill="black" stroke="black" points="133.88,-34.7 123.9,-38.28 133.93,-41.7 133.88,-34.7"/>
<text text-anchor="start" x="155.94" y="-63.7" font-family="Times,serif" font-size="14.00">3</text>
<text text-anchor="start" x="155.94" y="-46.45" font-family="Times,serif" font-size="14.00"> op::process_loan_requests</text>
<text text-anchor="start" x="155.94" y="-29.2" font-family="Times,serif" font-size="14.00"> 0.9 TON</text>
</g>
</g>
</svg>
