<?xml version="1.0" encoding="UTF-8" standalone="no"?>
<!DOCTYPE svg PUBLIC "-//W3C//DTD SVG 1.1//EN"
 "http://www.w3.org/Graphics/SVG/1.1/DTD/svg11.dtd">
<!-- Generated by graphviz version 8.0.5 (20230430.1635)
 -->
<!-- Pages: 1 -->
<svg width="488pt" height="333pt"
 viewBox="0.00 0.00 488.25 332.50" xmlns="http://www.w3.org/2000/svg" xmlns:xlink="http://www.w3.org/1999/xlink">
<g id="graph0" class="graph" transform="scale(1 1) rotate(0) translate(4 328.5)">
<polygon fill="white" stroke="none" points="-4,4 -4,-328.5 484.25,-328.5 484.25,4 -4,4"/>
<text text-anchor="middle" x="240.12" y="-7.95" font-family="Times,serif" font-size="14.00">the current governor withdraws surplus GRAM value of librarian</text>
<!-- governor -->
<g id="node1" class="node">
<title>governor</title>
<ellipse fill="#b3cde3" stroke="#b3cde3" cx="188.79" cy="-306.5" rx="56.47" ry="18"/>
<text text-anchor="middle" x="188.79" y="-301.82" font-family="Times,serif" font-size="14.00">governor</text>
</g>
<!-- treasury -->
<g id="node2" class="node">
<title>treasury</title>
<ellipse fill="#decbe4" stroke="#decbe4" cx="102.79" cy="-174.88" rx="53.84" ry="18"/>
<text text-anchor="middle" x="102.79" y="-170.2" font-family="Times,serif" font-size="14.00">treasury</text>
</g>
<!-- governor&#45;&gt;treasury -->
<g id="edge1" class="edge">
<title>governor&#45;&gt;treasury</title>
<path fill="none" stroke="black" d="M134.27,-301.2C113.96,-296.63 92.82,-287.7 80.29,-270.5 65.77,-250.56 75.15,-222.56 85.88,-202.2"/>
<polygon fill="black" stroke="black" points="89.28,-204.31 91.16,-193.88 83.19,-200.86 89.28,-204.31"/>
<text text-anchor="start" x="80.79" y="-257.2" font-family="Times,serif" font-size="14.00">1</text>
<text text-anchor="start" x="80.79" y="-239.95" font-family="Times,serif" font-size="14.00"> op::proxy_withdraw_surplus</text>
<text text-anchor="start" x="80.79" y="-222.7" font-family="Times,serif" font-size="14.00"> 0.10 GRAM</text>
</g>
<!-- librarian -->
<g id="node3" class="node">
<title>librarian</title>
<ellipse fill="#ffffcc" stroke="#ffffcc" cx="200.79" cy="-43.25" rx="54.36" ry="18"/>
<text text-anchor="middle" x="200.79" y="-38.58" font-family="Times,serif" font-size="14.00">librarian</text>
</g>
<!-- treasury&#45;&gt;librarian -->
<g id="edge2" class="edge">
<title>treasury&#45;&gt;librarian</title>
<path fill="none" stroke="black" d="M103.07,-156.55C104.28,-135.93 109.16,-101.51 127.54,-79.25 133.94,-71.51 142.45,-65.37 151.4,-60.53"/>
<polygon fill="black" stroke="black" points="152.72,-63.29 160.2,-55.79 149.67,-56.99 152.72,-63.29"/>
<text text-anchor="start" x="127.79" y="-117.7" font-family="Times,serif" font-size="14.00">2</text>
<text text-anchor="start" x="127.79" y="-100.45" font-family="Times,serif" font-size="14.00"> op::withdraw_surplus</text>
<text text-anchor="start" x="127.79" y="-83.2" font-family="Times,serif" font-size="14.00"> 0.09 GRAM</text>
</g>
<!-- librarian&#45;&gt;governor -->
<g id="edge3" class="edge">
<title>librarian&#45;&gt;governor</title>
<path fill="none" stroke="black" d="M247.57,-52.78C262.3,-57.91 277,-66.12 285.79,-79.25 333.09,-149.88 334.65,-200.94 285.79,-270.5 277.35,-282.53 264.35,-290.44 250.58,-295.64"/>
<polygon fill="black" stroke="black" points="249.88,-292.51 241.47,-298.97 252.07,-299.16 249.88,-292.51"/>
<text text-anchor="start" x="321.79" y="-187.45" font-family="Times,serif" font-size="14.00">3</text>
<text text-anchor="start" x="321.79" y="-170.2" font-family="Times,serif" font-size="14.00"> op::gas_excess</text>
<text text-anchor="start" x="321.79" y="-152.95" font-family="Times,serif" font-size="14.00"> 20.08 GRAM</text>
</g>
</g>
</svg>
