<?xml version="1.0" encoding="UTF-8" standalone="no"?>
<!DOCTYPE svg PUBLIC "-//W3C//DTD SVG 1.1//EN"
 "http://www.w3.org/Graphics/SVG/1.1/DTD/svg11.dtd">
<!-- Generated by graphviz version 8.0.5 (20230430.1635)
 -->
<!-- Pages: 1 -->
<svg width="431pt" height="441pt"
 viewBox="0.00 0.00 431.20 440.50" xmlns="http://www.w3.org/2000/svg" xmlns:xlink="http://www.w3.org/1999/xlink">
<g id="graph0" class="graph" transform="scale(1 1) rotate(0) translate(4 436.5)">
<polygon fill="white" stroke="none" points="-4,4 -4,-436.5 427.2,-436.5 427.2,4 -4,4"/>
<text text-anchor="middle" x="211.6" y="-7.95" font-family="Times,serif" font-size="14.00">an staker upgrades their wallet to the new jetton parent</text>
<!-- staker -->
<g id="node1" class="node">
<title>staker</title>
<ellipse fill="#b3cde3" stroke="#b3cde3" cx="163.2" cy="-414.5" rx="42.79" ry="18"/>
<text text-anchor="middle" x="163.2" y="-409.82" font-family="Times,serif" font-size="14.00">staker</text>
</g>
<!-- wallet_v1 -->
<g id="node2" class="node">
<title>wallet_v1</title>
<ellipse fill="#ccebc5" stroke="#ccebc5" cx="71.2" cy="-290.75" rx="58.57" ry="18"/>
<text text-anchor="middle" x="71.2" y="-286.07" font-family="Times,serif" font-size="14.00">wallet_v1</text>
</g>
<!-- staker&#45;&gt;wallet_v1 -->
<g id="edge1" class="edge">
<title>staker&#45;&gt;wallet_v1</title>
<path fill="none" stroke="black" d="M125.22,-405.93C109.42,-400.83 92.37,-392.38 81.95,-378.5 69.49,-361.89 67.28,-338.26 67.92,-319.85"/>
<polygon fill="black" stroke="black" points="71.48,-320.12 68.65,-309.91 64.49,-319.65 71.48,-320.12"/>
<text text-anchor="start" x="82.2" y="-365.2" font-family="Times,serif" font-size="14.00">1</text>
<text text-anchor="start" x="82.2" y="-347.95" font-family="Times,serif" font-size="14.00"> op::upgrade_wallet</text>
<text text-anchor="start" x="82.2" y="-330.7" font-family="Times,serif" font-size="14.00"> 0.10 TON</text>
</g>
<!-- parent_v1 -->
<g id="node5" class="node">
<title>parent_v1</title>
<ellipse fill="#fed9a6" stroke="#fed9a6" cx="61.2" cy="-167" rx="61.2" ry="18"/>
<text text-anchor="middle" x="61.2" y="-162.32" font-family="Times,serif" font-size="14.00">parent_v1</text>
</g>
<!-- wallet_v1&#45;&gt;parent_v1 -->
<g id="edge2" class="edge">
<title>wallet_v1&#45;&gt;parent_v1</title>
<path fill="none" stroke="black" d="M68.1,-272.35C67.2,-266.75 66.3,-260.5 65.7,-254.75 63.67,-235.25 62.54,-213.18 61.92,-196.19"/>
<polygon fill="black" stroke="black" points="65.39,-196.2 61.57,-186.32 58.4,-196.43 65.39,-196.2"/>
<text text-anchor="start" x="66.2" y="-241.45" font-family="Times,serif" font-size="14.00">2</text>
<text text-anchor="start" x="66.2" y="-224.2" font-family="Times,serif" font-size="14.00"> op::proxy_migrate_wallet</text>
<text text-anchor="start" x="66.2" y="-206.95" font-family="Times,serif" font-size="14.00"> 0.09 TON</text>
</g>
<!-- wallet_v2 -->
<g id="node3" class="node">
<title>wallet_v2</title>
<ellipse fill="#ccebc5" stroke="#ccebc5" cx="254.2" cy="-290.75" rx="58.57" ry="18"/>
<text text-anchor="middle" x="254.2" y="-286.07" font-family="Times,serif" font-size="14.00">wallet_v2</text>
</g>
<!-- wallet_v2&#45;&gt;staker -->
<g id="edge6" class="edge">
<title>wallet_v2&#45;&gt;staker</title>
<path fill="none" stroke="black" d="M252.39,-309.19C249.62,-328.12 242.78,-358.33 226.2,-378.5 220.21,-385.79 212.27,-391.83 204.06,-396.72"/>
<polygon fill="black" stroke="black" points="202.54,-394.1 195.4,-401.93 205.86,-400.26 202.54,-394.1"/>
<text text-anchor="start" x="249.2" y="-365.2" font-family="Times,serif" font-size="14.00">6</text>
<text text-anchor="start" x="249.2" y="-347.95" font-family="Times,serif" font-size="14.00"> op::gas_excess</text>
<text text-anchor="start" x="249.2" y="-330.7" font-family="Times,serif" font-size="14.00"> 0.05 TON</text>
</g>
<!-- treasury -->
<g id="node4" class="node">
<title>treasury</title>
<ellipse fill="#decbe4" stroke="#decbe4" cx="165.2" cy="-43.25" rx="53.84" ry="18"/>
<text text-anchor="middle" x="165.2" y="-38.58" font-family="Times,serif" font-size="14.00">treasury</text>
</g>
<!-- parent_v2 -->
<g id="node6" class="node">
<title>parent_v2</title>
<ellipse fill="#fed9a6" stroke="#fed9a6" cx="254.2" cy="-167" rx="61.2" ry="18"/>
<text text-anchor="middle" x="254.2" y="-162.32" font-family="Times,serif" font-size="14.00">parent_v2</text>
</g>
<!-- treasury&#45;&gt;parent_v2 -->
<g id="edge4" class="edge">
<title>treasury&#45;&gt;parent_v2</title>
<path fill="none" stroke="black" d="M198.57,-57.67C208.62,-63.1 218.9,-70.24 226.2,-79.25 239.82,-96.05 246.88,-119.63 250.5,-137.97"/>
<polygon fill="black" stroke="black" points="247.18,-138.34 252.34,-147.6 254.08,-137.15 247.18,-138.34"/>
<text text-anchor="start" x="249.2" y="-117.7" font-family="Times,serif" font-size="14.00">4</text>
<text text-anchor="start" x="249.2" y="-100.45" font-family="Times,serif" font-size="14.00"> op::proxy_merge_wallet</text>
<text text-anchor="start" x="249.2" y="-83.2" font-family="Times,serif" font-size="14.00"> 0.07 TON</text>
</g>
<!-- parent_v1&#45;&gt;treasury -->
<g id="edge3" class="edge">
<title>parent_v1&#45;&gt;treasury</title>
<path fill="none" stroke="black" d="M61.66,-148.64C63.04,-129.51 67.99,-98.85 84.95,-79.25 92.42,-70.63 102.4,-64.05 112.78,-59.07"/>
<polygon fill="black" stroke="black" points="113.99,-61.93 121.79,-54.76 111.22,-55.5 113.99,-61.93"/>
<text text-anchor="start" x="85.2" y="-117.7" font-family="Times,serif" font-size="14.00">3</text>
<text text-anchor="start" x="85.2" y="-100.45" font-family="Times,serif" font-size="14.00"> op::migrate_wallet</text>
<text text-anchor="start" x="85.2" y="-83.2" font-family="Times,serif" font-size="14.00"> 0.08 TON</text>
</g>
<!-- parent_v2&#45;&gt;wallet_v2 -->
<g id="edge5" class="edge">
<title>parent_v2&#45;&gt;wallet_v2</title>
<path fill="none" stroke="black" d="M254.2,-185.41C254.2,-205.29 254.2,-238.08 254.2,-261.6"/>
<polygon fill="black" stroke="black" points="250.7,-261.31 254.2,-271.31 257.7,-261.31 250.7,-261.31"/>
<text text-anchor="start" x="254.2" y="-241.45" font-family="Times,serif" font-size="14.00">5</text>
<text text-anchor="start" x="254.2" y="-224.2" font-family="Times,serif" font-size="14.00"> op::merge_wallet</text>
<text text-anchor="start" x="254.2" y="-206.95" font-family="Times,serif" font-size="14.00"> 0.06 TON</text>
</g>
</g>
</svg>
