<?xml version="1.0" encoding="UTF-8" standalone="no"?>
<!DOCTYPE svg PUBLIC "-//W3C//DTD SVG 1.1//EN"
 "http://www.w3.org/Graphics/SVG/1.1/DTD/svg11.dtd">
<!-- Generated by graphviz version 8.0.5 (20230430.1635)
 -->
<!-- Pages: 1 -->
<svg width="422pt" height="193pt"
 viewBox="0.00 0.00 421.50 193.00" xmlns="http://www.w3.org/2000/svg" xmlns:xlink="http://www.w3.org/1999/xlink">
<g id="graph0" class="graph" transform="scale(1 1) rotate(0) translate(4 189)">
<polygon fill="white" stroke="none" points="-4,4 -4,-189 417.5,-189 417.5,4 -4,4"/>
<text text-anchor="middle" x="206.75" y="-7.95" font-family="Times,serif" font-size="14.00">the current governor upgrades the code of the treasury</text>
<!-- external -->
<g id="node1" class="node">
<title>external</title>
<ellipse fill="black" stroke="black" cx="74.4" cy="-167" rx="1.8" ry="1.8"/>
</g>
<!-- governor -->
<g id="node2" class="node">
<title>governor</title>
<ellipse fill="#b3cde3" stroke="#b3cde3" cx="168.4" cy="-167" rx="56.47" ry="18"/>
<text text-anchor="middle" x="168.4" y="-162.32" font-family="Times,serif" font-size="14.00">governor</text>
</g>
<!-- external&#45;&gt;governor -->
<g id="edge1" class="edge">
<title>external&#45;&gt;governor</title>
<path fill="none" stroke="black" d="M76.36,-167C80.28,-167 89.67,-167 101.03,-167"/>
<polygon fill="black" stroke="black" points="100.91,-170.5 110.91,-167 100.91,-163.5 100.91,-170.5"/>
<text text-anchor="middle" x="94.07" y="-173.95" font-family="Times,serif" font-size="14.00">1</text>
</g>
<!-- treasury -->
<g id="node3" class="node">
<title>treasury</title>
<ellipse fill="#decbe4" stroke="#decbe4" cx="168.4" cy="-43.25" rx="53.84" ry="18"/>
<text text-anchor="middle" x="168.4" y="-38.58" font-family="Times,serif" font-size="14.00">treasury</text>
</g>
<!-- governor&#45;&gt;treasury -->
<g id="edge2" class="edge">
<title>governor&#45;&gt;treasury</title>
<path fill="none" stroke="black" d="M124.78,-155.18C112.62,-149.94 100.8,-142.25 93.65,-131 81.31,-111.59 81.31,-98.66 93.65,-79.25 99.07,-70.73 107.18,-64.24 116.07,-59.32"/>
<polygon fill="black" stroke="black" points="117.46,-62.06 124.95,-54.57 114.42,-55.75 117.46,-62.06"/>
<text text-anchor="start" x="94.4" y="-117.7" font-family="Times,serif" font-size="14.00">2</text>
<text text-anchor="start" x="94.4" y="-100.45" font-family="Times,serif" font-size="14.00"> op::upgrade_code</text>
<text text-anchor="start" x="94.4" y="-83.2" font-family="Times,serif" font-size="14.00"> 0.10 TON</text>
</g>
<!-- treasury&#45;&gt;governor -->
<g id="edge3" class="edge">
<title>treasury&#45;&gt;governor</title>
<path fill="none" stroke="black" d="M201.32,-57.87C210.06,-63.19 218.44,-70.22 223.4,-79.25 234.47,-99.41 234.47,-110.84 223.4,-131 220.18,-136.86 215.52,-141.88 210.26,-146.13"/>
<polygon fill="black" stroke="black" points="208.78,-143.59 202.6,-152.2 212.8,-149.33 208.78,-143.59"/>
<text text-anchor="start" x="231.4" y="-117.7" font-family="Times,serif" font-size="14.00">3</text>
<text text-anchor="start" x="231.4" y="-100.45" font-family="Times,serif" font-size="14.00"> op::gas_excess</text>
<text text-anchor="start" x="231.4" y="-83.2" font-family="Times,serif" font-size="14.00"> 0.09 TON</text>
</g>
</g>
</svg>
