<?xml version="1.0" encoding="UTF-8" standalone="no"?>
<!DOCTYPE svg PUBLIC "-//W3C//DTD SVG 1.1//EN"
 "http://www.w3.org/Graphics/SVG/1.1/DTD/svg11.dtd">
<!-- Generated by graphviz version 8.0.5 (20230430.1635)
 -->
<!-- Pages: 1 -->
<svg width="365pt" height="193pt"
 viewBox="0.00 0.00 365.25 193.00" xmlns="http://www.w3.org/2000/svg" xmlns:xlink="http://www.w3.org/1999/xlink">
<g id="graph0" class="graph" transform="scale(1 1) rotate(0) translate(4 189)">
<polygon fill="white" stroke="none" points="-4,4 -4,-189 361.25,-189 361.25,4 -4,4"/>
<text text-anchor="middle" x="178.62" y="-7.95" font-family="Times,serif" font-size="14.00">staker withdraws surplus GRAM value of wallet</text>
<!-- staker -->
<g id="node1" class="node">
<title>staker</title>
<ellipse fill="#b3cde3" stroke="#b3cde3" cx="134.36" cy="-167" rx="42.79" ry="18"/>
<text text-anchor="middle" x="134.36" y="-162.32" font-family="Times,serif" font-size="14.00">staker</text>
</g>
<!-- wallet -->
<g id="node2" class="node">
<title>wallet</title>
<ellipse fill="#ccebc5" stroke="#ccebc5" cx="134.36" cy="-43.25" rx="41.74" ry="18"/>
<text text-anchor="middle" x="134.36" y="-38.58" font-family="Times,serif" font-size="14.00">wallet</text>
</g>
<!-- staker&#45;&gt;wallet -->
<g id="edge1" class="edge">
<title>staker&#45;&gt;wallet</title>
<path fill="none" stroke="black" d="M94.16,-160.6C76,-155.93 56.18,-147.23 45.11,-131 32.15,-112 32.15,-98.25 45.11,-79.25 54.25,-65.84 69.38,-57.57 84.6,-52.47"/>
<polygon fill="black" stroke="black" points="85.46,-55.57 94.08,-49.42 83.5,-48.85 85.46,-55.57"/>
<text text-anchor="start" x="45.36" y="-117.7" font-family="Times,serif" font-size="14.00">1</text>
<text text-anchor="start" x="45.36" y="-100.45" font-family="Times,serif" font-size="14.00"> op::withdraw_surplus</text>
<text text-anchor="start" x="45.36" y="-83.2" font-family="Times,serif" font-size="14.00"> 0.10 GRAM</text>
</g>
<!-- wallet&#45;&gt;staker -->
<g id="edge2" class="edge">
<title>wallet&#45;&gt;staker</title>
<path fill="none" stroke="black" d="M169.27,-53.42C182.3,-58.73 195.77,-66.89 203.36,-79.25 215.39,-98.85 215.39,-111.4 203.36,-131 197.83,-140.01 189.18,-146.78 179.86,-151.85"/>
<polygon fill="black" stroke="black" points="178.53,-149.08 170.99,-156.53 181.53,-155.4 178.53,-149.08"/>
<text text-anchor="start" x="212.36" y="-117.7" font-family="Times,serif" font-size="14.00">2</text>
<text text-anchor="start" x="212.36" y="-100.45" font-family="Times,serif" font-size="14.00"> op::gas_excess</text>
<text text-anchor="start" x="212.36" y="-83.2" font-family="Times,serif" font-size="14.00"> 0.14 GRAM</text>
</g>
</g>
</svg>
