<?xml version="1.0" encoding="UTF-8" standalone="no"?>
<!DOCTYPE svg PUBLIC "-//W3C//DTD SVG 1.1//EN"
 "http://www.w3.org/Graphics/SVG/1.1/DTD/svg11.dtd">
<!-- Generated by graphviz version 8.0.5 (20230430.1635)
 -->
<!-- Pages: 1 -->
<svg width="348pt" height="317pt"
 viewBox="0.00 0.00 348.32 316.75" xmlns="http://www.w3.org/2000/svg" xmlns:xlink="http://www.w3.org/1999/xlink">
<g id="graph0" class="graph" transform="scale(1 1) rotate(0) translate(4 312.75)">
<polygon fill="white" stroke="none" points="-4,4 -4,-312.75 344.32,-312.75 344.32,4 -4,4"/>
<text text-anchor="middle" x="170.16" y="-7.95" font-family="Times,serif" font-size="14.00">an staker upgrades their wallet</text>
<!-- external -->
<g id="node1" class="node">
<title>external</title>
<ellipse fill="black" stroke="black" cx="57.57" cy="-290.75" rx="1.8" ry="1.8"/>
</g>
<!-- staker -->
<g id="node2" class="node">
<title>staker</title>
<ellipse fill="#b3cde3" stroke="#b3cde3" cx="137.57" cy="-290.75" rx="42.79" ry="18"/>
<text text-anchor="middle" x="137.57" y="-286.07" font-family="Times,serif" font-size="14.00">staker</text>
</g>
<!-- external&#45;&gt;staker -->
<g id="edge3" class="edge">
<title>external&#45;&gt;staker</title>
<path fill="none" stroke="black" d="M59.55,-290.75C63.49,-290.75 72.88,-290.75 83.84,-290.75"/>
<polygon fill="black" stroke="black" points="83.7,-294.25 93.7,-290.75 83.7,-287.25 83.7,-294.25"/>
<text text-anchor="middle" x="77.08" y="-297.7" font-family="Times,serif" font-size="14.00">1</text>
</g>
<!-- wallet_v1 -->
<g id="node3" class="node">
<title>wallet_v1</title>
<ellipse fill="#ccebc5" stroke="#ccebc5" cx="58.57" cy="-167" rx="58.57" ry="18"/>
<text text-anchor="middle" x="58.57" y="-162.32" font-family="Times,serif" font-size="14.00">wallet_v1</text>
</g>
<!-- staker&#45;&gt;wallet_v1 -->
<g id="edge1" class="edge">
<title>staker&#45;&gt;wallet_v1</title>
<path fill="none" stroke="black" stroke-dasharray="1,5" d="M100.95,-281.04C76.94,-274.51 48.72,-264.96 41.57,-254.75 29.13,-236.98 35.62,-212.38 43.92,-193.92"/>
<polygon fill="black" stroke="black" points="51.26,-186.87 43.72,-194.32 44.97,-183.8 51.26,-186.87"/>
</g>
<!-- staker&#45;&gt;wallet_v1 -->
<g id="edge4" class="edge">
<title>staker&#45;&gt;wallet_v1</title>
<path fill="none" stroke="black" d="M99.24,-282.64C83.47,-277.62 66.73,-269.12 57.32,-254.75 46.05,-237.53 47.17,-213.98 50.66,-195.76"/>
<polygon fill="black" stroke="black" points="54.25,-196.74 53.05,-186.21 47.43,-195.19 54.25,-196.74"/>
<text text-anchor="start" x="57.57" y="-241.45" font-family="Times,serif" font-size="14.00">2</text>
<text text-anchor="start" x="57.57" y="-224.2" font-family="Times,serif" font-size="14.00"> op::upgrade_wallet</text>
<text text-anchor="start" x="57.57" y="-206.95" font-family="Times,serif" font-size="14.00"> 0.10 TON</text>
</g>
<!-- wallet_v2 -->
<g id="node4" class="node">
<title>wallet_v2</title>
<ellipse fill="#ccebc5" stroke="#ccebc5" cx="216.57" cy="-167" rx="58.57" ry="18"/>
<text text-anchor="middle" x="216.57" y="-162.32" font-family="Times,serif" font-size="14.00">wallet_v2</text>
</g>
<!-- staker&#45;&gt;wallet_v2 -->
<g id="edge2" class="edge">
<title>staker&#45;&gt;wallet_v2</title>
<path fill="none" stroke="black" stroke-dasharray="1,5" d="M170.37,-278.72C181.91,-273.25 193.91,-265.46 201.57,-254.75 213.89,-237.52 217.27,-213.53 217.78,-195.14"/>
<polygon fill="black" stroke="black" points="221.29,-185.82 217.78,-195.82 214.29,-185.81 221.29,-185.82"/>
</g>
<!-- treasury -->
<g id="node5" class="node">
<title>treasury</title>
<ellipse fill="#decbe4" stroke="#decbe4" cx="137.57" cy="-43.25" rx="53.84" ry="18"/>
<text text-anchor="middle" x="137.57" y="-38.58" font-family="Times,serif" font-size="14.00">treasury</text>
</g>
<!-- wallet_v1&#45;&gt;treasury -->
<g id="edge5" class="edge">
<title>wallet_v1&#45;&gt;treasury</title>
<path fill="none" stroke="black" d="M53.7,-148.79C49.47,-130.06 45.95,-100.03 59.57,-79.25 65.49,-70.22 74.35,-63.5 83.99,-58.5"/>
<polygon fill="black" stroke="black" points="85.15,-61.36 92.82,-54.05 82.26,-54.98 85.15,-61.36"/>
<text text-anchor="start" x="59.57" y="-117.7" font-family="Times,serif" font-size="14.00">3</text>
<text text-anchor="start" x="59.57" y="-100.45" font-family="Times,serif" font-size="14.00"> op::convert_wallet</text>
<text text-anchor="start" x="59.57" y="-83.2" font-family="Times,serif" font-size="14.00"> 0.14 TON</text>
</g>
<!-- wallet_v2&#45;&gt;staker -->
<g id="edge7" class="edge">
<title>wallet_v2&#45;&gt;staker</title>
<path fill="none" stroke="black" d="M223.56,-185.25C229.94,-204 236.43,-234.05 222.57,-254.75 214.44,-266.9 201.23,-274.84 187.63,-280.02"/>
<polygon fill="black" stroke="black" points="186.62,-277 178.23,-283.47 188.83,-283.64 186.62,-277"/>
<text text-anchor="start" x="230.57" y="-241.45" font-family="Times,serif" font-size="14.00">5</text>
<text text-anchor="start" x="230.57" y="-224.2" font-family="Times,serif" font-size="14.00"> op::gas_excess</text>
<text text-anchor="start" x="230.57" y="-206.95" font-family="Times,serif" font-size="14.00"> 0.07 TON</text>
</g>
<!-- treasury&#45;&gt;wallet_v2 -->
<g id="edge6" class="edge">
<title>treasury&#45;&gt;wallet_v2</title>
<path fill="none" stroke="black" d="M169.69,-58.17C178.9,-63.55 188.17,-70.55 194.57,-79.25 207.09,-96.27 212.52,-119.69 214.86,-137.9"/>
<polygon fill="black" stroke="black" points="211.47,-138.15 215.97,-147.74 218.43,-137.43 211.47,-138.15"/>
<text text-anchor="start" x="213.57" y="-117.7" font-family="Times,serif" font-size="14.00">4</text>
<text text-anchor="start" x="213.57" y="-100.45" font-family="Times,serif" font-size="14.00"> op::merge_wallet</text>
<text text-anchor="start" x="213.57" y="-83.2" font-family="Times,serif" font-size="14.00"> 0.13 TON</text>
</g>
</g>
</svg>
