<?xml version="1.0" encoding="UTF-8" standalone="no"?>
<!DOCTYPE svg PUBLIC "-//W3C//DTD SVG 1.1//EN"
 "http://www.w3.org/Graphics/SVG/1.1/DTD/svg11.dtd">
<!-- Generated by graphviz version 8.0.5 (20230430.1635)
 -->
<!-- Pages: 1 -->
<svg width="472pt" height="317pt"
 viewBox="0.00 0.00 471.75 316.75" xmlns="http://www.w3.org/2000/svg" xmlns:xlink="http://www.w3.org/1999/xlink">
<g id="graph0" class="graph" transform="scale(1 1) rotate(0) translate(4 312.75)">
<polygon fill="white" stroke="none" points="-4,4 -4,-312.75 467.75,-312.75 467.75,4 -4,4"/>
<text text-anchor="middle" x="231.88" y="-7.95" font-family="Times,serif" font-size="14.00">an staker upgrades their wallet when there is no new treasury</text>
<!-- external -->
<g id="node1" class="node">
<title>external</title>
<ellipse fill="black" stroke="black" cx="65.31" cy="-290.75" rx="1.8" ry="1.8"/>
</g>
<!-- staker -->
<g id="node2" class="node">
<title>staker</title>
<ellipse fill="#b3cde3" stroke="#b3cde3" cx="145.31" cy="-290.75" rx="42.79" ry="18"/>
<text text-anchor="middle" x="145.31" y="-286.07" font-family="Times,serif" font-size="14.00">staker</text>
</g>
<!-- external&#45;&gt;staker -->
<g id="edge2" class="edge">
<title>external&#45;&gt;staker</title>
<path fill="none" stroke="black" d="M67.29,-290.75C71.23,-290.75 80.62,-290.75 91.58,-290.75"/>
<polygon fill="black" stroke="black" points="91.44,-294.25 101.44,-290.75 91.44,-287.25 91.44,-294.25"/>
<text text-anchor="middle" x="84.82" y="-297.7" font-family="Times,serif" font-size="14.00">1</text>
</g>
<!-- wallet -->
<g id="node3" class="node">
<title>wallet</title>
<ellipse fill="#ccebc5" stroke="#ccebc5" cx="145.31" cy="-167" rx="41.74" ry="18"/>
<text text-anchor="middle" x="145.31" y="-162.32" font-family="Times,serif" font-size="14.00">wallet</text>
</g>
<!-- staker&#45;&gt;wallet -->
<g id="edge1" class="edge">
<title>staker&#45;&gt;wallet</title>
<path fill="none" stroke="black" stroke-dasharray="1,5" d="M134.04,-273.01C130.9,-267.44 127.91,-261.05 126.31,-254.75 120.65,-232.46 120.65,-225.29 126.31,-203 127.11,-199.85 128.26,-196.68 129.6,-193.6"/>
<polygon fill="black" stroke="black" points="136.94,-186.76 129.33,-194.13 130.68,-183.62 136.94,-186.76"/>
</g>
<!-- staker&#45;&gt;wallet -->
<g id="edge3" class="edge">
<title>staker&#45;&gt;wallet</title>
<path fill="none" stroke="black" d="M145.31,-272.31C145.31,-252.42 145.31,-219.62 145.31,-196.11"/>
<polygon fill="black" stroke="black" points="148.81,-196.41 145.31,-186.41 141.81,-196.41 148.81,-196.41"/>
<text text-anchor="start" x="145.31" y="-241.45" font-family="Times,serif" font-size="14.00">2</text>
<text text-anchor="start" x="145.31" y="-224.2" font-family="Times,serif" font-size="14.00"> op::upgrade_wallet</text>
<text text-anchor="start" x="145.31" y="-206.95" font-family="Times,serif" font-size="14.00"> 0.10 TON</text>
</g>
<!-- wallet&#45;&gt;staker -->
<g id="edge6" class="edge">
<title>wallet&#45;&gt;staker</title>
<path fill="none" stroke="black" d="M185.38,-172.46C222.56,-177.53 273.96,-187.21 286.31,-203 300.48,-221.12 300.48,-236.63 286.31,-254.75 275.22,-268.93 232.67,-278.18 197.18,-283.59"/>
<polygon fill="black" stroke="black" points="196.83,-280.24 187.44,-285.14 197.84,-287.17 196.83,-280.24"/>
<text text-anchor="start" x="296.31" y="-241.45" font-family="Times,serif" font-size="14.00">5</text>
<text text-anchor="start" x="296.31" y="-224.2" font-family="Times,serif" font-size="14.00"> op::gas_excess</text>
<text text-anchor="start" x="296.31" y="-206.95" font-family="Times,serif" font-size="14.00"> 0.07 TON</text>
</g>
<!-- treasury -->
<g id="node4" class="node">
<title>treasury</title>
<ellipse fill="#decbe4" stroke="#decbe4" cx="145.31" cy="-43.25" rx="53.84" ry="18"/>
<text text-anchor="middle" x="145.31" y="-38.58" font-family="Times,serif" font-size="14.00">treasury</text>
</g>
<!-- wallet&#45;&gt;treasury -->
<g id="edge4" class="edge">
<title>wallet&#45;&gt;treasury</title>
<path fill="none" stroke="black" d="M108.02,-158.62C92.69,-153.55 76.43,-145.08 67.31,-131 54.81,-111.69 54.81,-98.56 67.31,-79.25 73.18,-70.19 82.01,-63.45 91.65,-58.44"/>
<polygon fill="black" stroke="black" points="92.81,-61.31 100.48,-54 89.92,-54.93 92.81,-61.31"/>
<text text-anchor="start" x="67.31" y="-117.7" font-family="Times,serif" font-size="14.00">3</text>
<text text-anchor="start" x="67.31" y="-100.45" font-family="Times,serif" font-size="14.00"> op::convert_wallet</text>
<text text-anchor="start" x="67.31" y="-83.2" font-family="Times,serif" font-size="14.00"> 0.14 TON</text>
</g>
<!-- treasury&#45;&gt;wallet -->
<g id="edge5" class="edge">
<title>treasury&#45;&gt;wallet</title>
<path fill="none" stroke="black" d="M179.4,-57.63C188.46,-62.94 197.15,-70.03 202.31,-79.25 213.54,-99.32 213.54,-110.93 202.31,-131 198.25,-138.27 191.98,-144.21 185.08,-149"/>
<polygon fill="black" stroke="black" points="183.82,-146.28 177.1,-154.46 187.46,-152.26 183.82,-146.28"/>
<text text-anchor="start" x="210.31" y="-117.7" font-family="Times,serif" font-size="14.00">4</text>
<text text-anchor="start" x="210.31" y="-100.45" font-family="Times,serif" font-size="14.00"> op::merge_wallet</text>
<text text-anchor="start" x="210.31" y="-83.2" font-family="Times,serif" font-size="14.00"> 0.13 TON</text>
</g>
</g>
</svg>
