<?xml version="1.0" encoding="UTF-8" standalone="no"?>
<!DOCTYPE svg PUBLIC "-//W3C//DTD SVG 1.1//EN"
 "http://www.w3.org/Graphics/SVG/1.1/DTD/svg11.dtd">
<!-- Generated by graphviz version 8.0.5 (20230430.1635)
 -->
<!-- Pages: 1 -->
<svg width="509pt" height="317pt"
 viewBox="0.00 0.00 508.58 316.75" xmlns="http://www.w3.org/2000/svg" xmlns:xlink="http://www.w3.org/1999/xlink">
<g id="graph0" class="graph" transform="scale(1 1) rotate(0) translate(4 312.75)">
<polygon fill="white" stroke="none" points="-4,4 -4,-312.75 504.58,-312.75 504.58,4 -4,4"/>
<text text-anchor="middle" x="250.29" y="-7.95" font-family="Times,serif" font-size="14.00">an staker upgrades their wallet to new treasury</text>
<!-- external -->
<g id="node1" class="node">
<title>external</title>
<ellipse fill="black" stroke="black" cx="167.83" cy="-290.75" rx="1.8" ry="1.8"/>
</g>
<!-- staker -->
<g id="node2" class="node">
<title>staker</title>
<ellipse fill="#b3cde3" stroke="#b3cde3" cx="247.83" cy="-290.75" rx="42.79" ry="18"/>
<text text-anchor="middle" x="247.83" y="-286.07" font-family="Times,serif" font-size="14.00">staker</text>
</g>
<!-- external&#45;&gt;staker -->
<g id="edge3" class="edge">
<title>external&#45;&gt;staker</title>
<path fill="none" stroke="black" d="M169.81,-290.75C173.75,-290.75 183.14,-290.75 194.1,-290.75"/>
<polygon fill="black" stroke="black" points="193.96,-294.25 203.96,-290.75 193.96,-287.25 193.96,-294.25"/>
<text text-anchor="middle" x="187.34" y="-297.7" font-family="Times,serif" font-size="14.00">1</text>
</g>
<!-- wallet_old -->
<g id="node3" class="node">
<title>wallet_old</title>
<ellipse fill="#ccebc5" stroke="#ccebc5" cx="137.83" cy="-167" rx="61.73" ry="18"/>
<text text-anchor="middle" x="137.83" y="-162.32" font-family="Times,serif" font-size="14.00">wallet_old</text>
</g>
<!-- staker&#45;&gt;wallet_old -->
<g id="edge1" class="edge">
<title>staker&#45;&gt;wallet_old</title>
<path fill="none" stroke="black" stroke-dasharray="1,5" d="M211.69,-280.67C187.91,-273.96 159.77,-264.36 151.83,-254.75 138.28,-238.35 135.34,-214.09 135.47,-195.39"/>
<polygon fill="black" stroke="black" points="139.3,-186.01 135.45,-195.88 132.31,-185.76 139.3,-186.01"/>
</g>
<!-- staker&#45;&gt;wallet_old -->
<g id="edge4" class="edge">
<title>staker&#45;&gt;wallet_old</title>
<path fill="none" stroke="black" d="M212.83,-280.11C198.48,-274.66 182.67,-266.52 171.58,-254.75 167.28,-250.19 155.79,-219.26 147.4,-195.62"/>
<polygon fill="black" stroke="black" points="150.43,-194.67 143.81,-186.4 143.82,-196.99 150.43,-194.67"/>
<text text-anchor="start" x="171.83" y="-241.45" font-family="Times,serif" font-size="14.00">2</text>
<text text-anchor="start" x="171.83" y="-224.2" font-family="Times,serif" font-size="14.00"> op::upgrade_wallet</text>
<text text-anchor="start" x="171.83" y="-206.95" font-family="Times,serif" font-size="14.00"> 0.10 TON</text>
</g>
<!-- wallet_new -->
<g id="node4" class="node">
<title>wallet_new</title>
<ellipse fill="#ccebc5" stroke="#ccebc5" cx="358.83" cy="-167" rx="66.99" ry="18"/>
<text text-anchor="middle" x="358.83" y="-162.32" font-family="Times,serif" font-size="14.00">wallet_new</text>
</g>
<!-- staker&#45;&gt;wallet_new -->
<g id="edge2" class="edge">
<title>staker&#45;&gt;wallet_new</title>
<path fill="none" stroke="black" stroke-dasharray="1,5" d="M277.92,-277.74C289.52,-272.04 302.27,-264.35 311.83,-254.75 330.28,-236.22 327.37,-225.99 339.83,-203 341.46,-199.99 343.17,-196.84 344.87,-193.71"/>
<polygon fill="black" stroke="black" points="352.39,-187.2 344.54,-194.32 346.23,-183.86 352.39,-187.2"/>
</g>
<!-- treasury_old -->
<g id="node5" class="node">
<title>treasury_old</title>
<ellipse fill="#decbe4" stroke="#decbe4" cx="73.83" cy="-43.25" rx="73.83" ry="18"/>
<text text-anchor="middle" x="73.83" y="-38.58" font-family="Times,serif" font-size="14.00">treasury_old</text>
</g>
<!-- wallet_old&#45;&gt;treasury_old -->
<g id="edge5" class="edge">
<title>wallet_old&#45;&gt;treasury_old</title>
<path fill="none" stroke="black" d="M128.8,-148.81C118.12,-128.51 100.25,-94.5 87.79,-70.8"/>
<polygon fill="black" stroke="black" points="90.57,-69.57 82.82,-62.35 84.37,-72.83 90.57,-69.57"/>
<text text-anchor="start" x="119.83" y="-117.7" font-family="Times,serif" font-size="14.00">3</text>
<text text-anchor="start" x="119.83" y="-100.45" font-family="Times,serif" font-size="14.00"> op::convert_wallet</text>
<text text-anchor="start" x="119.83" y="-83.2" font-family="Times,serif" font-size="14.00"> 0.14 TON</text>
</g>
<!-- wallet_new&#45;&gt;staker -->
<g id="edge8" class="edge">
<title>wallet_new&#45;&gt;staker</title>
<path fill="none" stroke="black" d="M358.91,-185.45C358.07,-204.67 353.88,-235.4 336.83,-254.75 326.4,-266.59 311.44,-274.47 296.76,-279.69"/>
<polygon fill="black" stroke="black" points="296.16,-276.52 287.7,-282.89 298.29,-283.19 296.16,-276.52"/>
<text text-anchor="start" x="356.83" y="-241.45" font-family="Times,serif" font-size="14.00">6</text>
<text text-anchor="start" x="356.83" y="-224.2" font-family="Times,serif" font-size="14.00"> op::gas_excess</text>
<text text-anchor="start" x="356.83" y="-206.95" font-family="Times,serif" font-size="14.00"> 0.06 TON</text>
</g>
<!-- treasury_new -->
<g id="node6" class="node">
<title>treasury_new</title>
<ellipse fill="#decbe4" stroke="#decbe4" cx="380.83" cy="-43.25" rx="79.09" ry="18"/>
<text text-anchor="middle" x="380.83" y="-38.58" font-family="Times,serif" font-size="14.00">treasury_new</text>
</g>
<!-- treasury_old&#45;&gt;treasury_new -->
<g id="edge6" class="edge">
<title>treasury_old&#45;&gt;treasury_new</title>
<path fill="none" stroke="black" d="M148.15,-43.25C191.03,-43.25 245.26,-43.25 290.57,-43.25"/>
<polygon fill="black" stroke="black" points="290.29,-46.75 300.29,-43.25 290.29,-39.75 290.29,-46.75"/>
<text text-anchor="start" x="156.08" y="-84.7" font-family="Times,serif" font-size="14.00">4</text>
<text text-anchor="start" x="156.08" y="-67.45" font-family="Times,serif" font-size="14.00"> op::migrate_wallet</text>
<text text-anchor="start" x="156.08" y="-50.2" font-family="Times,serif" font-size="14.00"> 0.13 TON</text>
</g>
<!-- treasury_new&#45;&gt;wallet_new -->
<g id="edge7" class="edge">
<title>treasury_new&#45;&gt;wallet_new</title>
<path fill="none" stroke="black" d="M377.68,-61.66C374.09,-81.54 368.17,-114.33 363.92,-137.85"/>
<polygon fill="black" stroke="black" points="360.32,-137.09 361.98,-147.56 367.21,-138.34 360.32,-137.09"/>
<text text-anchor="start" x="373.83" y="-117.7" font-family="Times,serif" font-size="14.00">5</text>
<text text-anchor="start" x="373.83" y="-100.45" font-family="Times,serif" font-size="14.00"> op::merge_wallet</text>
<text text-anchor="start" x="373.83" y="-83.2" font-family="Times,serif" font-size="14.00"> 0.12 TON</text>
</g>
</g>
</svg>
