<?xml version="1.0" encoding="UTF-8" standalone="no"?>
<!DOCTYPE svg PUBLIC "-//W3C//DTD SVG 1.1//EN"
 "http://www.w3.org/Graphics/SVG/1.1/DTD/svg11.dtd">
<!-- Generated by graphviz version 8.0.5 (20230430.1635)
 -->
<!-- Pages: 1 -->
<svg width="400pt" height="193pt"
 viewBox="0.00 0.00 399.91 193.00" xmlns="http://www.w3.org/2000/svg" xmlns:xlink="http://www.w3.org/1999/xlink">
<g id="graph0" class="graph" transform="scale(1 1) rotate(0) translate(4 189)">
<polygon fill="white" stroke="none" points="-4,4 -4,-189 395.91,-189 395.91,4 -4,4"/>
<text text-anchor="middle" x="195.96" y="-7.95" font-family="Times,serif" font-size="14.00">A smart contract asks for an owner&#39;s jetton wallet</text>
<!-- smart_contract -->
<g id="node1" class="node">
<title>smart_contract</title>
<ellipse fill="#b3cde3" stroke="#b3cde3" cx="119.16" cy="-167" rx="86.98" ry="18"/>
<text text-anchor="middle" x="119.16" y="-162.32" font-family="Times,serif" font-size="14.00">smart_contract</text>
</g>
<!-- treasury -->
<g id="node2" class="node">
<title>treasury</title>
<ellipse fill="#decbe4" stroke="#decbe4" cx="119.16" cy="-43.25" rx="53.84" ry="18"/>
<text text-anchor="middle" x="119.16" y="-38.58" font-family="Times,serif" font-size="14.00">treasury</text>
</g>
<!-- smart_contract&#45;&gt;treasury -->
<g id="edge1" class="edge">
<title>smart_contract&#45;&gt;treasury</title>
<path fill="none" stroke="black" d="M46.76,-156.63C32.46,-151.35 19.12,-143.29 10.16,-131 -3.39,-112.42 -3.39,-97.83 10.16,-79.25 21.08,-64.28 38.49,-55.57 56.23,-50.55"/>
<polygon fill="black" stroke="black" points="56.78,-53.77 65.66,-48 55.12,-46.98 56.78,-53.77"/>
<text text-anchor="start" x="10.16" y="-117.7" font-family="Times,serif" font-size="14.00">1</text>
<text text-anchor="start" x="10.16" y="-100.45" font-family="Times,serif" font-size="14.00"> op::provide_wallet_address</text>
<text text-anchor="start" x="10.16" y="-83.2" font-family="Times,serif" font-size="14.00"> 0.10 TON</text>
</g>
<!-- treasury&#45;&gt;smart_contract -->
<g id="edge2" class="edge">
<title>treasury&#45;&gt;smart_contract</title>
<path fill="none" stroke="black" d="M166.68,-51.81C182.56,-56.85 198.63,-65.25 208.16,-79.25 221.11,-98.26 221.11,-111.99 208.16,-131 203.18,-138.32 196.41,-144.1 188.82,-148.68"/>
<polygon fill="black" stroke="black" points="187.46,-145.96 180.21,-153.69 190.69,-152.17 187.46,-145.96"/>
<text text-anchor="start" x="217.16" y="-117.7" font-family="Times,serif" font-size="14.00">2</text>
<text text-anchor="start" x="217.16" y="-100.45" font-family="Times,serif" font-size="14.00"> op::take_wallet_address</text>
<text text-anchor="start" x="217.16" y="-83.2" font-family="Times,serif" font-size="14.00"> 0.09 TON</text>
</g>
</g>
</svg>
