<?xml version="1.0" encoding="UTF-8" standalone="no"?>
<!DOCTYPE svg PUBLIC "-//W3C//DTD SVG 1.1//EN"
 "http://www.w3.org/Graphics/SVG/1.1/DTD/svg11.dtd">
<!-- Generated by graphviz version 8.0.5 (20230430.1635)
 -->
<!-- Pages: 1 -->
<svg width="388pt" height="193pt"
 viewBox="0.00 0.00 387.86 193.00" xmlns="http://www.w3.org/2000/svg" xmlns:xlink="http://www.w3.org/1999/xlink">
<g id="graph0" class="graph" transform="scale(1 1) rotate(0) translate(4 189)">
<polygon fill="white" stroke="none" points="-4,4 -4,-189 383.86,-189 383.86,4 -4,4"/>
<text text-anchor="middle" x="189.93" y="-7.95" font-family="Times,serif" font-size="14.00">A dex asks for the current quote</text>
<!-- dex -->
<g id="node1" class="node">
<title>dex</title>
<ellipse fill="#b3cde3" stroke="#b3cde3" cx="116.11" cy="-167" rx="29.11" ry="18"/>
<text text-anchor="middle" x="116.11" y="-162.32" font-family="Times,serif" font-size="14.00">dex</text>
</g>
<!-- treasury -->
<g id="node2" class="node">
<title>treasury</title>
<ellipse fill="#decbe4" stroke="#decbe4" cx="116.11" cy="-43.25" rx="53.84" ry="18"/>
<text text-anchor="middle" x="116.11" y="-38.58" font-family="Times,serif" font-size="14.00">treasury</text>
</g>
<!-- dex&#45;&gt;treasury -->
<g id="edge1" class="edge">
<title>dex&#45;&gt;treasury</title>
<path fill="none" stroke="black" d="M86.87,-165.23C61.95,-162.84 27.48,-155.03 10.11,-131 -3.37,-112.36 -3.37,-97.89 10.11,-79.25 20.45,-64.94 36.85,-56.39 53.69,-51.3"/>
<polygon fill="black" stroke="black" points="54.4,-54.47 63.19,-48.56 52.63,-47.7 54.4,-54.47"/>
<text text-anchor="start" x="10.11" y="-117.7" font-family="Times,serif" font-size="14.00">1</text>
<text text-anchor="start" x="10.11" y="-100.45" font-family="Times,serif" font-size="14.00"> op::provide_current_quote</text>
<text text-anchor="start" x="10.11" y="-83.2" font-family="Times,serif" font-size="14.00"> 0.10 TON</text>
</g>
<!-- treasury&#45;&gt;dex -->
<g id="edge2" class="edge">
<title>treasury&#45;&gt;dex</title>
<path fill="none" stroke="black" d="M162.97,-52.5C178.02,-57.61 193.11,-65.87 202.11,-79.25 214.94,-98.33 214.94,-111.92 202.11,-131 191.53,-146.73 172.52,-155.39 155.06,-160.16"/>
<polygon fill="black" stroke="black" points="154.41,-156.96 145.48,-162.66 156.02,-163.77 154.41,-156.96"/>
<text text-anchor="start" x="211.11" y="-117.7" font-family="Times,serif" font-size="14.00">2</text>
<text text-anchor="start" x="211.11" y="-100.45" font-family="Times,serif" font-size="14.00"> op::take_current_quote</text>
<text text-anchor="start" x="211.11" y="-83.2" font-family="Times,serif" font-size="14.00"> 0.09 TON</text>
</g>
</g>
</svg>
