<?xml version="1.0" encoding="UTF-8" standalone="no"?>
<!DOCTYPE svg PUBLIC "-//W3C//DTD SVG 1.1//EN"
 "http://www.w3.org/Graphics/SVG/1.1/DTD/svg11.dtd">
<!-- Generated by graphviz version 8.0.5 (20230430.1635)
 -->
<!-- Pages: 1 -->
<svg width="278pt" height="317pt"
 viewBox="0.00 0.00 277.50 316.75" xmlns="http://www.w3.org/2000/svg" xmlns:xlink="http://www.w3.org/1999/xlink">
<g id="graph0" class="graph" transform="scale(1 1) rotate(0) translate(4 312.75)">
<polygon fill="white" stroke="none" points="-4,4 -4,-312.75 273.5,-312.75 273.5,4 -4,4"/>
<text text-anchor="middle" x="134.75" y="-7.95" font-family="Times,serif" font-size="14.00">the current governor adds a library</text>
<!-- governor -->
<g id="node1" class="node">
<title>governor</title>
<ellipse fill="#b3cde3" stroke="#b3cde3" cx="83.48" cy="-290.75" rx="56.47" ry="18"/>
<text text-anchor="middle" x="83.48" y="-286.07" font-family="Times,serif" font-size="14.00">governor</text>
</g>
<!-- treasury -->
<g id="node2" class="node">
<title>treasury</title>
<ellipse fill="#decbe4" stroke="#decbe4" cx="83.48" cy="-167" rx="53.84" ry="18"/>
<text text-anchor="middle" x="83.48" y="-162.32" font-family="Times,serif" font-size="14.00">treasury</text>
</g>
<!-- governor&#45;&gt;treasury -->
<g id="edge1" class="edge">
<title>governor&#45;&gt;treasury</title>
<path fill="none" stroke="black" d="M83.48,-272.31C83.48,-252.42 83.48,-219.62 83.48,-196.11"/>
<polygon fill="black" stroke="black" points="86.98,-196.41 83.48,-186.41 79.98,-196.41 86.98,-196.41"/>
<text text-anchor="start" x="83.48" y="-241.45" font-family="Times,serif" font-size="14.00">1</text>
<text text-anchor="start" x="83.48" y="-224.2" font-family="Times,serif" font-size="14.00"> op::proxy_add_library</text>
<text text-anchor="start" x="83.48" y="-206.95" font-family="Times,serif" font-size="14.00"> 0.10 TON</text>
</g>
<!-- librarian -->
<g id="node3" class="node">
<title>librarian</title>
<ellipse fill="#ffffcc" stroke="#ffffcc" cx="83.48" cy="-43.25" rx="54.36" ry="18"/>
<text text-anchor="middle" x="83.48" y="-38.58" font-family="Times,serif" font-size="14.00">librarian</text>
</g>
<!-- treasury&#45;&gt;librarian -->
<g id="edge2" class="edge">
<title>treasury&#45;&gt;librarian</title>
<path fill="none" stroke="black" d="M83.48,-148.56C83.48,-128.67 83.48,-95.87 83.48,-72.36"/>
<polygon fill="black" stroke="black" points="86.98,-72.66 83.48,-62.66 79.98,-72.66 86.98,-72.66"/>
<text text-anchor="start" x="83.48" y="-117.7" font-family="Times,serif" font-size="14.00">2</text>
<text text-anchor="start" x="83.48" y="-100.45" font-family="Times,serif" font-size="14.00"> op::add_library</text>
<text text-anchor="start" x="83.48" y="-83.2" font-family="Times,serif" font-size="14.00"> 0.09 TON</text>
</g>
</g>
</svg>
