<?xml version="1.0" encoding="UTF-8" standalone="no"?>
<!DOCTYPE svg PUBLIC "-//W3C//DTD SVG 1.1//EN"
 "http://www.w3.org/Graphics/SVG/1.1/DTD/svg11.dtd">
<!-- Generated by graphviz version 8.0.5 (20230430.1635)
 -->
<!-- Pages: 1 -->
<svg width="296pt" height="317pt"
 viewBox="0.00 0.00 295.50 316.75" xmlns="http://www.w3.org/2000/svg" xmlns:xlink="http://www.w3.org/1999/xlink">
<g id="graph0" class="graph" transform="scale(1 1) rotate(0) translate(4 312.75)">
<polygon fill="white" stroke="none" points="-4,4 -4,-312.75 291.5,-312.75 291.5,4 -4,4"/>
<text text-anchor="middle" x="143.75" y="-7.95" font-family="Times,serif" font-size="14.00">the current governor sets up a library</text>
<!-- governor -->
<g id="node1" class="node">
<title>governor</title>
<ellipse fill="#b3cde3" stroke="#b3cde3" cx="94.73" cy="-290.75" rx="56.47" ry="18"/>
<text text-anchor="middle" x="94.73" y="-286.07" font-family="Times,serif" font-size="14.00">governor</text>
</g>
<!-- treasury -->
<g id="node2" class="node">
<title>treasury</title>
<ellipse fill="#decbe4" stroke="#decbe4" cx="94.73" cy="-167" rx="53.84" ry="18"/>
<text text-anchor="middle" x="94.73" y="-162.32" font-family="Times,serif" font-size="14.00">treasury</text>
</g>
<!-- governor&#45;&gt;treasury -->
<g id="edge1" class="edge">
<title>governor&#45;&gt;treasury</title>
<path fill="none" stroke="black" d="M94.73,-272.31C94.73,-252.42 94.73,-219.62 94.73,-196.11"/>
<polygon fill="black" stroke="black" points="98.23,-196.41 94.73,-186.41 91.23,-196.41 98.23,-196.41"/>
<text text-anchor="start" x="94.73" y="-241.45" font-family="Times,serif" font-size="14.00">1</text>
<text text-anchor="start" x="94.73" y="-224.2" font-family="Times,serif" font-size="14.00"> op::proxy_set_library</text>
<text text-anchor="start" x="94.73" y="-206.95" font-family="Times,serif" font-size="14.00"> 0.10 TON</text>
</g>
<!-- librarian -->
<g id="node3" class="node">
<title>librarian</title>
<ellipse fill="#ffffcc" stroke="#ffffcc" cx="94.73" cy="-43.25" rx="54.36" ry="18"/>
<text text-anchor="middle" x="94.73" y="-38.58" font-family="Times,serif" font-size="14.00">librarian</text>
</g>
<!-- treasury&#45;&gt;librarian -->
<g id="edge2" class="edge">
<title>treasury&#45;&gt;librarian</title>
<path fill="none" stroke="black" d="M94.73,-148.56C94.73,-128.67 94.73,-95.87 94.73,-72.36"/>
<polygon fill="black" stroke="black" points="98.23,-72.66 94.73,-62.66 91.23,-72.66 98.23,-72.66"/>
<text text-anchor="start" x="94.73" y="-117.7" font-family="Times,serif" font-size="14.00">2</text>
<text text-anchor="start" x="94.73" y="-100.45" font-family="Times,serif" font-size="14.00"> op::set_library</text>
<text text-anchor="start" x="94.73" y="-83.2" font-family="Times,serif" font-size="14.00"> 0.09 TON</text>
</g>
</g>
</svg>
