<?xml version="1.0" encoding="UTF-8" standalone="no"?>
<!DOCTYPE svg PUBLIC "-//W3C//DTD SVG 1.1//EN"
 "http://www.w3.org/Graphics/SVG/1.1/DTD/svg11.dtd">
<!-- Generated by graphviz version 8.0.5 (20230430.1635)
 -->
<!-- Pages: 1 -->
<svg width="400pt" height="193pt"
 viewBox="0.00 0.00 399.91 193.00" xmlns="http://www.w3.org/2000/svg" xmlns:xlink="http://www.w3.org/1999/xlink">
<g id="graph0" class="graph" transform="scale(1 1) rotate(0) translate(4 189)">
<polygon fill="white" stroke="none" points="-4,4 -4,-189 395.91,-189 395.91,4 -4,4"/>
<text text-anchor="middle" x="195.96" y="-7.95" font-family="Times,serif" font-size="14.00">A smart contract asks for an owner&#39;s jetton wallet</text>
<!-- contract -->
<g id="node1" class="node">
<title>contract</title>
<ellipse fill="#b3cde3" stroke="#b3cde3" cx="119.16" cy="-167" rx="52.79" ry="18"/>
<text text-anchor="middle" x="119.16" y="-162.32" font-family="Times,serif" font-size="14.00">contract</text>
</g>
<!-- parent -->
<g id="node2" class="node">
<title>parent</title>
<ellipse fill="#fed9a6" stroke="#fed9a6" cx="119.16" cy="-43.25" rx="44.37" ry="18"/>
<text text-anchor="middle" x="119.16" y="-38.58" font-family="Times,serif" font-size="14.00">parent</text>
</g>
<!-- contract&#45;&gt;parent -->
<g id="edge1" class="edge">
<title>contract&#45;&gt;parent</title>
<path fill="none" stroke="black" d="M67.8,-162.48C46.39,-158.17 23.45,-149.23 10.16,-131 -3.39,-112.42 -3.39,-97.83 10.16,-79.25 22.78,-61.95 44.08,-53.01 64.52,-48.46"/>
<polygon fill="black" stroke="black" points="64.9,-51.76 74.08,-46.46 63.6,-44.88 64.9,-51.76"/>
<text text-anchor="start" x="10.16" y="-117.7" font-family="Times,serif" font-size="14.00">1</text>
<text text-anchor="start" x="10.16" y="-100.45" font-family="Times,serif" font-size="14.00"> op::provide_wallet_address</text>
<text text-anchor="start" x="10.16" y="-83.2" font-family="Times,serif" font-size="14.00"> 0.10 TON</text>
</g>
<!-- parent&#45;&gt;contract -->
<g id="edge2" class="edge">
<title>parent&#45;&gt;contract</title>
<path fill="none" stroke="black" d="M160.64,-50.05C178.36,-54.8 197.41,-63.47 208.16,-79.25 221.11,-98.26 221.11,-111.99 208.16,-131 200.57,-142.15 188.82,-149.75 176.33,-154.93"/>
<polygon fill="black" stroke="black" points="175.43,-151.89 167.22,-158.58 177.81,-158.48 175.43,-151.89"/>
<text text-anchor="start" x="217.16" y="-117.7" font-family="Times,serif" font-size="14.00">2</text>
<text text-anchor="start" x="217.16" y="-100.45" font-family="Times,serif" font-size="14.00"> op::take_wallet_address</text>
<text text-anchor="start" x="217.16" y="-83.2" font-family="Times,serif" font-size="14.00"> 0.09 TON</text>
</g>
</g>
</svg>
